<svg width="94" height="46" viewBox="0 0 94 46" fill="none" xmlns="http://www.w3.org/2000/svg">
<path d="M3.05375 39.4413C4.19443 39.4413 4.88158 39.9688 4.88158 40.8583C4.88158 41.5216 4.50077 41.9975 3.8376 42.1362C4.65507 42.2578 5.13232 42.7917 5.13232 43.5687C5.13232 44.5311 4.37178 45.1047 3.09326 45.1047H0.666016V39.4413H3.05375ZM1.31351 41.8851H3.0216C3.78107 41.8851 4.22578 41.5528 4.22578 40.9622C4.22578 40.3888 3.78107 40.0656 3.0216 40.0656H1.31351V41.8851ZM1.31351 44.4901H3.0216C3.94301 44.4901 4.47719 44.1266 4.47719 43.4796C4.47719 42.8644 3.94301 42.5002 3.0216 42.5002H1.31351V44.4901ZM10.1897 43.6733L9.55858 45.1047H8.8705L11.4112 39.4413H12.0823L14.6149 45.1047H13.9109L13.2797 43.6733H10.1897ZM11.727 40.1781L10.4645 43.0497H13.0052L11.727 40.1781ZM22.7858 45.1047L19.3888 40.5599V45.1047H18.7417V39.4413H19.4128L22.8112 43.998V39.4413H23.4495V45.1047H22.7858ZM28.75 44.4901H32.5443L32.5359 45.1047H27.9012V44.5871L31.6535 40.0656H28.0062V39.4413H32.5033V39.9603L28.75 44.4901ZM37.4807 43.6733L36.8478 45.1047H36.1618L38.7005 39.4413H39.373L41.9052 45.1047H41.2024L40.5693 43.6733H37.4807ZM39.0166 40.1781L37.7543 43.0497H40.2958L39.0166 40.1781ZM46.0321 45.1047V39.4413H46.679V45.1047H46.0321ZM56.274 40.3492L55.4402 41.3349C55.0685 40.8831 54.5204 40.5995 54.0175 40.5995C53.1194 40.5995 52.4401 41.3116 52.4401 42.2414C52.4401 43.1875 53.1194 43.9081 54.0175 43.9081C54.4943 43.9081 55.0444 43.6492 55.4402 43.2434L56.2818 44.135C55.6757 44.7567 54.7777 45.1703 53.944 45.1703C52.2383 45.1703 50.967 43.9159 50.967 42.2578C50.967 40.6228 52.2694 39.3931 53.9926 39.3931C54.8344 39.3931 55.7089 39.7657 56.274 40.3492ZM64.0178 43.8997V45.1047H60.174V39.4413H61.615V43.8997H64.0178ZM73.6949 42.2649C73.6949 43.9159 72.3845 45.1703 70.6273 45.1703C68.88 45.1703 67.5712 43.9243 67.5712 42.2649C67.5712 40.6152 68.88 39.3932 70.6273 39.3932C72.3845 39.3931 73.6949 40.6228 73.6949 42.2649ZM69.0418 42.274C69.0418 43.2271 69.7795 43.9655 70.6434 43.9655C71.5174 43.9655 72.2134 43.2271 72.2134 42.274C72.2134 41.3187 71.5175 40.5995 70.6434 40.5995C69.7702 40.5995 69.0418 41.3187 69.0418 42.274ZM82.7883 42.7258C82.7883 44.2229 81.7928 45.1703 80.2067 45.1703C78.6143 45.1703 77.5953 44.2229 77.5953 42.7258V39.4413H79.0336V42.7258C79.0336 43.4952 79.5278 43.9655 80.2167 43.9655C80.8955 43.9655 81.3557 43.4952 81.3557 42.7258V39.4413H82.7883V42.7258ZM89.4963 39.4413C91.2761 39.4413 92.5057 40.5904 92.5057 42.274C92.5057 43.9493 91.2599 45.1047 89.439 45.1047H87.0601V39.4413H89.4963ZM88.5007 43.9555H89.5289C90.41 43.9555 91.0413 43.2767 91.0413 42.2811C91.0413 41.2792 90.3781 40.5904 89.4632 40.5904H88.5007V43.9555Z" fill="white"/>
<path d="M60.6984 4.74805C78.6385 4.74805 78.1888 30.5733 60.6984 30.5733H15.9492C41.816 30.5732 42.6158 4.74805 60.6984 4.74805Z" fill="url(#paint0_linear)"/>
<path d="M15.8098 8.56885C0.523304 8.56885 0.906793 30.5734 15.8098 30.5734H53.9379C31.898 30.5734 31.2169 8.56885 15.8098 8.56885Z" fill="url(#paint1_linear)"/>
<path d="M26.3766 0.263672C5.32079 0.263672 5.84907 30.5733 26.3766 30.5733H78.8959C48.5371 30.5733 47.5987 0.263672 26.3766 0.263672Z" fill="url(#paint2_linear)"/>
<path d="M79.0114 11.8247C92.0366 11.8247 91.7107 30.5736 79.0114 30.5736H46.5254C65.3047 30.5735 65.8843 11.8247 79.0114 11.8247Z" fill="url(#paint3_linear)"/>
<path d="M67.5889 28.9085C64.9578 28.0628 62.6192 26.9335 60.4987 25.6107C54.5929 21.9257 50.3787 16.7427 46.2494 12.0225C42.9264 15.5171 39.8211 19.6967 35.8199 23.2035C32.2067 26.37 27.862 28.9872 21.9673 30.0551C20.1215 30.3897 18.1242 30.5732 15.9492 30.5732H78.8965C74.5796 30.5732 70.8584 29.96 67.5889 28.9085Z" fill="url(#paint4_linear)"/>
<path d="M50.0752 30.3295C43.7074 29.4952 39.3722 26.611 35.8196 23.2037C29.1517 16.808 25.2377 8.56885 15.8097 8.56885C14.4125 8.56885 13.1465 8.75356 12.0103 9.08789C8.69878 16.9582 12.1133 27.6045 21.967 30.0555C23.3168 30.3914 24.7863 30.5736 26.3768 30.5736H53.9378C52.5708 30.5734 51.2866 30.4888 50.0752 30.3295Z" fill="url(#paint5_linear)"/>
<path d="M73.3029 13.2397C68.4716 15.8347 65.4409 21.4671 60.4983 25.6109C57.125 28.4393 52.8609 30.5736 46.5254 30.5736H60.6977C63.4044 30.5736 65.7028 29.9545 67.5883 28.9088C73.2106 25.7908 75.1597 18.8767 73.3029 13.2397Z" fill="url(#paint6_linear)"/>
<path d="M35.8194 23.2036C32.2062 26.3701 27.8615 28.9873 21.9668 30.0552C23.3166 30.3912 24.7861 30.5733 26.3766 30.5733H46.5255C47.7872 30.5733 48.9657 30.4878 50.0726 30.3294C43.7062 29.4947 39.3721 26.6105 35.8194 23.2036Z" fill="white"/>
<path d="M60.499 25.6108C57.7979 27.876 54.5241 29.6947 50.0732 30.3296H50.0757C51.2872 30.4888 52.5713 30.5736 53.9384 30.5736H60.6985C63.4052 30.5736 65.7035 29.9545 67.5891 28.9087C64.958 28.0629 62.6194 26.9337 60.4989 25.6108H60.499Z" fill="white"/>
<path d="M50.0726 30.3296C48.9656 30.488 47.7872 30.5735 46.5254 30.5735H53.9376C52.5705 30.5735 51.2864 30.4887 50.075 30.3296H50.0726Z" fill="white"/>
<defs>
<linearGradient id="paint0_linear" x1="35.6957" y1="41.974" x2="59.0997" y2="1.43729" gradientUnits="userSpaceOnUse">
<stop offset="0.403" stop-color="white"/>
<stop offset="0.994" stop-color="white"/>
</linearGradient>
<linearGradient id="paint1_linear" x1="37.1131" y1="40.2875" x2="17.1716" y2="5.74807" gradientUnits="userSpaceOnUse">
<stop offset="0.403" stop-color="white"/>
<stop offset="1" stop-color="white"/>
</linearGradient>
<linearGradient id="paint2_linear" x1="55.7205" y1="43.9538" x2="28.2528" y2="-3.62185" gradientUnits="userSpaceOnUse">
<stop offset="0.403" stop-color="white"/>
<stop offset="1" stop-color="white"/>
</linearGradient>
<linearGradient id="paint3_linear" x1="60.8609" y1="38.8503" x2="77.8516" y2="9.42144" gradientUnits="userSpaceOnUse">
<stop offset="0.403" stop-color="white"/>
<stop offset="0.994" stop-color="white"/>
</linearGradient>
<linearGradient id="paint4_linear" x1="55.2912" y1="44.202" x2="39.0966" y2="16.1522" gradientUnits="userSpaceOnUse">
<stop offset="0.006" stop-color="white"/>
<stop offset="1" stop-color="white"/>
</linearGradient>
<linearGradient id="paint5_linear" x1="20.3366" y1="4.28069" x2="40.1221" y2="38.5501" gradientUnits="userSpaceOnUse">
<stop stop-color="white"/>
<stop offset="0.727" stop-color="white"/>
</linearGradient>
<linearGradient id="paint6_linear" x1="54.8054" y1="35.354" x2="69.0056" y2="10.7587" gradientUnits="userSpaceOnUse">
<stop offset="0.192" stop-color="white"/>
<stop offset="1" stop-color="white"/>
</linearGradient>
</defs>
</svg>
