<svg width="39" height="39" viewBox="0 0 39 39" fill="none" xmlns="http://www.w3.org/2000/svg">
<g clip-path="url(#clip0)">
<path d="M30.8477 15.7901C30.5322 15.7901 30.2764 15.5343 30.2764 15.2188V12.2681C30.2764 11.9526 30.5322 11.6968 30.8477 11.6968C31.1632 11.6968 31.419 11.9526 31.419 12.2681V15.2188C31.419 15.5343 31.1632 15.7901 30.8477 15.7901Z" fill="#F3EAE6"/>
<path d="M8.95406 3.74781C8.63855 3.74781 8.38277 3.49202 8.38277 3.17652V0.571289C8.38277 0.255785 8.63855 0 8.95406 0C9.26956 0 9.52534 0.255785 9.52534 0.571289V3.17652C9.52534 3.49202 9.26956 3.74781 8.95406 3.74781Z" fill="#F3EAE6"/>
<path d="M11.9439 3.7479C11.6284 3.7479 11.3726 3.49211 11.3726 3.17661V1.40576C11.3726 1.09026 11.6284 0.834473 11.9439 0.834473C12.2594 0.834473 12.5152 1.09026 12.5152 1.40576V3.17668C12.5152 3.49211 12.2594 3.7479 11.9439 3.7479Z" fill="#F3EAE6"/>
<path d="M33.8375 15.7897C33.522 15.7897 33.2662 15.5339 33.2662 15.2184V13.2129C33.2662 12.8974 33.522 12.6416 33.8375 12.6416C34.153 12.6416 34.4088 12.8974 34.4088 13.2129V15.2184C34.4088 15.5339 34.153 15.7897 33.8375 15.7897Z" fill="#F3EAE6"/>
<path fill-rule="evenodd" clip-rule="evenodd" d="M36.0104 38.4285V15.7288C36.0104 15.4485 35.7801 15.2183 35.4997 15.2183H33.8375H30.8477H28.3098L26.3434 27.0602L28.3098 38.4285H36.0104Z" fill="#B8ACAC"/>
<path d="M32.1601 20.3047H28.3098C27.9943 20.3047 27.7385 20.0489 27.7385 19.7334C27.7385 19.4179 27.9943 19.1621 28.3098 19.1621H32.1601C32.4756 19.1621 32.7314 19.4179 32.7314 19.7334C32.7314 20.0489 32.4756 20.3047 32.1601 20.3047Z" fill="#F3EAE6"/>
<path d="M32.1601 24.396H28.3098C27.9943 24.396 27.7385 24.1402 27.7385 23.8247C27.7385 23.5092 27.9943 23.2534 28.3098 23.2534H32.1601C32.4756 23.2534 32.7314 23.5092 32.7314 23.8247C32.7314 24.1402 32.4756 24.396 32.1601 24.396Z" fill="#F3EAE6"/>
<path d="M32.1601 28.4878H28.3098C27.9943 28.4878 27.7385 28.232 27.7385 27.9165C27.7385 27.601 27.9943 27.3452 28.3098 27.3452H32.1601C32.4756 27.3452 32.7314 27.601 32.7314 27.9165C32.7314 28.232 32.4756 28.4878 32.1601 28.4878Z" fill="#F3EAE6"/>
<path d="M32.1601 32.5815H28.3098C27.9943 32.5815 27.7385 32.3258 27.7385 32.0103C27.7385 31.6948 27.9943 31.439 28.3098 31.439H32.1601C32.4756 31.439 32.7314 31.6948 32.7314 32.0103C32.7314 32.3258 32.4756 32.5815 32.1601 32.5815Z" fill="#F3EAE6"/>
<path fill-rule="evenodd" clip-rule="evenodd" d="M33.8093 15.7288V38.4285H36.0103V15.7288C36.0103 15.4485 35.78 15.2183 35.4997 15.2183H33.8375H33.2986C33.579 15.2182 33.8093 15.4485 33.8093 15.7288Z" fill="#9D9696"/>
<path fill-rule="evenodd" clip-rule="evenodd" d="M28.3098 38.4288V32.0103V27.9167V23.8252V19.7337V15.2185V6.20128L16.8849 4.68896L6.89421 6.20128V23.4971V32.2688L5.08208 35.5454L6.89421 38.4288C12.5175 38.4288 23.4513 38.4288 28.3098 38.4288Z" fill="#F3EAE6"/>
<path fill-rule="evenodd" clip-rule="evenodd" d="M17.602 38.4285V29.6676L15.2032 28.4878L13.215 29.6676V38.4285H17.602Z" fill="#6BD9E7"/>
<path fill-rule="evenodd" clip-rule="evenodd" d="M21.9869 38.4285V29.6676L19.9074 28.4878L17.602 29.6676V38.4285H21.9869Z" fill="#6BD9E7"/>
<path fill-rule="evenodd" clip-rule="evenodd" d="M6.89423 6.2009H28.3098H28.9442C29.1224 6.2009 29.268 6.05534 29.268 5.87717V3.5C29.268 3.32183 29.1224 3.17627 28.9442 3.17627H11.9439H8.95407H6.25759C6.08155 3.17627 5.93599 3.32183 5.93599 3.5V5.87709C5.93599 6.05526 6.08155 6.20082 6.25759 6.20082H6.89423V6.2009Z" fill="#B8ACAC"/>
<path fill-rule="evenodd" clip-rule="evenodd" d="M10.9901 14.2297H13.4301C13.554 14.2297 13.6561 14.1276 13.6561 14.0037V10.0209C13.6561 9.89707 13.554 9.79492 13.4301 9.79492H10.9901C10.8641 9.79492 10.7641 9.89707 10.7641 10.0209V14.0037C10.7641 14.1277 10.864 14.2297 10.9901 14.2297Z" fill="#6BD9E7"/>
<path fill-rule="evenodd" clip-rule="evenodd" d="M18.9861 14.2297C19.11 14.2297 19.2121 14.1276 19.2121 14.0037V10.0209C19.2121 9.89707 19.11 9.79492 18.9861 9.79492H16.546C16.4222 9.79492 16.32 9.89707 16.32 10.0209V14.0037C16.32 14.1276 16.4222 14.2297 16.546 14.2297H18.9861Z" fill="#6BD9E7"/>
<path fill-rule="evenodd" clip-rule="evenodd" d="M22.1019 14.2297H24.542C24.6659 14.2297 24.768 14.1276 24.768 14.0037V10.0209C24.768 9.89707 24.6659 9.79492 24.542 9.79492H22.1019C21.9781 9.79492 21.8759 9.89707 21.8759 10.0209V14.0037C21.876 14.1277 21.9781 14.2297 22.1019 14.2297Z" fill="#6BD9E7"/>
<path fill-rule="evenodd" clip-rule="evenodd" d="M22.1019 22.093H24.542C24.6659 22.093 24.768 21.9909 24.768 21.867V17.8842C24.768 17.7603 24.6659 17.6582 24.542 17.6582H22.1019C21.9781 17.6582 21.8759 17.7603 21.8759 17.8842V21.867C21.876 21.9909 21.9781 22.093 22.1019 22.093Z" fill="#6BD9E7"/>
<path fill-rule="evenodd" clip-rule="evenodd" d="M16.546 22.093H18.9861C19.1099 22.093 19.2121 21.9909 19.2121 21.867V17.8842C19.2121 17.7603 19.1099 17.6582 18.9861 17.6582H16.546C16.4221 17.6582 16.32 17.7603 16.32 17.8842V21.867C16.3201 21.9909 16.4222 22.093 16.546 22.093Z" fill="#6BD9E7"/>
<path fill-rule="evenodd" clip-rule="evenodd" d="M13.6561 21.867V17.8842C13.6561 17.7604 13.5539 17.6582 13.4301 17.6582H10.9901C10.8641 17.6582 10.7641 17.7604 10.7641 17.8842V21.867C10.7641 21.9909 10.864 22.093 10.9901 22.093H13.4301C13.554 22.0929 13.6561 21.9908 13.6561 21.867Z" fill="#6BD9E7"/>
<path fill-rule="evenodd" clip-rule="evenodd" d="M6.89423 8.26921H26.2V34.0782V38.4282H28.3098C28.3098 27.6857 28.3098 16.9432 28.3098 6.20068H6.89423V8.26921Z" fill="#E0D2CE"/>
<path fill-rule="evenodd" clip-rule="evenodd" d="M26.4498 3.5V5.3295V5.87702C26.4498 6.05519 26.3043 6.20075 26.1282 6.20075H28.3098H28.9442C29.1224 6.20075 29.268 6.05519 29.268 5.87702V3.5C29.268 3.32183 29.1224 3.17627 28.9442 3.17627H26.1282C26.3043 3.17627 26.4498 3.32183 26.4498 3.5Z" fill="#9D9696"/>
<path fill-rule="evenodd" clip-rule="evenodd" d="M24.6942 9.85352L21.939 14.1601C21.9803 14.2035 22.039 14.2297 22.102 14.2297H24.542C24.6659 14.2297 24.7681 14.1275 24.7681 14.0037V10.0209C24.7681 9.95566 24.7398 9.8948 24.6942 9.85352Z" fill="#00C7DD"/>
<path fill-rule="evenodd" clip-rule="evenodd" d="M19.1382 9.85352L16.3831 14.1601C16.4243 14.2035 16.4809 14.2297 16.546 14.2297H18.9861C19.1099 14.2297 19.2121 14.1275 19.2121 14.0037V10.0209C19.2121 9.95566 19.1839 9.8948 19.1382 9.85352Z" fill="#00C7DD"/>
<path fill-rule="evenodd" clip-rule="evenodd" d="M13.5823 9.85352L10.8249 14.1601C10.8662 14.2035 10.9248 14.2297 10.99 14.2297H13.4301C13.554 14.2297 13.6561 14.1275 13.6561 14.0037V10.0209C13.6561 9.95566 13.6257 9.8948 13.5823 9.85352Z" fill="#00C7DD"/>
<path fill-rule="evenodd" clip-rule="evenodd" d="M13.5823 17.7173L10.8249 22.0217C10.8662 22.0652 10.9248 22.0934 10.99 22.0934H13.4301C13.554 22.0934 13.6561 21.9912 13.6561 21.8674V17.8846C13.6561 17.8172 13.6257 17.7586 13.5823 17.7173Z" fill="#00C7DD"/>
<path fill-rule="evenodd" clip-rule="evenodd" d="M19.1382 17.7173L16.3831 22.0217C16.4243 22.0652 16.4809 22.0934 16.546 22.0934H18.9861C19.1099 22.0934 19.2121 21.9912 19.2121 21.8674V17.8846C19.2121 17.8172 19.1839 17.7586 19.1382 17.7173Z" fill="#00C7DD"/>
<path fill-rule="evenodd" clip-rule="evenodd" d="M24.6942 17.7173L21.939 22.0217C21.9803 22.0652 22.039 22.0934 22.102 22.0934H24.542C24.6659 22.0934 24.7681 21.9912 24.7681 21.8674V17.8846C24.7681 17.8172 24.7398 17.7586 24.6942 17.7173Z" fill="#00C7DD"/>
<path fill-rule="evenodd" clip-rule="evenodd" d="M17.602 29.6675L13.215 38.4284H17.602V29.6675Z" fill="#00C7DD"/>
<path fill-rule="evenodd" clip-rule="evenodd" d="M21.9869 29.6675L17.602 38.4284H21.9869V29.6675Z" fill="#00C7DD"/>
<path fill-rule="evenodd" clip-rule="evenodd" d="M6.89424 38.4281V32.2681L5.51447 31.4033L4.13469 32.2681V38.4281H6.89424Z" fill="#D87E49"/>
<path fill-rule="evenodd" clip-rule="evenodd" d="M6.89423 32.2686C8.42391 31.6123 9.51469 29.8958 9.51469 27.8816C9.51469 25.8695 8.42391 24.153 6.89423 23.4967C6.46401 23.312 5.99898 23.21 5.51445 23.21C3.30463 23.21 1.51421 25.3024 1.51421 27.8816C1.51421 29.8958 2.60499 31.6123 4.13467 32.2686C4.56489 32.4533 5.02992 32.5532 5.51445 32.5532C5.99898 32.5532 6.46401 32.4533 6.89423 32.2686Z" fill="#80D261"/>
<path fill-rule="evenodd" clip-rule="evenodd" d="M5.51445 32.5532V34.7652V36.2319V38.4286H6.89423V32.2686C6.46401 32.4533 5.99898 32.5532 5.51445 32.5532Z" fill="#C86D35"/>
<path fill-rule="evenodd" clip-rule="evenodd" d="M6.89422 24.8592C7.48737 25.674 7.84377 26.73 7.84377 27.8816C7.84377 29.0354 7.48744 30.0913 6.89422 30.9062C6.6574 31.2322 6.38143 31.5189 6.0772 31.758C5.81425 31.9665 5.52746 32.1382 5.22323 32.2686C5.0472 32.3446 4.86469 32.4054 4.67784 32.4533C4.94726 32.5185 5.22757 32.5532 5.51436 32.5532C5.99889 32.5532 6.46392 32.4533 6.89414 32.2686C8.42382 31.6123 9.51461 29.8958 9.51461 27.8816C9.51461 25.8695 8.42382 24.153 6.89414 23.4967C6.46392 23.312 5.99889 23.21 5.51436 23.21C5.22757 23.21 4.94726 23.2469 4.67997 23.3121C4.86469 23.3599 5.0472 23.4207 5.22316 23.4968C5.87732 23.7771 6.45097 24.2508 6.89422 24.8592Z" fill="#4FC122"/>
<path d="M17.602 39.0002C17.2865 39.0002 17.0307 38.7444 17.0307 38.4289V29.668C17.0307 29.3525 17.2865 29.0967 17.602 29.0967C17.9175 29.0967 18.1733 29.3525 18.1733 29.668V38.4289C18.1733 38.7444 17.9175 39.0002 17.602 39.0002Z" fill="#F3EAE6"/>
<path fill-rule="evenodd" clip-rule="evenodd" d="M13.2151 29.6676H17.602H21.9869H22.5627C22.7278 29.6676 22.8647 29.5307 22.8647 29.3633V27.1275C22.8647 26.9602 22.7278 26.8232 22.5627 26.8232H12.6414C12.4741 26.8232 12.3372 26.9601 12.3372 27.1275V29.3633C12.3372 29.5306 12.4741 29.6676 12.6414 29.6676H13.2151Z" fill="#B8ACAC"/>
<path fill-rule="evenodd" clip-rule="evenodd" d="M20.8026 27.128V29.3638C20.8026 29.5311 20.6657 29.6681 20.4984 29.6681H21.9868H22.5626C22.7277 29.6681 22.8646 29.5312 22.8646 29.3638V27.128C22.8646 26.9607 22.7277 26.8237 22.5626 26.8237H20.4984C20.6657 26.8237 20.8026 26.9606 20.8026 27.128Z" fill="#9D9696"/>
<path d="M37.7812 39H1.21875C0.903246 39 0.647461 38.7442 0.647461 38.4287C0.647461 38.1132 0.903246 37.8574 1.21875 37.8574H37.7812C38.0968 37.8574 38.3525 38.1132 38.3525 38.4287C38.3525 38.7442 38.0968 39 37.7812 39Z" fill="#746E6E"/>
</g>
<defs>
<clipPath id="clip0">
<rect width="39" height="39" fill="white"/>
</clipPath>
</defs>
</svg>
