<svg width="805" height="487" viewBox="0 0 805 487" fill="none" xmlns="http://www.w3.org/2000/svg">
<path d="M552.917 360.712C552.898 330.544 528.46 306.097 498.314 306.097C468.169 306.097 443.732 330.544 443.712 360.712H396.138C396.154 304.244 441.894 258.478 498.317 258.478C554.735 258.478 600.474 304.244 600.496 360.712H552.917Z" fill="#F7AD82"/>
<path d="M650.617 363.262C650.617 279.873 583.078 212.272 499.764 212.272C416.45 212.272 348.917 279.873 348.917 363.262H300.986C300.986 253.379 389.984 164.307 499.764 164.307C609.546 164.307 698.542 253.379 698.542 363.262H650.617Z" fill="white"/>
<path d="M1284.41 507.519C1284.41 199.561 1034.98 -50.0931 727.3 -50.0931C419.618 -50.0931 170.213 199.561 170.213 507.519H-6.79791C-6.79791 101.716 321.878 -227.229 727.299 -227.229C1132.73 -227.229 1461.4 101.716 1461.4 507.519H1284.41Z" fill="#FF6701"/>
</svg>
