<svg width="264" height="175" viewBox="0 0 264 175" fill="none" xmlns="http://www.w3.org/2000/svg">
<mask id="mask0" mask-type="alpha" maskUnits="userSpaceOnUse" x="-84" y="0" width="348" height="175">
<path d="M182.551 174.586C182.626 123.325 141.173 81.6922 89.9153 81.5794C38.6637 81.4665 -2.96944 122.917 -3.11997 174.177L-83.9999 173.999C-83.7655 78.0473 -5.82535 0.451886 90.1022 0.663049C186.021 0.874193 263.613 78.812 263.437 174.764" fill="white"/>
</mask>
<g mask="url(#mask0)">
<mask id="mask1" mask-type="alpha" maskUnits="userSpaceOnUse" x="-159" y="-135" width="499" height="492">
<ellipse cx="90.3817" cy="111.265" rx="206.986" ry="202.057" transform="rotate(166.249 90.3817 111.265)" fill="#E8F3FC"/>
</mask>
<g mask="url(#mask1)">
<ellipse cx="256.545" cy="169.787" rx="3.71406" ry="3.63013" transform="rotate(179.687 256.545 169.787)" fill="#104E88"/>
<ellipse cx="244.474" cy="169.851" rx="3.71406" ry="3.63013" transform="rotate(179.687 244.474 169.851)" fill="#104E88"/>
<ellipse cx="232.403" cy="169.92" rx="3.71406" ry="3.63013" transform="rotate(179.687 232.403 169.92)" fill="#104E88"/>
<ellipse cx="220.331" cy="169.986" rx="3.71406" ry="3.63013" transform="rotate(179.687 220.331 169.986)" fill="#104E88"/>
<ellipse cx="208.26" cy="170.05" rx="3.71406" ry="3.63013" transform="rotate(179.687 208.26 170.05)" fill="#104E88"/>
<ellipse cx="196.189" cy="170.119" rx="3.71406" ry="3.63013" transform="rotate(179.687 196.189 170.119)" fill="#104E88"/>
<ellipse cx="184.118" cy="170.183" rx="3.71406" ry="3.63013" transform="rotate(179.687 184.118 170.183)" fill="#104E88"/>
<ellipse cx="172.047" cy="170.25" rx="3.71406" ry="3.63013" transform="rotate(179.687 172.047 170.25)" fill="#104E88"/>
<ellipse cx="159.976" cy="170.314" rx="3.71406" ry="3.63013" transform="rotate(179.687 159.976 170.314)" fill="#104E88"/>
<ellipse cx="147.905" cy="170.378" rx="3.71406" ry="3.63013" transform="rotate(179.687 147.905 170.378)" fill="#104E88"/>
<ellipse cx="135.834" cy="170.445" rx="3.71406" ry="3.63013" transform="rotate(179.687 135.834 170.445)" fill="#104E88"/>
<ellipse cx="123.762" cy="170.513" rx="3.71406" ry="3.63013" transform="rotate(179.687 123.762 170.513)" fill="#104E88"/>
<ellipse cx="111.692" cy="170.578" rx="3.71406" ry="3.63013" transform="rotate(179.687 111.692 170.578)" fill="#104E88"/>
<ellipse cx="99.6204" cy="170.642" rx="3.71406" ry="3.63013" transform="rotate(179.687 99.6204 170.642)" fill="#104E88"/>
<ellipse cx="87.5491" cy="170.711" rx="3.71406" ry="3.63013" transform="rotate(179.687 87.5491 170.711)" fill="#104E88"/>
<ellipse cx="75.4776" cy="170.775" rx="3.71406" ry="3.63013" transform="rotate(179.687 75.4776 170.775)" fill="#104E88"/>
<ellipse cx="63.407" cy="170.841" rx="3.71406" ry="3.63013" transform="rotate(179.687 63.407 170.841)" fill="#104E88"/>
<ellipse cx="51.3357" cy="170.91" rx="3.71406" ry="3.63013" transform="rotate(179.687 51.3357 170.91)" fill="#104E88"/>
<ellipse cx="39.2647" cy="170.972" rx="3.71406" ry="3.63013" transform="rotate(179.687 39.2647 170.972)" fill="#104E88"/>
<ellipse cx="27.1936" cy="171.039" rx="3.71406" ry="3.63013" transform="rotate(179.687 27.1936 171.039)" fill="#104E88"/>
<ellipse cx="15.1219" cy="171.109" rx="3.71406" ry="3.63013" transform="rotate(179.687 15.1219 171.109)" fill="#104E88"/>
<ellipse cx="3.05132" cy="171.171" rx="3.71406" ry="3.63013" transform="rotate(179.687 3.05132 171.171)" fill="#104E88"/>
<ellipse cx="256.481" cy="157.988" rx="3.71406" ry="3.63013" transform="rotate(179.687 256.481 157.988)" fill="#104E88"/>
<ellipse cx="244.41" cy="158.052" rx="3.71406" ry="3.63013" transform="rotate(179.687 244.41 158.052)" fill="#104E88"/>
<ellipse cx="232.338" cy="158.121" rx="3.71406" ry="3.63013" transform="rotate(179.687 232.338 158.121)" fill="#104E88"/>
<ellipse cx="220.267" cy="158.185" rx="3.71406" ry="3.63013" transform="rotate(179.687 220.267 158.185)" fill="#104E88"/>
<ellipse cx="208.196" cy="158.25" rx="3.71406" ry="3.63013" transform="rotate(179.687 208.196 158.25)" fill="#104E88"/>
<ellipse cx="196.125" cy="158.318" rx="3.71406" ry="3.63013" transform="rotate(179.687 196.125 158.318)" fill="#104E88"/>
<ellipse cx="184.054" cy="158.384" rx="3.71406" ry="3.63013" transform="rotate(179.687 184.054 158.384)" fill="#104E88"/>
<ellipse cx="171.983" cy="158.449" rx="3.71406" ry="3.63013" transform="rotate(179.687 171.983 158.449)" fill="#104E88"/>
<ellipse cx="159.911" cy="158.517" rx="3.71406" ry="3.63013" transform="rotate(179.687 159.911 158.517)" fill="#104E88"/>
<ellipse cx="147.84" cy="158.582" rx="3.71406" ry="3.63013" transform="rotate(179.687 147.84 158.582)" fill="#104E88"/>
<ellipse cx="135.769" cy="158.648" rx="3.71406" ry="3.63013" transform="rotate(179.687 135.769 158.648)" fill="#104E88"/>
<ellipse cx="123.698" cy="158.714" rx="3.71406" ry="3.63013" transform="rotate(179.687 123.698 158.714)" fill="#104E88"/>
<ellipse cx="111.627" cy="158.777" rx="3.71406" ry="3.63013" transform="rotate(179.687 111.627 158.777)" fill="#104E88"/>
<ellipse cx="99.555" cy="158.847" rx="3.71406" ry="3.63013" transform="rotate(179.687 99.555 158.847)" fill="#104E88"/>
<ellipse cx="87.4847" cy="158.912" rx="3.71406" ry="3.63013" transform="rotate(179.687 87.4847 158.912)" fill="#104E88"/>
<ellipse cx="75.4134" cy="158.976" rx="3.71406" ry="3.63013" transform="rotate(179.687 75.4134 158.976)" fill="#104E88"/>
<ellipse cx="63.3428" cy="159.043" rx="3.71406" ry="3.63013" transform="rotate(179.687 63.3428 159.043)" fill="#104E88"/>
<ellipse cx="51.2718" cy="159.111" rx="3.71406" ry="3.63013" transform="rotate(179.687 51.2718 159.111)" fill="#104E88"/>
<ellipse cx="39.2005" cy="159.173" rx="3.71406" ry="3.63013" transform="rotate(179.687 39.2005 159.173)" fill="#104E88"/>
<ellipse cx="27.1292" cy="159.24" rx="3.71406" ry="3.63013" transform="rotate(179.687 27.1292 159.24)" fill="#104E88"/>
<ellipse cx="15.0579" cy="159.308" rx="3.71406" ry="3.63013" transform="rotate(179.687 15.0579 159.308)" fill="#104E88"/>
<ellipse cx="2.98637" cy="159.375" rx="3.71406" ry="3.63013" transform="rotate(179.687 2.98637 159.375)" fill="#104E88"/>
<ellipse cx="256.417" cy="146.189" rx="3.71406" ry="3.63013" transform="rotate(179.687 256.417 146.189)" fill="#104E88"/>
<ellipse cx="244.345" cy="146.259" rx="3.71406" ry="3.63013" transform="rotate(179.687 244.345 146.259)" fill="#104E88"/>
<ellipse cx="232.274" cy="146.322" rx="3.71406" ry="3.63013" transform="rotate(179.687 232.274 146.322)" fill="#104E88"/>
<ellipse cx="220.203" cy="146.388" rx="3.71406" ry="3.63013" transform="rotate(179.687 220.203 146.388)" fill="#104E88"/>
<ellipse cx="208.132" cy="146.453" rx="3.71406" ry="3.63013" transform="rotate(179.687 208.132 146.453)" fill="#104E88"/>
<ellipse cx="196.06" cy="146.521" rx="3.71406" ry="3.63013" transform="rotate(179.687 196.06 146.521)" fill="#104E88"/>
<ellipse cx="183.989" cy="146.586" rx="3.71406" ry="3.63013" transform="rotate(179.687 183.989 146.586)" fill="#104E88"/>
<ellipse cx="171.918" cy="146.65" rx="3.71406" ry="3.63013" transform="rotate(179.687 171.918 146.65)" fill="#104E88"/>
<ellipse cx="159.847" cy="146.718" rx="3.71406" ry="3.63013" transform="rotate(179.687 159.847 146.718)" fill="#104E88"/>
<ellipse cx="147.776" cy="146.785" rx="3.71406" ry="3.63013" transform="rotate(179.687 147.776 146.785)" fill="#104E88"/>
<ellipse cx="135.705" cy="146.849" rx="3.71406" ry="3.63013" transform="rotate(179.687 135.705 146.849)" fill="#104E88"/>
<ellipse cx="123.634" cy="146.916" rx="3.71406" ry="3.63013" transform="rotate(179.687 123.634 146.916)" fill="#104E88"/>
<ellipse cx="111.562" cy="146.984" rx="3.71406" ry="3.63013" transform="rotate(179.687 111.562 146.984)" fill="#104E88"/>
<ellipse cx="99.491" cy="147.048" rx="3.71406" ry="3.63013" transform="rotate(179.687 99.491 147.048)" fill="#104E88"/>
<ellipse cx="87.4197" cy="147.115" rx="3.71406" ry="3.63013" transform="rotate(179.687 87.4197 147.115)" fill="#104E88"/>
<ellipse cx="75.3494" cy="147.177" rx="3.71406" ry="3.63013" transform="rotate(179.687 75.3494 147.177)" fill="#104E88"/>
<ellipse cx="63.2781" cy="147.246" rx="3.71406" ry="3.63013" transform="rotate(179.687 63.2781 147.246)" fill="#104E88"/>
<ellipse cx="51.2063" cy="147.312" rx="3.71406" ry="3.63013" transform="rotate(179.687 51.2063 147.312)" fill="#104E88"/>
<ellipse cx="39.136" cy="147.375" rx="3.71406" ry="3.63013" transform="rotate(179.687 39.136 147.375)" fill="#104E88"/>
<ellipse cx="27.0645" cy="147.445" rx="3.71406" ry="3.63013" transform="rotate(179.687 27.0645 147.445)" fill="#104E88"/>
<ellipse cx="14.993" cy="147.511" rx="3.71406" ry="3.63013" transform="rotate(179.687 14.993 147.511)" fill="#104E88"/>
<ellipse cx="2.92216" cy="147.574" rx="3.71406" ry="3.63013" transform="rotate(179.687 2.92216 147.574)" fill="#104E88"/>
<ellipse cx="256.352" cy="134.392" rx="3.71406" ry="3.63013" transform="rotate(179.687 256.352 134.392)" fill="#104E88"/>
<ellipse cx="244.281" cy="134.459" rx="3.71406" ry="3.63013" transform="rotate(179.687 244.281 134.459)" fill="#104E88"/>
<ellipse cx="232.21" cy="134.523" rx="3.71406" ry="3.63013" transform="rotate(179.687 232.21 134.523)" fill="#104E88"/>
<ellipse cx="220.138" cy="134.589" rx="3.71406" ry="3.63013" transform="rotate(179.687 220.138 134.589)" fill="#104E88"/>
<ellipse cx="208.067" cy="134.656" rx="3.71406" ry="3.63013" transform="rotate(179.687 208.067 134.656)" fill="#104E88"/>
<ellipse cx="195.996" cy="134.722" rx="3.71406" ry="3.63013" transform="rotate(179.687 195.996 134.722)" fill="#104E88"/>
<ellipse cx="183.925" cy="134.789" rx="3.71406" ry="3.63013" transform="rotate(179.687 183.925 134.789)" fill="#104E88"/>
<ellipse cx="171.854" cy="134.855" rx="3.71406" ry="3.63013" transform="rotate(179.687 171.854 134.855)" fill="#104E88"/>
<ellipse cx="159.783" cy="134.92" rx="3.71406" ry="3.63013" transform="rotate(179.687 159.783 134.92)" fill="#104E88"/>
<ellipse cx="147.711" cy="134.986" rx="3.71406" ry="3.63013" transform="rotate(179.687 147.711 134.986)" fill="#104E88"/>
<ellipse cx="135.64" cy="135.054" rx="3.71406" ry="3.63013" transform="rotate(179.687 135.64 135.054)" fill="#104E88"/>
<ellipse cx="123.569" cy="135.117" rx="3.71406" ry="3.63013" transform="rotate(179.687 123.569 135.117)" fill="#104E88"/>
<ellipse cx="111.498" cy="135.183" rx="3.71406" ry="3.63013" transform="rotate(179.687 111.498 135.183)" fill="#104E88"/>
<ellipse cx="99.4266" cy="135.25" rx="3.71406" ry="3.63013" transform="rotate(179.687 99.4266 135.25)" fill="#104E88"/>
<ellipse cx="87.3562" cy="135.314" rx="3.71406" ry="3.63013" transform="rotate(179.687 87.3562 135.314)" fill="#104E88"/>
<ellipse cx="75.2845" cy="135.382" rx="3.71406" ry="3.63013" transform="rotate(179.687 75.2845 135.382)" fill="#104E88"/>
<ellipse cx="63.2132" cy="135.447" rx="3.71406" ry="3.63013" transform="rotate(179.687 63.2132 135.447)" fill="#104E88"/>
<ellipse cx="51.1424" cy="135.513" rx="3.71406" ry="3.63013" transform="rotate(179.687 51.1424 135.513)" fill="#104E88"/>
<ellipse cx="39.0716" cy="135.58" rx="3.71406" ry="3.63013" transform="rotate(179.687 39.0716 135.58)" fill="#104E88"/>
<ellipse cx="27.0005" cy="135.644" rx="3.71406" ry="3.63013" transform="rotate(179.687 27.0005 135.644)" fill="#104E88"/>
<ellipse cx="14.9292" cy="135.711" rx="3.71406" ry="3.63013" transform="rotate(179.687 14.9292 135.711)" fill="#104E88"/>
<ellipse cx="2.85796" cy="135.775" rx="3.71406" ry="3.63013" transform="rotate(179.687 2.85796 135.775)" fill="#104E88"/>
<ellipse cx="256.288" cy="122.591" rx="3.71406" ry="3.63013" transform="rotate(179.687 256.288 122.591)" fill="#104E88"/>
<ellipse cx="244.216" cy="122.66" rx="3.71406" ry="3.63013" transform="rotate(179.687 244.216 122.66)" fill="#104E88"/>
<ellipse cx="232.145" cy="122.724" rx="3.71406" ry="3.63013" transform="rotate(179.687 232.145 122.724)" fill="#104E88"/>
<ellipse cx="220.074" cy="122.791" rx="3.71406" ry="3.63013" transform="rotate(179.687 220.074 122.791)" fill="#104E88"/>
<ellipse cx="208.002" cy="122.859" rx="3.71406" ry="3.63013" transform="rotate(179.687 208.002 122.859)" fill="#104E88"/>
<ellipse cx="195.932" cy="122.921" rx="3.71406" ry="3.63013" transform="rotate(179.687 195.932 122.921)" fill="#104E88"/>
<ellipse cx="183.86" cy="122.99" rx="3.71406" ry="3.63013" transform="rotate(179.687 183.86 122.99)" fill="#104E88"/>
<ellipse cx="171.79" cy="123.056" rx="3.71406" ry="3.63013" transform="rotate(179.687 171.79 123.056)" fill="#104E88"/>
<ellipse cx="159.718" cy="123.121" rx="3.71406" ry="3.63013" transform="rotate(179.687 159.718 123.121)" fill="#104E88"/>
<ellipse cx="147.648" cy="123.185" rx="3.71406" ry="3.63013" transform="rotate(179.687 147.648 123.185)" fill="#104E88"/>
<ellipse cx="135.576" cy="123.255" rx="3.71406" ry="3.63013" transform="rotate(179.687 135.576 123.255)" fill="#104E88"/>
<ellipse cx="123.505" cy="123.318" rx="3.71406" ry="3.63013" transform="rotate(179.687 123.505 123.318)" fill="#104E88"/>
<ellipse cx="111.433" cy="123.384" rx="3.71406" ry="3.63013" transform="rotate(179.687 111.433 123.384)" fill="#104E88"/>
<ellipse cx="99.3631" cy="123.449" rx="3.71406" ry="3.63013" transform="rotate(179.687 99.3631 123.449)" fill="#104E88"/>
<ellipse cx="87.2913" cy="123.515" rx="3.71406" ry="3.63013" transform="rotate(179.687 87.2913 123.515)" fill="#104E88"/>
<ellipse cx="75.2203" cy="123.582" rx="3.71406" ry="3.63013" transform="rotate(179.687 75.2203 123.582)" fill="#104E88"/>
<ellipse cx="63.1492" cy="123.646" rx="3.71406" ry="3.63013" transform="rotate(179.687 63.1492 123.646)" fill="#104E88"/>
<ellipse cx="51.0779" cy="123.714" rx="3.71406" ry="3.63013" transform="rotate(179.687 51.0779 123.714)" fill="#104E88"/>
<ellipse cx="39.0074" cy="123.781" rx="3.71406" ry="3.63013" transform="rotate(179.687 39.0074 123.781)" fill="#104E88"/>
<ellipse cx="26.9356" cy="123.847" rx="3.71406" ry="3.63013" transform="rotate(179.687 26.9356 123.847)" fill="#104E88"/>
<ellipse cx="14.8645" cy="123.912" rx="3.71406" ry="3.63013" transform="rotate(179.687 14.8645 123.912)" fill="#104E88"/>
<ellipse cx="2.7935" cy="123.98" rx="3.71406" ry="3.63013" transform="rotate(179.687 2.7935 123.98)" fill="#104E88"/>
<ellipse cx="256.223" cy="110.795" rx="3.71406" ry="3.63013" transform="rotate(179.687 256.223 110.795)" fill="#104E88"/>
<ellipse cx="244.151" cy="110.863" rx="3.71406" ry="3.63013" transform="rotate(179.687 244.151 110.863)" fill="#104E88"/>
<ellipse cx="232.081" cy="110.925" rx="3.71406" ry="3.63013" transform="rotate(179.687 232.081 110.925)" fill="#104E88"/>
<ellipse cx="220.009" cy="110.994" rx="3.71406" ry="3.63013" transform="rotate(179.687 220.009 110.994)" fill="#104E88"/>
<ellipse cx="207.938" cy="111.06" rx="3.71406" ry="3.63013" transform="rotate(179.687 207.938 111.06)" fill="#104E88"/>
<ellipse cx="195.867" cy="111.125" rx="3.71406" ry="3.63013" transform="rotate(179.687 195.867 111.125)" fill="#104E88"/>
<ellipse cx="183.796" cy="111.191" rx="3.71406" ry="3.63013" transform="rotate(179.687 183.796 111.191)" fill="#104E88"/>
<ellipse cx="171.725" cy="111.257" rx="3.71406" ry="3.63013" transform="rotate(179.687 171.725 111.257)" fill="#104E88"/>
<ellipse cx="159.654" cy="111.32" rx="3.71406" ry="3.63013" transform="rotate(179.687 159.654 111.32)" fill="#104E88"/>
<ellipse cx="147.583" cy="111.39" rx="3.71406" ry="3.63013" transform="rotate(179.687 147.583 111.39)" fill="#104E88"/>
<ellipse cx="135.511" cy="111.457" rx="3.71406" ry="3.63013" transform="rotate(179.687 135.511 111.457)" fill="#104E88"/>
<ellipse cx="123.44" cy="111.519" rx="3.71406" ry="3.63013" transform="rotate(179.687 123.44 111.519)" fill="#104E88"/>
<ellipse cx="111.369" cy="111.587" rx="3.71406" ry="3.63013" transform="rotate(179.687 111.369 111.587)" fill="#104E88"/>
<ellipse cx="99.2977" cy="111.654" rx="3.71406" ry="3.63013" transform="rotate(179.687 99.2977 111.654)" fill="#104E88"/>
<ellipse cx="87.2271" cy="111.718" rx="3.71406" ry="3.63013" transform="rotate(179.687 87.2271 111.718)" fill="#104E88"/>
<ellipse cx="75.1556" cy="111.785" rx="3.71406" ry="3.63013" transform="rotate(179.687 75.1556 111.785)" fill="#104E88"/>
<ellipse cx="63.0843" cy="111.853" rx="3.71406" ry="3.63013" transform="rotate(179.687 63.0843 111.853)" fill="#104E88"/>
<ellipse cx="51.0132" cy="111.916" rx="3.71406" ry="3.63013" transform="rotate(179.687 51.0132 111.916)" fill="#104E88"/>
<ellipse cx="38.9422" cy="111.984" rx="3.71406" ry="3.63013" transform="rotate(179.687 38.9422 111.984)" fill="#104E88"/>
<ellipse cx="26.8709" cy="112.048" rx="3.71406" ry="3.63013" transform="rotate(179.687 26.8709 112.048)" fill="#104E88"/>
<ellipse cx="14.7999" cy="112.115" rx="3.71406" ry="3.63013" transform="rotate(179.687 14.7999 112.115)" fill="#104E88"/>
<ellipse cx="2.72905" cy="112.181" rx="3.71406" ry="3.63013" transform="rotate(179.687 2.72905 112.181)" fill="#104E88"/>
<ellipse cx="256.159" cy="98.9957" rx="3.71406" ry="3.63013" transform="rotate(179.687 256.159 98.9957)" fill="#104E88"/>
<ellipse cx="244.087" cy="99.064" rx="3.71406" ry="3.63013" transform="rotate(179.687 244.087 99.064)" fill="#104E88"/>
<ellipse cx="232.016" cy="99.1285" rx="3.71406" ry="3.63013" transform="rotate(179.687 232.016 99.1285)" fill="#104E88"/>
<ellipse cx="219.945" cy="99.1949" rx="3.71406" ry="3.63013" transform="rotate(179.687 219.945 99.1949)" fill="#104E88"/>
<ellipse cx="207.874" cy="99.2613" rx="3.71406" ry="3.63013" transform="rotate(179.687 207.874 99.2613)" fill="#104E88"/>
<ellipse cx="195.803" cy="99.3277" rx="3.71406" ry="3.63013" transform="rotate(179.687 195.803 99.3277)" fill="#104E88"/>
<ellipse cx="183.731" cy="99.3922" rx="3.71406" ry="3.63013" transform="rotate(179.687 183.731 99.3922)" fill="#104E88"/>
<ellipse cx="171.66" cy="99.4586" rx="3.71406" ry="3.63013" transform="rotate(179.687 171.66 99.4586)" fill="#104E88"/>
<ellipse cx="159.589" cy="99.5269" rx="3.71406" ry="3.63013" transform="rotate(179.687 159.589 99.5269)" fill="#104E88"/>
<ellipse cx="147.518" cy="99.5914" rx="3.71406" ry="3.63013" transform="rotate(179.687 147.518 99.5914)" fill="#104E88"/>
<ellipse cx="135.447" cy="99.6578" rx="3.71406" ry="3.63013" transform="rotate(179.687 135.447 99.6578)" fill="#104E88"/>
<ellipse cx="123.376" cy="99.7223" rx="3.71406" ry="3.63013" transform="rotate(179.687 123.376 99.7223)" fill="#104E88"/>
<ellipse cx="111.305" cy="99.7867" rx="3.71406" ry="3.63013" transform="rotate(179.687 111.305 99.7867)" fill="#104E88"/>
<ellipse cx="99.2334" cy="99.8551" rx="3.71406" ry="3.63013" transform="rotate(179.687 99.2334 99.8551)" fill="#104E88"/>
<ellipse cx="87.1619" cy="99.9195" rx="3.71406" ry="3.63013" transform="rotate(179.687 87.1619 99.9195)" fill="#104E88"/>
<ellipse cx="75.0914" cy="99.9859" rx="3.71406" ry="3.63013" transform="rotate(179.687 75.0914 99.9859)" fill="#104E88"/>
<ellipse cx="63.0203" cy="100.05" rx="3.71406" ry="3.63013" transform="rotate(179.687 63.0203 100.05)" fill="#104E88"/>
<ellipse cx="50.9488" cy="100.117" rx="3.71406" ry="3.63013" transform="rotate(179.687 50.9488 100.117)" fill="#104E88"/>
<ellipse cx="38.8785" cy="100.183" rx="3.71406" ry="3.63013" transform="rotate(179.687 38.8785 100.183)" fill="#104E88"/>
<ellipse cx="26.8067" cy="100.25" rx="3.71406" ry="3.63013" transform="rotate(179.687 26.8067 100.25)" fill="#104E88"/>
<ellipse cx="14.7354" cy="100.316" rx="3.71406" ry="3.63013" transform="rotate(179.687 14.7354 100.316)" fill="#104E88"/>
<ellipse cx="2.6646" cy="100.38" rx="3.71406" ry="3.63013" transform="rotate(179.687 2.6646 100.38)" fill="#104E88"/>
<ellipse cx="256.094" cy="87.1988" rx="3.71406" ry="3.63013" transform="rotate(179.687 256.094 87.1988)" fill="#104E88"/>
<ellipse cx="244.022" cy="87.2652" rx="3.71406" ry="3.63013" transform="rotate(179.687 244.022 87.2652)" fill="#104E88"/>
<ellipse cx="231.952" cy="87.3316" rx="3.71406" ry="3.63013" transform="rotate(179.687 231.952 87.3316)" fill="#104E88"/>
<ellipse cx="219.88" cy="87.3961" rx="3.71406" ry="3.63013" transform="rotate(179.687 219.88 87.3961)" fill="#104E88"/>
<ellipse cx="207.809" cy="87.4625" rx="3.71406" ry="3.63013" transform="rotate(179.687 207.809 87.4625)" fill="#104E88"/>
<ellipse cx="195.739" cy="87.525" rx="3.71406" ry="3.63013" transform="rotate(179.687 195.739 87.525)" fill="#104E88"/>
<ellipse cx="183.667" cy="87.5933" rx="3.71406" ry="3.63013" transform="rotate(179.687 183.667 87.5933)" fill="#104E88"/>
<ellipse cx="171.596" cy="87.6598" rx="3.71406" ry="3.63013" transform="rotate(179.687 171.596 87.6598)" fill="#104E88"/>
<ellipse cx="159.525" cy="87.7242" rx="3.71406" ry="3.63013" transform="rotate(179.687 159.525 87.7242)" fill="#104E88"/>
<ellipse cx="147.454" cy="87.7906" rx="3.71406" ry="3.63013" transform="rotate(179.687 147.454 87.7906)" fill="#104E88"/>
<ellipse cx="135.382" cy="87.859" rx="3.71406" ry="3.63013" transform="rotate(179.687 135.382 87.859)" fill="#104E88"/>
<ellipse cx="123.312" cy="87.9215" rx="3.71406" ry="3.63013" transform="rotate(179.687 123.312 87.9215)" fill="#104E88"/>
<ellipse cx="111.24" cy="87.9898" rx="3.71406" ry="3.63013" transform="rotate(179.687 111.24 87.9898)" fill="#104E88"/>
<ellipse cx="99.1687" cy="88.0562" rx="3.71406" ry="3.63013" transform="rotate(179.687 99.1687 88.0562)" fill="#104E88"/>
<ellipse cx="87.0982" cy="88.1207" rx="3.71406" ry="3.63013" transform="rotate(179.687 87.0982 88.1207)" fill="#104E88"/>
<ellipse cx="75.0264" cy="88.189" rx="3.71406" ry="3.63013" transform="rotate(179.687 75.0264 88.189)" fill="#104E88"/>
<ellipse cx="62.9554" cy="88.2535" rx="3.71406" ry="3.63013" transform="rotate(179.687 62.9554 88.2535)" fill="#104E88"/>
<ellipse cx="50.8848" cy="88.318" rx="3.71406" ry="3.63013" transform="rotate(179.687 50.8848 88.318)" fill="#104E88"/>
<ellipse cx="38.813" cy="88.3863" rx="3.71406" ry="3.63013" transform="rotate(179.687 38.813 88.3863)" fill="#104E88"/>
<ellipse cx="26.7427" cy="88.4527" rx="3.71406" ry="3.63013" transform="rotate(179.687 26.7427 88.4527)" fill="#104E88"/>
<ellipse cx="14.6709" cy="88.5172" rx="3.71406" ry="3.63013" transform="rotate(179.687 14.6709 88.5172)" fill="#104E88"/>
<ellipse cx="2.60014" cy="88.5836" rx="3.71406" ry="3.63013" transform="rotate(179.687 2.60014 88.5836)" fill="#104E88"/>
<ellipse cx="256.03" cy="75.398" rx="3.71406" ry="3.63013" transform="rotate(179.687 256.03 75.398)" fill="#104E88"/>
<ellipse cx="243.958" cy="75.4644" rx="3.71406" ry="3.63013" transform="rotate(179.687 243.958 75.4644)" fill="#104E88"/>
<ellipse cx="231.887" cy="75.5328" rx="3.71406" ry="3.63013" transform="rotate(179.687 231.887 75.5328)" fill="#104E88"/>
<ellipse cx="219.817" cy="75.5953" rx="3.71406" ry="3.63013" transform="rotate(179.687 219.817 75.5953)" fill="#104E88"/>
<ellipse cx="207.745" cy="75.6637" rx="3.71406" ry="3.63013" transform="rotate(179.687 207.745 75.6637)" fill="#104E88"/>
<ellipse cx="195.674" cy="75.7301" rx="3.71406" ry="3.63013" transform="rotate(179.687 195.674 75.7301)" fill="#104E88"/>
<ellipse cx="183.603" cy="75.7965" rx="3.71406" ry="3.63013" transform="rotate(179.687 183.603 75.7965)" fill="#104E88"/>
<ellipse cx="171.532" cy="75.8609" rx="3.71406" ry="3.63013" transform="rotate(179.687 171.532 75.8609)" fill="#104E88"/>
<ellipse cx="159.46" cy="75.9273" rx="3.71406" ry="3.63013" transform="rotate(179.687 159.46 75.9273)" fill="#104E88"/>
<ellipse cx="147.389" cy="75.9918" rx="3.71406" ry="3.63013" transform="rotate(179.687 147.389 75.9918)" fill="#104E88"/>
<ellipse cx="135.318" cy="76.0601" rx="3.71406" ry="3.63013" transform="rotate(179.687 135.318 76.0601)" fill="#104E88"/>
<ellipse cx="123.247" cy="76.1265" rx="3.71406" ry="3.63013" transform="rotate(179.687 123.247 76.1265)" fill="#104E88"/>
<ellipse cx="111.176" cy="76.191" rx="3.71406" ry="3.63013" transform="rotate(179.687 111.176 76.191)" fill="#104E88"/>
<ellipse cx="99.1045" cy="76.2574" rx="3.71406" ry="3.63013" transform="rotate(179.687 99.1045 76.2574)" fill="#104E88"/>
<ellipse cx="87.0332" cy="76.3219" rx="3.71406" ry="3.63013" transform="rotate(179.687 87.0332 76.3219)" fill="#104E88"/>
<ellipse cx="74.9624" cy="76.3883" rx="3.71406" ry="3.63013" transform="rotate(179.687 74.9624 76.3883)" fill="#104E88"/>
<ellipse cx="62.8912" cy="76.4547" rx="3.71406" ry="3.63013" transform="rotate(179.687 62.8912 76.4547)" fill="#104E88"/>
<ellipse cx="50.8199" cy="76.5211" rx="3.71406" ry="3.63013" transform="rotate(179.687 50.8199 76.5211)" fill="#104E88"/>
<ellipse cx="38.7491" cy="76.5875" rx="3.71406" ry="3.63013" transform="rotate(179.687 38.7491 76.5875)" fill="#104E88"/>
<ellipse cx="26.6778" cy="76.6539" rx="3.71406" ry="3.63013" transform="rotate(179.687 26.6778 76.6539)" fill="#104E88"/>
<ellipse cx="14.6065" cy="76.7203" rx="3.71406" ry="3.63013" transform="rotate(179.687 14.6065 76.7203)" fill="#104E88"/>
<ellipse cx="2.53569" cy="76.7867" rx="3.71406" ry="3.63013" transform="rotate(179.687 2.53569 76.7867)" fill="#104E88"/>
<ellipse cx="255.965" cy="63.6031" rx="3.71406" ry="3.63013" transform="rotate(179.687 255.965 63.6031)" fill="#104E88"/>
<ellipse cx="243.894" cy="63.6676" rx="3.71406" ry="3.63013" transform="rotate(179.687 243.894 63.6676)" fill="#104E88"/>
<ellipse cx="231.823" cy="63.734" rx="3.71406" ry="3.63013" transform="rotate(179.687 231.823 63.734)" fill="#104E88"/>
<ellipse cx="219.752" cy="63.7984" rx="3.71406" ry="3.63013" transform="rotate(179.687 219.752 63.7984)" fill="#104E88"/>
<ellipse cx="207.68" cy="63.8648" rx="3.71406" ry="3.63013" transform="rotate(179.687 207.68 63.8648)" fill="#104E88"/>
<ellipse cx="195.609" cy="63.9312" rx="3.71406" ry="3.63013" transform="rotate(179.687 195.609 63.9312)" fill="#104E88"/>
<ellipse cx="183.538" cy="63.9976" rx="3.71406" ry="3.63013" transform="rotate(179.687 183.538 63.9976)" fill="#104E88"/>
<ellipse cx="171.467" cy="64.0621" rx="3.71406" ry="3.63013" transform="rotate(179.687 171.467 64.0621)" fill="#104E88"/>
<ellipse cx="159.396" cy="64.1305" rx="3.71406" ry="3.63013" transform="rotate(179.687 159.396 64.1305)" fill="#104E88"/>
<ellipse cx="147.325" cy="64.1969" rx="3.71406" ry="3.63013" transform="rotate(179.687 147.325 64.1969)" fill="#104E88"/>
<ellipse cx="135.254" cy="64.2613" rx="3.71406" ry="3.63013" transform="rotate(179.687 135.254 64.2613)" fill="#104E88"/>
<ellipse cx="123.182" cy="64.3277" rx="3.71406" ry="3.63013" transform="rotate(179.687 123.182 64.3277)" fill="#104E88"/>
<ellipse cx="111.111" cy="64.3941" rx="3.71406" ry="3.63013" transform="rotate(179.687 111.111 64.3941)" fill="#104E88"/>
<ellipse cx="99.0401" cy="64.4605" rx="3.71406" ry="3.63013" transform="rotate(179.687 99.0401 64.4605)" fill="#104E88"/>
<ellipse cx="86.9693" cy="64.5269" rx="3.71406" ry="3.63013" transform="rotate(179.687 86.9693 64.5269)" fill="#104E88"/>
<ellipse cx="74.898" cy="64.5914" rx="3.71406" ry="3.63013" transform="rotate(179.687 74.898 64.5914)" fill="#104E88"/>
<ellipse cx="62.827" cy="64.6578" rx="3.71406" ry="3.63013" transform="rotate(179.687 62.827 64.6578)" fill="#104E88"/>
<ellipse cx="50.7554" cy="64.7223" rx="3.71406" ry="3.63013" transform="rotate(179.687 50.7554 64.7223)" fill="#104E88"/>
<ellipse cx="38.6853" cy="64.7887" rx="3.71406" ry="3.63013" transform="rotate(179.687 38.6853 64.7887)" fill="#104E88"/>
<ellipse cx="26.6136" cy="64.8531" rx="3.71406" ry="3.63013" transform="rotate(179.687 26.6136 64.8531)" fill="#104E88"/>
<ellipse cx="14.5425" cy="64.9195" rx="3.71406" ry="3.63013" transform="rotate(179.687 14.5425 64.9195)" fill="#104E88"/>
<ellipse cx="2.47124" cy="64.9859" rx="3.71406" ry="3.63013" transform="rotate(179.687 2.47124 64.9859)" fill="#104E88"/>
<ellipse cx="255.901" cy="51.8043" rx="3.71406" ry="3.63013" transform="rotate(179.687 255.901 51.8043)" fill="#104E88"/>
<ellipse cx="243.829" cy="51.8668" rx="3.71406" ry="3.63013" transform="rotate(179.687 243.829 51.8668)" fill="#104E88"/>
<ellipse cx="231.758" cy="51.9351" rx="3.71406" ry="3.63013" transform="rotate(179.687 231.758 51.9351)" fill="#104E88"/>
<ellipse cx="219.687" cy="52.0035" rx="3.71406" ry="3.63013" transform="rotate(179.687 219.687 52.0035)" fill="#104E88"/>
<ellipse cx="207.616" cy="52.066" rx="3.71406" ry="3.63013" transform="rotate(179.687 207.616 52.066)" fill="#104E88"/>
<ellipse cx="195.545" cy="52.1324" rx="3.71406" ry="3.63013" transform="rotate(179.687 195.545 52.1324)" fill="#104E88"/>
<ellipse cx="183.474" cy="52.2008" rx="3.71406" ry="3.63013" transform="rotate(179.687 183.474 52.2008)" fill="#104E88"/>
<ellipse cx="171.403" cy="52.2633" rx="3.71406" ry="3.63013" transform="rotate(179.687 171.403 52.2633)" fill="#104E88"/>
<ellipse cx="159.331" cy="52.3316" rx="3.71406" ry="3.63013" transform="rotate(179.687 159.331 52.3316)" fill="#104E88"/>
<ellipse cx="147.261" cy="52.3941" rx="3.71406" ry="3.63013" transform="rotate(179.687 147.261 52.3941)" fill="#104E88"/>
<ellipse cx="135.189" cy="52.4605" rx="3.71406" ry="3.63013" transform="rotate(179.687 135.189 52.4605)" fill="#104E88"/>
<ellipse cx="123.118" cy="52.5289" rx="3.71406" ry="3.63013" transform="rotate(179.687 123.118 52.5289)" fill="#104E88"/>
<ellipse cx="111.047" cy="52.5933" rx="3.71406" ry="3.63013" transform="rotate(179.687 111.047 52.5933)" fill="#104E88"/>
<ellipse cx="98.9756" cy="52.6597" rx="3.71406" ry="3.63013" transform="rotate(179.687 98.9756 52.6597)" fill="#104E88"/>
<ellipse cx="86.9048" cy="52.7281" rx="3.71406" ry="3.63013" transform="rotate(179.687 86.9048 52.7281)" fill="#104E88"/>
<ellipse cx="74.8335" cy="52.7926" rx="3.71406" ry="3.63013" transform="rotate(179.687 74.8335 52.7926)" fill="#104E88"/>
<ellipse cx="62.7627" cy="52.857" rx="3.71406" ry="3.63013" transform="rotate(179.687 62.7627 52.857)" fill="#104E88"/>
<ellipse cx="50.6917" cy="52.9215" rx="3.71406" ry="3.63013" transform="rotate(179.687 50.6917 52.9215)" fill="#104E88"/>
<ellipse cx="38.6199" cy="52.9898" rx="3.71406" ry="3.63013" transform="rotate(179.687 38.6199 52.9898)" fill="#104E88"/>
<ellipse cx="26.5489" cy="53.0543" rx="3.71406" ry="3.63013" transform="rotate(179.687 26.5489 53.0543)" fill="#104E88"/>
<ellipse cx="14.4778" cy="53.1207" rx="3.71406" ry="3.63013" transform="rotate(179.687 14.4778 53.1207)" fill="#104E88"/>
<ellipse cx="2.40703" cy="53.1871" rx="3.71406" ry="3.63013" transform="rotate(179.687 2.40703 53.1871)" fill="#104E88"/>
<ellipse cx="255.836" cy="40.0055" rx="3.71406" ry="3.63013" transform="rotate(179.687 255.836 40.0055)" fill="#104E88"/>
<ellipse cx="243.765" cy="40.068" rx="3.71406" ry="3.63013" transform="rotate(179.687 243.765 40.068)" fill="#104E88"/>
<ellipse cx="231.694" cy="40.1363" rx="3.71406" ry="3.63013" transform="rotate(179.687 231.694 40.1363)" fill="#104E88"/>
<ellipse cx="219.623" cy="40.2027" rx="3.71406" ry="3.63013" transform="rotate(179.687 219.623 40.2027)" fill="#104E88"/>
<ellipse cx="207.552" cy="40.2672" rx="3.71406" ry="3.63013" transform="rotate(179.687 207.552 40.2672)" fill="#104E88"/>
<ellipse cx="195.481" cy="40.3336" rx="3.71406" ry="3.63013" transform="rotate(179.687 195.481 40.3336)" fill="#104E88"/>
<ellipse cx="183.409" cy="40.4019" rx="3.71406" ry="3.63013" transform="rotate(179.687 183.409 40.4019)" fill="#104E88"/>
<ellipse cx="171.338" cy="40.4664" rx="3.71406" ry="3.63013" transform="rotate(179.687 171.338 40.4664)" fill="#104E88"/>
<ellipse cx="159.267" cy="40.5308" rx="3.71406" ry="3.63013" transform="rotate(179.687 159.267 40.5308)" fill="#104E88"/>
<ellipse cx="147.196" cy="40.5972" rx="3.71406" ry="3.63013" transform="rotate(179.687 147.196 40.5972)" fill="#104E88"/>
<ellipse cx="135.125" cy="40.6637" rx="3.71406" ry="3.63013" transform="rotate(179.687 135.125 40.6637)" fill="#104E88"/>
<ellipse cx="123.053" cy="40.7301" rx="3.71406" ry="3.63013" transform="rotate(179.687 123.053 40.7301)" fill="#104E88"/>
<ellipse cx="110.983" cy="40.7945" rx="3.71406" ry="3.63013" transform="rotate(179.687 110.983 40.7945)" fill="#104E88"/>
<ellipse cx="98.9114" cy="40.8629" rx="3.71406" ry="3.63013" transform="rotate(179.687 98.9114 40.8629)" fill="#104E88"/>
<ellipse cx="86.8404" cy="40.9293" rx="3.71406" ry="3.63013" transform="rotate(179.687 86.8404 40.9293)" fill="#104E88"/>
<ellipse cx="74.7686" cy="40.9937" rx="3.71406" ry="3.63013" transform="rotate(179.687 74.7686 40.9937)" fill="#104E88"/>
<ellipse cx="62.698" cy="41.0601" rx="3.71406" ry="3.63013" transform="rotate(179.687 62.698 41.0601)" fill="#104E88"/>
<ellipse cx="50.6268" cy="41.1265" rx="3.71406" ry="3.63013" transform="rotate(179.687 50.6268 41.1265)" fill="#104E88"/>
<ellipse cx="38.556" cy="41.191" rx="3.71406" ry="3.63013" transform="rotate(179.687 38.556 41.191)" fill="#104E88"/>
<ellipse cx="26.4847" cy="41.2574" rx="3.71406" ry="3.63013" transform="rotate(179.687 26.4847 41.2574)" fill="#104E88"/>
<ellipse cx="14.4134" cy="41.3219" rx="3.71406" ry="3.63013" transform="rotate(179.687 14.4134 41.3219)" fill="#104E88"/>
<ellipse cx="2.34209" cy="41.3902" rx="3.71406" ry="3.63013" transform="rotate(179.687 2.34209 41.3902)" fill="#104E88"/>
<ellipse cx="255.772" cy="28.2066" rx="3.71406" ry="3.63013" transform="rotate(179.687 255.772 28.2066)" fill="#104E88"/>
<ellipse cx="243.701" cy="28.2711" rx="3.71406" ry="3.63013" transform="rotate(179.687 243.701 28.2711)" fill="#104E88"/>
<ellipse cx="231.629" cy="28.3394" rx="3.71406" ry="3.63013" transform="rotate(179.687 231.629 28.3394)" fill="#104E88"/>
<ellipse cx="219.558" cy="28.4039" rx="3.71406" ry="3.63013" transform="rotate(179.687 219.558 28.4039)" fill="#104E88"/>
<ellipse cx="207.487" cy="28.4683" rx="3.71406" ry="3.63013" transform="rotate(179.687 207.487 28.4683)" fill="#104E88"/>
<ellipse cx="195.416" cy="28.5387" rx="3.71406" ry="3.63013" transform="rotate(179.687 195.416 28.5387)" fill="#104E88"/>
<ellipse cx="183.345" cy="28.6031" rx="3.71406" ry="3.63013" transform="rotate(179.687 183.345 28.6031)" fill="#104E88"/>
<ellipse cx="171.274" cy="28.6676" rx="3.71406" ry="3.63013" transform="rotate(179.687 171.274 28.6676)" fill="#104E88"/>
<ellipse cx="159.203" cy="28.734" rx="3.71406" ry="3.63013" transform="rotate(179.687 159.203 28.734)" fill="#104E88"/>
<ellipse cx="147.131" cy="28.8004" rx="3.71406" ry="3.63013" transform="rotate(179.687 147.131 28.8004)" fill="#104E88"/>
<ellipse cx="135.061" cy="28.8648" rx="3.71406" ry="3.63013" transform="rotate(179.687 135.061 28.8648)" fill="#104E88"/>
<ellipse cx="122.989" cy="28.9332" rx="3.71406" ry="3.63013" transform="rotate(179.687 122.989 28.9332)" fill="#104E88"/>
<ellipse cx="110.918" cy="28.9957" rx="3.71406" ry="3.63013" transform="rotate(179.687 110.918 28.9957)" fill="#104E88"/>
<ellipse cx="98.8465" cy="29.064" rx="3.71406" ry="3.63013" transform="rotate(179.687 98.8465 29.064)" fill="#104E88"/>
<ellipse cx="86.7762" cy="29.1305" rx="3.71406" ry="3.63013" transform="rotate(179.687 86.7762 29.1305)" fill="#104E88"/>
<ellipse cx="74.7049" cy="29.1949" rx="3.71406" ry="3.63013" transform="rotate(179.687 74.7049 29.1949)" fill="#104E88"/>
<ellipse cx="62.6333" cy="29.2613" rx="3.71406" ry="3.63013" transform="rotate(179.687 62.6333 29.2613)" fill="#104E88"/>
<ellipse cx="50.5623" cy="29.3297" rx="3.71406" ry="3.63013" transform="rotate(179.687 50.5623 29.3297)" fill="#104E88"/>
<ellipse cx="38.4905" cy="29.3941" rx="3.71406" ry="3.63013" transform="rotate(179.687 38.4905 29.3941)" fill="#104E88"/>
<ellipse cx="26.42" cy="29.4586" rx="3.71406" ry="3.63013" transform="rotate(179.687 26.42 29.4586)" fill="#104E88"/>
<ellipse cx="14.3487" cy="29.5289" rx="3.71406" ry="3.63013" transform="rotate(179.687 14.3487 29.5289)" fill="#104E88"/>
<ellipse cx="2.27739" cy="29.5914" rx="3.71406" ry="3.63013" transform="rotate(179.687 2.27739 29.5914)" fill="#104E88"/>
<ellipse cx="255.707" cy="16.4078" rx="3.71406" ry="3.63013" transform="rotate(179.687 255.707 16.4078)" fill="#104E88"/>
<ellipse cx="243.636" cy="16.4762" rx="3.71406" ry="3.63013" transform="rotate(179.687 243.636 16.4762)" fill="#104E88"/>
<ellipse cx="231.565" cy="16.5387" rx="3.71406" ry="3.63013" transform="rotate(179.687 231.565 16.5387)" fill="#104E88"/>
<ellipse cx="219.493" cy="16.607" rx="3.71406" ry="3.63013" transform="rotate(179.687 219.493 16.607)" fill="#104E88"/>
<ellipse cx="207.422" cy="16.6754" rx="3.71406" ry="3.63013" transform="rotate(179.687 207.422 16.6754)" fill="#104E88"/>
<ellipse cx="195.352" cy="16.7379" rx="3.71406" ry="3.63013" transform="rotate(179.687 195.352 16.7379)" fill="#104E88"/>
<ellipse cx="183.28" cy="16.8043" rx="3.71406" ry="3.63013" transform="rotate(179.687 183.28 16.8043)" fill="#104E88"/>
<ellipse cx="171.209" cy="16.8687" rx="3.71406" ry="3.63013" transform="rotate(179.687 171.209 16.8687)" fill="#104E88"/>
<ellipse cx="159.138" cy="16.9351" rx="3.71406" ry="3.63013" transform="rotate(179.687 159.138 16.9351)" fill="#104E88"/>
<ellipse cx="147.066" cy="17.0035" rx="3.71406" ry="3.63013" transform="rotate(179.687 147.066 17.0035)" fill="#104E88"/>
<ellipse cx="134.996" cy="17.066" rx="3.71406" ry="3.63013" transform="rotate(179.687 134.996 17.066)" fill="#104E88"/>
<ellipse cx="122.924" cy="17.1344" rx="3.71406" ry="3.63013" transform="rotate(179.687 122.924 17.1344)" fill="#104E88"/>
<ellipse cx="110.853" cy="17.1988" rx="3.71406" ry="3.63013" transform="rotate(179.687 110.853 17.1988)" fill="#104E88"/>
<ellipse cx="98.7825" cy="17.2652" rx="3.71406" ry="3.63013" transform="rotate(179.687 98.7825 17.2652)" fill="#104E88"/>
<ellipse cx="86.7115" cy="17.3316" rx="3.71406" ry="3.63013" transform="rotate(179.687 86.7115 17.3316)" fill="#104E88"/>
<ellipse cx="74.6404" cy="17.3941" rx="3.71406" ry="3.63013" transform="rotate(179.687 74.6404 17.3941)" fill="#104E88"/>
<ellipse cx="62.5691" cy="17.4625" rx="3.71406" ry="3.63013" transform="rotate(179.687 62.5691 17.4625)" fill="#104E88"/>
<ellipse cx="50.4981" cy="17.5289" rx="3.71406" ry="3.63013" transform="rotate(179.687 50.4981 17.5289)" fill="#104E88"/>
<ellipse cx="38.427" cy="17.5933" rx="3.71406" ry="3.63013" transform="rotate(179.687 38.427 17.5933)" fill="#104E88"/>
<ellipse cx="26.3553" cy="17.6617" rx="3.71406" ry="3.63013" transform="rotate(179.687 26.3553 17.6617)" fill="#104E88"/>
<ellipse cx="14.2845" cy="17.7281" rx="3.71406" ry="3.63013" transform="rotate(179.687 14.2845 17.7281)" fill="#104E88"/>
<ellipse cx="2.21342" cy="17.7906" rx="3.71406" ry="3.63013" transform="rotate(179.687 2.21342 17.7906)" fill="#104E88"/>
<ellipse cx="255.643" cy="4.60897" rx="3.71406" ry="3.63013" transform="rotate(179.687 255.643 4.60897)" fill="#104E88"/>
<ellipse cx="243.572" cy="4.67537" rx="3.71406" ry="3.63013" transform="rotate(179.687 243.572 4.67537)" fill="#104E88"/>
<ellipse cx="231.501" cy="4.74178" rx="3.71406" ry="3.63013" transform="rotate(179.687 231.501 4.74178)" fill="#104E88"/>
<ellipse cx="219.429" cy="4.80623" rx="3.71406" ry="3.63013" transform="rotate(179.687 219.429 4.80623)" fill="#104E88"/>
<ellipse cx="207.358" cy="4.87459" rx="3.71406" ry="3.63013" transform="rotate(179.687 207.358 4.87459)" fill="#104E88"/>
<ellipse cx="195.287" cy="4.93905" rx="3.71406" ry="3.63013" transform="rotate(179.687 195.287 4.93905)" fill="#104E88"/>
<ellipse cx="183.216" cy="5.0035" rx="3.71406" ry="3.63013" transform="rotate(179.687 183.216 5.0035)" fill="#104E88"/>
<ellipse cx="171.145" cy="5.07381" rx="3.71406" ry="3.63013" transform="rotate(179.687 171.145 5.07381)" fill="#104E88"/>
<ellipse cx="159.074" cy="5.13826" rx="3.71406" ry="3.63013" transform="rotate(179.687 159.074 5.13826)" fill="#104E88"/>
<ellipse cx="147.003" cy="5.20272" rx="3.71406" ry="3.63013" transform="rotate(179.687 147.003 5.20272)" fill="#104E88"/>
<ellipse cx="134.931" cy="5.26912" rx="3.71406" ry="3.63013" transform="rotate(179.687 134.931 5.26912)" fill="#104E88"/>
<ellipse cx="122.86" cy="5.33553" rx="3.71406" ry="3.63013" transform="rotate(179.687 122.86 5.33553)" fill="#104E88"/>
<ellipse cx="110.789" cy="5.39998" rx="3.71406" ry="3.63013" transform="rotate(179.687 110.789 5.39998)" fill="#104E88"/>
<ellipse cx="98.7178" cy="5.46639" rx="3.71406" ry="3.63013" transform="rotate(179.687 98.7178 5.46639)" fill="#104E88"/>
<ellipse cx="86.6468" cy="5.53475" rx="3.71406" ry="3.63013" transform="rotate(179.687 86.6468 5.53475)" fill="#104E88"/>
<ellipse cx="74.576" cy="5.5992" rx="3.71406" ry="3.63013" transform="rotate(179.687 74.576 5.5992)" fill="#104E88"/>
<ellipse cx="62.5052" cy="5.66365" rx="3.71406" ry="3.63013" transform="rotate(179.687 62.5052 5.66365)" fill="#104E88"/>
<ellipse cx="50.4334" cy="5.73201" rx="3.71406" ry="3.63013" transform="rotate(179.687 50.4334 5.73201)" fill="#104E88"/>
<ellipse cx="38.3621" cy="5.79842" rx="3.71406" ry="3.63013" transform="rotate(179.687 38.3621 5.79842)" fill="#104E88"/>
<ellipse cx="26.2908" cy="5.86287" rx="3.71406" ry="3.63013" transform="rotate(179.687 26.2908 5.86287)" fill="#104E88"/>
<ellipse cx="14.2198" cy="5.92928" rx="3.71406" ry="3.63013" transform="rotate(179.687 14.2198 5.92928)" fill="#104E88"/>
<ellipse cx="2.14848" cy="5.99373" rx="3.71406" ry="3.63013" transform="rotate(179.687 2.14848 5.99373)" fill="#104E88"/>
</g>
</g>
</svg>
