<svg width="212" height="106" viewBox="0 0 212 106" fill="none" xmlns="http://www.w3.org/2000/svg">
<mask id="mask0" mask-type="alpha" maskUnits="userSpaceOnUse" x="0" y="0" width="212" height="106">
<path d="M49.3552 0C49.3782 31.2783 74.728 56.6262 106.004 56.6262C137.277 56.6262 162.625 31.2783 162.648 0H212C211.986 58.5481 164.533 106 105.999 106C47.471 106 0.0212295 58.5481 0 0" fill="white"/>
</mask>
<g mask="url(#mask0)">
<mask id="mask1" mask-type="alpha" maskUnits="userSpaceOnUse" x="-47" y="-112" width="305" height="301">
<ellipse cx="105.68" cy="38.5141" rx="126.299" ry="123.292" transform="rotate(-13.8773 105.68 38.5141)" fill="#E8F3FC"/>
</mask>
<g mask="url(#mask1)">
<ellipse cx="4.2115" cy="3.02584" rx="2.26637" ry="2.21515" transform="rotate(-0.439137 4.2115 3.02584)" fill="#FF6701"/>
<ellipse cx="11.5772" cy="2.97115" rx="2.26637" ry="2.21515" transform="rotate(-0.439137 11.5772 2.97115)" fill="#FF6701"/>
<ellipse cx="18.9427" cy="2.91451" rx="2.26637" ry="2.21515" transform="rotate(-0.439137 18.9427 2.91451)" fill="#FF6701"/>
<ellipse cx="26.3084" cy="2.85592" rx="2.26637" ry="2.21515" transform="rotate(-0.439137 26.3084 2.85592)" fill="#FF6701"/>
<ellipse cx="33.6737" cy="2.80123" rx="2.26637" ry="2.21515" transform="rotate(-0.439137 33.6737 2.80123)" fill="#FF6701"/>
<ellipse cx="41.0391" cy="2.74459" rx="2.26637" ry="2.21515" transform="rotate(-0.439137 41.0391 2.74459)" fill="#FF6701"/>
<ellipse cx="48.4044" cy="2.68795" rx="2.26637" ry="2.21515" transform="rotate(-0.439137 48.4044 2.68795)" fill="#FF6701"/>
<ellipse cx="55.7701" cy="2.63131" rx="2.26637" ry="2.21515" transform="rotate(-0.439137 55.7701 2.63131)" fill="#FF6701"/>
<ellipse cx="63.1353" cy="2.57662" rx="2.26637" ry="2.21515" transform="rotate(-0.439137 63.1353 2.57662)" fill="#FF6701"/>
<ellipse cx="70.5008" cy="2.51998" rx="2.26637" ry="2.21515" transform="rotate(-0.439137 70.5008 2.51998)" fill="#FF6701"/>
<ellipse cx="77.8663" cy="2.46334" rx="2.26637" ry="2.21515" transform="rotate(-0.439137 77.8663 2.46334)" fill="#FF6701"/>
<ellipse cx="85.2323" cy="2.4067" rx="2.26637" ry="2.21515" transform="rotate(-0.439137 85.2323 2.4067)" fill="#FF6701"/>
<ellipse cx="92.5972" cy="2.35006" rx="2.26637" ry="2.21515" transform="rotate(-0.439137 92.5972 2.35006)" fill="#FF6701"/>
<ellipse cx="99.963" cy="2.29342" rx="2.26637" ry="2.21515" transform="rotate(-0.439137 99.963 2.29342)" fill="#FF6701"/>
<ellipse cx="107.329" cy="2.23678" rx="2.26637" ry="2.21515" transform="rotate(-0.439137 107.329 2.23678)" fill="#FF6701"/>
<ellipse cx="114.694" cy="2.18014" rx="2.26637" ry="2.21515" transform="rotate(-0.439137 114.694 2.18014)" fill="#FF6701"/>
<ellipse cx="122.059" cy="2.1235" rx="2.26637" ry="2.21515" transform="rotate(-0.439137 122.059 2.1235)" fill="#FF6701"/>
<ellipse cx="129.425" cy="2.06686" rx="2.26637" ry="2.21515" transform="rotate(-0.439137 129.425 2.06686)" fill="#FF6701"/>
<ellipse cx="136.79" cy="2.01022" rx="2.26637" ry="2.21515" transform="rotate(-0.439137 136.79 2.01022)" fill="#FF6701"/>
<ellipse cx="144.156" cy="1.95553" rx="2.26637" ry="2.21515" transform="rotate(-0.439137 144.156 1.95553)" fill="#FF6701"/>
<ellipse cx="151.522" cy="1.89693" rx="2.26637" ry="2.21515" transform="rotate(-0.439137 151.522 1.89693)" fill="#FF6701"/>
<ellipse cx="158.887" cy="1.84225" rx="2.26637" ry="2.21515" transform="rotate(-0.439137 158.887 1.84225)" fill="#FF6701"/>
<ellipse cx="166.253" cy="1.78561" rx="2.26637" ry="2.21515" transform="rotate(-0.439137 166.253 1.78561)" fill="#FF6701"/>
<ellipse cx="173.618" cy="1.72701" rx="2.26637" ry="2.21515" transform="rotate(-0.439137 173.618 1.72701)" fill="#FF6701"/>
<ellipse cx="180.983" cy="1.67232" rx="2.26637" ry="2.21515" transform="rotate(-0.439137 180.983 1.67232)" fill="#FF6701"/>
<ellipse cx="188.349" cy="1.61568" rx="2.26637" ry="2.21515" transform="rotate(-0.439137 188.349 1.61568)" fill="#FF6701"/>
<ellipse cx="195.714" cy="1.55904" rx="2.26637" ry="2.21515" transform="rotate(-0.439137 195.714 1.55904)" fill="#FF6701"/>
<ellipse cx="203.08" cy="1.50436" rx="2.26637" ry="2.21515" transform="rotate(-0.439137 203.08 1.50436)" fill="#FF6701"/>
<ellipse cx="210.445" cy="1.44576" rx="2.26637" ry="2.21515" transform="rotate(-0.439137 210.445 1.44576)" fill="#FF6701"/>
<ellipse cx="4.26668" cy="10.2251" rx="2.26637" ry="2.21515" transform="rotate(-0.439137 4.26668 10.2251)" fill="#FF6701"/>
<ellipse cx="11.6322" cy="10.1704" rx="2.26637" ry="2.21515" transform="rotate(-0.439137 11.6322 10.1704)" fill="#FF6701"/>
<ellipse cx="18.9979" cy="10.1137" rx="2.26637" ry="2.21515" transform="rotate(-0.439137 18.9979 10.1137)" fill="#FF6701"/>
<ellipse cx="26.3631" cy="10.0571" rx="2.26637" ry="2.21515" transform="rotate(-0.439137 26.3631 10.0571)" fill="#FF6701"/>
<ellipse cx="33.7286" cy="10.0005" rx="2.26637" ry="2.21515" transform="rotate(-0.439137 33.7286 10.0005)" fill="#FF6701"/>
<ellipse cx="41.0941" cy="9.94381" rx="2.26637" ry="2.21515" transform="rotate(-0.439137 41.0941 9.94381)" fill="#FF6701"/>
<ellipse cx="48.4598" cy="9.88717" rx="2.26637" ry="2.21515" transform="rotate(-0.439137 48.4598 9.88717)" fill="#FF6701"/>
<ellipse cx="55.8248" cy="9.83053" rx="2.26637" ry="2.21515" transform="rotate(-0.439137 55.8248 9.83053)" fill="#FF6701"/>
<ellipse cx="63.1908" cy="9.77389" rx="2.26637" ry="2.21515" transform="rotate(-0.439137 63.1908 9.77389)" fill="#FF6701"/>
<ellipse cx="70.5562" cy="9.71725" rx="2.26637" ry="2.21515" transform="rotate(-0.439137 70.5562 9.71725)" fill="#FF6701"/>
<ellipse cx="77.9217" cy="9.66061" rx="2.26637" ry="2.21515" transform="rotate(-0.439137 77.9217 9.66061)" fill="#FF6701"/>
<ellipse cx="85.2872" cy="9.60592" rx="2.26637" ry="2.21515" transform="rotate(-0.439137 85.2872 9.60592)" fill="#FF6701"/>
<ellipse cx="92.6527" cy="9.54928" rx="2.26637" ry="2.21515" transform="rotate(-0.439137 92.6527 9.54928)" fill="#FF6701"/>
<ellipse cx="100.019" cy="9.49068" rx="2.26637" ry="2.21515" transform="rotate(-0.439137 100.019 9.49068)" fill="#FF6701"/>
<ellipse cx="107.384" cy="9.436" rx="2.26637" ry="2.21515" transform="rotate(-0.439137 107.384 9.436)" fill="#FF6701"/>
<ellipse cx="114.749" cy="9.37936" rx="2.26637" ry="2.21515" transform="rotate(-0.439137 114.749 9.37936)" fill="#FF6701"/>
<ellipse cx="122.114" cy="9.32272" rx="2.26637" ry="2.21515" transform="rotate(-0.439137 122.114 9.32272)" fill="#FF6701"/>
<ellipse cx="129.48" cy="9.26608" rx="2.26637" ry="2.21515" transform="rotate(-0.439137 129.48 9.26608)" fill="#FF6701"/>
<ellipse cx="136.845" cy="9.20943" rx="2.26637" ry="2.21515" transform="rotate(-0.439137 136.845 9.20943)" fill="#FF6701"/>
<ellipse cx="144.211" cy="9.15475" rx="2.26637" ry="2.21515" transform="rotate(-0.439137 144.211 9.15475)" fill="#FF6701"/>
<ellipse cx="151.576" cy="9.09615" rx="2.26637" ry="2.21515" transform="rotate(-0.439137 151.576 9.09615)" fill="#FF6701"/>
<ellipse cx="158.942" cy="9.03951" rx="2.26637" ry="2.21515" transform="rotate(-0.439137 158.942 9.03951)" fill="#FF6701"/>
<ellipse cx="166.308" cy="8.98483" rx="2.26637" ry="2.21515" transform="rotate(-0.439137 166.308 8.98483)" fill="#FF6701"/>
<ellipse cx="173.673" cy="8.92818" rx="2.26637" ry="2.21515" transform="rotate(-0.439137 173.673 8.92818)" fill="#FF6701"/>
<ellipse cx="181.039" cy="8.87154" rx="2.26637" ry="2.21515" transform="rotate(-0.439137 181.039 8.87154)" fill="#FF6701"/>
<ellipse cx="188.404" cy="8.81295" rx="2.26637" ry="2.21515" transform="rotate(-0.439137 188.404 8.81295)" fill="#FF6701"/>
<ellipse cx="195.77" cy="8.75826" rx="2.26637" ry="2.21515" transform="rotate(-0.439137 195.77 8.75826)" fill="#FF6701"/>
<ellipse cx="203.135" cy="8.70358" rx="2.26637" ry="2.21515" transform="rotate(-0.439137 203.135 8.70358)" fill="#FF6701"/>
<ellipse cx="210.501" cy="8.64498" rx="2.26637" ry="2.21515" transform="rotate(-0.439137 210.501 8.64498)" fill="#FF6701"/>
<ellipse cx="4.32161" cy="17.4243" rx="2.26637" ry="2.21515" transform="rotate(-0.439137 4.32161 17.4243)" fill="#FF6701"/>
<ellipse cx="11.6876" cy="17.3676" rx="2.26637" ry="2.21515" transform="rotate(-0.439137 11.6876 17.3676)" fill="#FF6701"/>
<ellipse cx="19.0531" cy="17.311" rx="2.26637" ry="2.21515" transform="rotate(-0.439137 19.0531 17.311)" fill="#FF6701"/>
<ellipse cx="26.4183" cy="17.2544" rx="2.26637" ry="2.21515" transform="rotate(-0.439137 26.4183 17.2544)" fill="#FF6701"/>
<ellipse cx="33.784" cy="17.1997" rx="2.26637" ry="2.21515" transform="rotate(-0.439137 33.784 17.1997)" fill="#FF6701"/>
<ellipse cx="41.1495" cy="17.1411" rx="2.26637" ry="2.21515" transform="rotate(-0.439137 41.1495 17.1411)" fill="#FF6701"/>
<ellipse cx="48.515" cy="17.0864" rx="2.26637" ry="2.21515" transform="rotate(-0.439137 48.515 17.0864)" fill="#FF6701"/>
<ellipse cx="55.8802" cy="17.0317" rx="2.26637" ry="2.21515" transform="rotate(-0.439137 55.8802 17.0317)" fill="#FF6701"/>
<ellipse cx="63.2462" cy="16.9712" rx="2.26637" ry="2.21515" transform="rotate(-0.439137 63.2462 16.9712)" fill="#FF6701"/>
<ellipse cx="70.6114" cy="16.9165" rx="2.26637" ry="2.21515" transform="rotate(-0.439137 70.6114 16.9165)" fill="#FF6701"/>
<ellipse cx="77.9766" cy="16.8598" rx="2.26637" ry="2.21515" transform="rotate(-0.439137 77.9766 16.8598)" fill="#FF6701"/>
<ellipse cx="85.3426" cy="16.8032" rx="2.26637" ry="2.21515" transform="rotate(-0.439137 85.3426 16.8032)" fill="#FF6701"/>
<ellipse cx="92.7081" cy="16.7465" rx="2.26637" ry="2.21515" transform="rotate(-0.439137 92.7081 16.7465)" fill="#FF6701"/>
<ellipse cx="100.074" cy="16.6899" rx="2.26637" ry="2.21515" transform="rotate(-0.439137 100.074 16.6899)" fill="#FF6701"/>
<ellipse cx="107.439" cy="16.6333" rx="2.26637" ry="2.21515" transform="rotate(-0.439137 107.439 16.6333)" fill="#FF6701"/>
<ellipse cx="114.804" cy="16.5786" rx="2.26637" ry="2.21515" transform="rotate(-0.439137 114.804 16.5786)" fill="#FF6701"/>
<ellipse cx="122.17" cy="16.5219" rx="2.26637" ry="2.21515" transform="rotate(-0.439137 122.17 16.5219)" fill="#FF6701"/>
<ellipse cx="129.535" cy="16.4653" rx="2.26637" ry="2.21515" transform="rotate(-0.439137 129.535 16.4653)" fill="#FF6701"/>
<ellipse cx="136.9" cy="16.4106" rx="2.26637" ry="2.21515" transform="rotate(-0.439137 136.9 16.4106)" fill="#FF6701"/>
<ellipse cx="144.266" cy="16.3501" rx="2.26637" ry="2.21515" transform="rotate(-0.439137 144.266 16.3501)" fill="#FF6701"/>
<ellipse cx="151.632" cy="16.2954" rx="2.26637" ry="2.21515" transform="rotate(-0.439137 151.632 16.2954)" fill="#FF6701"/>
<ellipse cx="158.997" cy="16.2387" rx="2.26637" ry="2.21515" transform="rotate(-0.439137 158.997 16.2387)" fill="#FF6701"/>
<ellipse cx="166.363" cy="16.184" rx="2.26637" ry="2.21515" transform="rotate(-0.439137 166.363 16.184)" fill="#FF6701"/>
<ellipse cx="173.728" cy="16.1274" rx="2.26637" ry="2.21515" transform="rotate(-0.439137 173.728 16.1274)" fill="#FF6701"/>
<ellipse cx="181.094" cy="16.0688" rx="2.26637" ry="2.21515" transform="rotate(-0.439137 181.094 16.0688)" fill="#FF6701"/>
<ellipse cx="188.459" cy="16.0122" rx="2.26637" ry="2.21515" transform="rotate(-0.439137 188.459 16.0122)" fill="#FF6701"/>
<ellipse cx="195.825" cy="15.9575" rx="2.26637" ry="2.21515" transform="rotate(-0.439137 195.825 15.9575)" fill="#FF6701"/>
<ellipse cx="203.19" cy="15.9028" rx="2.26637" ry="2.21515" transform="rotate(-0.439137 203.19 15.9028)" fill="#FF6701"/>
<ellipse cx="210.555" cy="15.8442" rx="2.26637" ry="2.21515" transform="rotate(-0.439137 210.555 15.8442)" fill="#FF6701"/>
<ellipse cx="4.37728" cy="24.6235" rx="2.26637" ry="2.21515" transform="rotate(-0.439137 4.37728 24.6235)" fill="#FF6701"/>
<ellipse cx="11.7428" cy="24.5688" rx="2.26637" ry="2.21515" transform="rotate(-0.439137 11.7428 24.5688)" fill="#FF6701"/>
<ellipse cx="19.108" cy="24.5122" rx="2.26637" ry="2.21515" transform="rotate(-0.439137 19.108 24.5122)" fill="#FF6701"/>
<ellipse cx="26.4737" cy="24.4555" rx="2.26637" ry="2.21515" transform="rotate(-0.439137 26.4737 24.4555)" fill="#FF6701"/>
<ellipse cx="33.8392" cy="24.3989" rx="2.26637" ry="2.21515" transform="rotate(-0.439137 33.8392 24.3989)" fill="#FF6701"/>
<ellipse cx="41.2049" cy="24.3403" rx="2.26637" ry="2.21515" transform="rotate(-0.439137 41.2049 24.3403)" fill="#FF6701"/>
<ellipse cx="48.5704" cy="24.2856" rx="2.26637" ry="2.21515" transform="rotate(-0.439137 48.5704 24.2856)" fill="#FF6701"/>
<ellipse cx="55.9356" cy="24.229" rx="2.26637" ry="2.21515" transform="rotate(-0.439137 55.9356 24.229)" fill="#FF6701"/>
<ellipse cx="63.3011" cy="24.1723" rx="2.26637" ry="2.21515" transform="rotate(-0.439137 63.3011 24.1723)" fill="#FF6701"/>
<ellipse cx="70.6666" cy="24.1157" rx="2.26637" ry="2.21515" transform="rotate(-0.439137 70.6666 24.1157)" fill="#FF6701"/>
<ellipse cx="78.0321" cy="24.059" rx="2.26637" ry="2.21515" transform="rotate(-0.439137 78.0321 24.059)" fill="#FF6701"/>
<ellipse cx="85.3978" cy="24.0024" rx="2.26637" ry="2.21515" transform="rotate(-0.439137 85.3978 24.0024)" fill="#FF6701"/>
<ellipse cx="92.763" cy="23.9477" rx="2.26637" ry="2.21515" transform="rotate(-0.439137 92.763 23.9477)" fill="#FF6701"/>
<ellipse cx="100.129" cy="23.8891" rx="2.26637" ry="2.21515" transform="rotate(-0.439137 100.129 23.8891)" fill="#FF6701"/>
<ellipse cx="107.494" cy="23.8344" rx="2.26637" ry="2.21515" transform="rotate(-0.439137 107.494 23.8344)" fill="#FF6701"/>
<ellipse cx="114.859" cy="23.7758" rx="2.26637" ry="2.21515" transform="rotate(-0.439137 114.859 23.7758)" fill="#FF6701"/>
<ellipse cx="122.225" cy="23.7212" rx="2.26637" ry="2.21515" transform="rotate(-0.439137 122.225 23.7212)" fill="#FF6701"/>
<ellipse cx="129.59" cy="23.6645" rx="2.26637" ry="2.21515" transform="rotate(-0.439137 129.59 23.6645)" fill="#FF6701"/>
<ellipse cx="136.956" cy="23.6079" rx="2.26637" ry="2.21515" transform="rotate(-0.439137 136.956 23.6079)" fill="#FF6701"/>
<ellipse cx="144.321" cy="23.5512" rx="2.26637" ry="2.21515" transform="rotate(-0.439137 144.321 23.5512)" fill="#FF6701"/>
<ellipse cx="151.687" cy="23.4946" rx="2.26637" ry="2.21515" transform="rotate(-0.439137 151.687 23.4946)" fill="#FF6701"/>
<ellipse cx="159.052" cy="23.438" rx="2.26637" ry="2.21515" transform="rotate(-0.439137 159.052 23.438)" fill="#FF6701"/>
<ellipse cx="166.418" cy="23.3813" rx="2.26637" ry="2.21515" transform="rotate(-0.439137 166.418 23.3813)" fill="#FF6701"/>
<ellipse cx="173.784" cy="23.3266" rx="2.26637" ry="2.21515" transform="rotate(-0.439137 173.784 23.3266)" fill="#FF6701"/>
<ellipse cx="181.149" cy="23.268" rx="2.26637" ry="2.21515" transform="rotate(-0.439137 181.149 23.268)" fill="#FF6701"/>
<ellipse cx="188.514" cy="23.2133" rx="2.26637" ry="2.21515" transform="rotate(-0.439137 188.514 23.2133)" fill="#FF6701"/>
<ellipse cx="195.88" cy="23.1567" rx="2.26637" ry="2.21515" transform="rotate(-0.439137 195.88 23.1567)" fill="#FF6701"/>
<ellipse cx="203.245" cy="23.1001" rx="2.26637" ry="2.21515" transform="rotate(-0.439137 203.245 23.1001)" fill="#FF6701"/>
<ellipse cx="210.611" cy="23.0434" rx="2.26637" ry="2.21515" transform="rotate(-0.439137 210.611 23.0434)" fill="#FF6701"/>
<ellipse cx="4.43196" cy="31.8227" rx="2.26637" ry="2.21515" transform="rotate(-0.439137 4.43196 31.8227)" fill="#FF6701"/>
<ellipse cx="11.7979" cy="31.768" rx="2.26637" ry="2.21515" transform="rotate(-0.439137 11.7979 31.768)" fill="#FF6701"/>
<ellipse cx="19.1634" cy="31.7094" rx="2.26637" ry="2.21515" transform="rotate(-0.439137 19.1634 31.7094)" fill="#FF6701"/>
<ellipse cx="26.5289" cy="31.6547" rx="2.26637" ry="2.21515" transform="rotate(-0.439137 26.5289 31.6547)" fill="#FF6701"/>
<ellipse cx="33.8946" cy="31.5962" rx="2.26637" ry="2.21515" transform="rotate(-0.439137 33.8946 31.5962)" fill="#FF6701"/>
<ellipse cx="41.2598" cy="31.5415" rx="2.26637" ry="2.21515" transform="rotate(-0.439137 41.2598 31.5415)" fill="#FF6701"/>
<ellipse cx="48.6253" cy="31.4848" rx="2.26637" ry="2.21515" transform="rotate(-0.439137 48.6253 31.4848)" fill="#FF6701"/>
<ellipse cx="55.9906" cy="31.4282" rx="2.26637" ry="2.21515" transform="rotate(-0.439137 55.9906 31.4282)" fill="#FF6701"/>
<ellipse cx="63.356" cy="31.3715" rx="2.26637" ry="2.21515" transform="rotate(-0.439137 63.356 31.3715)" fill="#FF6701"/>
<ellipse cx="70.7215" cy="31.3169" rx="2.26637" ry="2.21515" transform="rotate(-0.439137 70.7215 31.3169)" fill="#FF6701"/>
<ellipse cx="78.0872" cy="31.2563" rx="2.26637" ry="2.21515" transform="rotate(-0.439137 78.0872 31.2563)" fill="#FF6701"/>
<ellipse cx="85.4527" cy="31.2016" rx="2.26637" ry="2.21515" transform="rotate(-0.439137 85.4527 31.2016)" fill="#FF6701"/>
<ellipse cx="92.8184" cy="31.1469" rx="2.26637" ry="2.21515" transform="rotate(-0.439137 92.8184 31.1469)" fill="#FF6701"/>
<ellipse cx="100.183" cy="31.0903" rx="2.26637" ry="2.21515" transform="rotate(-0.439137 100.183 31.0903)" fill="#FF6701"/>
<ellipse cx="107.549" cy="31.0337" rx="2.26637" ry="2.21515" transform="rotate(-0.439137 107.549 31.0337)" fill="#FF6701"/>
<ellipse cx="114.915" cy="30.977" rx="2.26637" ry="2.21515" transform="rotate(-0.439137 114.915 30.977)" fill="#FF6701"/>
<ellipse cx="122.28" cy="30.9204" rx="2.26637" ry="2.21515" transform="rotate(-0.439137 122.28 30.9204)" fill="#FF6701"/>
<ellipse cx="129.646" cy="30.8637" rx="2.26637" ry="2.21515" transform="rotate(-0.439137 129.646 30.8637)" fill="#FF6701"/>
<ellipse cx="137.011" cy="30.8071" rx="2.26637" ry="2.21515" transform="rotate(-0.439137 137.011 30.8071)" fill="#FF6701"/>
<ellipse cx="144.377" cy="30.7505" rx="2.26637" ry="2.21515" transform="rotate(-0.439137 144.377 30.7505)" fill="#FF6701"/>
<ellipse cx="151.742" cy="30.6938" rx="2.26637" ry="2.21515" transform="rotate(-0.439137 151.742 30.6938)" fill="#FF6701"/>
<ellipse cx="159.107" cy="30.6372" rx="2.26637" ry="2.21515" transform="rotate(-0.439137 159.107 30.6372)" fill="#FF6701"/>
<ellipse cx="166.473" cy="30.5805" rx="2.26637" ry="2.21515" transform="rotate(-0.439137 166.473 30.5805)" fill="#FF6701"/>
<ellipse cx="173.839" cy="30.5258" rx="2.26637" ry="2.21515" transform="rotate(-0.439137 173.839 30.5258)" fill="#FF6701"/>
<ellipse cx="181.204" cy="30.4672" rx="2.26637" ry="2.21515" transform="rotate(-0.439137 181.204 30.4672)" fill="#FF6701"/>
<ellipse cx="188.57" cy="30.4126" rx="2.26637" ry="2.21515" transform="rotate(-0.439137 188.57 30.4126)" fill="#FF6701"/>
<ellipse cx="195.935" cy="30.354" rx="2.26637" ry="2.21515" transform="rotate(-0.439137 195.935 30.354)" fill="#FF6701"/>
<ellipse cx="203.301" cy="30.2993" rx="2.26637" ry="2.21515" transform="rotate(-0.439137 203.301 30.2993)" fill="#FF6701"/>
<ellipse cx="210.666" cy="30.2426" rx="2.26637" ry="2.21515" transform="rotate(-0.439137 210.666 30.2426)" fill="#FF6701"/>
<ellipse cx="4.48738" cy="39.0219" rx="2.26637" ry="2.21515" transform="rotate(-0.439137 4.48738 39.0219)" fill="#FF6701"/>
<ellipse cx="11.8531" cy="38.9653" rx="2.26637" ry="2.21515" transform="rotate(-0.439137 11.8531 38.9653)" fill="#FF6701"/>
<ellipse cx="19.2183" cy="38.9087" rx="2.26637" ry="2.21515" transform="rotate(-0.439137 19.2183 38.9087)" fill="#FF6701"/>
<ellipse cx="26.5841" cy="38.852" rx="2.26637" ry="2.21515" transform="rotate(-0.439137 26.5841 38.852)" fill="#FF6701"/>
<ellipse cx="33.9495" cy="38.7954" rx="2.26637" ry="2.21515" transform="rotate(-0.439137 33.9495 38.7954)" fill="#FF6701"/>
<ellipse cx="41.3153" cy="38.7407" rx="2.26637" ry="2.21515" transform="rotate(-0.439137 41.3153 38.7407)" fill="#FF6701"/>
<ellipse cx="48.6805" cy="38.684" rx="2.26637" ry="2.21515" transform="rotate(-0.439137 48.6805 38.684)" fill="#FF6701"/>
<ellipse cx="56.0457" cy="38.6274" rx="2.26637" ry="2.21515" transform="rotate(-0.439137 56.0457 38.6274)" fill="#FF6701"/>
<ellipse cx="63.4112" cy="38.5708" rx="2.26637" ry="2.21515" transform="rotate(-0.439137 63.4112 38.5708)" fill="#FF6701"/>
<ellipse cx="70.7769" cy="38.5122" rx="2.26637" ry="2.21515" transform="rotate(-0.439137 70.7769 38.5122)" fill="#FF6701"/>
<ellipse cx="78.1427" cy="38.4575" rx="2.26637" ry="2.21515" transform="rotate(-0.439137 78.1427 38.4575)" fill="#FF6701"/>
<ellipse cx="85.5079" cy="38.4008" rx="2.26637" ry="2.21515" transform="rotate(-0.439137 85.5079 38.4008)" fill="#FF6701"/>
<ellipse cx="92.8734" cy="38.3442" rx="2.26637" ry="2.21515" transform="rotate(-0.439137 92.8734 38.3442)" fill="#FF6701"/>
<ellipse cx="100.239" cy="38.2876" rx="2.26637" ry="2.21515" transform="rotate(-0.439137 100.239 38.2876)" fill="#FF6701"/>
<ellipse cx="107.604" cy="38.2309" rx="2.26637" ry="2.21515" transform="rotate(-0.439137 107.604 38.2309)" fill="#FF6701"/>
<ellipse cx="114.97" cy="38.1743" rx="2.26637" ry="2.21515" transform="rotate(-0.439137 114.97 38.1743)" fill="#FF6701"/>
<ellipse cx="122.335" cy="38.1196" rx="2.26637" ry="2.21515" transform="rotate(-0.439137 122.335 38.1196)" fill="#FF6701"/>
<ellipse cx="129.701" cy="38.063" rx="2.26637" ry="2.21515" transform="rotate(-0.439137 129.701 38.063)" fill="#FF6701"/>
<ellipse cx="137.066" cy="38.0044" rx="2.26637" ry="2.21515" transform="rotate(-0.439137 137.066 38.0044)" fill="#FF6701"/>
<ellipse cx="144.432" cy="37.9477" rx="2.26637" ry="2.21515" transform="rotate(-0.439137 144.432 37.9477)" fill="#FF6701"/>
<ellipse cx="151.797" cy="37.8911" rx="2.26637" ry="2.21515" transform="rotate(-0.439137 151.797 37.8911)" fill="#FF6701"/>
<ellipse cx="159.163" cy="37.8364" rx="2.26637" ry="2.21515" transform="rotate(-0.439137 159.163 37.8364)" fill="#FF6701"/>
<ellipse cx="166.528" cy="37.7797" rx="2.26637" ry="2.21515" transform="rotate(-0.439137 166.528 37.7797)" fill="#FF6701"/>
<ellipse cx="173.894" cy="37.7231" rx="2.26637" ry="2.21515" transform="rotate(-0.439137 173.894 37.7231)" fill="#FF6701"/>
<ellipse cx="181.259" cy="37.6665" rx="2.26637" ry="2.21515" transform="rotate(-0.439137 181.259 37.6665)" fill="#FF6701"/>
<ellipse cx="188.625" cy="37.6118" rx="2.26637" ry="2.21515" transform="rotate(-0.439137 188.625 37.6118)" fill="#FF6701"/>
<ellipse cx="195.99" cy="37.5551" rx="2.26637" ry="2.21515" transform="rotate(-0.439137 195.99 37.5551)" fill="#FF6701"/>
<ellipse cx="203.356" cy="37.4985" rx="2.26637" ry="2.21515" transform="rotate(-0.439137 203.356 37.4985)" fill="#FF6701"/>
<ellipse cx="210.721" cy="37.4419" rx="2.26637" ry="2.21515" transform="rotate(-0.439137 210.721 37.4419)" fill="#FF6701"/>
<ellipse cx="4.54256" cy="46.2212" rx="2.26637" ry="2.21515" transform="rotate(-0.439137 4.54256 46.2212)" fill="#FF6701"/>
<ellipse cx="11.9083" cy="46.1645" rx="2.26637" ry="2.21515" transform="rotate(-0.439137 11.9083 46.1645)" fill="#FF6701"/>
<ellipse cx="19.2735" cy="46.1079" rx="2.26637" ry="2.21515" transform="rotate(-0.439137 19.2735 46.1079)" fill="#FF6701"/>
<ellipse cx="26.6392" cy="46.0512" rx="2.26637" ry="2.21515" transform="rotate(-0.439137 26.6392 46.0512)" fill="#FF6701"/>
<ellipse cx="34.0047" cy="45.9946" rx="2.26637" ry="2.21515" transform="rotate(-0.439137 34.0047 45.9946)" fill="#FF6701"/>
<ellipse cx="41.3702" cy="45.9399" rx="2.26637" ry="2.21515" transform="rotate(-0.439137 41.3702 45.9399)" fill="#FF6701"/>
<ellipse cx="48.7357" cy="45.8833" rx="2.26637" ry="2.21515" transform="rotate(-0.439137 48.7357 45.8833)" fill="#FF6701"/>
<ellipse cx="56.1012" cy="45.8266" rx="2.26637" ry="2.21515" transform="rotate(-0.439137 56.1012 45.8266)" fill="#FF6701"/>
<ellipse cx="63.4669" cy="45.768" rx="2.26637" ry="2.21515" transform="rotate(-0.439137 63.4669 45.768)" fill="#FF6701"/>
<ellipse cx="70.8321" cy="45.7114" rx="2.26637" ry="2.21515" transform="rotate(-0.439137 70.8321 45.7114)" fill="#FF6701"/>
<ellipse cx="78.1973" cy="45.6567" rx="2.26637" ry="2.21515" transform="rotate(-0.439137 78.1973 45.6567)" fill="#FF6701"/>
<ellipse cx="85.5633" cy="45.6001" rx="2.26637" ry="2.21515" transform="rotate(-0.439137 85.5633 45.6001)" fill="#FF6701"/>
<ellipse cx="92.9285" cy="45.5454" rx="2.26637" ry="2.21515" transform="rotate(-0.439137 92.9285 45.5454)" fill="#FF6701"/>
<ellipse cx="100.294" cy="45.4868" rx="2.26637" ry="2.21515" transform="rotate(-0.439137 100.294 45.4868)" fill="#FF6701"/>
<ellipse cx="107.66" cy="45.4301" rx="2.26637" ry="2.21515" transform="rotate(-0.439137 107.66 45.4301)" fill="#FF6701"/>
<ellipse cx="115.025" cy="45.3735" rx="2.26637" ry="2.21515" transform="rotate(-0.439137 115.025 45.3735)" fill="#FF6701"/>
<ellipse cx="122.39" cy="45.3188" rx="2.26637" ry="2.21515" transform="rotate(-0.439137 122.39 45.3188)" fill="#FF6701"/>
<ellipse cx="129.756" cy="45.2622" rx="2.26637" ry="2.21515" transform="rotate(-0.439137 129.756 45.2622)" fill="#FF6701"/>
<ellipse cx="137.121" cy="45.2055" rx="2.26637" ry="2.21515" transform="rotate(-0.439137 137.121 45.2055)" fill="#FF6701"/>
<ellipse cx="144.487" cy="45.1489" rx="2.26637" ry="2.21515" transform="rotate(-0.439137 144.487 45.1489)" fill="#FF6701"/>
<ellipse cx="151.852" cy="45.0903" rx="2.26637" ry="2.21515" transform="rotate(-0.439137 151.852 45.0903)" fill="#FF6701"/>
<ellipse cx="159.218" cy="45.0356" rx="2.26637" ry="2.21515" transform="rotate(-0.439137 159.218 45.0356)" fill="#FF6701"/>
<ellipse cx="166.583" cy="44.9809" rx="2.26637" ry="2.21515" transform="rotate(-0.439137 166.583 44.9809)" fill="#FF6701"/>
<ellipse cx="173.949" cy="44.9223" rx="2.26637" ry="2.21515" transform="rotate(-0.439137 173.949 44.9223)" fill="#FF6701"/>
<ellipse cx="181.315" cy="44.8657" rx="2.26637" ry="2.21515" transform="rotate(-0.439137 181.315 44.8657)" fill="#FF6701"/>
<ellipse cx="188.68" cy="44.811" rx="2.26637" ry="2.21515" transform="rotate(-0.439137 188.68 44.811)" fill="#FF6701"/>
<ellipse cx="196.045" cy="44.7524" rx="2.26637" ry="2.21515" transform="rotate(-0.439137 196.045 44.7524)" fill="#FF6701"/>
<ellipse cx="203.411" cy="44.6977" rx="2.26637" ry="2.21515" transform="rotate(-0.439137 203.411 44.6977)" fill="#FF6701"/>
<ellipse cx="210.776" cy="44.6411" rx="2.26637" ry="2.21515" transform="rotate(-0.439137 210.776 44.6411)" fill="#FF6701"/>
<ellipse cx="4.59798" cy="53.4204" rx="2.26637" ry="2.21515" transform="rotate(-0.439137 4.59798 53.4204)" fill="#FF6701"/>
<ellipse cx="11.9637" cy="53.3637" rx="2.26637" ry="2.21515" transform="rotate(-0.439137 11.9637 53.3637)" fill="#FF6701"/>
<ellipse cx="19.3289" cy="53.3071" rx="2.26637" ry="2.21515" transform="rotate(-0.439137 19.3289 53.3071)" fill="#FF6701"/>
<ellipse cx="26.6944" cy="53.2505" rx="2.26637" ry="2.21515" transform="rotate(-0.439137 26.6944 53.2505)" fill="#FF6701"/>
<ellipse cx="34.0601" cy="53.1938" rx="2.26637" ry="2.21515" transform="rotate(-0.439137 34.0601 53.1938)" fill="#FF6701"/>
<ellipse cx="41.4251" cy="53.1391" rx="2.26637" ry="2.21515" transform="rotate(-0.439137 41.4251 53.1391)" fill="#FF6701"/>
<ellipse cx="48.7909" cy="53.0825" rx="2.26637" ry="2.21515" transform="rotate(-0.439137 48.7909 53.0825)" fill="#FF6701"/>
<ellipse cx="56.1563" cy="53.0258" rx="2.26637" ry="2.21515" transform="rotate(-0.439137 56.1563 53.0258)" fill="#FF6701"/>
<ellipse cx="63.5216" cy="52.9692" rx="2.26637" ry="2.21515" transform="rotate(-0.439137 63.5216 52.9692)" fill="#FF6701"/>
<ellipse cx="70.8873" cy="52.9126" rx="2.26637" ry="2.21515" transform="rotate(-0.439137 70.8873 52.9126)" fill="#FF6701"/>
<ellipse cx="78.2528" cy="52.8559" rx="2.26637" ry="2.21515" transform="rotate(-0.439137 78.2528 52.8559)" fill="#FF6701"/>
<ellipse cx="85.6182" cy="52.7993" rx="2.26637" ry="2.21515" transform="rotate(-0.439137 85.6182 52.7993)" fill="#FF6701"/>
<ellipse cx="92.9837" cy="52.7426" rx="2.26637" ry="2.21515" transform="rotate(-0.439137 92.9837 52.7426)" fill="#FF6701"/>
<ellipse cx="100.349" cy="52.688" rx="2.26637" ry="2.21515" transform="rotate(-0.439137 100.349 52.688)" fill="#FF6701"/>
<ellipse cx="107.715" cy="52.6294" rx="2.26637" ry="2.21515" transform="rotate(-0.439137 107.715 52.6294)" fill="#FF6701"/>
<ellipse cx="115.08" cy="52.5727" rx="2.26637" ry="2.21515" transform="rotate(-0.439137 115.08 52.5727)" fill="#FF6701"/>
<ellipse cx="122.446" cy="52.518" rx="2.26637" ry="2.21515" transform="rotate(-0.439137 122.446 52.518)" fill="#FF6701"/>
<ellipse cx="129.811" cy="52.4614" rx="2.26637" ry="2.21515" transform="rotate(-0.439137 129.811 52.4614)" fill="#FF6701"/>
<ellipse cx="137.177" cy="52.4047" rx="2.26637" ry="2.21515" transform="rotate(-0.439137 137.177 52.4047)" fill="#FF6701"/>
<ellipse cx="144.542" cy="52.3481" rx="2.26637" ry="2.21515" transform="rotate(-0.439137 144.542 52.3481)" fill="#FF6701"/>
<ellipse cx="151.908" cy="52.2895" rx="2.26637" ry="2.21515" transform="rotate(-0.439137 151.908 52.2895)" fill="#FF6701"/>
<ellipse cx="159.273" cy="52.2348" rx="2.26637" ry="2.21515" transform="rotate(-0.439137 159.273 52.2348)" fill="#FF6701"/>
<ellipse cx="166.639" cy="52.1782" rx="2.26637" ry="2.21515" transform="rotate(-0.439137 166.639 52.1782)" fill="#FF6701"/>
<ellipse cx="174.004" cy="52.1215" rx="2.26637" ry="2.21515" transform="rotate(-0.439137 174.004 52.1215)" fill="#FF6701"/>
<ellipse cx="181.37" cy="52.0649" rx="2.26637" ry="2.21515" transform="rotate(-0.439137 181.37 52.0649)" fill="#FF6701"/>
<ellipse cx="188.735" cy="52.0083" rx="2.26637" ry="2.21515" transform="rotate(-0.439137 188.735 52.0083)" fill="#FF6701"/>
<ellipse cx="196.101" cy="51.9516" rx="2.26637" ry="2.21515" transform="rotate(-0.439137 196.101 51.9516)" fill="#FF6701"/>
<ellipse cx="203.466" cy="51.8969" rx="2.26637" ry="2.21515" transform="rotate(-0.439137 203.466 51.8969)" fill="#FF6701"/>
<ellipse cx="210.832" cy="51.8383" rx="2.26637" ry="2.21515" transform="rotate(-0.439137 210.832 51.8383)" fill="#FF6701"/>
<ellipse cx="4.65267" cy="60.6196" rx="2.26637" ry="2.21515" transform="rotate(-0.439137 4.65267 60.6196)" fill="#FF6701"/>
<ellipse cx="12.0186" cy="60.563" rx="2.26637" ry="2.21515" transform="rotate(-0.439137 12.0186 60.563)" fill="#FF6701"/>
<ellipse cx="19.3841" cy="60.5063" rx="2.26637" ry="2.21515" transform="rotate(-0.439137 19.3841 60.5063)" fill="#FF6701"/>
<ellipse cx="26.7491" cy="60.4516" rx="2.26637" ry="2.21515" transform="rotate(-0.439137 26.7491 60.4516)" fill="#FF6701"/>
<ellipse cx="34.1148" cy="60.393" rx="2.26637" ry="2.21515" transform="rotate(-0.439137 34.1148 60.393)" fill="#FF6701"/>
<ellipse cx="41.4805" cy="60.3364" rx="2.26637" ry="2.21515" transform="rotate(-0.439137 41.4805 60.3364)" fill="#FF6701"/>
<ellipse cx="48.846" cy="60.2797" rx="2.26637" ry="2.21515" transform="rotate(-0.439137 48.846 60.2797)" fill="#FF6701"/>
<ellipse cx="56.2115" cy="60.2251" rx="2.26637" ry="2.21515" transform="rotate(-0.439137 56.2115 60.2251)" fill="#FF6701"/>
<ellipse cx="63.577" cy="60.1684" rx="2.26637" ry="2.21515" transform="rotate(-0.439137 63.577 60.1684)" fill="#FF6701"/>
<ellipse cx="70.9422" cy="60.1118" rx="2.26637" ry="2.21515" transform="rotate(-0.439137 70.9422 60.1118)" fill="#FF6701"/>
<ellipse cx="78.3077" cy="60.0551" rx="2.26637" ry="2.21515" transform="rotate(-0.439137 78.3077 60.0551)" fill="#FF6701"/>
<ellipse cx="85.6737" cy="59.9985" rx="2.26637" ry="2.21515" transform="rotate(-0.439137 85.6737 59.9985)" fill="#FF6701"/>
<ellipse cx="93.0387" cy="59.9419" rx="2.26637" ry="2.21515" transform="rotate(-0.439137 93.0387 59.9419)" fill="#FF6701"/>
<ellipse cx="100.405" cy="59.8852" rx="2.26637" ry="2.21515" transform="rotate(-0.439137 100.405 59.8852)" fill="#FF6701"/>
<ellipse cx="107.77" cy="59.8286" rx="2.26637" ry="2.21515" transform="rotate(-0.439137 107.77 59.8286)" fill="#FF6701"/>
<ellipse cx="115.135" cy="59.7719" rx="2.26637" ry="2.21515" transform="rotate(-0.439137 115.135 59.7719)" fill="#FF6701"/>
<ellipse cx="122.501" cy="59.7172" rx="2.26637" ry="2.21515" transform="rotate(-0.439137 122.501 59.7172)" fill="#FF6701"/>
<ellipse cx="129.867" cy="59.6587" rx="2.26637" ry="2.21515" transform="rotate(-0.439137 129.867 59.6587)" fill="#FF6701"/>
<ellipse cx="137.232" cy="59.604" rx="2.26637" ry="2.21515" transform="rotate(-0.439137 137.232 59.604)" fill="#FF6701"/>
<ellipse cx="144.597" cy="59.5473" rx="2.26637" ry="2.21515" transform="rotate(-0.439137 144.597 59.5473)" fill="#FF6701"/>
<ellipse cx="151.963" cy="59.4887" rx="2.26637" ry="2.21515" transform="rotate(-0.439137 151.963 59.4887)" fill="#FF6701"/>
<ellipse cx="159.328" cy="59.434" rx="2.26637" ry="2.21515" transform="rotate(-0.439137 159.328 59.434)" fill="#FF6701"/>
<ellipse cx="166.694" cy="59.3774" rx="2.26637" ry="2.21515" transform="rotate(-0.439137 166.694 59.3774)" fill="#FF6701"/>
<ellipse cx="174.059" cy="59.3208" rx="2.26637" ry="2.21515" transform="rotate(-0.439137 174.059 59.3208)" fill="#FF6701"/>
<ellipse cx="181.425" cy="59.2641" rx="2.26637" ry="2.21515" transform="rotate(-0.439137 181.425 59.2641)" fill="#FF6701"/>
<ellipse cx="188.79" cy="59.2075" rx="2.26637" ry="2.21515" transform="rotate(-0.439137 188.79 59.2075)" fill="#FF6701"/>
<ellipse cx="196.156" cy="59.1508" rx="2.26637" ry="2.21515" transform="rotate(-0.439137 196.156 59.1508)" fill="#FF6701"/>
<ellipse cx="203.521" cy="59.0962" rx="2.26637" ry="2.21515" transform="rotate(-0.439137 203.521 59.0962)" fill="#FF6701"/>
<ellipse cx="210.887" cy="59.0395" rx="2.26637" ry="2.21515" transform="rotate(-0.439137 210.887 59.0395)" fill="#FF6701"/>
<ellipse cx="4.70809" cy="67.8169" rx="2.26637" ry="2.21515" transform="rotate(-0.439137 4.70809 67.8169)" fill="#FF6701"/>
<ellipse cx="12.0738" cy="67.7622" rx="2.26637" ry="2.21515" transform="rotate(-0.439137 12.0738 67.7622)" fill="#FF6701"/>
<ellipse cx="19.439" cy="67.7055" rx="2.26637" ry="2.21515" transform="rotate(-0.439137 19.439 67.7055)" fill="#FF6701"/>
<ellipse cx="26.8045" cy="67.6489" rx="2.26637" ry="2.21515" transform="rotate(-0.439137 26.8045 67.6489)" fill="#FF6701"/>
<ellipse cx="34.1702" cy="67.5922" rx="2.26637" ry="2.21515" transform="rotate(-0.439137 34.1702 67.5922)" fill="#FF6701"/>
<ellipse cx="41.5355" cy="67.5356" rx="2.26637" ry="2.21515" transform="rotate(-0.439137 41.5355 67.5356)" fill="#FF6701"/>
<ellipse cx="48.9012" cy="67.479" rx="2.26637" ry="2.21515" transform="rotate(-0.439137 48.9012 67.479)" fill="#FF6701"/>
<ellipse cx="56.2664" cy="67.4243" rx="2.26637" ry="2.21515" transform="rotate(-0.439137 56.2664 67.4243)" fill="#FF6701"/>
<ellipse cx="63.6324" cy="67.3657" rx="2.26637" ry="2.21515" transform="rotate(-0.439137 63.6324 67.3657)" fill="#FF6701"/>
<ellipse cx="70.9976" cy="67.309" rx="2.26637" ry="2.21515" transform="rotate(-0.439137 70.9976 67.309)" fill="#FF6701"/>
<ellipse cx="78.3631" cy="67.2544" rx="2.26637" ry="2.21515" transform="rotate(-0.439137 78.3631 67.2544)" fill="#FF6701"/>
<ellipse cx="85.7286" cy="67.1977" rx="2.26637" ry="2.21515" transform="rotate(-0.439137 85.7286 67.1977)" fill="#FF6701"/>
<ellipse cx="93.0941" cy="67.1411" rx="2.26637" ry="2.21515" transform="rotate(-0.439137 93.0941 67.1411)" fill="#FF6701"/>
<ellipse cx="100.46" cy="67.0825" rx="2.26637" ry="2.21515" transform="rotate(-0.439137 100.46 67.0825)" fill="#FF6701"/>
<ellipse cx="107.825" cy="67.0278" rx="2.26637" ry="2.21515" transform="rotate(-0.439137 107.825 67.0278)" fill="#FF6701"/>
<ellipse cx="115.191" cy="66.9712" rx="2.26637" ry="2.21515" transform="rotate(-0.439137 115.191 66.9712)" fill="#FF6701"/>
<ellipse cx="122.556" cy="66.9145" rx="2.26637" ry="2.21515" transform="rotate(-0.439137 122.556 66.9145)" fill="#FF6701"/>
<ellipse cx="129.921" cy="66.8579" rx="2.26637" ry="2.21515" transform="rotate(-0.439137 129.921 66.8579)" fill="#FF6701"/>
<ellipse cx="137.287" cy="66.8032" rx="2.26637" ry="2.21515" transform="rotate(-0.439137 137.287 66.8032)" fill="#FF6701"/>
<ellipse cx="144.652" cy="66.7465" rx="2.26637" ry="2.21515" transform="rotate(-0.439137 144.652 66.7465)" fill="#FF6701"/>
<ellipse cx="152.018" cy="66.6899" rx="2.26637" ry="2.21515" transform="rotate(-0.439137 152.018 66.6899)" fill="#FF6701"/>
<ellipse cx="159.383" cy="66.6333" rx="2.26637" ry="2.21515" transform="rotate(-0.439137 159.383 66.6333)" fill="#FF6701"/>
<ellipse cx="166.749" cy="66.5766" rx="2.26637" ry="2.21515" transform="rotate(-0.439137 166.749 66.5766)" fill="#FF6701"/>
<ellipse cx="174.114" cy="66.52" rx="2.26637" ry="2.21515" transform="rotate(-0.439137 174.114 66.52)" fill="#FF6701"/>
<ellipse cx="181.48" cy="66.4633" rx="2.26637" ry="2.21515" transform="rotate(-0.439137 181.48 66.4633)" fill="#FF6701"/>
<ellipse cx="188.846" cy="66.4067" rx="2.26637" ry="2.21515" transform="rotate(-0.439137 188.846 66.4067)" fill="#FF6701"/>
<ellipse cx="196.211" cy="66.3501" rx="2.26637" ry="2.21515" transform="rotate(-0.439137 196.211 66.3501)" fill="#FF6701"/>
<ellipse cx="203.576" cy="66.2954" rx="2.26637" ry="2.21515" transform="rotate(-0.439137 203.576 66.2954)" fill="#FF6701"/>
<ellipse cx="210.942" cy="66.2368" rx="2.26637" ry="2.21515" transform="rotate(-0.439137 210.942 66.2368)" fill="#FF6701"/>
<ellipse cx="4.76326" cy="75.0161" rx="2.26637" ry="2.21515" transform="rotate(-0.439137 4.76326 75.0161)" fill="#FF6701"/>
<ellipse cx="12.129" cy="74.9614" rx="2.26637" ry="2.21515" transform="rotate(-0.439137 12.129 74.9614)" fill="#FF6701"/>
<ellipse cx="19.4942" cy="74.9047" rx="2.26637" ry="2.21515" transform="rotate(-0.439137 19.4942 74.9047)" fill="#FF6701"/>
<ellipse cx="26.8597" cy="74.8481" rx="2.26637" ry="2.21515" transform="rotate(-0.439137 26.8597 74.8481)" fill="#FF6701"/>
<ellipse cx="34.2254" cy="74.7915" rx="2.26637" ry="2.21515" transform="rotate(-0.439137 34.2254 74.7915)" fill="#FF6701"/>
<ellipse cx="41.5907" cy="74.7348" rx="2.26637" ry="2.21515" transform="rotate(-0.439137 41.5907 74.7348)" fill="#FF6701"/>
<ellipse cx="48.9564" cy="74.6782" rx="2.26637" ry="2.21515" transform="rotate(-0.439137 48.9564 74.6782)" fill="#FF6701"/>
<ellipse cx="56.3216" cy="74.6235" rx="2.26637" ry="2.21515" transform="rotate(-0.439137 56.3216 74.6235)" fill="#FF6701"/>
<ellipse cx="63.6873" cy="74.5649" rx="2.26637" ry="2.21515" transform="rotate(-0.439137 63.6873 74.5649)" fill="#FF6701"/>
<ellipse cx="71.0528" cy="74.5102" rx="2.26637" ry="2.21515" transform="rotate(-0.439137 71.0528 74.5102)" fill="#FF6701"/>
<ellipse cx="78.418" cy="74.4536" rx="2.26637" ry="2.21515" transform="rotate(-0.439137 78.418 74.4536)" fill="#FF6701"/>
<ellipse cx="85.784" cy="74.3969" rx="2.26637" ry="2.21515" transform="rotate(-0.439137 85.784 74.3969)" fill="#FF6701"/>
<ellipse cx="93.149" cy="74.3403" rx="2.26637" ry="2.21515" transform="rotate(-0.439137 93.149 74.3403)" fill="#FF6701"/>
<ellipse cx="100.515" cy="74.2837" rx="2.26637" ry="2.21515" transform="rotate(-0.439137 100.515 74.2837)" fill="#FF6701"/>
<ellipse cx="107.88" cy="74.227" rx="2.26637" ry="2.21515" transform="rotate(-0.439137 107.88 74.227)" fill="#FF6701"/>
<ellipse cx="115.246" cy="74.1704" rx="2.26637" ry="2.21515" transform="rotate(-0.439137 115.246 74.1704)" fill="#FF6701"/>
<ellipse cx="122.611" cy="74.1137" rx="2.26637" ry="2.21515" transform="rotate(-0.439137 122.611 74.1137)" fill="#FF6701"/>
<ellipse cx="129.976" cy="74.059" rx="2.26637" ry="2.21515" transform="rotate(-0.439137 129.976 74.059)" fill="#FF6701"/>
<ellipse cx="137.342" cy="74.0005" rx="2.26637" ry="2.21515" transform="rotate(-0.439137 137.342 74.0005)" fill="#FF6701"/>
<ellipse cx="144.708" cy="73.9458" rx="2.26637" ry="2.21515" transform="rotate(-0.439137 144.708 73.9458)" fill="#FF6701"/>
<ellipse cx="152.073" cy="73.8891" rx="2.26637" ry="2.21515" transform="rotate(-0.439137 152.073 73.8891)" fill="#FF6701"/>
<ellipse cx="159.438" cy="73.8325" rx="2.26637" ry="2.21515" transform="rotate(-0.439137 159.438 73.8325)" fill="#FF6701"/>
<ellipse cx="166.804" cy="73.7758" rx="2.26637" ry="2.21515" transform="rotate(-0.439137 166.804 73.7758)" fill="#FF6701"/>
<ellipse cx="174.17" cy="73.7192" rx="2.26637" ry="2.21515" transform="rotate(-0.439137 174.17 73.7192)" fill="#FF6701"/>
<ellipse cx="181.535" cy="73.6626" rx="2.26637" ry="2.21515" transform="rotate(-0.439137 181.535 73.6626)" fill="#FF6701"/>
<ellipse cx="188.9" cy="73.6059" rx="2.26637" ry="2.21515" transform="rotate(-0.439137 188.9 73.6059)" fill="#FF6701"/>
<ellipse cx="196.266" cy="73.5512" rx="2.26637" ry="2.21515" transform="rotate(-0.439137 196.266 73.5512)" fill="#FF6701"/>
<ellipse cx="203.631" cy="73.4946" rx="2.26637" ry="2.21515" transform="rotate(-0.439137 203.631 73.4946)" fill="#FF6701"/>
<ellipse cx="210.997" cy="73.438" rx="2.26637" ry="2.21515" transform="rotate(-0.439137 210.997 73.438)" fill="#FF6701"/>
<ellipse cx="4.81844" cy="82.2172" rx="2.26637" ry="2.21515" transform="rotate(-0.439137 4.81844 82.2172)" fill="#FF6701"/>
<ellipse cx="12.1839" cy="82.1606" rx="2.26637" ry="2.21515" transform="rotate(-0.439137 12.1839 82.1606)" fill="#FF6701"/>
<ellipse cx="19.5494" cy="82.104" rx="2.26637" ry="2.21515" transform="rotate(-0.439137 19.5494 82.104)" fill="#FF6701"/>
<ellipse cx="26.9149" cy="82.0473" rx="2.26637" ry="2.21515" transform="rotate(-0.439137 26.9149 82.0473)" fill="#FF6701"/>
<ellipse cx="34.2806" cy="81.9907" rx="2.26637" ry="2.21515" transform="rotate(-0.439137 34.2806 81.9907)" fill="#FF6701"/>
<ellipse cx="41.6456" cy="81.934" rx="2.26637" ry="2.21515" transform="rotate(-0.439137 41.6456 81.934)" fill="#FF6701"/>
<ellipse cx="49.0116" cy="81.8774" rx="2.26637" ry="2.21515" transform="rotate(-0.439137 49.0116 81.8774)" fill="#FF6701"/>
<ellipse cx="56.3773" cy="81.8208" rx="2.26637" ry="2.21515" transform="rotate(-0.439137 56.3773 81.8208)" fill="#FF6701"/>
<ellipse cx="63.7423" cy="81.7661" rx="2.26637" ry="2.21515" transform="rotate(-0.439137 63.7423 81.7661)" fill="#FF6701"/>
<ellipse cx="71.108" cy="81.7094" rx="2.26637" ry="2.21515" transform="rotate(-0.439137 71.108 81.7094)" fill="#FF6701"/>
<ellipse cx="78.4735" cy="81.6508" rx="2.26637" ry="2.21515" transform="rotate(-0.439137 78.4735 81.6508)" fill="#FF6701"/>
<ellipse cx="85.8392" cy="81.5962" rx="2.26637" ry="2.21515" transform="rotate(-0.439137 85.8392 81.5962)" fill="#FF6701"/>
<ellipse cx="93.2042" cy="81.5395" rx="2.26637" ry="2.21515" transform="rotate(-0.439137 93.2042 81.5395)" fill="#FF6701"/>
<ellipse cx="100.57" cy="81.4809" rx="2.26637" ry="2.21515" transform="rotate(-0.439137 100.57 81.4809)" fill="#FF6701"/>
<ellipse cx="107.935" cy="81.4262" rx="2.26637" ry="2.21515" transform="rotate(-0.439137 107.935 81.4262)" fill="#FF6701"/>
<ellipse cx="115.301" cy="81.3696" rx="2.26637" ry="2.21515" transform="rotate(-0.439137 115.301 81.3696)" fill="#FF6701"/>
<ellipse cx="122.666" cy="81.313" rx="2.26637" ry="2.21515" transform="rotate(-0.439137 122.666 81.313)" fill="#FF6701"/>
<ellipse cx="130.032" cy="81.2583" rx="2.26637" ry="2.21515" transform="rotate(-0.439137 130.032 81.2583)" fill="#FF6701"/>
<ellipse cx="137.397" cy="81.1997" rx="2.26637" ry="2.21515" transform="rotate(-0.439137 137.397 81.1997)" fill="#FF6701"/>
<ellipse cx="144.763" cy="81.143" rx="2.26637" ry="2.21515" transform="rotate(-0.439137 144.763 81.143)" fill="#FF6701"/>
<ellipse cx="152.128" cy="81.0883" rx="2.26637" ry="2.21515" transform="rotate(-0.439137 152.128 81.0883)" fill="#FF6701"/>
<ellipse cx="159.494" cy="81.0297" rx="2.26637" ry="2.21515" transform="rotate(-0.439137 159.494 81.0297)" fill="#FF6701"/>
<ellipse cx="166.859" cy="80.9751" rx="2.26637" ry="2.21515" transform="rotate(-0.439137 166.859 80.9751)" fill="#FF6701"/>
<ellipse cx="174.225" cy="80.9184" rx="2.26637" ry="2.21515" transform="rotate(-0.439137 174.225 80.9184)" fill="#FF6701"/>
<ellipse cx="181.59" cy="80.8598" rx="2.26637" ry="2.21515" transform="rotate(-0.439137 181.59 80.8598)" fill="#FF6701"/>
<ellipse cx="188.956" cy="80.8051" rx="2.26637" ry="2.21515" transform="rotate(-0.439137 188.956 80.8051)" fill="#FF6701"/>
<ellipse cx="196.321" cy="80.7485" rx="2.26637" ry="2.21515" transform="rotate(-0.439137 196.321 80.7485)" fill="#FF6701"/>
<ellipse cx="203.687" cy="80.6919" rx="2.26637" ry="2.21515" transform="rotate(-0.439137 203.687 80.6919)" fill="#FF6701"/>
<ellipse cx="211.052" cy="80.6352" rx="2.26637" ry="2.21515" transform="rotate(-0.439137 211.052 80.6352)" fill="#FF6701"/>
<ellipse cx="4.87361" cy="89.4165" rx="2.26637" ry="2.21515" transform="rotate(-0.439137 4.87361 89.4165)" fill="#FF6701"/>
<ellipse cx="12.2391" cy="89.3598" rx="2.26637" ry="2.21515" transform="rotate(-0.439137 12.2391 89.3598)" fill="#FF6701"/>
<ellipse cx="19.6048" cy="89.3012" rx="2.26637" ry="2.21515" transform="rotate(-0.439137 19.6048 89.3012)" fill="#FF6701"/>
<ellipse cx="26.9703" cy="89.2465" rx="2.26637" ry="2.21515" transform="rotate(-0.439137 26.9703 89.2465)" fill="#FF6701"/>
<ellipse cx="34.3358" cy="89.1899" rx="2.26637" ry="2.21515" transform="rotate(-0.439137 34.3358 89.1899)" fill="#FF6701"/>
<ellipse cx="41.7015" cy="89.1333" rx="2.26637" ry="2.21515" transform="rotate(-0.439137 41.7015 89.1333)" fill="#FF6701"/>
<ellipse cx="49.0667" cy="89.0786" rx="2.26637" ry="2.21515" transform="rotate(-0.439137 49.0667 89.0786)" fill="#FF6701"/>
<ellipse cx="56.432" cy="89.02" rx="2.26637" ry="2.21515" transform="rotate(-0.439137 56.432 89.02)" fill="#FF6701"/>
<ellipse cx="63.7977" cy="88.9633" rx="2.26637" ry="2.21515" transform="rotate(-0.439137 63.7977 88.9633)" fill="#FF6701"/>
<ellipse cx="71.1632" cy="88.9067" rx="2.26637" ry="2.21515" transform="rotate(-0.439137 71.1632 88.9067)" fill="#FF6701"/>
<ellipse cx="78.5284" cy="88.8501" rx="2.26637" ry="2.21515" transform="rotate(-0.439137 78.5284 88.8501)" fill="#FF6701"/>
<ellipse cx="85.8941" cy="88.7954" rx="2.26637" ry="2.21515" transform="rotate(-0.439137 85.8941 88.7954)" fill="#FF6701"/>
<ellipse cx="93.2594" cy="88.7387" rx="2.26637" ry="2.21515" transform="rotate(-0.439137 93.2594 88.7387)" fill="#FF6701"/>
<ellipse cx="100.625" cy="88.6801" rx="2.26637" ry="2.21515" transform="rotate(-0.439137 100.625 88.6801)" fill="#FF6701"/>
<ellipse cx="107.99" cy="88.6255" rx="2.26637" ry="2.21515" transform="rotate(-0.439137 107.99 88.6255)" fill="#FF6701"/>
<ellipse cx="115.356" cy="88.5688" rx="2.26637" ry="2.21515" transform="rotate(-0.439137 115.356 88.5688)" fill="#FF6701"/>
<ellipse cx="122.722" cy="88.5122" rx="2.26637" ry="2.21515" transform="rotate(-0.439137 122.722 88.5122)" fill="#FF6701"/>
<ellipse cx="130.087" cy="88.4555" rx="2.26637" ry="2.21515" transform="rotate(-0.439137 130.087 88.4555)" fill="#FF6701"/>
<ellipse cx="137.453" cy="88.3969" rx="2.26637" ry="2.21515" transform="rotate(-0.439137 137.453 88.3969)" fill="#FF6701"/>
<ellipse cx="144.818" cy="88.3422" rx="2.26637" ry="2.21515" transform="rotate(-0.439137 144.818 88.3422)" fill="#FF6701"/>
<ellipse cx="152.184" cy="88.2856" rx="2.26637" ry="2.21515" transform="rotate(-0.439137 152.184 88.2856)" fill="#FF6701"/>
<ellipse cx="159.549" cy="88.229" rx="2.26637" ry="2.21515" transform="rotate(-0.439137 159.549 88.229)" fill="#FF6701"/>
<ellipse cx="166.915" cy="88.1743" rx="2.26637" ry="2.21515" transform="rotate(-0.439137 166.915 88.1743)" fill="#FF6701"/>
<ellipse cx="174.28" cy="88.1176" rx="2.26637" ry="2.21515" transform="rotate(-0.439137 174.28 88.1176)" fill="#FF6701"/>
<ellipse cx="181.645" cy="88.061" rx="2.26637" ry="2.21515" transform="rotate(-0.439137 181.645 88.061)" fill="#FF6701"/>
<ellipse cx="189.011" cy="88.0044" rx="2.26637" ry="2.21515" transform="rotate(-0.439137 189.011 88.0044)" fill="#FF6701"/>
<ellipse cx="196.376" cy="87.9477" rx="2.26637" ry="2.21515" transform="rotate(-0.439137 196.376 87.9477)" fill="#FF6701"/>
<ellipse cx="203.742" cy="87.893" rx="2.26637" ry="2.21515" transform="rotate(-0.439137 203.742 87.893)" fill="#FF6701"/>
<ellipse cx="211.107" cy="87.8364" rx="2.26637" ry="2.21515" transform="rotate(-0.439137 211.107 87.8364)" fill="#FF6701"/>
<ellipse cx="4.92903" cy="96.6157" rx="2.26637" ry="2.21515" transform="rotate(-0.439137 4.92903 96.6157)" fill="#FF6701"/>
<ellipse cx="12.2945" cy="96.5571" rx="2.26637" ry="2.21515" transform="rotate(-0.439137 12.2945 96.5571)" fill="#FF6701"/>
<ellipse cx="19.6597" cy="96.5024" rx="2.26637" ry="2.21515" transform="rotate(-0.439137 19.6597 96.5024)" fill="#FF6701"/>
<ellipse cx="27.0257" cy="96.4438" rx="2.26637" ry="2.21515" transform="rotate(-0.439137 27.0257 96.4438)" fill="#FF6701"/>
<ellipse cx="34.3912" cy="96.3872" rx="2.26637" ry="2.21515" transform="rotate(-0.439137 34.3912 96.3872)" fill="#FF6701"/>
<ellipse cx="41.7562" cy="96.3325" rx="2.26637" ry="2.21515" transform="rotate(-0.439137 41.7562 96.3325)" fill="#FF6701"/>
<ellipse cx="49.1219" cy="96.2758" rx="2.26637" ry="2.21515" transform="rotate(-0.439137 49.1219 96.2758)" fill="#FF6701"/>
<ellipse cx="56.4874" cy="96.2192" rx="2.26637" ry="2.21515" transform="rotate(-0.439137 56.4874 96.2192)" fill="#FF6701"/>
<ellipse cx="63.8526" cy="96.1626" rx="2.26637" ry="2.21515" transform="rotate(-0.439137 63.8526 96.1626)" fill="#FF6701"/>
<ellipse cx="71.2186" cy="96.104" rx="2.26637" ry="2.21515" transform="rotate(-0.439137 71.2186 96.104)" fill="#FF6701"/>
<ellipse cx="78.5836" cy="96.0493" rx="2.26637" ry="2.21515" transform="rotate(-0.439137 78.5836 96.0493)" fill="#FF6701"/>
<ellipse cx="85.9495" cy="95.9946" rx="2.26637" ry="2.21515" transform="rotate(-0.439137 85.9495 95.9946)" fill="#FF6701"/>
<ellipse cx="93.3148" cy="95.938" rx="2.26637" ry="2.21515" transform="rotate(-0.439137 93.3148 95.938)" fill="#FF6701"/>
<ellipse cx="100.68" cy="95.8813" rx="2.26637" ry="2.21515" transform="rotate(-0.439137 100.68 95.8813)" fill="#FF6701"/>
<ellipse cx="108.045" cy="95.8247" rx="2.26637" ry="2.21515" transform="rotate(-0.439137 108.045 95.8247)" fill="#FF6701"/>
<ellipse cx="115.411" cy="95.768" rx="2.26637" ry="2.21515" transform="rotate(-0.439137 115.411 95.768)" fill="#FF6701"/>
<ellipse cx="122.777" cy="95.7114" rx="2.26637" ry="2.21515" transform="rotate(-0.439137 122.777 95.7114)" fill="#FF6701"/>
<ellipse cx="130.142" cy="95.6567" rx="2.26637" ry="2.21515" transform="rotate(-0.439137 130.142 95.6567)" fill="#FF6701"/>
<ellipse cx="137.507" cy="95.5981" rx="2.26637" ry="2.21515" transform="rotate(-0.439137 137.507 95.5981)" fill="#FF6701"/>
<ellipse cx="144.873" cy="95.5415" rx="2.26637" ry="2.21515" transform="rotate(-0.439137 144.873 95.5415)" fill="#FF6701"/>
<ellipse cx="152.239" cy="95.4848" rx="2.26637" ry="2.21515" transform="rotate(-0.439137 152.239 95.4848)" fill="#FF6701"/>
<ellipse cx="159.604" cy="95.4282" rx="2.26637" ry="2.21515" transform="rotate(-0.439137 159.604 95.4282)" fill="#FF6701"/>
<ellipse cx="166.97" cy="95.3735" rx="2.26637" ry="2.21515" transform="rotate(-0.439137 166.97 95.3735)" fill="#FF6701"/>
<ellipse cx="174.335" cy="95.3169" rx="2.26637" ry="2.21515" transform="rotate(-0.439137 174.335 95.3169)" fill="#FF6701"/>
<ellipse cx="181.701" cy="95.2602" rx="2.26637" ry="2.21515" transform="rotate(-0.439137 181.701 95.2602)" fill="#FF6701"/>
<ellipse cx="189.066" cy="95.2036" rx="2.26637" ry="2.21515" transform="rotate(-0.439137 189.066 95.2036)" fill="#FF6701"/>
<ellipse cx="196.431" cy="95.1469" rx="2.26637" ry="2.21515" transform="rotate(-0.439137 196.431 95.1469)" fill="#FF6701"/>
<ellipse cx="203.797" cy="95.0903" rx="2.26637" ry="2.21515" transform="rotate(-0.439137 203.797 95.0903)" fill="#FF6701"/>
<ellipse cx="211.162" cy="95.0356" rx="2.26637" ry="2.21515" transform="rotate(-0.439137 211.162 95.0356)" fill="#FF6701"/>
<ellipse cx="4.98397" cy="103.813" rx="2.26637" ry="2.21515" transform="rotate(-0.439137 4.98397 103.813)" fill="#FF6701"/>
<ellipse cx="12.3494" cy="103.758" rx="2.26637" ry="2.21515" transform="rotate(-0.439137 12.3494 103.758)" fill="#FF6701"/>
<ellipse cx="19.7152" cy="103.702" rx="2.26637" ry="2.21515" transform="rotate(-0.439137 19.7152 103.702)" fill="#FF6701"/>
<ellipse cx="27.0804" cy="103.645" rx="2.26637" ry="2.21515" transform="rotate(-0.439137 27.0804 103.645)" fill="#FF6701"/>
<ellipse cx="34.4461" cy="103.586" rx="2.26637" ry="2.21515" transform="rotate(-0.439137 34.4461 103.586)" fill="#FF6701"/>
<ellipse cx="41.8116" cy="103.532" rx="2.26637" ry="2.21515" transform="rotate(-0.439137 41.8116 103.532)" fill="#FF6701"/>
<ellipse cx="49.1768" cy="103.477" rx="2.26637" ry="2.21515" transform="rotate(-0.439137 49.1768 103.477)" fill="#FF6701"/>
<ellipse cx="56.5426" cy="103.418" rx="2.26637" ry="2.21515" transform="rotate(-0.439137 56.5426 103.418)" fill="#FF6701"/>
<ellipse cx="63.9078" cy="103.362" rx="2.26637" ry="2.21515" transform="rotate(-0.439137 63.9078 103.362)" fill="#FF6701"/>
<ellipse cx="71.2733" cy="103.305" rx="2.26637" ry="2.21515" transform="rotate(-0.439137 71.2733 103.305)" fill="#FF6701"/>
<ellipse cx="78.639" cy="103.248" rx="2.26637" ry="2.21515" transform="rotate(-0.439137 78.639 103.248)" fill="#FF6701"/>
<ellipse cx="86.0045" cy="103.194" rx="2.26637" ry="2.21515" transform="rotate(-0.439137 86.0045 103.194)" fill="#FF6701"/>
<ellipse cx="93.3702" cy="103.137" rx="2.26637" ry="2.21515" transform="rotate(-0.439137 93.3702 103.137)" fill="#FF6701"/>
<ellipse cx="100.735" cy="103.081" rx="2.26637" ry="2.21515" transform="rotate(-0.439137 100.735 103.081)" fill="#FF6701"/>
<ellipse cx="108.101" cy="103.022" rx="2.26637" ry="2.21515" transform="rotate(-0.439137 108.101 103.022)" fill="#FF6701"/>
<ellipse cx="115.466" cy="102.965" rx="2.26637" ry="2.21515" transform="rotate(-0.439137 115.466 102.965)" fill="#FF6701"/>
<ellipse cx="122.832" cy="102.911" rx="2.26637" ry="2.21515" transform="rotate(-0.439137 122.832 102.911)" fill="#FF6701"/>
<ellipse cx="130.197" cy="102.854" rx="2.26637" ry="2.21515" transform="rotate(-0.439137 130.197 102.854)" fill="#FF6701"/>
<ellipse cx="137.563" cy="102.797" rx="2.26637" ry="2.21515" transform="rotate(-0.439137 137.563 102.797)" fill="#FF6701"/>
<ellipse cx="144.929" cy="102.741" rx="2.26637" ry="2.21515" transform="rotate(-0.439137 144.929 102.741)" fill="#FF6701"/>
<ellipse cx="152.294" cy="102.684" rx="2.26637" ry="2.21515" transform="rotate(-0.439137 152.294 102.684)" fill="#FF6701"/>
<ellipse cx="159.66" cy="102.627" rx="2.26637" ry="2.21515" transform="rotate(-0.439137 159.66 102.627)" fill="#FF6701"/>
<ellipse cx="167.024" cy="102.573" rx="2.26637" ry="2.21515" transform="rotate(-0.439137 167.024 102.573)" fill="#FF6701"/>
<ellipse cx="174.39" cy="102.514" rx="2.26637" ry="2.21515" transform="rotate(-0.439137 174.39 102.514)" fill="#FF6701"/>
<ellipse cx="181.755" cy="102.459" rx="2.26637" ry="2.21515" transform="rotate(-0.439137 181.755 102.459)" fill="#FF6701"/>
<ellipse cx="189.121" cy="102.401" rx="2.26637" ry="2.21515" transform="rotate(-0.439137 189.121 102.401)" fill="#FF6701"/>
<ellipse cx="196.487" cy="102.346" rx="2.26637" ry="2.21515" transform="rotate(-0.439137 196.487 102.346)" fill="#FF6701"/>
<ellipse cx="203.852" cy="102.29" rx="2.26637" ry="2.21515" transform="rotate(-0.439137 203.852 102.29)" fill="#FF6701"/>
<ellipse cx="211.218" cy="102.233" rx="2.26637" ry="2.21515" transform="rotate(-0.439137 211.218 102.233)" fill="#FF6701"/>
</g>
</g>
</svg>
