<svg width="357" height="806" viewBox="0 0 357 806" fill="none" xmlns="http://www.w3.org/2000/svg">
<mask id="mask0" mask-type="alpha" maskUnits="userSpaceOnUse" x="-450" y="0" width="807" height="806">
<ellipse cx="-46.5" cy="403" rx="403.5" ry="403" fill="#E8F3FC"/>
</mask>
<g mask="url(#mask0)">
<circle cx="-0.688279" cy="8.40303" r="8.98701" fill="#E8F3FC"/>
<circle cx="28.5192" cy="8.40303" r="8.98701" fill="#E8F3FC"/>
<circle cx="57.7272" cy="8.40303" r="8.98701" fill="#E8F3FC"/>
<circle cx="86.935" cy="8.40303" r="8.98701" fill="#E8F3FC"/>
<circle cx="116.143" cy="8.40303" r="8.98701" fill="#E8F3FC"/>
<circle cx="145.351" cy="8.40303" r="8.98701" fill="#E8F3FC"/>
<circle cx="174.558" cy="8.40303" r="8.98701" fill="#E8F3FC"/>
<circle cx="203.766" cy="8.40303" r="8.98701" fill="#E8F3FC"/>
<circle cx="232.974" cy="8.40303" r="8.98701" fill="#E8F3FC"/>
<circle cx="262.182" cy="8.40303" r="8.98701" fill="#E8F3FC"/>
<circle cx="291.389" cy="8.40303" r="8.98701" fill="#E8F3FC"/>
<circle cx="320.597" cy="8.40303" r="8.98701" fill="#E8F3FC"/>
<circle cx="349.805" cy="8.40303" r="8.98701" fill="#E8F3FC"/>
<circle cx="-0.688279" cy="37.6101" r="8.98701" fill="#E8F3FC"/>
<circle cx="28.5192" cy="37.6101" r="8.98701" fill="#E8F3FC"/>
<circle cx="57.7272" cy="37.6101" r="8.98701" fill="#E8F3FC"/>
<circle cx="86.935" cy="37.6101" r="8.98701" fill="#E8F3FC"/>
<circle cx="116.143" cy="37.6101" r="8.98701" fill="#E8F3FC"/>
<circle cx="145.351" cy="37.6101" r="8.98701" fill="#E8F3FC"/>
<circle cx="174.558" cy="37.6101" r="8.98701" fill="#E8F3FC"/>
<circle cx="203.766" cy="37.6101" r="8.98701" fill="#E8F3FC"/>
<circle cx="232.974" cy="37.6101" r="8.98701" fill="#E8F3FC"/>
<circle cx="262.182" cy="37.6101" r="8.98701" fill="#E8F3FC"/>
<circle cx="291.389" cy="37.6101" r="8.98701" fill="#E8F3FC"/>
<circle cx="320.597" cy="37.6101" r="8.98701" fill="#E8F3FC"/>
<circle cx="349.805" cy="37.6101" r="8.98701" fill="#E8F3FC"/>
<circle cx="-0.688279" cy="66.8181" r="8.98701" fill="#E8F3FC"/>
<circle cx="28.5192" cy="66.8181" r="8.98701" fill="#E8F3FC"/>
<circle cx="57.7272" cy="66.8181" r="8.98701" fill="#E8F3FC"/>
<circle cx="86.935" cy="66.8181" r="8.98701" fill="#E8F3FC"/>
<circle cx="116.143" cy="66.8181" r="8.98701" fill="#E8F3FC"/>
<circle cx="145.351" cy="66.8181" r="8.98701" fill="#E8F3FC"/>
<circle cx="174.558" cy="66.8181" r="8.98701" fill="#E8F3FC"/>
<circle cx="203.766" cy="66.8181" r="8.98701" fill="#E8F3FC"/>
<circle cx="232.974" cy="66.8181" r="8.98701" fill="#E8F3FC"/>
<circle cx="262.182" cy="66.8181" r="8.98701" fill="#E8F3FC"/>
<circle cx="291.389" cy="66.8181" r="8.98701" fill="#E8F3FC"/>
<circle cx="320.597" cy="66.8181" r="8.98701" fill="#E8F3FC"/>
<circle cx="349.805" cy="66.8181" r="8.98701" fill="#E8F3FC"/>
<circle cx="-0.688279" cy="96.0261" r="8.98701" fill="#E8F3FC"/>
<circle cx="28.5192" cy="96.0261" r="8.98701" fill="#E8F3FC"/>
<circle cx="57.7272" cy="96.0261" r="8.98701" fill="#E8F3FC"/>
<circle cx="86.935" cy="96.0261" r="8.98701" fill="#E8F3FC"/>
<circle cx="116.143" cy="96.0261" r="8.98701" fill="#E8F3FC"/>
<circle cx="145.351" cy="96.0261" r="8.98701" fill="#E8F3FC"/>
<circle cx="174.558" cy="96.0261" r="8.98701" fill="#E8F3FC"/>
<circle cx="203.766" cy="96.0261" r="8.98701" fill="#E8F3FC"/>
<circle cx="232.974" cy="96.0261" r="8.98701" fill="#E8F3FC"/>
<circle cx="262.182" cy="96.0261" r="8.98701" fill="#E8F3FC"/>
<circle cx="291.389" cy="96.0261" r="8.98701" fill="#E8F3FC"/>
<circle cx="320.597" cy="96.0261" r="8.98701" fill="#E8F3FC"/>
<circle cx="349.805" cy="96.0261" r="8.98701" fill="#E8F3FC"/>
<circle cx="-0.688279" cy="125.234" r="8.98701" fill="#E8F3FC"/>
<circle cx="28.5192" cy="125.234" r="8.98701" fill="#E8F3FC"/>
<circle cx="57.7272" cy="125.234" r="8.98701" fill="#E8F3FC"/>
<circle cx="86.935" cy="125.234" r="8.98701" fill="#E8F3FC"/>
<circle cx="116.143" cy="125.234" r="8.98701" fill="#E8F3FC"/>
<circle cx="145.351" cy="125.234" r="8.98701" fill="#E8F3FC"/>
<circle cx="174.558" cy="125.234" r="8.98701" fill="#E8F3FC"/>
<circle cx="203.766" cy="125.234" r="8.98701" fill="#E8F3FC"/>
<circle cx="232.974" cy="125.234" r="8.98701" fill="#E8F3FC"/>
<circle cx="262.182" cy="125.234" r="8.98701" fill="#E8F3FC"/>
<circle cx="291.389" cy="125.234" r="8.98701" fill="#E8F3FC"/>
<circle cx="320.597" cy="125.234" r="8.98701" fill="#E8F3FC"/>
<circle cx="349.805" cy="125.234" r="8.98701" fill="#E8F3FC"/>
<circle cx="-0.688279" cy="154.441" r="8.98701" fill="#E8F3FC"/>
<circle cx="28.5192" cy="154.441" r="8.98701" fill="#E8F3FC"/>
<circle cx="57.7272" cy="154.441" r="8.98701" fill="#E8F3FC"/>
<circle cx="86.935" cy="154.441" r="8.98701" fill="#E8F3FC"/>
<circle cx="116.143" cy="154.441" r="8.98701" fill="#E8F3FC"/>
<circle cx="145.351" cy="154.441" r="8.98701" fill="#E8F3FC"/>
<circle cx="174.558" cy="154.441" r="8.98701" fill="#E8F3FC"/>
<circle cx="203.766" cy="154.441" r="8.98701" fill="#E8F3FC"/>
<circle cx="232.974" cy="154.441" r="8.98701" fill="#E8F3FC"/>
<circle cx="262.182" cy="154.441" r="8.98701" fill="#E8F3FC"/>
<circle cx="291.389" cy="154.441" r="8.98701" fill="#E8F3FC"/>
<circle cx="320.597" cy="154.441" r="8.98701" fill="#E8F3FC"/>
<circle cx="349.805" cy="154.441" r="8.98701" fill="#E8F3FC"/>
<circle cx="-0.688279" cy="183.65" r="8.98701" fill="#E8F3FC"/>
<circle cx="28.5192" cy="183.65" r="8.98701" fill="#E8F3FC"/>
<circle cx="57.7272" cy="183.65" r="8.98701" fill="#E8F3FC"/>
<circle cx="86.935" cy="183.65" r="8.98701" fill="#E8F3FC"/>
<circle cx="116.143" cy="183.65" r="8.98701" fill="#E8F3FC"/>
<circle cx="145.351" cy="183.65" r="8.98701" fill="#E8F3FC"/>
<circle cx="174.558" cy="183.65" r="8.98701" fill="#E8F3FC"/>
<circle cx="203.766" cy="183.65" r="8.98701" fill="#E8F3FC"/>
<circle cx="232.974" cy="183.65" r="8.98701" fill="#E8F3FC"/>
<circle cx="262.182" cy="183.65" r="8.98701" fill="#E8F3FC"/>
<circle cx="291.389" cy="183.65" r="8.98701" fill="#E8F3FC"/>
<circle cx="320.597" cy="183.65" r="8.98701" fill="#E8F3FC"/>
<circle cx="349.805" cy="183.65" r="8.98701" fill="#E8F3FC"/>
<circle cx="-0.688279" cy="212.857" r="8.98701" fill="#E8F3FC"/>
<circle cx="28.5192" cy="212.857" r="8.98701" fill="#E8F3FC"/>
<circle cx="57.7272" cy="212.857" r="8.98701" fill="#E8F3FC"/>
<circle cx="86.935" cy="212.857" r="8.98701" fill="#E8F3FC"/>
<circle cx="116.143" cy="212.857" r="8.98701" fill="#E8F3FC"/>
<circle cx="145.351" cy="212.857" r="8.98701" fill="#E8F3FC"/>
<circle cx="174.558" cy="212.857" r="8.98701" fill="#E8F3FC"/>
<circle cx="203.766" cy="212.857" r="8.98701" fill="#E8F3FC"/>
<circle cx="232.974" cy="212.857" r="8.98701" fill="#E8F3FC"/>
<circle cx="262.182" cy="212.857" r="8.98701" fill="#E8F3FC"/>
<circle cx="291.389" cy="212.857" r="8.98701" fill="#E8F3FC"/>
<circle cx="320.597" cy="212.857" r="8.98701" fill="#E8F3FC"/>
<circle cx="349.805" cy="212.857" r="8.98701" fill="#E8F3FC"/>
<circle cx="-0.688279" cy="242.065" r="8.98701" fill="#E8F3FC"/>
<circle cx="28.5192" cy="242.065" r="8.98701" fill="#E8F3FC"/>
<circle cx="57.7272" cy="242.065" r="8.98701" fill="#E8F3FC"/>
<circle cx="86.935" cy="242.065" r="8.98701" fill="#E8F3FC"/>
<circle cx="116.143" cy="242.065" r="8.98701" fill="#E8F3FC"/>
<circle cx="145.351" cy="242.065" r="8.98701" fill="#E8F3FC"/>
<circle cx="174.558" cy="242.065" r="8.98701" fill="#E8F3FC"/>
<circle cx="203.766" cy="242.065" r="8.98701" fill="#E8F3FC"/>
<circle cx="232.974" cy="242.065" r="8.98701" fill="#E8F3FC"/>
<circle cx="262.182" cy="242.065" r="8.98701" fill="#E8F3FC"/>
<circle cx="291.389" cy="242.065" r="8.98701" fill="#E8F3FC"/>
<circle cx="320.597" cy="242.065" r="8.98701" fill="#E8F3FC"/>
<circle cx="349.805" cy="242.065" r="8.98701" fill="#E8F3FC"/>
<circle cx="-0.688279" cy="271.273" r="8.98701" fill="#E8F3FC"/>
<circle cx="28.5192" cy="271.273" r="8.98701" fill="#E8F3FC"/>
<circle cx="57.7272" cy="271.273" r="8.98701" fill="#E8F3FC"/>
<circle cx="86.935" cy="271.273" r="8.98701" fill="#E8F3FC"/>
<circle cx="116.143" cy="271.273" r="8.98701" fill="#E8F3FC"/>
<circle cx="145.351" cy="271.273" r="8.98701" fill="#E8F3FC"/>
<circle cx="174.558" cy="271.273" r="8.98701" fill="#E8F3FC"/>
<circle cx="203.766" cy="271.273" r="8.98701" fill="#E8F3FC"/>
<circle cx="232.974" cy="271.273" r="8.98701" fill="#E8F3FC"/>
<circle cx="262.182" cy="271.273" r="8.98701" fill="#E8F3FC"/>
<circle cx="291.389" cy="271.273" r="8.98701" fill="#E8F3FC"/>
<circle cx="320.597" cy="271.273" r="8.98701" fill="#E8F3FC"/>
<circle cx="349.805" cy="271.273" r="8.98701" fill="#E8F3FC"/>
<circle cx="-0.688279" cy="300.48" r="8.98701" fill="#E8F3FC"/>
<circle cx="28.5192" cy="300.48" r="8.98701" fill="#E8F3FC"/>
<circle cx="57.7272" cy="300.48" r="8.98701" fill="#E8F3FC"/>
<circle cx="86.935" cy="300.48" r="8.98701" fill="#E8F3FC"/>
<circle cx="116.143" cy="300.48" r="8.98701" fill="#E8F3FC"/>
<circle cx="145.351" cy="300.48" r="8.98701" fill="#E8F3FC"/>
<circle cx="174.558" cy="300.48" r="8.98701" fill="#E8F3FC"/>
<circle cx="203.766" cy="300.48" r="8.98701" fill="#E8F3FC"/>
<circle cx="232.974" cy="300.48" r="8.98701" fill="#E8F3FC"/>
<circle cx="262.182" cy="300.48" r="8.98701" fill="#E8F3FC"/>
<circle cx="291.389" cy="300.48" r="8.98701" fill="#E8F3FC"/>
<circle cx="320.597" cy="300.48" r="8.98701" fill="#E8F3FC"/>
<circle cx="349.805" cy="300.48" r="8.98701" fill="#E8F3FC"/>
<circle cx="-0.688279" cy="329.688" r="8.98701" fill="#E8F3FC"/>
<circle cx="28.5192" cy="329.688" r="8.98701" fill="#E8F3FC"/>
<circle cx="57.7272" cy="329.688" r="8.98701" fill="#E8F3FC"/>
<circle cx="86.935" cy="329.688" r="8.98701" fill="#E8F3FC"/>
<circle cx="116.143" cy="329.688" r="8.98701" fill="#E8F3FC"/>
<circle cx="145.351" cy="329.688" r="8.98701" fill="#E8F3FC"/>
<circle cx="174.558" cy="329.688" r="8.98701" fill="#E8F3FC"/>
<circle cx="203.766" cy="329.688" r="8.98701" fill="#E8F3FC"/>
<circle cx="232.974" cy="329.688" r="8.98701" fill="#E8F3FC"/>
<circle cx="262.182" cy="329.688" r="8.98701" fill="#E8F3FC"/>
<circle cx="291.389" cy="329.688" r="8.98701" fill="#E8F3FC"/>
<circle cx="320.597" cy="329.688" r="8.98701" fill="#E8F3FC"/>
<circle cx="349.805" cy="329.688" r="8.98701" fill="#E8F3FC"/>
<circle cx="-0.688279" cy="358.896" r="8.98701" fill="#E8F3FC"/>
<circle cx="28.5192" cy="358.896" r="8.98701" fill="#E8F3FC"/>
<circle cx="57.7272" cy="358.896" r="8.98701" fill="#E8F3FC"/>
<circle cx="86.935" cy="358.896" r="8.98701" fill="#E8F3FC"/>
<circle cx="116.143" cy="358.896" r="8.98701" fill="#E8F3FC"/>
<circle cx="145.351" cy="358.896" r="8.98701" fill="#E8F3FC"/>
<circle cx="174.558" cy="358.896" r="8.98701" fill="#E8F3FC"/>
<circle cx="203.766" cy="358.896" r="8.98701" fill="#E8F3FC"/>
<circle cx="232.974" cy="358.896" r="8.98701" fill="#E8F3FC"/>
<circle cx="262.182" cy="358.896" r="8.98701" fill="#E8F3FC"/>
<circle cx="291.389" cy="358.896" r="8.98701" fill="#E8F3FC"/>
<circle cx="320.597" cy="358.896" r="8.98701" fill="#E8F3FC"/>
<circle cx="349.805" cy="358.896" r="8.98701" fill="#E8F3FC"/>
<circle cx="-0.688279" cy="388.104" r="8.98701" fill="#E8F3FC"/>
<circle cx="28.5192" cy="388.104" r="8.98701" fill="#E8F3FC"/>
<circle cx="57.7272" cy="388.104" r="8.98701" fill="#E8F3FC"/>
<circle cx="86.935" cy="388.104" r="8.98701" fill="#E8F3FC"/>
<circle cx="116.143" cy="388.104" r="8.98701" fill="#E8F3FC"/>
<circle cx="145.351" cy="388.104" r="8.98701" fill="#E8F3FC"/>
<circle cx="174.558" cy="388.104" r="8.98701" fill="#E8F3FC"/>
<circle cx="203.766" cy="388.104" r="8.98701" fill="#E8F3FC"/>
<circle cx="232.974" cy="388.104" r="8.98701" fill="#E8F3FC"/>
<circle cx="262.182" cy="388.104" r="8.98701" fill="#E8F3FC"/>
<circle cx="291.389" cy="388.104" r="8.98701" fill="#E8F3FC"/>
<circle cx="320.597" cy="388.104" r="8.98701" fill="#E8F3FC"/>
<circle cx="349.805" cy="388.104" r="8.98701" fill="#E8F3FC"/>
<circle cx="-0.688279" cy="417.312" r="8.98701" fill="#E8F3FC"/>
<circle cx="28.5192" cy="417.312" r="8.98701" fill="#E8F3FC"/>
<circle cx="57.7272" cy="417.312" r="8.98701" fill="#E8F3FC"/>
<circle cx="86.935" cy="417.312" r="8.98701" fill="#E8F3FC"/>
<circle cx="116.143" cy="417.312" r="8.98701" fill="#E8F3FC"/>
<circle cx="145.351" cy="417.312" r="8.98701" fill="#E8F3FC"/>
<circle cx="174.558" cy="417.312" r="8.98701" fill="#E8F3FC"/>
<circle cx="203.766" cy="417.312" r="8.98701" fill="#E8F3FC"/>
<circle cx="232.974" cy="417.312" r="8.98701" fill="#E8F3FC"/>
<circle cx="262.182" cy="417.312" r="8.98701" fill="#E8F3FC"/>
<circle cx="291.389" cy="417.312" r="8.98701" fill="#E8F3FC"/>
<circle cx="320.597" cy="417.312" r="8.98701" fill="#E8F3FC"/>
<circle cx="349.805" cy="417.312" r="8.98701" fill="#E8F3FC"/>
<circle cx="-0.688279" cy="446.519" r="8.98701" fill="#E8F3FC"/>
<circle cx="28.5192" cy="446.519" r="8.98701" fill="#E8F3FC"/>
<circle cx="57.7272" cy="446.519" r="8.98701" fill="#E8F3FC"/>
<circle cx="86.935" cy="446.519" r="8.98701" fill="#E8F3FC"/>
<circle cx="116.143" cy="446.519" r="8.98701" fill="#E8F3FC"/>
<circle cx="145.351" cy="446.519" r="8.98701" fill="#E8F3FC"/>
<circle cx="174.558" cy="446.519" r="8.98701" fill="#E8F3FC"/>
<circle cx="203.766" cy="446.519" r="8.98701" fill="#E8F3FC"/>
<circle cx="232.974" cy="446.519" r="8.98701" fill="#E8F3FC"/>
<circle cx="262.182" cy="446.519" r="8.98701" fill="#E8F3FC"/>
<circle cx="291.389" cy="446.519" r="8.98701" fill="#E8F3FC"/>
<circle cx="320.597" cy="446.519" r="8.98701" fill="#E8F3FC"/>
<circle cx="349.805" cy="446.519" r="8.98701" fill="#E8F3FC"/>
<circle cx="-0.688279" cy="475.727" r="8.98701" fill="#E8F3FC"/>
<circle cx="28.5192" cy="475.727" r="8.98701" fill="#E8F3FC"/>
<circle cx="57.7272" cy="475.727" r="8.98701" fill="#E8F3FC"/>
<circle cx="86.935" cy="475.727" r="8.98701" fill="#E8F3FC"/>
<circle cx="116.143" cy="475.727" r="8.98701" fill="#E8F3FC"/>
<circle cx="145.351" cy="475.727" r="8.98701" fill="#E8F3FC"/>
<circle cx="174.558" cy="475.727" r="8.98701" fill="#E8F3FC"/>
<circle cx="203.766" cy="475.727" r="8.98701" fill="#E8F3FC"/>
<circle cx="232.974" cy="475.727" r="8.98701" fill="#E8F3FC"/>
<circle cx="262.182" cy="475.727" r="8.98701" fill="#E8F3FC"/>
<circle cx="291.389" cy="475.727" r="8.98701" fill="#E8F3FC"/>
<circle cx="320.597" cy="475.727" r="8.98701" fill="#E8F3FC"/>
<circle cx="349.805" cy="475.727" r="8.98701" fill="#E8F3FC"/>
<circle cx="-0.688279" cy="504.935" r="8.98701" fill="#E8F3FC"/>
<circle cx="28.5192" cy="504.935" r="8.98701" fill="#E8F3FC"/>
<circle cx="57.7272" cy="504.935" r="8.98701" fill="#E8F3FC"/>
<circle cx="86.935" cy="504.935" r="8.98701" fill="#E8F3FC"/>
<circle cx="116.143" cy="504.935" r="8.98701" fill="#E8F3FC"/>
<circle cx="145.351" cy="504.935" r="8.98701" fill="#E8F3FC"/>
<circle cx="174.558" cy="504.935" r="8.98701" fill="#E8F3FC"/>
<circle cx="203.766" cy="504.935" r="8.98701" fill="#E8F3FC"/>
<circle cx="232.974" cy="504.935" r="8.98701" fill="#E8F3FC"/>
<circle cx="262.182" cy="504.935" r="8.98701" fill="#E8F3FC"/>
<circle cx="291.389" cy="504.935" r="8.98701" fill="#E8F3FC"/>
<circle cx="320.597" cy="504.935" r="8.98701" fill="#E8F3FC"/>
<circle cx="349.805" cy="504.935" r="8.98701" fill="#E8F3FC"/>
<circle cx="-0.688279" cy="534.143" r="8.98701" fill="#E8F3FC"/>
<circle cx="28.5192" cy="534.143" r="8.98701" fill="#E8F3FC"/>
<circle cx="57.7272" cy="534.143" r="8.98701" fill="#E8F3FC"/>
<circle cx="86.935" cy="534.143" r="8.98701" fill="#E8F3FC"/>
<circle cx="116.143" cy="534.143" r="8.98701" fill="#E8F3FC"/>
<circle cx="145.351" cy="534.143" r="8.98701" fill="#E8F3FC"/>
<circle cx="174.558" cy="534.143" r="8.98701" fill="#E8F3FC"/>
<circle cx="203.766" cy="534.143" r="8.98701" fill="#E8F3FC"/>
<circle cx="232.974" cy="534.143" r="8.98701" fill="#E8F3FC"/>
<circle cx="262.182" cy="534.143" r="8.98701" fill="#E8F3FC"/>
<circle cx="291.389" cy="534.143" r="8.98701" fill="#E8F3FC"/>
<circle cx="320.597" cy="534.143" r="8.98701" fill="#E8F3FC"/>
<circle cx="349.805" cy="534.143" r="8.98701" fill="#E8F3FC"/>
<circle cx="-0.688279" cy="563.35" r="8.98701" fill="#E8F3FC"/>
<circle cx="28.5192" cy="563.35" r="8.98701" fill="#E8F3FC"/>
<circle cx="57.7272" cy="563.35" r="8.98701" fill="#E8F3FC"/>
<circle cx="86.935" cy="563.35" r="8.98701" fill="#E8F3FC"/>
<circle cx="116.143" cy="563.35" r="8.98701" fill="#E8F3FC"/>
<circle cx="145.351" cy="563.35" r="8.98701" fill="#E8F3FC"/>
<circle cx="174.558" cy="563.35" r="8.98701" fill="#E8F3FC"/>
<circle cx="203.766" cy="563.35" r="8.98701" fill="#E8F3FC"/>
<circle cx="232.974" cy="563.35" r="8.98701" fill="#E8F3FC"/>
<circle cx="262.182" cy="563.35" r="8.98701" fill="#E8F3FC"/>
<circle cx="291.389" cy="563.35" r="8.98701" fill="#E8F3FC"/>
<circle cx="320.597" cy="563.35" r="8.98701" fill="#E8F3FC"/>
<circle cx="349.805" cy="563.35" r="8.98701" fill="#E8F3FC"/>
<circle cx="-0.688279" cy="592.558" r="8.98701" fill="#E8F3FC"/>
<circle cx="28.5192" cy="592.558" r="8.98701" fill="#E8F3FC"/>
<circle cx="57.7272" cy="592.558" r="8.98701" fill="#E8F3FC"/>
<circle cx="86.935" cy="592.558" r="8.98701" fill="#E8F3FC"/>
<circle cx="116.143" cy="592.558" r="8.98701" fill="#E8F3FC"/>
<circle cx="145.351" cy="592.558" r="8.98701" fill="#E8F3FC"/>
<circle cx="174.558" cy="592.558" r="8.98701" fill="#E8F3FC"/>
<circle cx="203.766" cy="592.558" r="8.98701" fill="#E8F3FC"/>
<circle cx="232.974" cy="592.558" r="8.98701" fill="#E8F3FC"/>
<circle cx="262.182" cy="592.558" r="8.98701" fill="#E8F3FC"/>
<circle cx="291.389" cy="592.558" r="8.98701" fill="#E8F3FC"/>
<circle cx="320.597" cy="592.558" r="8.98701" fill="#E8F3FC"/>
<circle cx="349.805" cy="592.558" r="8.98701" fill="#E8F3FC"/>
<circle cx="-0.688279" cy="621.766" r="8.98701" fill="#E8F3FC"/>
<circle cx="28.5192" cy="621.766" r="8.98701" fill="#E8F3FC"/>
<circle cx="57.7272" cy="621.766" r="8.98701" fill="#E8F3FC"/>
<circle cx="86.935" cy="621.766" r="8.98701" fill="#E8F3FC"/>
<circle cx="116.143" cy="621.766" r="8.98701" fill="#E8F3FC"/>
<circle cx="145.351" cy="621.766" r="8.98701" fill="#E8F3FC"/>
<circle cx="174.558" cy="621.766" r="8.98701" fill="#E8F3FC"/>
<circle cx="203.766" cy="621.766" r="8.98701" fill="#E8F3FC"/>
<circle cx="232.974" cy="621.766" r="8.98701" fill="#E8F3FC"/>
<circle cx="262.182" cy="621.766" r="8.98701" fill="#E8F3FC"/>
<circle cx="291.389" cy="621.766" r="8.98701" fill="#E8F3FC"/>
<circle cx="320.597" cy="621.766" r="8.98701" fill="#E8F3FC"/>
<circle cx="349.805" cy="621.766" r="8.98701" fill="#E8F3FC"/>
<circle cx="-0.688279" cy="650.974" r="8.98701" fill="#E8F3FC"/>
<circle cx="28.5192" cy="650.974" r="8.98701" fill="#E8F3FC"/>
<circle cx="57.7272" cy="650.974" r="8.98701" fill="#E8F3FC"/>
<circle cx="86.935" cy="650.974" r="8.98701" fill="#E8F3FC"/>
<circle cx="116.143" cy="650.974" r="8.98701" fill="#E8F3FC"/>
<circle cx="145.351" cy="650.974" r="8.98701" fill="#E8F3FC"/>
<circle cx="174.558" cy="650.974" r="8.98701" fill="#E8F3FC"/>
<circle cx="203.766" cy="650.974" r="8.98701" fill="#E8F3FC"/>
<circle cx="232.974" cy="650.974" r="8.98701" fill="#E8F3FC"/>
<circle cx="262.182" cy="650.974" r="8.98701" fill="#E8F3FC"/>
<circle cx="291.389" cy="650.974" r="8.98701" fill="#E8F3FC"/>
<circle cx="320.597" cy="650.974" r="8.98701" fill="#E8F3FC"/>
<circle cx="349.805" cy="650.974" r="8.98701" fill="#E8F3FC"/>
<circle cx="-0.688279" cy="680.181" r="8.98701" fill="#E8F3FC"/>
<circle cx="28.5192" cy="680.181" r="8.98701" fill="#E8F3FC"/>
<circle cx="57.7272" cy="680.181" r="8.98701" fill="#E8F3FC"/>
<circle cx="86.935" cy="680.181" r="8.98701" fill="#E8F3FC"/>
<circle cx="116.143" cy="680.181" r="8.98701" fill="#E8F3FC"/>
<circle cx="145.351" cy="680.181" r="8.98701" fill="#E8F3FC"/>
<circle cx="174.558" cy="680.181" r="8.98701" fill="#E8F3FC"/>
<circle cx="203.766" cy="680.181" r="8.98701" fill="#E8F3FC"/>
<circle cx="232.974" cy="680.181" r="8.98701" fill="#E8F3FC"/>
<circle cx="262.182" cy="680.181" r="8.98701" fill="#E8F3FC"/>
<circle cx="291.389" cy="680.181" r="8.98701" fill="#E8F3FC"/>
<circle cx="320.597" cy="680.181" r="8.98701" fill="#E8F3FC"/>
<circle cx="349.805" cy="680.181" r="8.98701" fill="#E8F3FC"/>
<circle cx="-0.688279" cy="709.39" r="8.98701" fill="#E8F3FC"/>
<circle cx="28.5192" cy="709.39" r="8.98701" fill="#E8F3FC"/>
<circle cx="57.7272" cy="709.39" r="8.98701" fill="#E8F3FC"/>
<circle cx="86.935" cy="709.39" r="8.98701" fill="#E8F3FC"/>
<circle cx="116.143" cy="709.39" r="8.98701" fill="#E8F3FC"/>
<circle cx="145.351" cy="709.39" r="8.98701" fill="#E8F3FC"/>
<circle cx="174.558" cy="709.39" r="8.98701" fill="#E8F3FC"/>
<circle cx="203.766" cy="709.39" r="8.98701" fill="#E8F3FC"/>
<circle cx="232.974" cy="709.39" r="8.98701" fill="#E8F3FC"/>
<circle cx="262.182" cy="709.39" r="8.98701" fill="#E8F3FC"/>
<circle cx="291.389" cy="709.39" r="8.98701" fill="#E8F3FC"/>
<circle cx="320.597" cy="709.39" r="8.98701" fill="#E8F3FC"/>
<circle cx="349.805" cy="709.39" r="8.98701" fill="#E8F3FC"/>
<circle cx="-0.688279" cy="738.597" r="8.98701" fill="#E8F3FC"/>
<circle cx="28.5192" cy="738.597" r="8.98701" fill="#E8F3FC"/>
<circle cx="57.7272" cy="738.597" r="8.98701" fill="#E8F3FC"/>
<circle cx="86.935" cy="738.597" r="8.98701" fill="#E8F3FC"/>
<circle cx="116.143" cy="738.597" r="8.98701" fill="#E8F3FC"/>
<circle cx="145.351" cy="738.597" r="8.98701" fill="#E8F3FC"/>
<circle cx="174.558" cy="738.597" r="8.98701" fill="#E8F3FC"/>
<circle cx="203.766" cy="738.597" r="8.98701" fill="#E8F3FC"/>
<circle cx="232.974" cy="738.597" r="8.98701" fill="#E8F3FC"/>
<circle cx="262.182" cy="738.597" r="8.98701" fill="#E8F3FC"/>
<circle cx="291.389" cy="738.597" r="8.98701" fill="#E8F3FC"/>
<circle cx="320.597" cy="738.597" r="8.98701" fill="#E8F3FC"/>
<circle cx="349.805" cy="738.597" r="8.98701" fill="#E8F3FC"/>
<circle cx="-0.688279" cy="767.805" r="8.98701" fill="#E8F3FC"/>
<circle cx="28.5192" cy="767.805" r="8.98701" fill="#E8F3FC"/>
<circle cx="57.7272" cy="767.805" r="8.98701" fill="#E8F3FC"/>
<circle cx="86.935" cy="767.805" r="8.98701" fill="#E8F3FC"/>
<circle cx="116.143" cy="767.805" r="8.98701" fill="#E8F3FC"/>
<circle cx="145.351" cy="767.805" r="8.98701" fill="#E8F3FC"/>
<circle cx="174.558" cy="767.805" r="8.98701" fill="#E8F3FC"/>
<circle cx="203.766" cy="767.805" r="8.98701" fill="#E8F3FC"/>
<circle cx="232.974" cy="767.805" r="8.98701" fill="#E8F3FC"/>
<circle cx="262.182" cy="767.805" r="8.98701" fill="#E8F3FC"/>
<circle cx="291.389" cy="767.805" r="8.98701" fill="#E8F3FC"/>
<circle cx="320.597" cy="767.805" r="8.98701" fill="#E8F3FC"/>
<circle cx="349.805" cy="767.805" r="8.98701" fill="#E8F3FC"/>
<circle cx="-0.688279" cy="797.012" r="8.98701" fill="#E8F3FC"/>
<circle cx="28.5192" cy="797.012" r="8.98701" fill="#E8F3FC"/>
<circle cx="57.7272" cy="797.012" r="8.98701" fill="#E8F3FC"/>
<circle cx="86.935" cy="797.012" r="8.98701" fill="#E8F3FC"/>
<circle cx="116.143" cy="797.012" r="8.98701" fill="#E8F3FC"/>
<circle cx="145.351" cy="797.012" r="8.98701" fill="#E8F3FC"/>
<circle cx="174.558" cy="797.012" r="8.98701" fill="#E8F3FC"/>
<circle cx="203.766" cy="797.012" r="8.98701" fill="#E8F3FC"/>
<circle cx="232.974" cy="797.012" r="8.98701" fill="#E8F3FC"/>
<circle cx="262.182" cy="797.012" r="8.98701" fill="#E8F3FC"/>
<circle cx="291.389" cy="797.012" r="8.98701" fill="#E8F3FC"/>
<circle cx="320.597" cy="797.012" r="8.98701" fill="#E8F3FC"/>
<circle cx="349.805" cy="797.012" r="8.98701" fill="#E8F3FC"/>
</g>
</svg>
