<svg width="310" height="155" viewBox="0 0 310 155" fill="none" xmlns="http://www.w3.org/2000/svg">
<mask id="mask0" mask-type="alpha" maskUnits="userSpaceOnUse" x="0" y="0" width="310" height="155">
<path d="M72.1703 0C72.2039 45.7371 109.272 82.8024 155.006 82.8024C200.736 82.8024 237.801 45.7371 237.835 0H310C309.979 85.6128 240.59 155 154.999 155C69.4152 155 0.0310432 85.6128 0 0" fill="white"/>
</mask>
<g mask="url(#mask0)">
<mask id="mask1" mask-type="alpha" maskUnits="userSpaceOnUse" x="-68" y="-163" width="446" height="439">
<ellipse cx="154.532" cy="56.3174" rx="184.682" ry="180.285" transform="rotate(-13.8773 154.532 56.3174)" fill="#E8F3FC"/>
</mask>
<g mask="url(#mask1)">
<ellipse cx="6.15834" cy="4.42653" rx="3.31403" ry="3.23914" transform="rotate(-0.439137 6.15834 4.42653)" fill="white" fill-opacity="0.3"/>
<ellipse cx="16.9288" cy="4.34645" rx="3.31403" ry="3.23914" transform="rotate(-0.439137 16.9288 4.34645)" fill="white" fill-opacity="0.3"/>
<ellipse cx="27.6991" cy="4.26247" rx="3.31403" ry="3.23914" transform="rotate(-0.439137 27.6991 4.26247)" fill="white" fill-opacity="0.3"/>
<ellipse cx="38.4699" cy="4.17848" rx="3.31403" ry="3.23914" transform="rotate(-0.439137 38.4699 4.17848)" fill="white" fill-opacity="0.3"/>
<ellipse cx="49.2399" cy="4.09645" rx="3.31403" ry="3.23914" transform="rotate(-0.439137 49.2399 4.09645)" fill="white" fill-opacity="0.3"/>
<ellipse cx="60.0101" cy="4.01442" rx="3.31403" ry="3.23914" transform="rotate(-0.439137 60.0101 4.01442)" fill="white" fill-opacity="0.3"/>
<ellipse cx="70.7802" cy="3.93239" rx="3.31403" ry="3.23914" transform="rotate(-0.439137 70.7802 3.93239)" fill="white" fill-opacity="0.3"/>
<ellipse cx="81.5507" cy="3.84841" rx="3.31403" ry="3.23914" transform="rotate(-0.439137 81.5507 3.84841)" fill="white" fill-opacity="0.3"/>
<ellipse cx="92.3207" cy="3.76833" rx="3.31403" ry="3.23914" transform="rotate(-0.439137 92.3207 3.76833)" fill="white" fill-opacity="0.3"/>
<ellipse cx="103.091" cy="3.6863" rx="3.31403" ry="3.23914" transform="rotate(-0.439137 103.091 3.6863)" fill="white" fill-opacity="0.3"/>
<ellipse cx="113.861" cy="3.60231" rx="3.31403" ry="3.23914" transform="rotate(-0.439137 113.861 3.60231)" fill="white" fill-opacity="0.3"/>
<ellipse cx="124.632" cy="3.52028" rx="3.31403" ry="3.23914" transform="rotate(-0.439137 124.632 3.52028)" fill="white" fill-opacity="0.3"/>
<ellipse cx="135.402" cy="3.43825" rx="3.31403" ry="3.23914" transform="rotate(-0.439137 135.402 3.43825)" fill="white" fill-opacity="0.3"/>
<ellipse cx="146.172" cy="3.35622" rx="3.31403" ry="3.23914" transform="rotate(-0.439137 146.172 3.35622)" fill="white" fill-opacity="0.3"/>
<ellipse cx="156.943" cy="3.27223" rx="3.31403" ry="3.23914" transform="rotate(-0.439137 156.943 3.27223)" fill="white" fill-opacity="0.3"/>
<ellipse cx="167.713" cy="3.18825" rx="3.31403" ry="3.23914" transform="rotate(-0.439137 167.713 3.18825)" fill="white" fill-opacity="0.3"/>
<ellipse cx="178.483" cy="3.10622" rx="3.31403" ry="3.23914" transform="rotate(-0.439137 178.483 3.10622)" fill="white" fill-opacity="0.3"/>
<ellipse cx="189.253" cy="3.02419" rx="3.31403" ry="3.23914" transform="rotate(-0.439137 189.253 3.02419)" fill="white" fill-opacity="0.3"/>
<ellipse cx="200.023" cy="2.94216" rx="3.31403" ry="3.23914" transform="rotate(-0.439137 200.023 2.94216)" fill="white" fill-opacity="0.3"/>
<ellipse cx="210.794" cy="2.86012" rx="3.31403" ry="3.23914" transform="rotate(-0.439137 210.794 2.86012)" fill="white" fill-opacity="0.3"/>
<ellipse cx="221.565" cy="2.77419" rx="3.31403" ry="3.23914" transform="rotate(-0.439137 221.565 2.77419)" fill="white" fill-opacity="0.3"/>
<ellipse cx="232.334" cy="2.69411" rx="3.31403" ry="3.23914" transform="rotate(-0.439137 232.334 2.69411)" fill="white" fill-opacity="0.3"/>
<ellipse cx="243.105" cy="2.61208" rx="3.31403" ry="3.23914" transform="rotate(-0.439137 243.105 2.61208)" fill="white" fill-opacity="0.3"/>
<ellipse cx="253.875" cy="2.52809" rx="3.31403" ry="3.23914" transform="rotate(-0.439137 253.875 2.52809)" fill="white" fill-opacity="0.3"/>
<ellipse cx="264.645" cy="2.44606" rx="3.31403" ry="3.23914" transform="rotate(-0.439137 264.645 2.44606)" fill="white" fill-opacity="0.3"/>
<ellipse cx="275.416" cy="2.36403" rx="3.31403" ry="3.23914" transform="rotate(-0.439137 275.416 2.36403)" fill="white" fill-opacity="0.3"/>
<ellipse cx="286.186" cy="2.28005" rx="3.31403" ry="3.23914" transform="rotate(-0.439137 286.186 2.28005)" fill="white" fill-opacity="0.3"/>
<ellipse cx="296.956" cy="2.19997" rx="3.31403" ry="3.23914" transform="rotate(-0.439137 296.956 2.19997)" fill="white" fill-opacity="0.3"/>
<ellipse cx="307.726" cy="2.11598" rx="3.31403" ry="3.23914" transform="rotate(-0.439137 307.726 2.11598)" fill="white" fill-opacity="0.3"/>
<ellipse cx="6.23891" cy="14.9539" rx="3.31403" ry="3.23914" transform="rotate(-0.439137 6.23891 14.9539)" fill="white" fill-opacity="0.3"/>
<ellipse cx="17.0092" cy="14.8718" rx="3.31403" ry="3.23914" transform="rotate(-0.439137 17.0092 14.8718)" fill="white" fill-opacity="0.3"/>
<ellipse cx="27.7799" cy="14.7898" rx="3.31403" ry="3.23914" transform="rotate(-0.439137 27.7799 14.7898)" fill="white" fill-opacity="0.3"/>
<ellipse cx="38.5499" cy="14.7078" rx="3.31403" ry="3.23914" transform="rotate(-0.439137 38.5499 14.7078)" fill="white" fill-opacity="0.3"/>
<ellipse cx="49.3202" cy="14.6257" rx="3.31403" ry="3.23914" transform="rotate(-0.439137 49.3202 14.6257)" fill="white" fill-opacity="0.3"/>
<ellipse cx="60.0905" cy="14.5418" rx="3.31403" ry="3.23914" transform="rotate(-0.439137 60.0905 14.5418)" fill="white" fill-opacity="0.3"/>
<ellipse cx="70.8612" cy="14.4597" rx="3.31403" ry="3.23914" transform="rotate(-0.439137 70.8612 14.4597)" fill="white" fill-opacity="0.3"/>
<ellipse cx="81.6308" cy="14.3777" rx="3.31403" ry="3.23914" transform="rotate(-0.439137 81.6308 14.3777)" fill="white" fill-opacity="0.3"/>
<ellipse cx="92.4015" cy="14.2937" rx="3.31403" ry="3.23914" transform="rotate(-0.439137 92.4015 14.2937)" fill="white" fill-opacity="0.3"/>
<ellipse cx="103.172" cy="14.2117" rx="3.31403" ry="3.23914" transform="rotate(-0.439137 103.172 14.2117)" fill="white" fill-opacity="0.3"/>
<ellipse cx="113.942" cy="14.1277" rx="3.31403" ry="3.23914" transform="rotate(-0.439137 113.942 14.1277)" fill="white" fill-opacity="0.3"/>
<ellipse cx="124.713" cy="14.0476" rx="3.31403" ry="3.23914" transform="rotate(-0.439137 124.713 14.0476)" fill="white" fill-opacity="0.3"/>
<ellipse cx="135.483" cy="13.9656" rx="3.31403" ry="3.23914" transform="rotate(-0.439137 135.483 13.9656)" fill="white" fill-opacity="0.3"/>
<ellipse cx="146.254" cy="13.8797" rx="3.31403" ry="3.23914" transform="rotate(-0.439137 146.254 13.8797)" fill="white" fill-opacity="0.3"/>
<ellipse cx="157.023" cy="13.7996" rx="3.31403" ry="3.23914" transform="rotate(-0.439137 157.023 13.7996)" fill="white" fill-opacity="0.3"/>
<ellipse cx="167.794" cy="13.7156" rx="3.31403" ry="3.23914" transform="rotate(-0.439137 167.794 13.7156)" fill="white" fill-opacity="0.3"/>
<ellipse cx="178.563" cy="13.6336" rx="3.31403" ry="3.23914" transform="rotate(-0.439137 178.563 13.6336)" fill="white" fill-opacity="0.3"/>
<ellipse cx="189.334" cy="13.5515" rx="3.31403" ry="3.23914" transform="rotate(-0.439137 189.334 13.5515)" fill="white" fill-opacity="0.3"/>
<ellipse cx="200.104" cy="13.4695" rx="3.31403" ry="3.23914" transform="rotate(-0.439137 200.104 13.4695)" fill="white" fill-opacity="0.3"/>
<ellipse cx="210.874" cy="13.3875" rx="3.31403" ry="3.23914" transform="rotate(-0.439137 210.874 13.3875)" fill="white" fill-opacity="0.3"/>
<ellipse cx="221.645" cy="13.3035" rx="3.31403" ry="3.23914" transform="rotate(-0.439137 221.645 13.3035)" fill="white" fill-opacity="0.3"/>
<ellipse cx="232.416" cy="13.2195" rx="3.31403" ry="3.23914" transform="rotate(-0.439137 232.416 13.2195)" fill="white" fill-opacity="0.3"/>
<ellipse cx="243.186" cy="13.1394" rx="3.31403" ry="3.23914" transform="rotate(-0.439137 243.186 13.1394)" fill="white" fill-opacity="0.3"/>
<ellipse cx="253.955" cy="13.0554" rx="3.31403" ry="3.23914" transform="rotate(-0.439137 253.955 13.0554)" fill="white" fill-opacity="0.3"/>
<ellipse cx="264.726" cy="12.9734" rx="3.31403" ry="3.23914" transform="rotate(-0.439137 264.726 12.9734)" fill="white" fill-opacity="0.3"/>
<ellipse cx="275.497" cy="12.8894" rx="3.31403" ry="3.23914" transform="rotate(-0.439137 275.497 12.8894)" fill="white" fill-opacity="0.3"/>
<ellipse cx="286.267" cy="12.8074" rx="3.31403" ry="3.23914" transform="rotate(-0.439137 286.267 12.8074)" fill="white" fill-opacity="0.3"/>
<ellipse cx="297.037" cy="12.7273" rx="3.31403" ry="3.23914" transform="rotate(-0.439137 297.037 12.7273)" fill="white" fill-opacity="0.3"/>
<ellipse cx="307.808" cy="12.6414" rx="3.31403" ry="3.23914" transform="rotate(-0.439137 307.808 12.6414)" fill="white" fill-opacity="0.3"/>
<ellipse cx="6.31947" cy="25.4812" rx="3.31403" ry="3.23914" transform="rotate(-0.439137 6.31947 25.4812)" fill="white" fill-opacity="0.3"/>
<ellipse cx="17.0905" cy="25.3972" rx="3.31403" ry="3.23914" transform="rotate(-0.439137 17.0905 25.3972)" fill="white" fill-opacity="0.3"/>
<ellipse cx="27.8605" cy="25.3152" rx="3.31403" ry="3.23914" transform="rotate(-0.439137 27.8605 25.3152)" fill="white" fill-opacity="0.3"/>
<ellipse cx="38.6305" cy="25.2332" rx="3.31403" ry="3.23914" transform="rotate(-0.439137 38.6305 25.2332)" fill="white" fill-opacity="0.3"/>
<ellipse cx="49.401" cy="25.1511" rx="3.31403" ry="3.23914" transform="rotate(-0.439137 49.401 25.1511)" fill="white" fill-opacity="0.3"/>
<ellipse cx="60.1715" cy="25.0672" rx="3.31403" ry="3.23914" transform="rotate(-0.439137 60.1715 25.0672)" fill="white" fill-opacity="0.3"/>
<ellipse cx="70.9418" cy="24.9871" rx="3.31403" ry="3.23914" transform="rotate(-0.439137 70.9418 24.9871)" fill="white" fill-opacity="0.3"/>
<ellipse cx="81.7118" cy="24.905" rx="3.31403" ry="3.23914" transform="rotate(-0.439137 81.7118 24.905)" fill="white" fill-opacity="0.3"/>
<ellipse cx="92.4826" cy="24.8191" rx="3.31403" ry="3.23914" transform="rotate(-0.439137 92.4826 24.8191)" fill="white" fill-opacity="0.3"/>
<ellipse cx="103.253" cy="24.7371" rx="3.31403" ry="3.23914" transform="rotate(-0.439137 103.253 24.7371)" fill="white" fill-opacity="0.3"/>
<ellipse cx="114.022" cy="24.655" rx="3.31403" ry="3.23914" transform="rotate(-0.439137 114.022 24.655)" fill="white" fill-opacity="0.3"/>
<ellipse cx="124.793" cy="24.573" rx="3.31403" ry="3.23914" transform="rotate(-0.439137 124.793 24.573)" fill="white" fill-opacity="0.3"/>
<ellipse cx="135.564" cy="24.489" rx="3.31403" ry="3.23914" transform="rotate(-0.439137 135.564 24.489)" fill="white" fill-opacity="0.3"/>
<ellipse cx="146.334" cy="24.407" rx="3.31403" ry="3.23914" transform="rotate(-0.439137 146.334 24.407)" fill="white" fill-opacity="0.3"/>
<ellipse cx="157.104" cy="24.325" rx="3.31403" ry="3.23914" transform="rotate(-0.439137 157.104 24.325)" fill="white" fill-opacity="0.3"/>
<ellipse cx="167.874" cy="24.2429" rx="3.31403" ry="3.23914" transform="rotate(-0.439137 167.874 24.2429)" fill="white" fill-opacity="0.3"/>
<ellipse cx="178.644" cy="24.1609" rx="3.31403" ry="3.23914" transform="rotate(-0.439137 178.644 24.1609)" fill="white" fill-opacity="0.3"/>
<ellipse cx="189.415" cy="24.0769" rx="3.31403" ry="3.23914" transform="rotate(-0.439137 189.415 24.0769)" fill="white" fill-opacity="0.3"/>
<ellipse cx="200.185" cy="23.9968" rx="3.31403" ry="3.23914" transform="rotate(-0.439137 200.185 23.9968)" fill="white" fill-opacity="0.3"/>
<ellipse cx="210.955" cy="23.9109" rx="3.31403" ry="3.23914" transform="rotate(-0.439137 210.955 23.9109)" fill="white" fill-opacity="0.3"/>
<ellipse cx="221.726" cy="23.8289" rx="3.31403" ry="3.23914" transform="rotate(-0.439137 221.726 23.8289)" fill="white" fill-opacity="0.3"/>
<ellipse cx="232.496" cy="23.7468" rx="3.31403" ry="3.23914" transform="rotate(-0.439137 232.496 23.7468)" fill="white" fill-opacity="0.3"/>
<ellipse cx="243.266" cy="23.6668" rx="3.31403" ry="3.23914" transform="rotate(-0.439137 243.266 23.6668)" fill="white" fill-opacity="0.3"/>
<ellipse cx="254.037" cy="23.5828" rx="3.31403" ry="3.23914" transform="rotate(-0.439137 254.037 23.5828)" fill="white" fill-opacity="0.3"/>
<ellipse cx="264.807" cy="23.4988" rx="3.31403" ry="3.23914" transform="rotate(-0.439137 264.807 23.4988)" fill="white" fill-opacity="0.3"/>
<ellipse cx="275.577" cy="23.4168" rx="3.31403" ry="3.23914" transform="rotate(-0.439137 275.577 23.4168)" fill="white" fill-opacity="0.3"/>
<ellipse cx="286.348" cy="23.3347" rx="3.31403" ry="3.23914" transform="rotate(-0.439137 286.348 23.3347)" fill="white" fill-opacity="0.3"/>
<ellipse cx="297.118" cy="23.2547" rx="3.31403" ry="3.23914" transform="rotate(-0.439137 297.118 23.2547)" fill="white" fill-opacity="0.3"/>
<ellipse cx="307.888" cy="23.1707" rx="3.31403" ry="3.23914" transform="rotate(-0.439137 307.888 23.1707)" fill="white" fill-opacity="0.3"/>
<ellipse cx="6.40077" cy="36.0086" rx="3.31403" ry="3.23914" transform="rotate(-0.439137 6.40077 36.0086)" fill="white" fill-opacity="0.3"/>
<ellipse cx="17.171" cy="35.9265" rx="3.31403" ry="3.23914" transform="rotate(-0.439137 17.171 35.9265)" fill="white" fill-opacity="0.3"/>
<ellipse cx="27.9411" cy="35.8445" rx="3.31403" ry="3.23914" transform="rotate(-0.439137 27.9411 35.8445)" fill="white" fill-opacity="0.3"/>
<ellipse cx="38.7116" cy="35.7605" rx="3.31403" ry="3.23914" transform="rotate(-0.439137 38.7116 35.7605)" fill="white" fill-opacity="0.3"/>
<ellipse cx="49.4818" cy="35.6785" rx="3.31403" ry="3.23914" transform="rotate(-0.439137 49.4818 35.6785)" fill="white" fill-opacity="0.3"/>
<ellipse cx="60.2523" cy="35.5945" rx="3.31403" ry="3.23914" transform="rotate(-0.439137 60.2523 35.5945)" fill="white" fill-opacity="0.3"/>
<ellipse cx="71.0226" cy="35.5125" rx="3.31403" ry="3.23914" transform="rotate(-0.439137 71.0226 35.5125)" fill="white" fill-opacity="0.3"/>
<ellipse cx="81.7926" cy="35.4304" rx="3.31403" ry="3.23914" transform="rotate(-0.439137 81.7926 35.4304)" fill="white" fill-opacity="0.3"/>
<ellipse cx="92.5629" cy="35.3465" rx="3.31403" ry="3.23914" transform="rotate(-0.439137 92.5629 35.3465)" fill="white" fill-opacity="0.3"/>
<ellipse cx="103.333" cy="35.2644" rx="3.31403" ry="3.23914" transform="rotate(-0.439137 103.333 35.2644)" fill="white" fill-opacity="0.3"/>
<ellipse cx="114.104" cy="35.1824" rx="3.31403" ry="3.23914" transform="rotate(-0.439137 114.104 35.1824)" fill="white" fill-opacity="0.3"/>
<ellipse cx="124.874" cy="35.1004" rx="3.31403" ry="3.23914" transform="rotate(-0.439137 124.874 35.1004)" fill="white" fill-opacity="0.3"/>
<ellipse cx="135.644" cy="35.0183" rx="3.31403" ry="3.23914" transform="rotate(-0.439137 135.644 35.0183)" fill="white" fill-opacity="0.3"/>
<ellipse cx="146.415" cy="34.9343" rx="3.31403" ry="3.23914" transform="rotate(-0.439137 146.415 34.9343)" fill="white" fill-opacity="0.3"/>
<ellipse cx="157.184" cy="34.8543" rx="3.31403" ry="3.23914" transform="rotate(-0.439137 157.184 34.8543)" fill="white" fill-opacity="0.3"/>
<ellipse cx="167.955" cy="34.7683" rx="3.31403" ry="3.23914" transform="rotate(-0.439137 167.955 34.7683)" fill="white" fill-opacity="0.3"/>
<ellipse cx="178.725" cy="34.6883" rx="3.31403" ry="3.23914" transform="rotate(-0.439137 178.725 34.6883)" fill="white" fill-opacity="0.3"/>
<ellipse cx="189.495" cy="34.6062" rx="3.31403" ry="3.23914" transform="rotate(-0.439137 189.495 34.6062)" fill="white" fill-opacity="0.3"/>
<ellipse cx="200.266" cy="34.5222" rx="3.31403" ry="3.23914" transform="rotate(-0.439137 200.266 34.5222)" fill="white" fill-opacity="0.3"/>
<ellipse cx="211.036" cy="34.4402" rx="3.31403" ry="3.23914" transform="rotate(-0.439137 211.036 34.4402)" fill="white" fill-opacity="0.3"/>
<ellipse cx="221.806" cy="34.3582" rx="3.31403" ry="3.23914" transform="rotate(-0.439137 221.806 34.3582)" fill="white" fill-opacity="0.3"/>
<ellipse cx="232.577" cy="34.2742" rx="3.31403" ry="3.23914" transform="rotate(-0.439137 232.577 34.2742)" fill="white" fill-opacity="0.3"/>
<ellipse cx="243.347" cy="34.1922" rx="3.31403" ry="3.23914" transform="rotate(-0.439137 243.347 34.1922)" fill="white" fill-opacity="0.3"/>
<ellipse cx="254.118" cy="34.1101" rx="3.31403" ry="3.23914" transform="rotate(-0.439137 254.118 34.1101)" fill="white" fill-opacity="0.3"/>
<ellipse cx="264.888" cy="34.0261" rx="3.31403" ry="3.23914" transform="rotate(-0.439137 264.888 34.0261)" fill="white" fill-opacity="0.3"/>
<ellipse cx="275.658" cy="33.9461" rx="3.31403" ry="3.23914" transform="rotate(-0.439137 275.658 33.9461)" fill="white" fill-opacity="0.3"/>
<ellipse cx="286.428" cy="33.8621" rx="3.31403" ry="3.23914" transform="rotate(-0.439137 286.428 33.8621)" fill="white" fill-opacity="0.3"/>
<ellipse cx="297.199" cy="33.78" rx="3.31403" ry="3.23914" transform="rotate(-0.439137 297.199 33.78)" fill="white" fill-opacity="0.3"/>
<ellipse cx="307.969" cy="33.6961" rx="3.31403" ry="3.23914" transform="rotate(-0.439137 307.969 33.6961)" fill="white" fill-opacity="0.3"/>
<ellipse cx="6.48085" cy="46.5359" rx="3.31403" ry="3.23914" transform="rotate(-0.439137 6.48085 46.5359)" fill="white" fill-opacity="0.3"/>
<ellipse cx="17.2516" cy="46.4539" rx="3.31403" ry="3.23914" transform="rotate(-0.439137 17.2516 46.4539)" fill="white" fill-opacity="0.3"/>
<ellipse cx="28.0219" cy="46.3699" rx="3.31403" ry="3.23914" transform="rotate(-0.439137 28.0219 46.3699)" fill="white" fill-opacity="0.3"/>
<ellipse cx="38.7924" cy="46.2879" rx="3.31403" ry="3.23914" transform="rotate(-0.439137 38.7924 46.2879)" fill="white" fill-opacity="0.3"/>
<ellipse cx="49.5629" cy="46.2039" rx="3.31403" ry="3.23914" transform="rotate(-0.439137 49.5629 46.2039)" fill="white" fill-opacity="0.3"/>
<ellipse cx="60.3327" cy="46.1238" rx="3.31403" ry="3.23914" transform="rotate(-0.439137 60.3327 46.1238)" fill="white" fill-opacity="0.3"/>
<ellipse cx="71.1032" cy="46.0398" rx="3.31403" ry="3.23914" transform="rotate(-0.439137 71.1032 46.0398)" fill="white" fill-opacity="0.3"/>
<ellipse cx="81.8732" cy="45.9578" rx="3.31403" ry="3.23914" transform="rotate(-0.439137 81.8732 45.9578)" fill="white" fill-opacity="0.3"/>
<ellipse cx="92.6434" cy="45.8758" rx="3.31403" ry="3.23914" transform="rotate(-0.439137 92.6434 45.8758)" fill="white" fill-opacity="0.3"/>
<ellipse cx="103.413" cy="45.7937" rx="3.31403" ry="3.23914" transform="rotate(-0.439137 103.413 45.7937)" fill="white" fill-opacity="0.3"/>
<ellipse cx="114.184" cy="45.7078" rx="3.31403" ry="3.23914" transform="rotate(-0.439137 114.184 45.7078)" fill="white" fill-opacity="0.3"/>
<ellipse cx="124.954" cy="45.6277" rx="3.31403" ry="3.23914" transform="rotate(-0.439137 124.954 45.6277)" fill="white" fill-opacity="0.3"/>
<ellipse cx="135.725" cy="45.5457" rx="3.31403" ry="3.23914" transform="rotate(-0.439137 135.725 45.5457)" fill="white" fill-opacity="0.3"/>
<ellipse cx="146.495" cy="45.4636" rx="3.31403" ry="3.23914" transform="rotate(-0.439137 146.495 45.4636)" fill="white" fill-opacity="0.3"/>
<ellipse cx="157.265" cy="45.3797" rx="3.31403" ry="3.23914" transform="rotate(-0.439137 157.265 45.3797)" fill="white" fill-opacity="0.3"/>
<ellipse cx="168.036" cy="45.2976" rx="3.31403" ry="3.23914" transform="rotate(-0.439137 168.036 45.2976)" fill="white" fill-opacity="0.3"/>
<ellipse cx="178.806" cy="45.2156" rx="3.31403" ry="3.23914" transform="rotate(-0.439137 178.806 45.2156)" fill="white" fill-opacity="0.3"/>
<ellipse cx="189.576" cy="45.1316" rx="3.31403" ry="3.23914" transform="rotate(-0.439137 189.576 45.1316)" fill="white" fill-opacity="0.3"/>
<ellipse cx="200.346" cy="45.0496" rx="3.31403" ry="3.23914" transform="rotate(-0.439137 200.346 45.0496)" fill="white" fill-opacity="0.3"/>
<ellipse cx="211.117" cy="44.9656" rx="3.31403" ry="3.23914" transform="rotate(-0.439137 211.117 44.9656)" fill="white" fill-opacity="0.3"/>
<ellipse cx="221.887" cy="44.8836" rx="3.31403" ry="3.23914" transform="rotate(-0.439137 221.887 44.8836)" fill="white" fill-opacity="0.3"/>
<ellipse cx="232.657" cy="44.8015" rx="3.31403" ry="3.23914" transform="rotate(-0.439137 232.657 44.8015)" fill="white" fill-opacity="0.3"/>
<ellipse cx="243.428" cy="44.7195" rx="3.31403" ry="3.23914" transform="rotate(-0.439137 243.428 44.7195)" fill="white" fill-opacity="0.3"/>
<ellipse cx="254.198" cy="44.6375" rx="3.31403" ry="3.23914" transform="rotate(-0.439137 254.198 44.6375)" fill="white" fill-opacity="0.3"/>
<ellipse cx="264.968" cy="44.5535" rx="3.31403" ry="3.23914" transform="rotate(-0.439137 264.968 44.5535)" fill="white" fill-opacity="0.3"/>
<ellipse cx="275.739" cy="44.4715" rx="3.31403" ry="3.23914" transform="rotate(-0.439137 275.739 44.4715)" fill="white" fill-opacity="0.3"/>
<ellipse cx="286.509" cy="44.3875" rx="3.31403" ry="3.23914" transform="rotate(-0.439137 286.509 44.3875)" fill="white" fill-opacity="0.3"/>
<ellipse cx="297.279" cy="44.3074" rx="3.31403" ry="3.23914" transform="rotate(-0.439137 297.279 44.3074)" fill="white" fill-opacity="0.3"/>
<ellipse cx="308.05" cy="44.2234" rx="3.31403" ry="3.23914" transform="rotate(-0.439137 308.05 44.2234)" fill="white" fill-opacity="0.3"/>
<ellipse cx="6.56191" cy="57.0613" rx="3.31403" ry="3.23914" transform="rotate(-0.439137 6.56191 57.0613)" fill="white" fill-opacity="0.3"/>
<ellipse cx="17.3324" cy="56.9793" rx="3.31403" ry="3.23914" transform="rotate(-0.439137 17.3324 56.9793)" fill="white" fill-opacity="0.3"/>
<ellipse cx="28.1022" cy="56.8972" rx="3.31403" ry="3.23914" transform="rotate(-0.439137 28.1022 56.8972)" fill="white" fill-opacity="0.3"/>
<ellipse cx="38.8729" cy="56.8133" rx="3.31403" ry="3.23914" transform="rotate(-0.439137 38.8729 56.8133)" fill="white" fill-opacity="0.3"/>
<ellipse cx="49.6432" cy="56.7312" rx="3.31403" ry="3.23914" transform="rotate(-0.439137 49.6432 56.7312)" fill="white" fill-opacity="0.3"/>
<ellipse cx="60.4137" cy="56.6492" rx="3.31403" ry="3.23914" transform="rotate(-0.439137 60.4137 56.6492)" fill="white" fill-opacity="0.3"/>
<ellipse cx="71.1837" cy="56.5672" rx="3.31403" ry="3.23914" transform="rotate(-0.439137 71.1837 56.5672)" fill="white" fill-opacity="0.3"/>
<ellipse cx="81.9538" cy="56.4851" rx="3.31403" ry="3.23914" transform="rotate(-0.439137 81.9538 56.4851)" fill="white" fill-opacity="0.3"/>
<ellipse cx="92.724" cy="56.4031" rx="3.31403" ry="3.23914" transform="rotate(-0.439137 92.724 56.4031)" fill="white" fill-opacity="0.3"/>
<ellipse cx="103.495" cy="56.3172" rx="3.31403" ry="3.23914" transform="rotate(-0.439137 103.495 56.3172)" fill="white" fill-opacity="0.3"/>
<ellipse cx="114.265" cy="56.2351" rx="3.31403" ry="3.23914" transform="rotate(-0.439137 114.265 56.2351)" fill="white" fill-opacity="0.3"/>
<ellipse cx="125.035" cy="56.155" rx="3.31403" ry="3.23914" transform="rotate(-0.439137 125.035 56.155)" fill="white" fill-opacity="0.3"/>
<ellipse cx="135.806" cy="56.0711" rx="3.31403" ry="3.23914" transform="rotate(-0.439137 135.806 56.0711)" fill="white" fill-opacity="0.3"/>
<ellipse cx="146.576" cy="55.9871" rx="3.31403" ry="3.23914" transform="rotate(-0.439137 146.576 55.9871)" fill="white" fill-opacity="0.3"/>
<ellipse cx="157.346" cy="55.905" rx="3.31403" ry="3.23914" transform="rotate(-0.439137 157.346 55.905)" fill="white" fill-opacity="0.3"/>
<ellipse cx="168.116" cy="55.823" rx="3.31403" ry="3.23914" transform="rotate(-0.439137 168.116 55.823)" fill="white" fill-opacity="0.3"/>
<ellipse cx="178.887" cy="55.741" rx="3.31403" ry="3.23914" transform="rotate(-0.439137 178.887 55.741)" fill="white" fill-opacity="0.3"/>
<ellipse cx="189.657" cy="55.659" rx="3.31403" ry="3.23914" transform="rotate(-0.439137 189.657 55.659)" fill="white" fill-opacity="0.3"/>
<ellipse cx="200.427" cy="55.575" rx="3.31403" ry="3.23914" transform="rotate(-0.439137 200.427 55.575)" fill="white" fill-opacity="0.3"/>
<ellipse cx="211.198" cy="55.491" rx="3.31403" ry="3.23914" transform="rotate(-0.439137 211.198 55.491)" fill="white" fill-opacity="0.3"/>
<ellipse cx="221.968" cy="55.409" rx="3.31403" ry="3.23914" transform="rotate(-0.439137 221.968 55.409)" fill="white" fill-opacity="0.3"/>
<ellipse cx="232.738" cy="55.3289" rx="3.31403" ry="3.23914" transform="rotate(-0.439137 232.738 55.3289)" fill="white" fill-opacity="0.3"/>
<ellipse cx="243.509" cy="55.2449" rx="3.31403" ry="3.23914" transform="rotate(-0.439137 243.509 55.2449)" fill="white" fill-opacity="0.3"/>
<ellipse cx="254.279" cy="55.1629" rx="3.31403" ry="3.23914" transform="rotate(-0.439137 254.279 55.1629)" fill="white" fill-opacity="0.3"/>
<ellipse cx="265.049" cy="55.0808" rx="3.31403" ry="3.23914" transform="rotate(-0.439137 265.049 55.0808)" fill="white" fill-opacity="0.3"/>
<ellipse cx="275.819" cy="54.9988" rx="3.31403" ry="3.23914" transform="rotate(-0.439137 275.819 54.9988)" fill="white" fill-opacity="0.3"/>
<ellipse cx="286.589" cy="54.9168" rx="3.31403" ry="3.23914" transform="rotate(-0.439137 286.589 54.9168)" fill="white" fill-opacity="0.3"/>
<ellipse cx="297.359" cy="54.8347" rx="3.31403" ry="3.23914" transform="rotate(-0.439137 297.359 54.8347)" fill="white" fill-opacity="0.3"/>
<ellipse cx="308.13" cy="54.7508" rx="3.31403" ry="3.23914" transform="rotate(-0.439137 308.13 54.7508)" fill="white" fill-opacity="0.3"/>
<ellipse cx="6.64247" cy="67.5886" rx="3.31403" ry="3.23914" transform="rotate(-0.439137 6.64247 67.5886)" fill="white" fill-opacity="0.3"/>
<ellipse cx="17.413" cy="67.5066" rx="3.31403" ry="3.23914" transform="rotate(-0.439137 17.413 67.5066)" fill="white" fill-opacity="0.3"/>
<ellipse cx="28.183" cy="67.4246" rx="3.31403" ry="3.23914" transform="rotate(-0.439137 28.183 67.4246)" fill="white" fill-opacity="0.3"/>
<ellipse cx="38.9538" cy="67.3406" rx="3.31403" ry="3.23914" transform="rotate(-0.439137 38.9538 67.3406)" fill="white" fill-opacity="0.3"/>
<ellipse cx="49.7238" cy="67.2586" rx="3.31403" ry="3.23914" transform="rotate(-0.439137 49.7238 67.2586)" fill="white" fill-opacity="0.3"/>
<ellipse cx="60.4943" cy="67.1765" rx="3.31403" ry="3.23914" transform="rotate(-0.439137 60.4943 67.1765)" fill="white" fill-opacity="0.3"/>
<ellipse cx="71.2645" cy="67.0945" rx="3.31403" ry="3.23914" transform="rotate(-0.439137 71.2645 67.0945)" fill="white" fill-opacity="0.3"/>
<ellipse cx="82.0346" cy="67.0125" rx="3.31403" ry="3.23914" transform="rotate(-0.439137 82.0346 67.0125)" fill="white" fill-opacity="0.3"/>
<ellipse cx="92.8053" cy="66.9265" rx="3.31403" ry="3.23914" transform="rotate(-0.439137 92.8053 66.9265)" fill="white" fill-opacity="0.3"/>
<ellipse cx="103.575" cy="66.8445" rx="3.31403" ry="3.23914" transform="rotate(-0.439137 103.575 66.8445)" fill="white" fill-opacity="0.3"/>
<ellipse cx="114.345" cy="66.7625" rx="3.31403" ry="3.23914" transform="rotate(-0.439137 114.345 66.7625)" fill="white" fill-opacity="0.3"/>
<ellipse cx="125.116" cy="66.6804" rx="3.31403" ry="3.23914" transform="rotate(-0.439137 125.116 66.6804)" fill="white" fill-opacity="0.3"/>
<ellipse cx="135.886" cy="66.6004" rx="3.31403" ry="3.23914" transform="rotate(-0.439137 135.886 66.6004)" fill="white" fill-opacity="0.3"/>
<ellipse cx="146.657" cy="66.5144" rx="3.31403" ry="3.23914" transform="rotate(-0.439137 146.657 66.5144)" fill="white" fill-opacity="0.3"/>
<ellipse cx="157.427" cy="66.4324" rx="3.31403" ry="3.23914" transform="rotate(-0.439137 157.427 66.4324)" fill="white" fill-opacity="0.3"/>
<ellipse cx="168.197" cy="66.3504" rx="3.31403" ry="3.23914" transform="rotate(-0.439137 168.197 66.3504)" fill="white" fill-opacity="0.3"/>
<ellipse cx="178.967" cy="66.2683" rx="3.31403" ry="3.23914" transform="rotate(-0.439137 178.967 66.2683)" fill="white" fill-opacity="0.3"/>
<ellipse cx="189.738" cy="66.1863" rx="3.31403" ry="3.23914" transform="rotate(-0.439137 189.738 66.1863)" fill="white" fill-opacity="0.3"/>
<ellipse cx="200.507" cy="66.1043" rx="3.31403" ry="3.23914" transform="rotate(-0.439137 200.507 66.1043)" fill="white" fill-opacity="0.3"/>
<ellipse cx="211.278" cy="66.0203" rx="3.31403" ry="3.23914" transform="rotate(-0.439137 211.278 66.0203)" fill="white" fill-opacity="0.3"/>
<ellipse cx="222.049" cy="65.9363" rx="3.31403" ry="3.23914" transform="rotate(-0.439137 222.049 65.9363)" fill="white" fill-opacity="0.3"/>
<ellipse cx="232.819" cy="65.8562" rx="3.31403" ry="3.23914" transform="rotate(-0.439137 232.819 65.8562)" fill="white" fill-opacity="0.3"/>
<ellipse cx="243.589" cy="65.7742" rx="3.31403" ry="3.23914" transform="rotate(-0.439137 243.589 65.7742)" fill="white" fill-opacity="0.3"/>
<ellipse cx="254.359" cy="65.6902" rx="3.31403" ry="3.23914" transform="rotate(-0.439137 254.359 65.6902)" fill="white" fill-opacity="0.3"/>
<ellipse cx="265.13" cy="65.6082" rx="3.31403" ry="3.23914" transform="rotate(-0.439137 265.13 65.6082)" fill="white" fill-opacity="0.3"/>
<ellipse cx="275.9" cy="65.5261" rx="3.31403" ry="3.23914" transform="rotate(-0.439137 275.9 65.5261)" fill="white" fill-opacity="0.3"/>
<ellipse cx="286.67" cy="65.4422" rx="3.31403" ry="3.23914" transform="rotate(-0.439137 286.67 65.4422)" fill="white" fill-opacity="0.3"/>
<ellipse cx="297.44" cy="65.3601" rx="3.31403" ry="3.23914" transform="rotate(-0.439137 297.44 65.3601)" fill="white" fill-opacity="0.3"/>
<ellipse cx="308.211" cy="65.2781" rx="3.31403" ry="3.23914" transform="rotate(-0.439137 308.211 65.2781)" fill="white" fill-opacity="0.3"/>
<ellipse cx="6.72353" cy="78.116" rx="3.31403" ry="3.23914" transform="rotate(-0.439137 6.72353 78.116)" fill="white" fill-opacity="0.3"/>
<ellipse cx="17.494" cy="78.032" rx="3.31403" ry="3.23914" transform="rotate(-0.439137 17.494 78.032)" fill="white" fill-opacity="0.3"/>
<ellipse cx="28.2641" cy="77.95" rx="3.31403" ry="3.23914" transform="rotate(-0.439137 28.2641 77.95)" fill="white" fill-opacity="0.3"/>
<ellipse cx="39.0343" cy="77.8679" rx="3.31403" ry="3.23914" transform="rotate(-0.439137 39.0343 77.8679)" fill="white" fill-opacity="0.3"/>
<ellipse cx="49.8048" cy="77.7859" rx="3.31403" ry="3.23914" transform="rotate(-0.439137 49.8048 77.7859)" fill="white" fill-opacity="0.3"/>
<ellipse cx="60.5746" cy="77.7039" rx="3.31403" ry="3.23914" transform="rotate(-0.439137 60.5746 77.7039)" fill="white" fill-opacity="0.3"/>
<ellipse cx="71.3451" cy="77.6218" rx="3.31403" ry="3.23914" transform="rotate(-0.439137 71.3451 77.6218)" fill="white" fill-opacity="0.3"/>
<ellipse cx="82.1154" cy="77.5379" rx="3.31403" ry="3.23914" transform="rotate(-0.439137 82.1154 77.5379)" fill="white" fill-opacity="0.3"/>
<ellipse cx="92.8854" cy="77.4558" rx="3.31403" ry="3.23914" transform="rotate(-0.439137 92.8854 77.4558)" fill="white" fill-opacity="0.3"/>
<ellipse cx="103.656" cy="77.3738" rx="3.31403" ry="3.23914" transform="rotate(-0.439137 103.656 77.3738)" fill="white" fill-opacity="0.3"/>
<ellipse cx="114.426" cy="77.2898" rx="3.31403" ry="3.23914" transform="rotate(-0.439137 114.426 77.2898)" fill="white" fill-opacity="0.3"/>
<ellipse cx="125.196" cy="77.2078" rx="3.31403" ry="3.23914" transform="rotate(-0.439137 125.196 77.2078)" fill="white" fill-opacity="0.3"/>
<ellipse cx="135.967" cy="77.1257" rx="3.31403" ry="3.23914" transform="rotate(-0.439137 135.967 77.1257)" fill="white" fill-opacity="0.3"/>
<ellipse cx="146.737" cy="77.0437" rx="3.31403" ry="3.23914" transform="rotate(-0.439137 146.737 77.0437)" fill="white" fill-opacity="0.3"/>
<ellipse cx="157.507" cy="76.9597" rx="3.31403" ry="3.23914" transform="rotate(-0.439137 157.507 76.9597)" fill="white" fill-opacity="0.3"/>
<ellipse cx="168.278" cy="76.8757" rx="3.31403" ry="3.23914" transform="rotate(-0.439137 168.278 76.8757)" fill="white" fill-opacity="0.3"/>
<ellipse cx="179.048" cy="76.7957" rx="3.31403" ry="3.23914" transform="rotate(-0.439137 179.048 76.7957)" fill="white" fill-opacity="0.3"/>
<ellipse cx="189.818" cy="76.7136" rx="3.31403" ry="3.23914" transform="rotate(-0.439137 189.818 76.7136)" fill="white" fill-opacity="0.3"/>
<ellipse cx="200.589" cy="76.6297" rx="3.31403" ry="3.23914" transform="rotate(-0.439137 200.589 76.6297)" fill="white" fill-opacity="0.3"/>
<ellipse cx="211.358" cy="76.5476" rx="3.31403" ry="3.23914" transform="rotate(-0.439137 211.358 76.5476)" fill="white" fill-opacity="0.3"/>
<ellipse cx="222.129" cy="76.4636" rx="3.31403" ry="3.23914" transform="rotate(-0.439137 222.129 76.4636)" fill="white" fill-opacity="0.3"/>
<ellipse cx="232.899" cy="76.3836" rx="3.31403" ry="3.23914" transform="rotate(-0.439137 232.899 76.3836)" fill="white" fill-opacity="0.3"/>
<ellipse cx="243.67" cy="76.2996" rx="3.31403" ry="3.23914" transform="rotate(-0.439137 243.67 76.2996)" fill="white" fill-opacity="0.3"/>
<ellipse cx="254.44" cy="76.2175" rx="3.31403" ry="3.23914" transform="rotate(-0.439137 254.44 76.2175)" fill="white" fill-opacity="0.3"/>
<ellipse cx="265.21" cy="76.1336" rx="3.31403" ry="3.23914" transform="rotate(-0.439137 265.21 76.1336)" fill="white" fill-opacity="0.3"/>
<ellipse cx="275.981" cy="76.0515" rx="3.31403" ry="3.23914" transform="rotate(-0.439137 275.981 76.0515)" fill="white" fill-opacity="0.3"/>
<ellipse cx="286.751" cy="75.9695" rx="3.31403" ry="3.23914" transform="rotate(-0.439137 286.751 75.9695)" fill="white" fill-opacity="0.3"/>
<ellipse cx="297.521" cy="75.8875" rx="3.31403" ry="3.23914" transform="rotate(-0.439137 297.521 75.8875)" fill="white" fill-opacity="0.3"/>
<ellipse cx="308.291" cy="75.8035" rx="3.31403" ry="3.23914" transform="rotate(-0.439137 308.291 75.8035)" fill="white" fill-opacity="0.3"/>
<ellipse cx="6.8036" cy="88.6433" rx="3.31403" ry="3.23914" transform="rotate(-0.439137 6.8036 88.6433)" fill="white" fill-opacity="0.3"/>
<ellipse cx="17.5744" cy="88.5613" rx="3.31403" ry="3.23914" transform="rotate(-0.439137 17.5744 88.5613)" fill="white" fill-opacity="0.3"/>
<ellipse cx="28.3446" cy="88.4773" rx="3.31403" ry="3.23914" transform="rotate(-0.439137 28.3446 88.4773)" fill="white" fill-opacity="0.3"/>
<ellipse cx="39.1144" cy="88.3972" rx="3.31403" ry="3.23914" transform="rotate(-0.439137 39.1144 88.3972)" fill="white" fill-opacity="0.3"/>
<ellipse cx="49.8849" cy="88.3132" rx="3.31403" ry="3.23914" transform="rotate(-0.439137 49.8849 88.3132)" fill="white" fill-opacity="0.3"/>
<ellipse cx="60.6554" cy="88.2293" rx="3.31403" ry="3.23914" transform="rotate(-0.439137 60.6554 88.2293)" fill="white" fill-opacity="0.3"/>
<ellipse cx="71.4259" cy="88.1472" rx="3.31403" ry="3.23914" transform="rotate(-0.439137 71.4259 88.1472)" fill="white" fill-opacity="0.3"/>
<ellipse cx="82.1959" cy="88.0652" rx="3.31403" ry="3.23914" transform="rotate(-0.439137 82.1959 88.0652)" fill="white" fill-opacity="0.3"/>
<ellipse cx="92.9664" cy="87.9832" rx="3.31403" ry="3.23914" transform="rotate(-0.439137 92.9664 87.9832)" fill="white" fill-opacity="0.3"/>
<ellipse cx="103.736" cy="87.9011" rx="3.31403" ry="3.23914" transform="rotate(-0.439137 103.736 87.9011)" fill="white" fill-opacity="0.3"/>
<ellipse cx="114.506" cy="87.8172" rx="3.31403" ry="3.23914" transform="rotate(-0.439137 114.506 87.8172)" fill="white" fill-opacity="0.3"/>
<ellipse cx="125.277" cy="87.7351" rx="3.31403" ry="3.23914" transform="rotate(-0.439137 125.277 87.7351)" fill="white" fill-opacity="0.3"/>
<ellipse cx="136.047" cy="87.6531" rx="3.31403" ry="3.23914" transform="rotate(-0.439137 136.047 87.6531)" fill="white" fill-opacity="0.3"/>
<ellipse cx="146.818" cy="87.5691" rx="3.31403" ry="3.23914" transform="rotate(-0.439137 146.818 87.5691)" fill="white" fill-opacity="0.3"/>
<ellipse cx="157.588" cy="87.4871" rx="3.31403" ry="3.23914" transform="rotate(-0.439137 157.588 87.4871)" fill="white" fill-opacity="0.3"/>
<ellipse cx="168.358" cy="87.405" rx="3.31403" ry="3.23914" transform="rotate(-0.439137 168.358 87.405)" fill="white" fill-opacity="0.3"/>
<ellipse cx="179.129" cy="87.323" rx="3.31403" ry="3.23914" transform="rotate(-0.439137 179.129 87.323)" fill="white" fill-opacity="0.3"/>
<ellipse cx="189.899" cy="87.239" rx="3.31403" ry="3.23914" transform="rotate(-0.439137 189.899 87.239)" fill="white" fill-opacity="0.3"/>
<ellipse cx="200.669" cy="87.157" rx="3.31403" ry="3.23914" transform="rotate(-0.439137 200.669 87.157)" fill="white" fill-opacity="0.3"/>
<ellipse cx="211.439" cy="87.075" rx="3.31403" ry="3.23914" transform="rotate(-0.439137 211.439 87.075)" fill="white" fill-opacity="0.3"/>
<ellipse cx="222.21" cy="86.991" rx="3.31403" ry="3.23914" transform="rotate(-0.439137 222.21 86.991)" fill="white" fill-opacity="0.3"/>
<ellipse cx="232.98" cy="86.909" rx="3.31403" ry="3.23914" transform="rotate(-0.439137 232.98 86.909)" fill="white" fill-opacity="0.3"/>
<ellipse cx="243.75" cy="86.8269" rx="3.31403" ry="3.23914" transform="rotate(-0.439137 243.75 86.8269)" fill="white" fill-opacity="0.3"/>
<ellipse cx="254.52" cy="86.7449" rx="3.31403" ry="3.23914" transform="rotate(-0.439137 254.52 86.7449)" fill="white" fill-opacity="0.3"/>
<ellipse cx="265.291" cy="86.6609" rx="3.31403" ry="3.23914" transform="rotate(-0.439137 265.291 86.6609)" fill="white" fill-opacity="0.3"/>
<ellipse cx="276.061" cy="86.5789" rx="3.31403" ry="3.23914" transform="rotate(-0.439137 276.061 86.5789)" fill="white" fill-opacity="0.3"/>
<ellipse cx="286.832" cy="86.4968" rx="3.31403" ry="3.23914" transform="rotate(-0.439137 286.832 86.4968)" fill="white" fill-opacity="0.3"/>
<ellipse cx="297.601" cy="86.4148" rx="3.31403" ry="3.23914" transform="rotate(-0.439137 297.601 86.4148)" fill="white" fill-opacity="0.3"/>
<ellipse cx="308.372" cy="86.3328" rx="3.31403" ry="3.23914" transform="rotate(-0.439137 308.372 86.3328)" fill="white" fill-opacity="0.3"/>
<ellipse cx="6.88442" cy="99.1687" rx="3.31403" ry="3.23914" transform="rotate(-0.439137 6.88442 99.1687)" fill="white" fill-opacity="0.3"/>
<ellipse cx="17.6552" cy="99.0867" rx="3.31403" ry="3.23914" transform="rotate(-0.439137 17.6552 99.0867)" fill="white" fill-opacity="0.3"/>
<ellipse cx="28.4249" cy="99.0047" rx="3.31403" ry="3.23914" transform="rotate(-0.439137 28.4249 99.0047)" fill="white" fill-opacity="0.3"/>
<ellipse cx="39.1952" cy="98.9226" rx="3.31403" ry="3.23914" transform="rotate(-0.439137 39.1952 98.9226)" fill="white" fill-opacity="0.3"/>
<ellipse cx="49.966" cy="98.8386" rx="3.31403" ry="3.23914" transform="rotate(-0.439137 49.966 98.8386)" fill="white" fill-opacity="0.3"/>
<ellipse cx="60.736" cy="98.7566" rx="3.31403" ry="3.23914" transform="rotate(-0.439137 60.736 98.7566)" fill="white" fill-opacity="0.3"/>
<ellipse cx="71.5065" cy="98.6746" rx="3.31403" ry="3.23914" transform="rotate(-0.439137 71.5065 98.6746)" fill="white" fill-opacity="0.3"/>
<ellipse cx="82.2765" cy="98.5925" rx="3.31403" ry="3.23914" transform="rotate(-0.439137 82.2765 98.5925)" fill="white" fill-opacity="0.3"/>
<ellipse cx="93.0473" cy="98.5086" rx="3.31403" ry="3.23914" transform="rotate(-0.439137 93.0473 98.5086)" fill="white" fill-opacity="0.3"/>
<ellipse cx="103.817" cy="98.4246" rx="3.31403" ry="3.23914" transform="rotate(-0.439137 103.817 98.4246)" fill="white" fill-opacity="0.3"/>
<ellipse cx="114.588" cy="98.3445" rx="3.31403" ry="3.23914" transform="rotate(-0.439137 114.588 98.3445)" fill="white" fill-opacity="0.3"/>
<ellipse cx="125.358" cy="98.2625" rx="3.31403" ry="3.23914" transform="rotate(-0.439137 125.358 98.2625)" fill="white" fill-opacity="0.3"/>
<ellipse cx="136.128" cy="98.1785" rx="3.31403" ry="3.23914" transform="rotate(-0.439137 136.128 98.1785)" fill="white" fill-opacity="0.3"/>
<ellipse cx="146.899" cy="98.0945" rx="3.31403" ry="3.23914" transform="rotate(-0.439137 146.899 98.0945)" fill="white" fill-opacity="0.3"/>
<ellipse cx="157.669" cy="98.0125" rx="3.31403" ry="3.23914" transform="rotate(-0.439137 157.669 98.0125)" fill="white" fill-opacity="0.3"/>
<ellipse cx="168.439" cy="97.9304" rx="3.31403" ry="3.23914" transform="rotate(-0.439137 168.439 97.9304)" fill="white" fill-opacity="0.3"/>
<ellipse cx="179.209" cy="97.8484" rx="3.31403" ry="3.23914" transform="rotate(-0.439137 179.209 97.8484)" fill="white" fill-opacity="0.3"/>
<ellipse cx="189.98" cy="97.7664" rx="3.31403" ry="3.23914" transform="rotate(-0.439137 189.98 97.7664)" fill="white" fill-opacity="0.3"/>
<ellipse cx="200.749" cy="97.6843" rx="3.31403" ry="3.23914" transform="rotate(-0.439137 200.749 97.6843)" fill="white" fill-opacity="0.3"/>
<ellipse cx="211.52" cy="97.6023" rx="3.31403" ry="3.23914" transform="rotate(-0.439137 211.52 97.6023)" fill="white" fill-opacity="0.3"/>
<ellipse cx="222.29" cy="97.5183" rx="3.31403" ry="3.23914" transform="rotate(-0.439137 222.29 97.5183)" fill="white" fill-opacity="0.3"/>
<ellipse cx="233.06" cy="97.4363" rx="3.31403" ry="3.23914" transform="rotate(-0.439137 233.06 97.4363)" fill="white" fill-opacity="0.3"/>
<ellipse cx="243.831" cy="97.3543" rx="3.31403" ry="3.23914" transform="rotate(-0.439137 243.831 97.3543)" fill="white" fill-opacity="0.3"/>
<ellipse cx="254.601" cy="97.2722" rx="3.31403" ry="3.23914" transform="rotate(-0.439137 254.601 97.2722)" fill="white" fill-opacity="0.3"/>
<ellipse cx="265.371" cy="97.1882" rx="3.31403" ry="3.23914" transform="rotate(-0.439137 265.371 97.1882)" fill="white" fill-opacity="0.3"/>
<ellipse cx="276.142" cy="97.1043" rx="3.31403" ry="3.23914" transform="rotate(-0.439137 276.142 97.1043)" fill="white" fill-opacity="0.3"/>
<ellipse cx="286.912" cy="97.0242" rx="3.31403" ry="3.23914" transform="rotate(-0.439137 286.912 97.0242)" fill="white" fill-opacity="0.3"/>
<ellipse cx="297.683" cy="96.9422" rx="3.31403" ry="3.23914" transform="rotate(-0.439137 297.683 96.9422)" fill="white" fill-opacity="0.3"/>
<ellipse cx="308.453" cy="96.8582" rx="3.31403" ry="3.23914" transform="rotate(-0.439137 308.453 96.8582)" fill="white" fill-opacity="0.3"/>
<ellipse cx="6.96523" cy="109.696" rx="3.31403" ry="3.23914" transform="rotate(-0.439137 6.96523 109.696)" fill="white" fill-opacity="0.3"/>
<ellipse cx="17.7357" cy="109.616" rx="3.31403" ry="3.23914" transform="rotate(-0.439137 17.7357 109.616)" fill="white" fill-opacity="0.3"/>
<ellipse cx="28.5058" cy="109.532" rx="3.31403" ry="3.23914" transform="rotate(-0.439137 28.5058 109.532)" fill="white" fill-opacity="0.3"/>
<ellipse cx="39.276" cy="109.448" rx="3.31403" ry="3.23914" transform="rotate(-0.439137 39.276 109.448)" fill="white" fill-opacity="0.3"/>
<ellipse cx="50.0468" cy="109.366" rx="3.31403" ry="3.23914" transform="rotate(-0.439137 50.0468 109.366)" fill="white" fill-opacity="0.3"/>
<ellipse cx="60.8165" cy="109.284" rx="3.31403" ry="3.23914" transform="rotate(-0.439137 60.8165 109.284)" fill="white" fill-opacity="0.3"/>
<ellipse cx="71.5871" cy="109.202" rx="3.31403" ry="3.23914" transform="rotate(-0.439137 71.5871 109.202)" fill="white" fill-opacity="0.3"/>
<ellipse cx="82.3571" cy="109.12" rx="3.31403" ry="3.23914" transform="rotate(-0.439137 82.3571 109.12)" fill="white" fill-opacity="0.3"/>
<ellipse cx="93.1276" cy="109.036" rx="3.31403" ry="3.23914" transform="rotate(-0.439137 93.1276 109.036)" fill="white" fill-opacity="0.3"/>
<ellipse cx="103.898" cy="108.956" rx="3.31403" ry="3.23914" transform="rotate(-0.439137 103.898 108.956)" fill="white" fill-opacity="0.3"/>
<ellipse cx="114.668" cy="108.872" rx="3.31403" ry="3.23914" transform="rotate(-0.439137 114.668 108.872)" fill="white" fill-opacity="0.3"/>
<ellipse cx="125.439" cy="108.79" rx="3.31403" ry="3.23914" transform="rotate(-0.439137 125.439 108.79)" fill="white" fill-opacity="0.3"/>
<ellipse cx="136.208" cy="108.708" rx="3.31403" ry="3.23914" transform="rotate(-0.439137 136.208 108.708)" fill="white" fill-opacity="0.3"/>
<ellipse cx="146.979" cy="108.624" rx="3.31403" ry="3.23914" transform="rotate(-0.439137 146.979 108.624)" fill="white" fill-opacity="0.3"/>
<ellipse cx="157.749" cy="108.54" rx="3.31403" ry="3.23914" transform="rotate(-0.439137 157.749 108.54)" fill="white" fill-opacity="0.3"/>
<ellipse cx="168.519" cy="108.458" rx="3.31403" ry="3.23914" transform="rotate(-0.439137 168.519 108.458)" fill="white" fill-opacity="0.3"/>
<ellipse cx="179.289" cy="108.376" rx="3.31403" ry="3.23914" transform="rotate(-0.439137 179.289 108.376)" fill="white" fill-opacity="0.3"/>
<ellipse cx="190.06" cy="108.296" rx="3.31403" ry="3.23914" transform="rotate(-0.439137 190.06 108.296)" fill="white" fill-opacity="0.3"/>
<ellipse cx="200.831" cy="108.21" rx="3.31403" ry="3.23914" transform="rotate(-0.439137 200.831 108.21)" fill="white" fill-opacity="0.3"/>
<ellipse cx="211.601" cy="108.13" rx="3.31403" ry="3.23914" transform="rotate(-0.439137 211.601 108.13)" fill="white" fill-opacity="0.3"/>
<ellipse cx="222.371" cy="108.046" rx="3.31403" ry="3.23914" transform="rotate(-0.439137 222.371 108.046)" fill="white" fill-opacity="0.3"/>
<ellipse cx="233.141" cy="107.964" rx="3.31403" ry="3.23914" transform="rotate(-0.439137 233.141 107.964)" fill="white" fill-opacity="0.3"/>
<ellipse cx="243.912" cy="107.882" rx="3.31403" ry="3.23914" transform="rotate(-0.439137 243.912 107.882)" fill="white" fill-opacity="0.3"/>
<ellipse cx="254.682" cy="107.798" rx="3.31403" ry="3.23914" transform="rotate(-0.439137 254.682 107.798)" fill="white" fill-opacity="0.3"/>
<ellipse cx="265.453" cy="107.716" rx="3.31403" ry="3.23914" transform="rotate(-0.439137 265.453 107.716)" fill="white" fill-opacity="0.3"/>
<ellipse cx="276.222" cy="107.634" rx="3.31403" ry="3.23914" transform="rotate(-0.439137 276.222 107.634)" fill="white" fill-opacity="0.3"/>
<ellipse cx="286.993" cy="107.552" rx="3.31403" ry="3.23914" transform="rotate(-0.439137 286.993 107.552)" fill="white" fill-opacity="0.3"/>
<ellipse cx="297.763" cy="107.469" rx="3.31403" ry="3.23914" transform="rotate(-0.439137 297.763 107.469)" fill="white" fill-opacity="0.3"/>
<ellipse cx="308.534" cy="107.387" rx="3.31403" ry="3.23914" transform="rotate(-0.439137 308.534 107.387)" fill="white" fill-opacity="0.3"/>
<ellipse cx="7.04579" cy="120.223" rx="3.31403" ry="3.23914" transform="rotate(-0.439137 7.04579 120.223)" fill="white" fill-opacity="0.3"/>
<ellipse cx="17.8163" cy="120.143" rx="3.31403" ry="3.23914" transform="rotate(-0.439137 17.8163 120.143)" fill="white" fill-opacity="0.3"/>
<ellipse cx="28.5866" cy="120.059" rx="3.31403" ry="3.23914" transform="rotate(-0.439137 28.5866 120.059)" fill="white" fill-opacity="0.3"/>
<ellipse cx="39.3568" cy="119.977" rx="3.31403" ry="3.23914" transform="rotate(-0.439137 39.3568 119.977)" fill="white" fill-opacity="0.3"/>
<ellipse cx="50.1273" cy="119.893" rx="3.31403" ry="3.23914" transform="rotate(-0.439137 50.1273 119.893)" fill="white" fill-opacity="0.3"/>
<ellipse cx="60.8969" cy="119.811" rx="3.31403" ry="3.23914" transform="rotate(-0.439137 60.8969 119.811)" fill="white" fill-opacity="0.3"/>
<ellipse cx="71.6679" cy="119.727" rx="3.31403" ry="3.23914" transform="rotate(-0.439137 71.6679 119.727)" fill="white" fill-opacity="0.3"/>
<ellipse cx="82.4384" cy="119.645" rx="3.31403" ry="3.23914" transform="rotate(-0.439137 82.4384 119.645)" fill="white" fill-opacity="0.3"/>
<ellipse cx="93.2079" cy="119.565" rx="3.31403" ry="3.23914" transform="rotate(-0.439137 93.2079 119.565)" fill="white" fill-opacity="0.3"/>
<ellipse cx="103.979" cy="119.481" rx="3.31403" ry="3.23914" transform="rotate(-0.439137 103.979 119.481)" fill="white" fill-opacity="0.3"/>
<ellipse cx="114.749" cy="119.397" rx="3.31403" ry="3.23914" transform="rotate(-0.439137 114.749 119.397)" fill="white" fill-opacity="0.3"/>
<ellipse cx="125.519" cy="119.317" rx="3.31403" ry="3.23914" transform="rotate(-0.439137 125.519 119.317)" fill="white" fill-opacity="0.3"/>
<ellipse cx="136.289" cy="119.235" rx="3.31403" ry="3.23914" transform="rotate(-0.439137 136.289 119.235)" fill="white" fill-opacity="0.3"/>
<ellipse cx="147.06" cy="119.149" rx="3.31403" ry="3.23914" transform="rotate(-0.439137 147.06 119.149)" fill="white" fill-opacity="0.3"/>
<ellipse cx="157.83" cy="119.067" rx="3.31403" ry="3.23914" transform="rotate(-0.439137 157.83 119.067)" fill="white" fill-opacity="0.3"/>
<ellipse cx="168.6" cy="118.985" rx="3.31403" ry="3.23914" transform="rotate(-0.439137 168.6 118.985)" fill="white" fill-opacity="0.3"/>
<ellipse cx="179.37" cy="118.903" rx="3.31403" ry="3.23914" transform="rotate(-0.439137 179.37 118.903)" fill="white" fill-opacity="0.3"/>
<ellipse cx="190.141" cy="118.821" rx="3.31403" ry="3.23914" transform="rotate(-0.439137 190.141 118.821)" fill="white" fill-opacity="0.3"/>
<ellipse cx="200.911" cy="118.737" rx="3.31403" ry="3.23914" transform="rotate(-0.439137 200.911 118.737)" fill="white" fill-opacity="0.3"/>
<ellipse cx="211.682" cy="118.655" rx="3.31403" ry="3.23914" transform="rotate(-0.439137 211.682 118.655)" fill="white" fill-opacity="0.3"/>
<ellipse cx="222.452" cy="118.573" rx="3.31403" ry="3.23914" transform="rotate(-0.439137 222.452 118.573)" fill="white" fill-opacity="0.3"/>
<ellipse cx="233.222" cy="118.489" rx="3.31403" ry="3.23914" transform="rotate(-0.439137 233.222 118.489)" fill="white" fill-opacity="0.3"/>
<ellipse cx="243.993" cy="118.407" rx="3.31403" ry="3.23914" transform="rotate(-0.439137 243.993 118.407)" fill="white" fill-opacity="0.3"/>
<ellipse cx="254.763" cy="118.327" rx="3.31403" ry="3.23914" transform="rotate(-0.439137 254.763 118.327)" fill="white" fill-opacity="0.3"/>
<ellipse cx="265.533" cy="118.241" rx="3.31403" ry="3.23914" transform="rotate(-0.439137 265.533 118.241)" fill="white" fill-opacity="0.3"/>
<ellipse cx="276.304" cy="118.159" rx="3.31403" ry="3.23914" transform="rotate(-0.439137 276.304 118.159)" fill="white" fill-opacity="0.3"/>
<ellipse cx="287.073" cy="118.077" rx="3.31403" ry="3.23914" transform="rotate(-0.439137 287.073 118.077)" fill="white" fill-opacity="0.3"/>
<ellipse cx="297.844" cy="117.995" rx="3.31403" ry="3.23914" transform="rotate(-0.439137 297.844 117.995)" fill="white" fill-opacity="0.3"/>
<ellipse cx="308.614" cy="117.911" rx="3.31403" ry="3.23914" transform="rotate(-0.439137 308.614 117.911)" fill="white" fill-opacity="0.3"/>
<ellipse cx="7.1266" cy="130.751" rx="3.31403" ry="3.23914" transform="rotate(-0.439137 7.1266 130.751)" fill="white" fill-opacity="0.3"/>
<ellipse cx="17.8969" cy="130.669" rx="3.31403" ry="3.23914" transform="rotate(-0.439137 17.8969 130.669)" fill="white" fill-opacity="0.3"/>
<ellipse cx="28.6676" cy="130.585" rx="3.31403" ry="3.23914" transform="rotate(-0.439137 28.6676 130.585)" fill="white" fill-opacity="0.3"/>
<ellipse cx="39.4376" cy="130.503" rx="3.31403" ry="3.23914" transform="rotate(-0.439137 39.4376 130.503)" fill="white" fill-opacity="0.3"/>
<ellipse cx="50.2079" cy="130.421" rx="3.31403" ry="3.23914" transform="rotate(-0.439137 50.2079 130.421)" fill="white" fill-opacity="0.3"/>
<ellipse cx="60.9787" cy="130.337" rx="3.31403" ry="3.23914" transform="rotate(-0.439137 60.9787 130.337)" fill="white" fill-opacity="0.3"/>
<ellipse cx="71.7484" cy="130.257" rx="3.31403" ry="3.23914" transform="rotate(-0.439137 71.7484 130.257)" fill="white" fill-opacity="0.3"/>
<ellipse cx="82.5184" cy="130.173" rx="3.31403" ry="3.23914" transform="rotate(-0.439137 82.5184 130.173)" fill="white" fill-opacity="0.3"/>
<ellipse cx="93.2892" cy="130.091" rx="3.31403" ry="3.23914" transform="rotate(-0.439137 93.2892 130.091)" fill="white" fill-opacity="0.3"/>
<ellipse cx="104.059" cy="130.007" rx="3.31403" ry="3.23914" transform="rotate(-0.439137 104.059 130.007)" fill="white" fill-opacity="0.3"/>
<ellipse cx="114.829" cy="129.925" rx="3.31403" ry="3.23914" transform="rotate(-0.439137 114.829 129.925)" fill="white" fill-opacity="0.3"/>
<ellipse cx="125.6" cy="129.843" rx="3.31403" ry="3.23914" transform="rotate(-0.439137 125.6 129.843)" fill="white" fill-opacity="0.3"/>
<ellipse cx="136.37" cy="129.761" rx="3.31403" ry="3.23914" transform="rotate(-0.439137 136.37 129.761)" fill="white" fill-opacity="0.3"/>
<ellipse cx="147.141" cy="129.677" rx="3.31403" ry="3.23914" transform="rotate(-0.439137 147.141 129.677)" fill="white" fill-opacity="0.3"/>
<ellipse cx="157.911" cy="129.594" rx="3.31403" ry="3.23914" transform="rotate(-0.439137 157.911 129.594)" fill="white" fill-opacity="0.3"/>
<ellipse cx="168.681" cy="129.512" rx="3.31403" ry="3.23914" transform="rotate(-0.439137 168.681 129.512)" fill="white" fill-opacity="0.3"/>
<ellipse cx="179.451" cy="129.43" rx="3.31403" ry="3.23914" transform="rotate(-0.439137 179.451 129.43)" fill="white" fill-opacity="0.3"/>
<ellipse cx="190.222" cy="129.346" rx="3.31403" ry="3.23914" transform="rotate(-0.439137 190.222 129.346)" fill="white" fill-opacity="0.3"/>
<ellipse cx="200.993" cy="129.262" rx="3.31403" ry="3.23914" transform="rotate(-0.439137 200.993 129.262)" fill="white" fill-opacity="0.3"/>
<ellipse cx="211.762" cy="129.182" rx="3.31403" ry="3.23914" transform="rotate(-0.439137 211.762 129.182)" fill="white" fill-opacity="0.3"/>
<ellipse cx="222.533" cy="129.098" rx="3.31403" ry="3.23914" transform="rotate(-0.439137 222.533 129.098)" fill="white" fill-opacity="0.3"/>
<ellipse cx="233.303" cy="129.016" rx="3.31403" ry="3.23914" transform="rotate(-0.439137 233.303 129.016)" fill="white" fill-opacity="0.3"/>
<ellipse cx="244.073" cy="128.934" rx="3.31403" ry="3.23914" transform="rotate(-0.439137 244.073 128.934)" fill="white" fill-opacity="0.3"/>
<ellipse cx="254.843" cy="128.852" rx="3.31403" ry="3.23914" transform="rotate(-0.439137 254.843 128.852)" fill="white" fill-opacity="0.3"/>
<ellipse cx="265.613" cy="128.77" rx="3.31403" ry="3.23914" transform="rotate(-0.439137 265.613 128.77)" fill="white" fill-opacity="0.3"/>
<ellipse cx="276.384" cy="128.686" rx="3.31403" ry="3.23914" transform="rotate(-0.439137 276.384 128.686)" fill="white" fill-opacity="0.3"/>
<ellipse cx="287.154" cy="128.604" rx="3.31403" ry="3.23914" transform="rotate(-0.439137 287.154 128.604)" fill="white" fill-opacity="0.3"/>
<ellipse cx="297.924" cy="128.524" rx="3.31403" ry="3.23914" transform="rotate(-0.439137 297.924 128.524)" fill="white" fill-opacity="0.3"/>
<ellipse cx="308.694" cy="128.44" rx="3.31403" ry="3.23914" transform="rotate(-0.439137 308.694 128.44)" fill="white" fill-opacity="0.3"/>
<ellipse cx="7.20741" cy="141.278" rx="3.31403" ry="3.23914" transform="rotate(-0.439137 7.20741 141.278)" fill="white" fill-opacity="0.3"/>
<ellipse cx="17.9779" cy="141.194" rx="3.31403" ry="3.23914" transform="rotate(-0.439137 17.9779 141.194)" fill="white" fill-opacity="0.3"/>
<ellipse cx="28.7477" cy="141.114" rx="3.31403" ry="3.23914" transform="rotate(-0.439137 28.7477 141.114)" fill="white" fill-opacity="0.3"/>
<ellipse cx="39.5187" cy="141.028" rx="3.31403" ry="3.23914" transform="rotate(-0.439137 39.5187 141.028)" fill="white" fill-opacity="0.3"/>
<ellipse cx="50.2892" cy="140.946" rx="3.31403" ry="3.23914" transform="rotate(-0.439137 50.2892 140.946)" fill="white" fill-opacity="0.3"/>
<ellipse cx="61.0587" cy="140.864" rx="3.31403" ry="3.23914" transform="rotate(-0.439137 61.0587 140.864)" fill="white" fill-opacity="0.3"/>
<ellipse cx="71.8292" cy="140.782" rx="3.31403" ry="3.23914" transform="rotate(-0.439137 71.8292 140.782)" fill="white" fill-opacity="0.3"/>
<ellipse cx="82.5995" cy="140.7" rx="3.31403" ry="3.23914" transform="rotate(-0.439137 82.5995 140.7)" fill="white" fill-opacity="0.3"/>
<ellipse cx="93.3695" cy="140.618" rx="3.31403" ry="3.23914" transform="rotate(-0.439137 93.3695 140.618)" fill="white" fill-opacity="0.3"/>
<ellipse cx="104.14" cy="140.532" rx="3.31403" ry="3.23914" transform="rotate(-0.439137 104.14 140.532)" fill="white" fill-opacity="0.3"/>
<ellipse cx="114.91" cy="140.452" rx="3.31403" ry="3.23914" transform="rotate(-0.439137 114.91 140.452)" fill="white" fill-opacity="0.3"/>
<ellipse cx="125.681" cy="140.37" rx="3.31403" ry="3.23914" transform="rotate(-0.439137 125.681 140.37)" fill="white" fill-opacity="0.3"/>
<ellipse cx="136.451" cy="140.288" rx="3.31403" ry="3.23914" transform="rotate(-0.439137 136.451 140.288)" fill="white" fill-opacity="0.3"/>
<ellipse cx="147.221" cy="140.204" rx="3.31403" ry="3.23914" transform="rotate(-0.439137 147.221 140.204)" fill="white" fill-opacity="0.3"/>
<ellipse cx="157.991" cy="140.122" rx="3.31403" ry="3.23914" transform="rotate(-0.439137 157.991 140.122)" fill="white" fill-opacity="0.3"/>
<ellipse cx="168.762" cy="140.04" rx="3.31403" ry="3.23914" transform="rotate(-0.439137 168.762 140.04)" fill="white" fill-opacity="0.3"/>
<ellipse cx="179.532" cy="139.958" rx="3.31403" ry="3.23914" transform="rotate(-0.439137 179.532 139.958)" fill="white" fill-opacity="0.3"/>
<ellipse cx="190.302" cy="139.876" rx="3.31403" ry="3.23914" transform="rotate(-0.439137 190.302 139.876)" fill="white" fill-opacity="0.3"/>
<ellipse cx="201.072" cy="139.792" rx="3.31403" ry="3.23914" transform="rotate(-0.439137 201.072 139.792)" fill="white" fill-opacity="0.3"/>
<ellipse cx="211.843" cy="139.708" rx="3.31403" ry="3.23914" transform="rotate(-0.439137 211.843 139.708)" fill="white" fill-opacity="0.3"/>
<ellipse cx="222.613" cy="139.626" rx="3.31403" ry="3.23914" transform="rotate(-0.439137 222.613 139.626)" fill="white" fill-opacity="0.3"/>
<ellipse cx="233.384" cy="139.544" rx="3.31403" ry="3.23914" transform="rotate(-0.439137 233.384 139.544)" fill="white" fill-opacity="0.3"/>
<ellipse cx="244.154" cy="139.462" rx="3.31403" ry="3.23914" transform="rotate(-0.439137 244.154 139.462)" fill="white" fill-opacity="0.3"/>
<ellipse cx="254.924" cy="139.38" rx="3.31403" ry="3.23914" transform="rotate(-0.439137 254.924 139.38)" fill="white" fill-opacity="0.3"/>
<ellipse cx="265.694" cy="139.296" rx="3.31403" ry="3.23914" transform="rotate(-0.439137 265.694 139.296)" fill="white" fill-opacity="0.3"/>
<ellipse cx="276.464" cy="139.214" rx="3.31403" ry="3.23914" transform="rotate(-0.439137 276.464 139.214)" fill="white" fill-opacity="0.3"/>
<ellipse cx="287.235" cy="139.132" rx="3.31403" ry="3.23914" transform="rotate(-0.439137 287.235 139.132)" fill="white" fill-opacity="0.3"/>
<ellipse cx="298.005" cy="139.048" rx="3.31403" ry="3.23914" transform="rotate(-0.439137 298.005 139.048)" fill="white" fill-opacity="0.3"/>
<ellipse cx="308.775" cy="138.968" rx="3.31403" ry="3.23914" transform="rotate(-0.439137 308.775 138.968)" fill="white" fill-opacity="0.3"/>
<ellipse cx="7.28798" cy="151.803" rx="3.31403" ry="3.23914" transform="rotate(-0.439137 7.28798 151.803)" fill="white" fill-opacity="0.3"/>
<ellipse cx="18.0582" cy="151.723" rx="3.31403" ry="3.23914" transform="rotate(-0.439137 18.0582 151.723)" fill="white" fill-opacity="0.3"/>
<ellipse cx="28.8288" cy="151.639" rx="3.31403" ry="3.23914" transform="rotate(-0.439137 28.8288 151.639)" fill="white" fill-opacity="0.3"/>
<ellipse cx="39.5988" cy="151.557" rx="3.31403" ry="3.23914" transform="rotate(-0.439137 39.5988 151.557)" fill="white" fill-opacity="0.3"/>
<ellipse cx="50.3693" cy="151.473" rx="3.31403" ry="3.23914" transform="rotate(-0.439137 50.3693 151.473)" fill="white" fill-opacity="0.3"/>
<ellipse cx="61.1395" cy="151.391" rx="3.31403" ry="3.23914" transform="rotate(-0.439137 61.1395 151.391)" fill="white" fill-opacity="0.3"/>
<ellipse cx="71.9096" cy="151.311" rx="3.31403" ry="3.23914" transform="rotate(-0.439137 71.9096 151.311)" fill="white" fill-opacity="0.3"/>
<ellipse cx="82.6803" cy="151.225" rx="3.31403" ry="3.23914" transform="rotate(-0.439137 82.6803 151.225)" fill="white" fill-opacity="0.3"/>
<ellipse cx="93.4501" cy="151.143" rx="3.31403" ry="3.23914" transform="rotate(-0.439137 93.4501 151.143)" fill="white" fill-opacity="0.3"/>
<ellipse cx="104.22" cy="151.061" rx="3.31403" ry="3.23914" transform="rotate(-0.439137 104.22 151.061)" fill="white" fill-opacity="0.3"/>
<ellipse cx="114.991" cy="150.979" rx="3.31403" ry="3.23914" transform="rotate(-0.439137 114.991 150.979)" fill="white" fill-opacity="0.3"/>
<ellipse cx="125.761" cy="150.897" rx="3.31403" ry="3.23914" transform="rotate(-0.439137 125.761 150.897)" fill="white" fill-opacity="0.3"/>
<ellipse cx="136.532" cy="150.815" rx="3.31403" ry="3.23914" transform="rotate(-0.439137 136.532 150.815)" fill="white" fill-opacity="0.3"/>
<ellipse cx="147.302" cy="150.731" rx="3.31403" ry="3.23914" transform="rotate(-0.439137 147.302 150.731)" fill="white" fill-opacity="0.3"/>
<ellipse cx="158.072" cy="150.647" rx="3.31403" ry="3.23914" transform="rotate(-0.439137 158.072 150.647)" fill="white" fill-opacity="0.3"/>
<ellipse cx="168.842" cy="150.565" rx="3.31403" ry="3.23914" transform="rotate(-0.439137 168.842 150.565)" fill="white" fill-opacity="0.3"/>
<ellipse cx="179.612" cy="150.485" rx="3.31403" ry="3.23914" transform="rotate(-0.439137 179.612 150.485)" fill="white" fill-opacity="0.3"/>
<ellipse cx="190.383" cy="150.401" rx="3.31403" ry="3.23914" transform="rotate(-0.439137 190.383 150.401)" fill="white" fill-opacity="0.3"/>
<ellipse cx="201.153" cy="150.317" rx="3.31403" ry="3.23914" transform="rotate(-0.439137 201.153 150.317)" fill="white" fill-opacity="0.3"/>
<ellipse cx="211.924" cy="150.235" rx="3.31403" ry="3.23914" transform="rotate(-0.439137 211.924 150.235)" fill="white" fill-opacity="0.3"/>
<ellipse cx="222.694" cy="150.153" rx="3.31403" ry="3.23914" transform="rotate(-0.439137 222.694 150.153)" fill="white" fill-opacity="0.3"/>
<ellipse cx="233.464" cy="150.071" rx="3.31403" ry="3.23914" transform="rotate(-0.439137 233.464 150.071)" fill="white" fill-opacity="0.3"/>
<ellipse cx="244.234" cy="149.989" rx="3.31403" ry="3.23914" transform="rotate(-0.439137 244.234 149.989)" fill="white" fill-opacity="0.3"/>
<ellipse cx="255.005" cy="149.905" rx="3.31403" ry="3.23914" transform="rotate(-0.439137 255.005 149.905)" fill="white" fill-opacity="0.3"/>
<ellipse cx="265.774" cy="149.825" rx="3.31403" ry="3.23914" transform="rotate(-0.439137 265.774 149.825)" fill="white" fill-opacity="0.3"/>
<ellipse cx="276.546" cy="149.739" rx="3.31403" ry="3.23914" transform="rotate(-0.439137 276.546 149.739)" fill="white" fill-opacity="0.3"/>
<ellipse cx="287.316" cy="149.659" rx="3.31403" ry="3.23914" transform="rotate(-0.439137 287.316 149.659)" fill="white" fill-opacity="0.3"/>
<ellipse cx="298.086" cy="149.577" rx="3.31403" ry="3.23914" transform="rotate(-0.439137 298.086 149.577)" fill="white" fill-opacity="0.3"/>
<ellipse cx="308.856" cy="149.493" rx="3.31403" ry="3.23914" transform="rotate(-0.439137 308.856 149.493)" fill="white" fill-opacity="0.3"/>
</g>
</g>
</svg>
