<svg width="552" height="806" viewBox="0 0 552 806" fill="none" xmlns="http://www.w3.org/2000/svg">
<mask id="mask0" mask-type="alpha" maskUnits="userSpaceOnUse" x="0" y="0" width="807" height="806">
<ellipse cx="403.5" cy="403" rx="403.5" ry="403" fill="#E8F3FC"/>
</mask>
<g mask="url(#mask0)">
<circle cx="11.1948" cy="8.40303" r="8.98701" fill="#E8F3FC"/>
<circle cx="40.4028" cy="8.40303" r="8.98701" fill="#E8F3FC"/>
<circle cx="69.6103" cy="8.40303" r="8.98701" fill="#E8F3FC"/>
<circle cx="98.8183" cy="8.40303" r="8.98701" fill="#E8F3FC"/>
<circle cx="128.026" cy="8.40303" r="8.98701" fill="#E8F3FC"/>
<circle cx="157.234" cy="8.40303" r="8.98701" fill="#E8F3FC"/>
<circle cx="186.442" cy="8.40303" r="8.98701" fill="#E8F3FC"/>
<circle cx="215.649" cy="8.40303" r="8.98701" fill="#E8F3FC"/>
<circle cx="244.857" cy="8.40303" r="8.98701" fill="#E8F3FC"/>
<circle cx="274.065" cy="8.40303" r="8.98701" fill="#E8F3FC"/>
<circle cx="303.273" cy="8.40303" r="8.98701" fill="#E8F3FC"/>
<circle cx="332.481" cy="8.40303" r="8.98701" fill="#E8F3FC"/>
<circle cx="361.688" cy="8.40303" r="8.98701" fill="#E8F3FC"/>
<circle cx="390.896" cy="8.40303" r="8.98701" fill="#E8F3FC"/>
<circle cx="420.104" cy="8.40303" r="8.98701" fill="#E8F3FC"/>
<circle cx="449.312" cy="8.40303" r="8.98701" fill="#E8F3FC"/>
<circle cx="478.519" cy="8.40303" r="8.98701" fill="#E8F3FC"/>
<circle cx="507.727" cy="8.40303" r="8.98701" fill="#E8F3FC"/>
<circle cx="536.935" cy="8.40303" r="8.98701" fill="#E8F3FC"/>
<circle cx="11.1948" cy="37.6101" r="8.98701" fill="#E8F3FC"/>
<circle cx="40.4028" cy="37.6101" r="8.98701" fill="#E8F3FC"/>
<circle cx="69.6103" cy="37.6101" r="8.98701" fill="#E8F3FC"/>
<circle cx="98.8183" cy="37.6101" r="8.98701" fill="#E8F3FC"/>
<circle cx="128.026" cy="37.6101" r="8.98701" fill="#E8F3FC"/>
<circle cx="157.234" cy="37.6101" r="8.98701" fill="#E8F3FC"/>
<circle cx="186.442" cy="37.6101" r="8.98701" fill="#E8F3FC"/>
<circle cx="215.649" cy="37.6101" r="8.98701" fill="#E8F3FC"/>
<circle cx="244.857" cy="37.6101" r="8.98701" fill="#E8F3FC"/>
<circle cx="274.065" cy="37.6101" r="8.98701" fill="#E8F3FC"/>
<circle cx="303.273" cy="37.6101" r="8.98701" fill="#E8F3FC"/>
<circle cx="332.481" cy="37.6101" r="8.98701" fill="#E8F3FC"/>
<circle cx="361.688" cy="37.6101" r="8.98701" fill="#E8F3FC"/>
<circle cx="390.896" cy="37.6101" r="8.98701" fill="#E8F3FC"/>
<circle cx="420.104" cy="37.6101" r="8.98701" fill="#E8F3FC"/>
<circle cx="449.312" cy="37.6101" r="8.98701" fill="#E8F3FC"/>
<circle cx="478.519" cy="37.6101" r="8.98701" fill="#E8F3FC"/>
<circle cx="507.727" cy="37.6101" r="8.98701" fill="#E8F3FC"/>
<circle cx="536.935" cy="37.6101" r="8.98701" fill="#E8F3FC"/>
<circle cx="11.1948" cy="66.8181" r="8.98701" fill="#E8F3FC"/>
<circle cx="40.4028" cy="66.8181" r="8.98701" fill="#E8F3FC"/>
<circle cx="69.6103" cy="66.8181" r="8.98701" fill="#E8F3FC"/>
<circle cx="98.8183" cy="66.8181" r="8.98701" fill="#E8F3FC"/>
<circle cx="128.026" cy="66.8181" r="8.98701" fill="#E8F3FC"/>
<circle cx="157.234" cy="66.8181" r="8.98701" fill="#E8F3FC"/>
<circle cx="186.442" cy="66.8181" r="8.98701" fill="#E8F3FC"/>
<circle cx="215.649" cy="66.8181" r="8.98701" fill="#E8F3FC"/>
<circle cx="244.857" cy="66.8181" r="8.98701" fill="#E8F3FC"/>
<circle cx="274.065" cy="66.8181" r="8.98701" fill="#E8F3FC"/>
<circle cx="303.273" cy="66.8181" r="8.98701" fill="#E8F3FC"/>
<circle cx="332.481" cy="66.8181" r="8.98701" fill="#E8F3FC"/>
<circle cx="361.688" cy="66.8181" r="8.98701" fill="#E8F3FC"/>
<circle cx="390.896" cy="66.8181" r="8.98701" fill="#E8F3FC"/>
<circle cx="420.104" cy="66.8181" r="8.98701" fill="#E8F3FC"/>
<circle cx="449.312" cy="66.8181" r="8.98701" fill="#E8F3FC"/>
<circle cx="478.519" cy="66.8181" r="8.98701" fill="#E8F3FC"/>
<circle cx="507.727" cy="66.8181" r="8.98701" fill="#E8F3FC"/>
<circle cx="536.935" cy="66.8181" r="8.98701" fill="#E8F3FC"/>
<circle cx="11.1948" cy="96.0261" r="8.98701" fill="#E8F3FC"/>
<circle cx="40.4028" cy="96.0261" r="8.98701" fill="#E8F3FC"/>
<circle cx="69.6103" cy="96.0261" r="8.98701" fill="#E8F3FC"/>
<circle cx="98.8183" cy="96.0261" r="8.98701" fill="#E8F3FC"/>
<circle cx="128.026" cy="96.0261" r="8.98701" fill="#E8F3FC"/>
<circle cx="157.234" cy="96.0261" r="8.98701" fill="#E8F3FC"/>
<circle cx="186.442" cy="96.0261" r="8.98701" fill="#E8F3FC"/>
<circle cx="215.649" cy="96.0261" r="8.98701" fill="#E8F3FC"/>
<circle cx="244.857" cy="96.0261" r="8.98701" fill="#E8F3FC"/>
<circle cx="274.065" cy="96.0261" r="8.98701" fill="#E8F3FC"/>
<circle cx="303.273" cy="96.0261" r="8.98701" fill="#E8F3FC"/>
<circle cx="332.481" cy="96.0261" r="8.98701" fill="#E8F3FC"/>
<circle cx="361.688" cy="96.0261" r="8.98701" fill="#E8F3FC"/>
<circle cx="390.896" cy="96.0261" r="8.98701" fill="#E8F3FC"/>
<circle cx="420.104" cy="96.0261" r="8.98701" fill="#E8F3FC"/>
<circle cx="449.312" cy="96.0261" r="8.98701" fill="#E8F3FC"/>
<circle cx="478.519" cy="96.0261" r="8.98701" fill="#E8F3FC"/>
<circle cx="507.727" cy="96.0261" r="8.98701" fill="#E8F3FC"/>
<circle cx="536.935" cy="96.0261" r="8.98701" fill="#E8F3FC"/>
<circle cx="11.1948" cy="125.234" r="8.98701" fill="#E8F3FC"/>
<circle cx="40.4028" cy="125.234" r="8.98701" fill="#E8F3FC"/>
<circle cx="69.6103" cy="125.234" r="8.98701" fill="#E8F3FC"/>
<circle cx="98.8183" cy="125.234" r="8.98701" fill="#E8F3FC"/>
<circle cx="128.026" cy="125.234" r="8.98701" fill="#E8F3FC"/>
<circle cx="157.234" cy="125.234" r="8.98701" fill="#E8F3FC"/>
<circle cx="186.442" cy="125.234" r="8.98701" fill="#E8F3FC"/>
<circle cx="215.649" cy="125.234" r="8.98701" fill="#E8F3FC"/>
<circle cx="244.857" cy="125.234" r="8.98701" fill="#E8F3FC"/>
<circle cx="274.065" cy="125.234" r="8.98701" fill="#E8F3FC"/>
<circle cx="303.273" cy="125.234" r="8.98701" fill="#E8F3FC"/>
<circle cx="332.481" cy="125.234" r="8.98701" fill="#E8F3FC"/>
<circle cx="361.688" cy="125.234" r="8.98701" fill="#E8F3FC"/>
<circle cx="390.896" cy="125.234" r="8.98701" fill="#E8F3FC"/>
<circle cx="420.104" cy="125.234" r="8.98701" fill="#E8F3FC"/>
<circle cx="449.312" cy="125.234" r="8.98701" fill="#E8F3FC"/>
<circle cx="478.519" cy="125.234" r="8.98701" fill="#E8F3FC"/>
<circle cx="507.727" cy="125.234" r="8.98701" fill="#E8F3FC"/>
<circle cx="536.935" cy="125.234" r="8.98701" fill="#E8F3FC"/>
<circle cx="11.1948" cy="154.441" r="8.98701" fill="#E8F3FC"/>
<circle cx="40.4028" cy="154.441" r="8.98701" fill="#E8F3FC"/>
<circle cx="69.6103" cy="154.441" r="8.98701" fill="#E8F3FC"/>
<circle cx="98.8183" cy="154.441" r="8.98701" fill="#E8F3FC"/>
<circle cx="128.026" cy="154.441" r="8.98701" fill="#E8F3FC"/>
<circle cx="157.234" cy="154.441" r="8.98701" fill="#E8F3FC"/>
<circle cx="186.442" cy="154.441" r="8.98701" fill="#E8F3FC"/>
<circle cx="215.649" cy="154.441" r="8.98701" fill="#E8F3FC"/>
<circle cx="244.857" cy="154.441" r="8.98701" fill="#E8F3FC"/>
<circle cx="274.065" cy="154.441" r="8.98701" fill="#E8F3FC"/>
<circle cx="303.273" cy="154.441" r="8.98701" fill="#E8F3FC"/>
<circle cx="332.481" cy="154.441" r="8.98701" fill="#E8F3FC"/>
<circle cx="361.688" cy="154.441" r="8.98701" fill="#E8F3FC"/>
<circle cx="390.896" cy="154.441" r="8.98701" fill="#E8F3FC"/>
<circle cx="420.104" cy="154.441" r="8.98701" fill="#E8F3FC"/>
<circle cx="449.312" cy="154.441" r="8.98701" fill="#E8F3FC"/>
<circle cx="478.519" cy="154.441" r="8.98701" fill="#E8F3FC"/>
<circle cx="507.727" cy="154.441" r="8.98701" fill="#E8F3FC"/>
<circle cx="536.935" cy="154.441" r="8.98701" fill="#E8F3FC"/>
<circle cx="11.1948" cy="183.65" r="8.98701" fill="#E8F3FC"/>
<circle cx="40.4028" cy="183.65" r="8.98701" fill="#E8F3FC"/>
<circle cx="69.6103" cy="183.65" r="8.98701" fill="#E8F3FC"/>
<circle cx="98.8183" cy="183.65" r="8.98701" fill="#E8F3FC"/>
<circle cx="128.026" cy="183.65" r="8.98701" fill="#E8F3FC"/>
<circle cx="157.234" cy="183.65" r="8.98701" fill="#E8F3FC"/>
<circle cx="186.442" cy="183.65" r="8.98701" fill="#E8F3FC"/>
<circle cx="215.649" cy="183.65" r="8.98701" fill="#E8F3FC"/>
<circle cx="244.857" cy="183.65" r="8.98701" fill="#E8F3FC"/>
<circle cx="274.065" cy="183.65" r="8.98701" fill="#E8F3FC"/>
<circle cx="303.273" cy="183.65" r="8.98701" fill="#E8F3FC"/>
<circle cx="332.481" cy="183.65" r="8.98701" fill="#E8F3FC"/>
<circle cx="361.688" cy="183.65" r="8.98701" fill="#E8F3FC"/>
<circle cx="390.896" cy="183.65" r="8.98701" fill="#E8F3FC"/>
<circle cx="420.104" cy="183.65" r="8.98701" fill="#E8F3FC"/>
<circle cx="449.312" cy="183.65" r="8.98701" fill="#E8F3FC"/>
<circle cx="478.519" cy="183.65" r="8.98701" fill="#E8F3FC"/>
<circle cx="507.727" cy="183.65" r="8.98701" fill="#E8F3FC"/>
<circle cx="536.935" cy="183.65" r="8.98701" fill="#E8F3FC"/>
<circle cx="11.1948" cy="212.857" r="8.98701" fill="#E8F3FC"/>
<circle cx="40.4028" cy="212.857" r="8.98701" fill="#E8F3FC"/>
<circle cx="69.6103" cy="212.857" r="8.98701" fill="#E8F3FC"/>
<circle cx="98.8183" cy="212.857" r="8.98701" fill="#E8F3FC"/>
<circle cx="128.026" cy="212.857" r="8.98701" fill="#E8F3FC"/>
<circle cx="157.234" cy="212.857" r="8.98701" fill="#E8F3FC"/>
<circle cx="186.442" cy="212.857" r="8.98701" fill="#E8F3FC"/>
<circle cx="215.649" cy="212.857" r="8.98701" fill="#E8F3FC"/>
<circle cx="244.857" cy="212.857" r="8.98701" fill="#E8F3FC"/>
<circle cx="274.065" cy="212.857" r="8.98701" fill="#E8F3FC"/>
<circle cx="303.273" cy="212.857" r="8.98701" fill="#E8F3FC"/>
<circle cx="332.481" cy="212.857" r="8.98701" fill="#E8F3FC"/>
<circle cx="361.688" cy="212.857" r="8.98701" fill="#E8F3FC"/>
<circle cx="390.896" cy="212.857" r="8.98701" fill="#E8F3FC"/>
<circle cx="420.104" cy="212.857" r="8.98701" fill="#E8F3FC"/>
<circle cx="449.312" cy="212.857" r="8.98701" fill="#E8F3FC"/>
<circle cx="478.519" cy="212.857" r="8.98701" fill="#E8F3FC"/>
<circle cx="507.727" cy="212.857" r="8.98701" fill="#E8F3FC"/>
<circle cx="536.935" cy="212.857" r="8.98701" fill="#E8F3FC"/>
<circle cx="11.1948" cy="242.065" r="8.98701" fill="#E8F3FC"/>
<circle cx="40.4028" cy="242.065" r="8.98701" fill="#E8F3FC"/>
<circle cx="69.6103" cy="242.065" r="8.98701" fill="#E8F3FC"/>
<circle cx="98.8183" cy="242.065" r="8.98701" fill="#E8F3FC"/>
<circle cx="128.026" cy="242.065" r="8.98701" fill="#E8F3FC"/>
<circle cx="157.234" cy="242.065" r="8.98701" fill="#E8F3FC"/>
<circle cx="186.442" cy="242.065" r="8.98701" fill="#E8F3FC"/>
<circle cx="215.649" cy="242.065" r="8.98701" fill="#E8F3FC"/>
<circle cx="244.857" cy="242.065" r="8.98701" fill="#E8F3FC"/>
<circle cx="274.065" cy="242.065" r="8.98701" fill="#E8F3FC"/>
<circle cx="303.273" cy="242.065" r="8.98701" fill="#E8F3FC"/>
<circle cx="332.481" cy="242.065" r="8.98701" fill="#E8F3FC"/>
<circle cx="361.688" cy="242.065" r="8.98701" fill="#E8F3FC"/>
<circle cx="390.896" cy="242.065" r="8.98701" fill="#E8F3FC"/>
<circle cx="420.104" cy="242.065" r="8.98701" fill="#E8F3FC"/>
<circle cx="449.312" cy="242.065" r="8.98701" fill="#E8F3FC"/>
<circle cx="478.519" cy="242.065" r="8.98701" fill="#E8F3FC"/>
<circle cx="507.727" cy="242.065" r="8.98701" fill="#E8F3FC"/>
<circle cx="536.935" cy="242.065" r="8.98701" fill="#E8F3FC"/>
<circle cx="11.1948" cy="271.273" r="8.98701" fill="#E8F3FC"/>
<circle cx="40.4028" cy="271.273" r="8.98701" fill="#E8F3FC"/>
<circle cx="69.6103" cy="271.273" r="8.98701" fill="#E8F3FC"/>
<circle cx="98.8183" cy="271.273" r="8.98701" fill="#E8F3FC"/>
<circle cx="128.026" cy="271.273" r="8.98701" fill="#E8F3FC"/>
<circle cx="157.234" cy="271.273" r="8.98701" fill="#E8F3FC"/>
<circle cx="186.442" cy="271.273" r="8.98701" fill="#E8F3FC"/>
<circle cx="215.649" cy="271.273" r="8.98701" fill="#E8F3FC"/>
<circle cx="244.857" cy="271.273" r="8.98701" fill="#E8F3FC"/>
<circle cx="274.065" cy="271.273" r="8.98701" fill="#E8F3FC"/>
<circle cx="303.273" cy="271.273" r="8.98701" fill="#E8F3FC"/>
<circle cx="332.481" cy="271.273" r="8.98701" fill="#E8F3FC"/>
<circle cx="361.688" cy="271.273" r="8.98701" fill="#E8F3FC"/>
<circle cx="390.896" cy="271.273" r="8.98701" fill="#E8F3FC"/>
<circle cx="420.104" cy="271.273" r="8.98701" fill="#E8F3FC"/>
<circle cx="449.312" cy="271.273" r="8.98701" fill="#E8F3FC"/>
<circle cx="478.519" cy="271.273" r="8.98701" fill="#E8F3FC"/>
<circle cx="507.727" cy="271.273" r="8.98701" fill="#E8F3FC"/>
<circle cx="536.935" cy="271.273" r="8.98701" fill="#E8F3FC"/>
<circle cx="11.1948" cy="300.48" r="8.98701" fill="#E8F3FC"/>
<circle cx="40.4028" cy="300.48" r="8.98701" fill="#E8F3FC"/>
<circle cx="69.6103" cy="300.48" r="8.98701" fill="#E8F3FC"/>
<circle cx="98.8183" cy="300.48" r="8.98701" fill="#E8F3FC"/>
<circle cx="128.026" cy="300.48" r="8.98701" fill="#E8F3FC"/>
<circle cx="157.234" cy="300.48" r="8.98701" fill="#E8F3FC"/>
<circle cx="186.442" cy="300.48" r="8.98701" fill="#E8F3FC"/>
<circle cx="215.649" cy="300.48" r="8.98701" fill="#E8F3FC"/>
<circle cx="244.857" cy="300.48" r="8.98701" fill="#E8F3FC"/>
<circle cx="274.065" cy="300.48" r="8.98701" fill="#E8F3FC"/>
<circle cx="303.273" cy="300.48" r="8.98701" fill="#E8F3FC"/>
<circle cx="332.481" cy="300.48" r="8.98701" fill="#E8F3FC"/>
<circle cx="361.688" cy="300.48" r="8.98701" fill="#E8F3FC"/>
<circle cx="390.896" cy="300.48" r="8.98701" fill="#E8F3FC"/>
<circle cx="420.104" cy="300.48" r="8.98701" fill="#E8F3FC"/>
<circle cx="449.312" cy="300.48" r="8.98701" fill="#E8F3FC"/>
<circle cx="478.519" cy="300.48" r="8.98701" fill="#E8F3FC"/>
<circle cx="507.727" cy="300.48" r="8.98701" fill="#E8F3FC"/>
<circle cx="536.935" cy="300.48" r="8.98701" fill="#E8F3FC"/>
<circle cx="11.1948" cy="329.688" r="8.98701" fill="#E8F3FC"/>
<circle cx="40.4028" cy="329.688" r="8.98701" fill="#E8F3FC"/>
<circle cx="69.6103" cy="329.688" r="8.98701" fill="#E8F3FC"/>
<circle cx="98.8183" cy="329.688" r="8.98701" fill="#E8F3FC"/>
<circle cx="128.026" cy="329.688" r="8.98701" fill="#E8F3FC"/>
<circle cx="157.234" cy="329.688" r="8.98701" fill="#E8F3FC"/>
<circle cx="186.442" cy="329.688" r="8.98701" fill="#E8F3FC"/>
<circle cx="215.649" cy="329.688" r="8.98701" fill="#E8F3FC"/>
<circle cx="244.857" cy="329.688" r="8.98701" fill="#E8F3FC"/>
<circle cx="274.065" cy="329.688" r="8.98701" fill="#E8F3FC"/>
<circle cx="303.273" cy="329.688" r="8.98701" fill="#E8F3FC"/>
<circle cx="332.481" cy="329.688" r="8.98701" fill="#E8F3FC"/>
<circle cx="361.688" cy="329.688" r="8.98701" fill="#E8F3FC"/>
<circle cx="390.896" cy="329.688" r="8.98701" fill="#E8F3FC"/>
<circle cx="420.104" cy="329.688" r="8.98701" fill="#E8F3FC"/>
<circle cx="449.312" cy="329.688" r="8.98701" fill="#E8F3FC"/>
<circle cx="478.519" cy="329.688" r="8.98701" fill="#E8F3FC"/>
<circle cx="507.727" cy="329.688" r="8.98701" fill="#E8F3FC"/>
<circle cx="536.935" cy="329.688" r="8.98701" fill="#E8F3FC"/>
<circle cx="11.1948" cy="358.896" r="8.98701" fill="#E8F3FC"/>
<circle cx="40.4028" cy="358.896" r="8.98701" fill="#E8F3FC"/>
<circle cx="69.6103" cy="358.896" r="8.98701" fill="#E8F3FC"/>
<circle cx="98.8183" cy="358.896" r="8.98701" fill="#E8F3FC"/>
<circle cx="128.026" cy="358.896" r="8.98701" fill="#E8F3FC"/>
<circle cx="157.234" cy="358.896" r="8.98701" fill="#E8F3FC"/>
<circle cx="186.442" cy="358.896" r="8.98701" fill="#E8F3FC"/>
<circle cx="215.649" cy="358.896" r="8.98701" fill="#E8F3FC"/>
<circle cx="244.857" cy="358.896" r="8.98701" fill="#E8F3FC"/>
<circle cx="274.065" cy="358.896" r="8.98701" fill="#E8F3FC"/>
<circle cx="303.273" cy="358.896" r="8.98701" fill="#E8F3FC"/>
<circle cx="332.481" cy="358.896" r="8.98701" fill="#E8F3FC"/>
<circle cx="361.688" cy="358.896" r="8.98701" fill="#E8F3FC"/>
<circle cx="390.896" cy="358.896" r="8.98701" fill="#E8F3FC"/>
<circle cx="420.104" cy="358.896" r="8.98701" fill="#E8F3FC"/>
<circle cx="449.312" cy="358.896" r="8.98701" fill="#E8F3FC"/>
<circle cx="478.519" cy="358.896" r="8.98701" fill="#E8F3FC"/>
<circle cx="507.727" cy="358.896" r="8.98701" fill="#E8F3FC"/>
<circle cx="536.935" cy="358.896" r="8.98701" fill="#E8F3FC"/>
<circle cx="11.1948" cy="388.104" r="8.98701" fill="#E8F3FC"/>
<circle cx="40.4028" cy="388.104" r="8.98701" fill="#E8F3FC"/>
<circle cx="69.6103" cy="388.104" r="8.98701" fill="#E8F3FC"/>
<circle cx="98.8183" cy="388.104" r="8.98701" fill="#E8F3FC"/>
<circle cx="128.026" cy="388.104" r="8.98701" fill="#E8F3FC"/>
<circle cx="157.234" cy="388.104" r="8.98701" fill="#E8F3FC"/>
<circle cx="186.442" cy="388.104" r="8.98701" fill="#E8F3FC"/>
<circle cx="215.649" cy="388.104" r="8.98701" fill="#E8F3FC"/>
<circle cx="244.857" cy="388.104" r="8.98701" fill="#E8F3FC"/>
<circle cx="274.065" cy="388.104" r="8.98701" fill="#E8F3FC"/>
<circle cx="303.273" cy="388.104" r="8.98701" fill="#E8F3FC"/>
<circle cx="332.481" cy="388.104" r="8.98701" fill="#E8F3FC"/>
<circle cx="361.688" cy="388.104" r="8.98701" fill="#E8F3FC"/>
<circle cx="390.896" cy="388.104" r="8.98701" fill="#E8F3FC"/>
<circle cx="420.104" cy="388.104" r="8.98701" fill="#E8F3FC"/>
<circle cx="449.312" cy="388.104" r="8.98701" fill="#E8F3FC"/>
<circle cx="478.519" cy="388.104" r="8.98701" fill="#E8F3FC"/>
<circle cx="507.727" cy="388.104" r="8.98701" fill="#E8F3FC"/>
<circle cx="536.935" cy="388.104" r="8.98701" fill="#E8F3FC"/>
<circle cx="11.1948" cy="417.312" r="8.98701" fill="#E8F3FC"/>
<circle cx="40.4028" cy="417.312" r="8.98701" fill="#E8F3FC"/>
<circle cx="69.6103" cy="417.312" r="8.98701" fill="#E8F3FC"/>
<circle cx="98.8183" cy="417.312" r="8.98701" fill="#E8F3FC"/>
<circle cx="128.026" cy="417.312" r="8.98701" fill="#E8F3FC"/>
<circle cx="157.234" cy="417.312" r="8.98701" fill="#E8F3FC"/>
<circle cx="186.442" cy="417.312" r="8.98701" fill="#E8F3FC"/>
<circle cx="215.649" cy="417.312" r="8.98701" fill="#E8F3FC"/>
<circle cx="244.857" cy="417.312" r="8.98701" fill="#E8F3FC"/>
<circle cx="274.065" cy="417.312" r="8.98701" fill="#E8F3FC"/>
<circle cx="303.273" cy="417.312" r="8.98701" fill="#E8F3FC"/>
<circle cx="332.481" cy="417.312" r="8.98701" fill="#E8F3FC"/>
<circle cx="361.688" cy="417.312" r="8.98701" fill="#E8F3FC"/>
<circle cx="390.896" cy="417.312" r="8.98701" fill="#E8F3FC"/>
<circle cx="420.104" cy="417.312" r="8.98701" fill="#E8F3FC"/>
<circle cx="449.312" cy="417.312" r="8.98701" fill="#E8F3FC"/>
<circle cx="478.519" cy="417.312" r="8.98701" fill="#E8F3FC"/>
<circle cx="507.727" cy="417.312" r="8.98701" fill="#E8F3FC"/>
<circle cx="536.935" cy="417.312" r="8.98701" fill="#E8F3FC"/>
<circle cx="11.1948" cy="446.519" r="8.98701" fill="#E8F3FC"/>
<circle cx="40.4028" cy="446.519" r="8.98701" fill="#E8F3FC"/>
<circle cx="69.6103" cy="446.519" r="8.98701" fill="#E8F3FC"/>
<circle cx="98.8183" cy="446.519" r="8.98701" fill="#E8F3FC"/>
<circle cx="128.026" cy="446.519" r="8.98701" fill="#E8F3FC"/>
<circle cx="157.234" cy="446.519" r="8.98701" fill="#E8F3FC"/>
<circle cx="186.442" cy="446.519" r="8.98701" fill="#E8F3FC"/>
<circle cx="215.649" cy="446.519" r="8.98701" fill="#E8F3FC"/>
<circle cx="244.857" cy="446.519" r="8.98701" fill="#E8F3FC"/>
<circle cx="274.065" cy="446.519" r="8.98701" fill="#E8F3FC"/>
<circle cx="303.273" cy="446.519" r="8.98701" fill="#E8F3FC"/>
<circle cx="332.481" cy="446.519" r="8.98701" fill="#E8F3FC"/>
<circle cx="361.688" cy="446.519" r="8.98701" fill="#E8F3FC"/>
<circle cx="390.896" cy="446.519" r="8.98701" fill="#E8F3FC"/>
<circle cx="420.104" cy="446.519" r="8.98701" fill="#E8F3FC"/>
<circle cx="449.312" cy="446.519" r="8.98701" fill="#E8F3FC"/>
<circle cx="478.519" cy="446.519" r="8.98701" fill="#E8F3FC"/>
<circle cx="507.727" cy="446.519" r="8.98701" fill="#E8F3FC"/>
<circle cx="536.935" cy="446.519" r="8.98701" fill="#E8F3FC"/>
<circle cx="11.1948" cy="475.727" r="8.98701" fill="#E8F3FC"/>
<circle cx="40.4028" cy="475.727" r="8.98701" fill="#E8F3FC"/>
<circle cx="69.6103" cy="475.727" r="8.98701" fill="#E8F3FC"/>
<circle cx="98.8183" cy="475.727" r="8.98701" fill="#E8F3FC"/>
<circle cx="128.026" cy="475.727" r="8.98701" fill="#E8F3FC"/>
<circle cx="157.234" cy="475.727" r="8.98701" fill="#E8F3FC"/>
<circle cx="186.442" cy="475.727" r="8.98701" fill="#E8F3FC"/>
<circle cx="215.649" cy="475.727" r="8.98701" fill="#E8F3FC"/>
<circle cx="244.857" cy="475.727" r="8.98701" fill="#E8F3FC"/>
<circle cx="274.065" cy="475.727" r="8.98701" fill="#E8F3FC"/>
<circle cx="303.273" cy="475.727" r="8.98701" fill="#E8F3FC"/>
<circle cx="332.481" cy="475.727" r="8.98701" fill="#E8F3FC"/>
<circle cx="361.688" cy="475.727" r="8.98701" fill="#E8F3FC"/>
<circle cx="390.896" cy="475.727" r="8.98701" fill="#E8F3FC"/>
<circle cx="420.104" cy="475.727" r="8.98701" fill="#E8F3FC"/>
<circle cx="449.312" cy="475.727" r="8.98701" fill="#E8F3FC"/>
<circle cx="478.519" cy="475.727" r="8.98701" fill="#E8F3FC"/>
<circle cx="507.727" cy="475.727" r="8.98701" fill="#E8F3FC"/>
<circle cx="536.935" cy="475.727" r="8.98701" fill="#E8F3FC"/>
<circle cx="11.1948" cy="504.935" r="8.98701" fill="#E8F3FC"/>
<circle cx="40.4028" cy="504.935" r="8.98701" fill="#E8F3FC"/>
<circle cx="69.6103" cy="504.935" r="8.98701" fill="#E8F3FC"/>
<circle cx="98.8183" cy="504.935" r="8.98701" fill="#E8F3FC"/>
<circle cx="128.026" cy="504.935" r="8.98701" fill="#E8F3FC"/>
<circle cx="157.234" cy="504.935" r="8.98701" fill="#E8F3FC"/>
<circle cx="186.442" cy="504.935" r="8.98701" fill="#E8F3FC"/>
<circle cx="215.649" cy="504.935" r="8.98701" fill="#E8F3FC"/>
<circle cx="244.857" cy="504.935" r="8.98701" fill="#E8F3FC"/>
<circle cx="274.065" cy="504.935" r="8.98701" fill="#E8F3FC"/>
<circle cx="303.273" cy="504.935" r="8.98701" fill="#E8F3FC"/>
<circle cx="332.481" cy="504.935" r="8.98701" fill="#E8F3FC"/>
<circle cx="361.688" cy="504.935" r="8.98701" fill="#E8F3FC"/>
<circle cx="390.896" cy="504.935" r="8.98701" fill="#E8F3FC"/>
<circle cx="420.104" cy="504.935" r="8.98701" fill="#E8F3FC"/>
<circle cx="449.312" cy="504.935" r="8.98701" fill="#E8F3FC"/>
<circle cx="478.519" cy="504.935" r="8.98701" fill="#E8F3FC"/>
<circle cx="507.727" cy="504.935" r="8.98701" fill="#E8F3FC"/>
<circle cx="536.935" cy="504.935" r="8.98701" fill="#E8F3FC"/>
<circle cx="11.1948" cy="534.143" r="8.98701" fill="#E8F3FC"/>
<circle cx="40.4028" cy="534.143" r="8.98701" fill="#E8F3FC"/>
<circle cx="69.6103" cy="534.143" r="8.98701" fill="#E8F3FC"/>
<circle cx="98.8183" cy="534.143" r="8.98701" fill="#E8F3FC"/>
<circle cx="128.026" cy="534.143" r="8.98701" fill="#E8F3FC"/>
<circle cx="157.234" cy="534.143" r="8.98701" fill="#E8F3FC"/>
<circle cx="186.442" cy="534.143" r="8.98701" fill="#E8F3FC"/>
<circle cx="215.649" cy="534.143" r="8.98701" fill="#E8F3FC"/>
<circle cx="244.857" cy="534.143" r="8.98701" fill="#E8F3FC"/>
<circle cx="274.065" cy="534.143" r="8.98701" fill="#E8F3FC"/>
<circle cx="303.273" cy="534.143" r="8.98701" fill="#E8F3FC"/>
<circle cx="332.481" cy="534.143" r="8.98701" fill="#E8F3FC"/>
<circle cx="361.688" cy="534.143" r="8.98701" fill="#E8F3FC"/>
<circle cx="390.896" cy="534.143" r="8.98701" fill="#E8F3FC"/>
<circle cx="420.104" cy="534.143" r="8.98701" fill="#E8F3FC"/>
<circle cx="449.312" cy="534.143" r="8.98701" fill="#E8F3FC"/>
<circle cx="478.519" cy="534.143" r="8.98701" fill="#E8F3FC"/>
<circle cx="507.727" cy="534.143" r="8.98701" fill="#E8F3FC"/>
<circle cx="536.935" cy="534.143" r="8.98701" fill="#E8F3FC"/>
<circle cx="11.1948" cy="563.35" r="8.98701" fill="#E8F3FC"/>
<circle cx="40.4028" cy="563.35" r="8.98701" fill="#E8F3FC"/>
<circle cx="69.6103" cy="563.35" r="8.98701" fill="#E8F3FC"/>
<circle cx="98.8183" cy="563.35" r="8.98701" fill="#E8F3FC"/>
<circle cx="128.026" cy="563.35" r="8.98701" fill="#E8F3FC"/>
<circle cx="157.234" cy="563.35" r="8.98701" fill="#E8F3FC"/>
<circle cx="186.442" cy="563.35" r="8.98701" fill="#E8F3FC"/>
<circle cx="215.649" cy="563.35" r="8.98701" fill="#E8F3FC"/>
<circle cx="244.857" cy="563.35" r="8.98701" fill="#E8F3FC"/>
<circle cx="274.065" cy="563.35" r="8.98701" fill="#E8F3FC"/>
<circle cx="303.273" cy="563.35" r="8.98701" fill="#E8F3FC"/>
<circle cx="332.481" cy="563.35" r="8.98701" fill="#E8F3FC"/>
<circle cx="361.688" cy="563.35" r="8.98701" fill="#E8F3FC"/>
<circle cx="390.896" cy="563.35" r="8.98701" fill="#E8F3FC"/>
<circle cx="420.104" cy="563.35" r="8.98701" fill="#E8F3FC"/>
<circle cx="449.312" cy="563.35" r="8.98701" fill="#E8F3FC"/>
<circle cx="478.519" cy="563.35" r="8.98701" fill="#E8F3FC"/>
<circle cx="507.727" cy="563.35" r="8.98701" fill="#E8F3FC"/>
<circle cx="536.935" cy="563.35" r="8.98701" fill="#E8F3FC"/>
<circle cx="11.1948" cy="592.558" r="8.98701" fill="#E8F3FC"/>
<circle cx="40.4028" cy="592.558" r="8.98701" fill="#E8F3FC"/>
<circle cx="69.6103" cy="592.558" r="8.98701" fill="#E8F3FC"/>
<circle cx="98.8183" cy="592.558" r="8.98701" fill="#E8F3FC"/>
<circle cx="128.026" cy="592.558" r="8.98701" fill="#E8F3FC"/>
<circle cx="157.234" cy="592.558" r="8.98701" fill="#E8F3FC"/>
<circle cx="186.442" cy="592.558" r="8.98701" fill="#E8F3FC"/>
<circle cx="215.649" cy="592.558" r="8.98701" fill="#E8F3FC"/>
<circle cx="244.857" cy="592.558" r="8.98701" fill="#E8F3FC"/>
<circle cx="274.065" cy="592.558" r="8.98701" fill="#E8F3FC"/>
<circle cx="303.273" cy="592.558" r="8.98701" fill="#E8F3FC"/>
<circle cx="332.481" cy="592.558" r="8.98701" fill="#E8F3FC"/>
<circle cx="361.688" cy="592.558" r="8.98701" fill="#E8F3FC"/>
<circle cx="390.896" cy="592.558" r="8.98701" fill="#E8F3FC"/>
<circle cx="420.104" cy="592.558" r="8.98701" fill="#E8F3FC"/>
<circle cx="449.312" cy="592.558" r="8.98701" fill="#E8F3FC"/>
<circle cx="478.519" cy="592.558" r="8.98701" fill="#E8F3FC"/>
<circle cx="507.727" cy="592.558" r="8.98701" fill="#E8F3FC"/>
<circle cx="536.935" cy="592.558" r="8.98701" fill="#E8F3FC"/>
<circle cx="11.1948" cy="621.766" r="8.98701" fill="#E8F3FC"/>
<circle cx="40.4028" cy="621.766" r="8.98701" fill="#E8F3FC"/>
<circle cx="69.6103" cy="621.766" r="8.98701" fill="#E8F3FC"/>
<circle cx="98.8183" cy="621.766" r="8.98701" fill="#E8F3FC"/>
<circle cx="128.026" cy="621.766" r="8.98701" fill="#E8F3FC"/>
<circle cx="157.234" cy="621.766" r="8.98701" fill="#E8F3FC"/>
<circle cx="186.442" cy="621.766" r="8.98701" fill="#E8F3FC"/>
<circle cx="215.649" cy="621.766" r="8.98701" fill="#E8F3FC"/>
<circle cx="244.857" cy="621.766" r="8.98701" fill="#E8F3FC"/>
<circle cx="274.065" cy="621.766" r="8.98701" fill="#E8F3FC"/>
<circle cx="303.273" cy="621.766" r="8.98701" fill="#E8F3FC"/>
<circle cx="332.481" cy="621.766" r="8.98701" fill="#E8F3FC"/>
<circle cx="361.688" cy="621.766" r="8.98701" fill="#E8F3FC"/>
<circle cx="390.896" cy="621.766" r="8.98701" fill="#E8F3FC"/>
<circle cx="420.104" cy="621.766" r="8.98701" fill="#E8F3FC"/>
<circle cx="449.312" cy="621.766" r="8.98701" fill="#E8F3FC"/>
<circle cx="478.519" cy="621.766" r="8.98701" fill="#E8F3FC"/>
<circle cx="507.727" cy="621.766" r="8.98701" fill="#E8F3FC"/>
<circle cx="536.935" cy="621.766" r="8.98701" fill="#E8F3FC"/>
<circle cx="11.1948" cy="650.974" r="8.98701" fill="#E8F3FC"/>
<circle cx="40.4028" cy="650.974" r="8.98701" fill="#E8F3FC"/>
<circle cx="69.6103" cy="650.974" r="8.98701" fill="#E8F3FC"/>
<circle cx="98.8183" cy="650.974" r="8.98701" fill="#E8F3FC"/>
<circle cx="128.026" cy="650.974" r="8.98701" fill="#E8F3FC"/>
<circle cx="157.234" cy="650.974" r="8.98701" fill="#E8F3FC"/>
<circle cx="186.442" cy="650.974" r="8.98701" fill="#E8F3FC"/>
<circle cx="215.649" cy="650.974" r="8.98701" fill="#E8F3FC"/>
<circle cx="244.857" cy="650.974" r="8.98701" fill="#E8F3FC"/>
<circle cx="274.065" cy="650.974" r="8.98701" fill="#E8F3FC"/>
<circle cx="303.273" cy="650.974" r="8.98701" fill="#E8F3FC"/>
<circle cx="332.481" cy="650.974" r="8.98701" fill="#E8F3FC"/>
<circle cx="361.688" cy="650.974" r="8.98701" fill="#E8F3FC"/>
<circle cx="390.896" cy="650.974" r="8.98701" fill="#E8F3FC"/>
<circle cx="420.104" cy="650.974" r="8.98701" fill="#E8F3FC"/>
<circle cx="449.312" cy="650.974" r="8.98701" fill="#E8F3FC"/>
<circle cx="478.519" cy="650.974" r="8.98701" fill="#E8F3FC"/>
<circle cx="507.727" cy="650.974" r="8.98701" fill="#E8F3FC"/>
<circle cx="536.935" cy="650.974" r="8.98701" fill="#E8F3FC"/>
<circle cx="11.1948" cy="680.181" r="8.98701" fill="#E8F3FC"/>
<circle cx="40.4028" cy="680.181" r="8.98701" fill="#E8F3FC"/>
<circle cx="69.6103" cy="680.181" r="8.98701" fill="#E8F3FC"/>
<circle cx="98.8183" cy="680.181" r="8.98701" fill="#E8F3FC"/>
<circle cx="128.026" cy="680.181" r="8.98701" fill="#E8F3FC"/>
<circle cx="157.234" cy="680.181" r="8.98701" fill="#E8F3FC"/>
<circle cx="186.442" cy="680.181" r="8.98701" fill="#E8F3FC"/>
<circle cx="215.649" cy="680.181" r="8.98701" fill="#E8F3FC"/>
<circle cx="244.857" cy="680.181" r="8.98701" fill="#E8F3FC"/>
<circle cx="274.065" cy="680.181" r="8.98701" fill="#E8F3FC"/>
<circle cx="303.273" cy="680.181" r="8.98701" fill="#E8F3FC"/>
<circle cx="332.481" cy="680.181" r="8.98701" fill="#E8F3FC"/>
<circle cx="361.688" cy="680.181" r="8.98701" fill="#E8F3FC"/>
<circle cx="390.896" cy="680.181" r="8.98701" fill="#E8F3FC"/>
<circle cx="420.104" cy="680.181" r="8.98701" fill="#E8F3FC"/>
<circle cx="449.312" cy="680.181" r="8.98701" fill="#E8F3FC"/>
<circle cx="478.519" cy="680.181" r="8.98701" fill="#E8F3FC"/>
<circle cx="507.727" cy="680.181" r="8.98701" fill="#E8F3FC"/>
<circle cx="536.935" cy="680.181" r="8.98701" fill="#E8F3FC"/>
<circle cx="11.1948" cy="709.39" r="8.98701" fill="#E8F3FC"/>
<circle cx="40.4028" cy="709.39" r="8.98701" fill="#E8F3FC"/>
<circle cx="69.6103" cy="709.39" r="8.98701" fill="#E8F3FC"/>
<circle cx="98.8183" cy="709.39" r="8.98701" fill="#E8F3FC"/>
<circle cx="128.026" cy="709.39" r="8.98701" fill="#E8F3FC"/>
<circle cx="157.234" cy="709.39" r="8.98701" fill="#E8F3FC"/>
<circle cx="186.442" cy="709.39" r="8.98701" fill="#E8F3FC"/>
<circle cx="215.649" cy="709.39" r="8.98701" fill="#E8F3FC"/>
<circle cx="244.857" cy="709.39" r="8.98701" fill="#E8F3FC"/>
<circle cx="274.065" cy="709.39" r="8.98701" fill="#E8F3FC"/>
<circle cx="303.273" cy="709.39" r="8.98701" fill="#E8F3FC"/>
<circle cx="332.481" cy="709.39" r="8.98701" fill="#E8F3FC"/>
<circle cx="361.688" cy="709.39" r="8.98701" fill="#E8F3FC"/>
<circle cx="390.896" cy="709.39" r="8.98701" fill="#E8F3FC"/>
<circle cx="420.104" cy="709.39" r="8.98701" fill="#E8F3FC"/>
<circle cx="449.312" cy="709.39" r="8.98701" fill="#E8F3FC"/>
<circle cx="478.519" cy="709.39" r="8.98701" fill="#E8F3FC"/>
<circle cx="507.727" cy="709.39" r="8.98701" fill="#E8F3FC"/>
<circle cx="536.935" cy="709.39" r="8.98701" fill="#E8F3FC"/>
<circle cx="11.1948" cy="738.597" r="8.98701" fill="#E8F3FC"/>
<circle cx="40.4028" cy="738.597" r="8.98701" fill="#E8F3FC"/>
<circle cx="69.6103" cy="738.597" r="8.98701" fill="#E8F3FC"/>
<circle cx="98.8183" cy="738.597" r="8.98701" fill="#E8F3FC"/>
<circle cx="128.026" cy="738.597" r="8.98701" fill="#E8F3FC"/>
<circle cx="157.234" cy="738.597" r="8.98701" fill="#E8F3FC"/>
<circle cx="186.442" cy="738.597" r="8.98701" fill="#E8F3FC"/>
<circle cx="215.649" cy="738.597" r="8.98701" fill="#E8F3FC"/>
<circle cx="244.857" cy="738.597" r="8.98701" fill="#E8F3FC"/>
<circle cx="274.065" cy="738.597" r="8.98701" fill="#E8F3FC"/>
<circle cx="303.273" cy="738.597" r="8.98701" fill="#E8F3FC"/>
<circle cx="332.481" cy="738.597" r="8.98701" fill="#E8F3FC"/>
<circle cx="361.688" cy="738.597" r="8.98701" fill="#E8F3FC"/>
<circle cx="390.896" cy="738.597" r="8.98701" fill="#E8F3FC"/>
<circle cx="420.104" cy="738.597" r="8.98701" fill="#E8F3FC"/>
<circle cx="449.312" cy="738.597" r="8.98701" fill="#E8F3FC"/>
<circle cx="478.519" cy="738.597" r="8.98701" fill="#E8F3FC"/>
<circle cx="507.727" cy="738.597" r="8.98701" fill="#E8F3FC"/>
<circle cx="536.935" cy="738.597" r="8.98701" fill="#E8F3FC"/>
<circle cx="11.1948" cy="767.805" r="8.98701" fill="#E8F3FC"/>
<circle cx="40.4028" cy="767.805" r="8.98701" fill="#E8F3FC"/>
<circle cx="69.6103" cy="767.805" r="8.98701" fill="#E8F3FC"/>
<circle cx="98.8183" cy="767.805" r="8.98701" fill="#E8F3FC"/>
<circle cx="128.026" cy="767.805" r="8.98701" fill="#E8F3FC"/>
<circle cx="157.234" cy="767.805" r="8.98701" fill="#E8F3FC"/>
<circle cx="186.442" cy="767.805" r="8.98701" fill="#E8F3FC"/>
<circle cx="215.649" cy="767.805" r="8.98701" fill="#E8F3FC"/>
<circle cx="244.857" cy="767.805" r="8.98701" fill="#E8F3FC"/>
<circle cx="274.065" cy="767.805" r="8.98701" fill="#E8F3FC"/>
<circle cx="303.273" cy="767.805" r="8.98701" fill="#E8F3FC"/>
<circle cx="332.481" cy="767.805" r="8.98701" fill="#E8F3FC"/>
<circle cx="361.688" cy="767.805" r="8.98701" fill="#E8F3FC"/>
<circle cx="390.896" cy="767.805" r="8.98701" fill="#E8F3FC"/>
<circle cx="420.104" cy="767.805" r="8.98701" fill="#E8F3FC"/>
<circle cx="449.312" cy="767.805" r="8.98701" fill="#E8F3FC"/>
<circle cx="478.519" cy="767.805" r="8.98701" fill="#E8F3FC"/>
<circle cx="507.727" cy="767.805" r="8.98701" fill="#E8F3FC"/>
<circle cx="536.935" cy="767.805" r="8.98701" fill="#E8F3FC"/>
<circle cx="11.1948" cy="797.012" r="8.98701" fill="#E8F3FC"/>
<circle cx="40.4028" cy="797.012" r="8.98701" fill="#E8F3FC"/>
<circle cx="69.6103" cy="797.012" r="8.98701" fill="#E8F3FC"/>
<circle cx="98.8183" cy="797.012" r="8.98701" fill="#E8F3FC"/>
<circle cx="128.026" cy="797.012" r="8.98701" fill="#E8F3FC"/>
<circle cx="157.234" cy="797.012" r="8.98701" fill="#E8F3FC"/>
<circle cx="186.442" cy="797.012" r="8.98701" fill="#E8F3FC"/>
<circle cx="215.649" cy="797.012" r="8.98701" fill="#E8F3FC"/>
<circle cx="244.857" cy="797.012" r="8.98701" fill="#E8F3FC"/>
<circle cx="274.065" cy="797.012" r="8.98701" fill="#E8F3FC"/>
<circle cx="303.273" cy="797.012" r="8.98701" fill="#E8F3FC"/>
<circle cx="332.481" cy="797.012" r="8.98701" fill="#E8F3FC"/>
<circle cx="361.688" cy="797.012" r="8.98701" fill="#E8F3FC"/>
<circle cx="390.896" cy="797.012" r="8.98701" fill="#E8F3FC"/>
<circle cx="420.104" cy="797.012" r="8.98701" fill="#E8F3FC"/>
<circle cx="449.312" cy="797.012" r="8.98701" fill="#E8F3FC"/>
<circle cx="478.519" cy="797.012" r="8.98701" fill="#E8F3FC"/>
<circle cx="507.727" cy="797.012" r="8.98701" fill="#E8F3FC"/>
<circle cx="536.935" cy="797.012" r="8.98701" fill="#E8F3FC"/>
</g>
</svg>
