<svg width="290" height="175" viewBox="0 0 290 175" fill="none" xmlns="http://www.w3.org/2000/svg">
<mask id="mask0" mask-type="alpha" maskUnits="userSpaceOnUse" x="-58" y="0" width="348" height="175">
<path d="M208.551 174.304C208.626 123.044 167.173 81.4109 115.915 81.2981C64.6637 81.1853 23.0305 122.635 22.88 173.896L-57.9999 173.718C-57.7655 77.766 20.1747 0.170643 116.102 0.381805C212.021 0.592949 289.613 78.5307 289.437 174.482" fill="white"/>
</mask>
<g mask="url(#mask0)">
<mask id="mask1" mask-type="alpha" maskUnits="userSpaceOnUse" x="-133" y="-135" width="499" height="492">
<ellipse cx="116.382" cy="110.983" rx="206.986" ry="202.057" transform="rotate(166.249 116.382 110.983)" fill="#E8F3FC"/>
</mask>
<g mask="url(#mask1)">
<ellipse cx="282.545" cy="169.505" rx="3.71406" ry="3.63013" transform="rotate(179.687 282.545 169.505)" fill="#104E88"/>
<ellipse cx="270.474" cy="169.57" rx="3.71406" ry="3.63013" transform="rotate(179.687 270.474 169.57)" fill="#104E88"/>
<ellipse cx="258.403" cy="169.638" rx="3.71406" ry="3.63013" transform="rotate(179.687 258.403 169.638)" fill="#104E88"/>
<ellipse cx="246.332" cy="169.705" rx="3.71406" ry="3.63013" transform="rotate(179.687 246.332 169.705)" fill="#104E88"/>
<ellipse cx="234.26" cy="169.769" rx="3.71406" ry="3.63013" transform="rotate(179.687 234.26 169.769)" fill="#104E88"/>
<ellipse cx="222.189" cy="169.837" rx="3.71406" ry="3.63013" transform="rotate(179.687 222.189 169.837)" fill="#104E88"/>
<ellipse cx="210.118" cy="169.902" rx="3.71406" ry="3.63013" transform="rotate(179.687 210.118 169.902)" fill="#104E88"/>
<ellipse cx="198.046" cy="169.968" rx="3.71406" ry="3.63013" transform="rotate(179.687 198.046 169.968)" fill="#104E88"/>
<ellipse cx="185.976" cy="170.033" rx="3.71406" ry="3.63013" transform="rotate(179.687 185.976 170.033)" fill="#104E88"/>
<ellipse cx="173.905" cy="170.097" rx="3.71406" ry="3.63013" transform="rotate(179.687 173.905 170.097)" fill="#104E88"/>
<ellipse cx="161.834" cy="170.164" rx="3.71406" ry="3.63013" transform="rotate(179.687 161.834 170.164)" fill="#104E88"/>
<ellipse cx="149.762" cy="170.232" rx="3.71406" ry="3.63013" transform="rotate(179.687 149.762 170.232)" fill="#104E88"/>
<ellipse cx="137.692" cy="170.296" rx="3.71406" ry="3.63013" transform="rotate(179.687 137.692 170.296)" fill="#104E88"/>
<ellipse cx="125.62" cy="170.361" rx="3.71406" ry="3.63013" transform="rotate(179.687 125.62 170.361)" fill="#104E88"/>
<ellipse cx="113.548" cy="170.429" rx="3.71406" ry="3.63013" transform="rotate(179.687 113.548 170.429)" fill="#104E88"/>
<ellipse cx="101.477" cy="170.494" rx="3.71406" ry="3.63013" transform="rotate(179.687 101.477 170.494)" fill="#104E88"/>
<ellipse cx="89.4068" cy="170.56" rx="3.71406" ry="3.63013" transform="rotate(179.687 89.4068 170.56)" fill="#104E88"/>
<ellipse cx="77.3355" cy="170.628" rx="3.71406" ry="3.63013" transform="rotate(179.687 77.3355 170.628)" fill="#104E88"/>
<ellipse cx="65.2647" cy="170.691" rx="3.71406" ry="3.63013" transform="rotate(179.687 65.2647 170.691)" fill="#104E88"/>
<ellipse cx="53.1934" cy="170.757" rx="3.71406" ry="3.63013" transform="rotate(179.687 53.1934 170.757)" fill="#104E88"/>
<ellipse cx="41.1216" cy="170.828" rx="3.71406" ry="3.63013" transform="rotate(179.687 41.1216 170.828)" fill="#104E88"/>
<ellipse cx="29.0513" cy="170.89" rx="3.71406" ry="3.63013" transform="rotate(179.687 29.0513 170.89)" fill="#104E88"/>
<ellipse cx="16.9795" cy="170.957" rx="3.71406" ry="3.63013" transform="rotate(179.687 16.9795 170.957)" fill="#104E88"/>
<ellipse cx="4.90825" cy="171.025" rx="3.71406" ry="3.63013" transform="rotate(179.687 4.90825 171.025)" fill="#104E88"/>
<ellipse cx="282.481" cy="157.707" rx="3.71406" ry="3.63013" transform="rotate(179.687 282.481 157.707)" fill="#104E88"/>
<ellipse cx="270.41" cy="157.771" rx="3.71406" ry="3.63013" transform="rotate(179.687 270.41 157.771)" fill="#104E88"/>
<ellipse cx="258.338" cy="157.839" rx="3.71406" ry="3.63013" transform="rotate(179.687 258.338 157.839)" fill="#104E88"/>
<ellipse cx="246.267" cy="157.904" rx="3.71406" ry="3.63013" transform="rotate(179.687 246.267 157.904)" fill="#104E88"/>
<ellipse cx="234.196" cy="157.968" rx="3.71406" ry="3.63013" transform="rotate(179.687 234.196 157.968)" fill="#104E88"/>
<ellipse cx="222.125" cy="158.037" rx="3.71406" ry="3.63013" transform="rotate(179.687 222.125 158.037)" fill="#104E88"/>
<ellipse cx="210.053" cy="158.103" rx="3.71406" ry="3.63013" transform="rotate(179.687 210.053 158.103)" fill="#104E88"/>
<ellipse cx="197.983" cy="158.168" rx="3.71406" ry="3.63013" transform="rotate(179.687 197.983 158.168)" fill="#104E88"/>
<ellipse cx="185.912" cy="158.236" rx="3.71406" ry="3.63013" transform="rotate(179.687 185.912 158.236)" fill="#104E88"/>
<ellipse cx="173.84" cy="158.3" rx="3.71406" ry="3.63013" transform="rotate(179.687 173.84 158.3)" fill="#104E88"/>
<ellipse cx="161.769" cy="158.367" rx="3.71406" ry="3.63013" transform="rotate(179.687 161.769 158.367)" fill="#104E88"/>
<ellipse cx="149.698" cy="158.433" rx="3.71406" ry="3.63013" transform="rotate(179.687 149.698 158.433)" fill="#104E88"/>
<ellipse cx="137.627" cy="158.496" rx="3.71406" ry="3.63013" transform="rotate(179.687 137.627 158.496)" fill="#104E88"/>
<ellipse cx="125.554" cy="158.566" rx="3.71406" ry="3.63013" transform="rotate(179.687 125.554 158.566)" fill="#104E88"/>
<ellipse cx="113.484" cy="158.63" rx="3.71406" ry="3.63013" transform="rotate(179.687 113.484 158.63)" fill="#104E88"/>
<ellipse cx="101.413" cy="158.695" rx="3.71406" ry="3.63013" transform="rotate(179.687 101.413 158.695)" fill="#104E88"/>
<ellipse cx="89.3423" cy="158.761" rx="3.71406" ry="3.63013" transform="rotate(179.687 89.3423 158.761)" fill="#104E88"/>
<ellipse cx="77.271" cy="158.83" rx="3.71406" ry="3.63013" transform="rotate(179.687 77.271 158.83)" fill="#104E88"/>
<ellipse cx="65.2002" cy="158.892" rx="3.71406" ry="3.63013" transform="rotate(179.687 65.2002 158.892)" fill="#104E88"/>
<ellipse cx="53.129" cy="158.959" rx="3.71406" ry="3.63013" transform="rotate(179.687 53.129 158.959)" fill="#104E88"/>
<ellipse cx="41.0577" cy="159.027" rx="3.71406" ry="3.63013" transform="rotate(179.687 41.0577 159.027)" fill="#104E88"/>
<ellipse cx="28.9859" cy="159.093" rx="3.71406" ry="3.63013" transform="rotate(179.687 28.9859 159.093)" fill="#104E88"/>
<ellipse cx="16.9151" cy="159.158" rx="3.71406" ry="3.63013" transform="rotate(179.687 16.9151 159.158)" fill="#104E88"/>
<ellipse cx="4.84428" cy="159.226" rx="3.71406" ry="3.63013" transform="rotate(179.687 4.84428 159.226)" fill="#104E88"/>
<ellipse cx="282.417" cy="145.908" rx="3.71406" ry="3.63013" transform="rotate(179.687 282.417 145.908)" fill="#104E88"/>
<ellipse cx="270.344" cy="145.978" rx="3.71406" ry="3.63013" transform="rotate(179.687 270.344 145.978)" fill="#104E88"/>
<ellipse cx="258.274" cy="146.041" rx="3.71406" ry="3.63013" transform="rotate(179.687 258.274 146.041)" fill="#104E88"/>
<ellipse cx="246.203" cy="146.107" rx="3.71406" ry="3.63013" transform="rotate(179.687 246.203 146.107)" fill="#104E88"/>
<ellipse cx="234.131" cy="146.171" rx="3.71406" ry="3.63013" transform="rotate(179.687 234.131 146.171)" fill="#104E88"/>
<ellipse cx="222.06" cy="146.24" rx="3.71406" ry="3.63013" transform="rotate(179.687 222.06 146.24)" fill="#104E88"/>
<ellipse cx="209.989" cy="146.304" rx="3.71406" ry="3.63013" transform="rotate(179.687 209.989 146.304)" fill="#104E88"/>
<ellipse cx="197.918" cy="146.369" rx="3.71406" ry="3.63013" transform="rotate(179.687 197.918 146.369)" fill="#104E88"/>
<ellipse cx="185.846" cy="146.437" rx="3.71406" ry="3.63013" transform="rotate(179.687 185.846 146.437)" fill="#104E88"/>
<ellipse cx="173.776" cy="146.503" rx="3.71406" ry="3.63013" transform="rotate(179.687 173.776 146.503)" fill="#104E88"/>
<ellipse cx="161.705" cy="146.568" rx="3.71406" ry="3.63013" transform="rotate(179.687 161.705 146.568)" fill="#104E88"/>
<ellipse cx="149.633" cy="146.634" rx="3.71406" ry="3.63013" transform="rotate(179.687 149.633 146.634)" fill="#104E88"/>
<ellipse cx="137.562" cy="146.703" rx="3.71406" ry="3.63013" transform="rotate(179.687 137.562 146.703)" fill="#104E88"/>
<ellipse cx="125.491" cy="146.767" rx="3.71406" ry="3.63013" transform="rotate(179.687 125.491 146.767)" fill="#104E88"/>
<ellipse cx="113.419" cy="146.834" rx="3.71406" ry="3.63013" transform="rotate(179.687 113.419 146.834)" fill="#104E88"/>
<ellipse cx="101.349" cy="146.896" rx="3.71406" ry="3.63013" transform="rotate(179.687 101.349 146.896)" fill="#104E88"/>
<ellipse cx="89.2779" cy="146.964" rx="3.71406" ry="3.63013" transform="rotate(179.687 89.2779 146.964)" fill="#104E88"/>
<ellipse cx="77.2056" cy="147.031" rx="3.71406" ry="3.63013" transform="rotate(179.687 77.2056 147.031)" fill="#104E88"/>
<ellipse cx="65.1358" cy="147.093" rx="3.71406" ry="3.63013" transform="rotate(179.687 65.1358 147.093)" fill="#104E88"/>
<ellipse cx="53.064" cy="147.164" rx="3.71406" ry="3.63013" transform="rotate(179.687 53.064 147.164)" fill="#104E88"/>
<ellipse cx="40.9927" cy="147.23" rx="3.71406" ry="3.63013" transform="rotate(179.687 40.9927 147.23)" fill="#104E88"/>
<ellipse cx="28.9219" cy="147.293" rx="3.71406" ry="3.63013" transform="rotate(179.687 28.9219 147.293)" fill="#104E88"/>
<ellipse cx="16.8506" cy="147.359" rx="3.71406" ry="3.63013" transform="rotate(179.687 16.8506 147.359)" fill="#104E88"/>
<ellipse cx="4.77983" cy="147.427" rx="3.71406" ry="3.63013" transform="rotate(179.687 4.77983 147.427)" fill="#104E88"/>
<ellipse cx="282.351" cy="134.111" rx="3.71406" ry="3.63013" transform="rotate(179.687 282.351 134.111)" fill="#104E88"/>
<ellipse cx="270.281" cy="134.177" rx="3.71406" ry="3.63013" transform="rotate(179.687 270.281 134.177)" fill="#104E88"/>
<ellipse cx="258.21" cy="134.242" rx="3.71406" ry="3.63013" transform="rotate(179.687 258.21 134.242)" fill="#104E88"/>
<ellipse cx="246.138" cy="134.308" rx="3.71406" ry="3.63013" transform="rotate(179.687 246.138 134.308)" fill="#104E88"/>
<ellipse cx="234.067" cy="134.375" rx="3.71406" ry="3.63013" transform="rotate(179.687 234.067 134.375)" fill="#104E88"/>
<ellipse cx="221.996" cy="134.441" rx="3.71406" ry="3.63013" transform="rotate(179.687 221.996 134.441)" fill="#104E88"/>
<ellipse cx="209.924" cy="134.507" rx="3.71406" ry="3.63013" transform="rotate(179.687 209.924 134.507)" fill="#104E88"/>
<ellipse cx="197.853" cy="134.574" rx="3.71406" ry="3.63013" transform="rotate(179.687 197.853 134.574)" fill="#104E88"/>
<ellipse cx="185.783" cy="134.638" rx="3.71406" ry="3.63013" transform="rotate(179.687 185.783 134.638)" fill="#104E88"/>
<ellipse cx="173.711" cy="134.705" rx="3.71406" ry="3.63013" transform="rotate(179.687 173.711 134.705)" fill="#104E88"/>
<ellipse cx="161.64" cy="134.773" rx="3.71406" ry="3.63013" transform="rotate(179.687 161.64 134.773)" fill="#104E88"/>
<ellipse cx="149.569" cy="134.836" rx="3.71406" ry="3.63013" transform="rotate(179.687 149.569 134.836)" fill="#104E88"/>
<ellipse cx="137.498" cy="134.902" rx="3.71406" ry="3.63013" transform="rotate(179.687 137.498 134.902)" fill="#104E88"/>
<ellipse cx="125.426" cy="134.968" rx="3.71406" ry="3.63013" transform="rotate(179.687 125.426 134.968)" fill="#104E88"/>
<ellipse cx="113.356" cy="135.033" rx="3.71406" ry="3.63013" transform="rotate(179.687 113.356 135.033)" fill="#104E88"/>
<ellipse cx="101.284" cy="135.101" rx="3.71406" ry="3.63013" transform="rotate(179.687 101.284 135.101)" fill="#104E88"/>
<ellipse cx="89.2134" cy="135.166" rx="3.71406" ry="3.63013" transform="rotate(179.687 89.2134 135.166)" fill="#104E88"/>
<ellipse cx="77.1421" cy="135.232" rx="3.71406" ry="3.63013" transform="rotate(179.687 77.1421 135.232)" fill="#104E88"/>
<ellipse cx="65.0713" cy="135.298" rx="3.71406" ry="3.63013" transform="rotate(179.687 65.0713 135.298)" fill="#104E88"/>
<ellipse cx="53" cy="135.363" rx="3.71406" ry="3.63013" transform="rotate(179.687 53 135.363)" fill="#104E88"/>
<ellipse cx="40.9288" cy="135.429" rx="3.71406" ry="3.63013" transform="rotate(179.687 40.9288 135.429)" fill="#104E88"/>
<ellipse cx="28.858" cy="135.494" rx="3.71406" ry="3.63013" transform="rotate(179.687 28.858 135.494)" fill="#104E88"/>
<ellipse cx="16.7862" cy="135.562" rx="3.71406" ry="3.63013" transform="rotate(179.687 16.7862 135.562)" fill="#104E88"/>
<ellipse cx="4.71489" cy="135.628" rx="3.71406" ry="3.63013" transform="rotate(179.687 4.71489 135.628)" fill="#104E88"/>
<ellipse cx="282.288" cy="122.31" rx="3.71406" ry="3.63013" transform="rotate(179.687 282.288 122.31)" fill="#104E88"/>
<ellipse cx="270.215" cy="122.379" rx="3.71406" ry="3.63013" transform="rotate(179.687 270.215 122.379)" fill="#104E88"/>
<ellipse cx="258.145" cy="122.443" rx="3.71406" ry="3.63013" transform="rotate(179.687 258.145 122.443)" fill="#104E88"/>
<ellipse cx="246.074" cy="122.509" rx="3.71406" ry="3.63013" transform="rotate(179.687 246.074 122.509)" fill="#104E88"/>
<ellipse cx="234.002" cy="122.578" rx="3.71406" ry="3.63013" transform="rotate(179.687 234.002 122.578)" fill="#104E88"/>
<ellipse cx="221.931" cy="122.64" rx="3.71406" ry="3.63013" transform="rotate(179.687 221.931 122.64)" fill="#104E88"/>
<ellipse cx="209.86" cy="122.709" rx="3.71406" ry="3.63013" transform="rotate(179.687 209.86 122.709)" fill="#104E88"/>
<ellipse cx="197.79" cy="122.775" rx="3.71406" ry="3.63013" transform="rotate(179.687 197.79 122.775)" fill="#104E88"/>
<ellipse cx="185.718" cy="122.839" rx="3.71406" ry="3.63013" transform="rotate(179.687 185.718 122.839)" fill="#104E88"/>
<ellipse cx="173.647" cy="122.904" rx="3.71406" ry="3.63013" transform="rotate(179.687 173.647 122.904)" fill="#104E88"/>
<ellipse cx="161.576" cy="122.974" rx="3.71406" ry="3.63013" transform="rotate(179.687 161.576 122.974)" fill="#104E88"/>
<ellipse cx="149.504" cy="123.037" rx="3.71406" ry="3.63013" transform="rotate(179.687 149.504 123.037)" fill="#104E88"/>
<ellipse cx="137.433" cy="123.103" rx="3.71406" ry="3.63013" transform="rotate(179.687 137.433 123.103)" fill="#104E88"/>
<ellipse cx="125.363" cy="123.168" rx="3.71406" ry="3.63013" transform="rotate(179.687 125.363 123.168)" fill="#104E88"/>
<ellipse cx="113.292" cy="123.234" rx="3.71406" ry="3.63013" transform="rotate(179.687 113.292 123.234)" fill="#104E88"/>
<ellipse cx="101.22" cy="123.3" rx="3.71406" ry="3.63013" transform="rotate(179.687 101.22 123.3)" fill="#104E88"/>
<ellipse cx="89.149" cy="123.365" rx="3.71406" ry="3.63013" transform="rotate(179.687 89.149 123.365)" fill="#104E88"/>
<ellipse cx="77.0777" cy="123.433" rx="3.71406" ry="3.63013" transform="rotate(179.687 77.0777 123.433)" fill="#104E88"/>
<ellipse cx="65.0069" cy="123.5" rx="3.71406" ry="3.63013" transform="rotate(179.687 65.0069 123.5)" fill="#104E88"/>
<ellipse cx="52.9351" cy="123.566" rx="3.71406" ry="3.63013" transform="rotate(179.687 52.9351 123.566)" fill="#104E88"/>
<ellipse cx="40.8643" cy="123.63" rx="3.71406" ry="3.63013" transform="rotate(179.687 40.8643 123.63)" fill="#104E88"/>
<ellipse cx="28.793" cy="123.699" rx="3.71406" ry="3.63013" transform="rotate(179.687 28.793 123.699)" fill="#104E88"/>
<ellipse cx="16.7217" cy="123.763" rx="3.71406" ry="3.63013" transform="rotate(179.687 16.7217 123.763)" fill="#104E88"/>
<ellipse cx="4.65092" cy="123.83" rx="3.71406" ry="3.63013" transform="rotate(179.687 4.65092 123.83)" fill="#104E88"/>
<ellipse cx="282.223" cy="110.513" rx="3.71406" ry="3.63013" transform="rotate(179.687 282.223 110.513)" fill="#104E88"/>
<ellipse cx="270.151" cy="110.582" rx="3.71406" ry="3.63013" transform="rotate(179.687 270.151 110.582)" fill="#104E88"/>
<ellipse cx="258.081" cy="110.644" rx="3.71406" ry="3.63013" transform="rotate(179.687 258.081 110.644)" fill="#104E88"/>
<ellipse cx="246.009" cy="110.712" rx="3.71406" ry="3.63013" transform="rotate(179.687 246.009 110.712)" fill="#104E88"/>
<ellipse cx="233.938" cy="110.779" rx="3.71406" ry="3.63013" transform="rotate(179.687 233.938 110.779)" fill="#104E88"/>
<ellipse cx="221.867" cy="110.843" rx="3.71406" ry="3.63013" transform="rotate(179.687 221.867 110.843)" fill="#104E88"/>
<ellipse cx="209.796" cy="110.91" rx="3.71406" ry="3.63013" transform="rotate(179.687 209.796 110.91)" fill="#104E88"/>
<ellipse cx="197.725" cy="110.976" rx="3.71406" ry="3.63013" transform="rotate(179.687 197.725 110.976)" fill="#104E88"/>
<ellipse cx="185.654" cy="111.039" rx="3.71406" ry="3.63013" transform="rotate(179.687 185.654 111.039)" fill="#104E88"/>
<ellipse cx="173.583" cy="111.109" rx="3.71406" ry="3.63013" transform="rotate(179.687 173.583 111.109)" fill="#104E88"/>
<ellipse cx="161.511" cy="111.175" rx="3.71406" ry="3.63013" transform="rotate(179.687 161.511 111.175)" fill="#104E88"/>
<ellipse cx="149.44" cy="111.238" rx="3.71406" ry="3.63013" transform="rotate(179.687 149.44 111.238)" fill="#104E88"/>
<ellipse cx="137.369" cy="111.306" rx="3.71406" ry="3.63013" transform="rotate(179.687 137.369 111.306)" fill="#104E88"/>
<ellipse cx="125.297" cy="111.373" rx="3.71406" ry="3.63013" transform="rotate(179.687 125.297 111.373)" fill="#104E88"/>
<ellipse cx="113.227" cy="111.437" rx="3.71406" ry="3.63013" transform="rotate(179.687 113.227 111.437)" fill="#104E88"/>
<ellipse cx="101.156" cy="111.504" rx="3.71406" ry="3.63013" transform="rotate(179.687 101.156 111.504)" fill="#104E88"/>
<ellipse cx="89.0845" cy="111.572" rx="3.71406" ry="3.63013" transform="rotate(179.687 89.0845 111.572)" fill="#104E88"/>
<ellipse cx="77.0132" cy="111.634" rx="3.71406" ry="3.63013" transform="rotate(179.687 77.0132 111.634)" fill="#104E88"/>
<ellipse cx="64.9419" cy="111.703" rx="3.71406" ry="3.63013" transform="rotate(179.687 64.9419 111.703)" fill="#104E88"/>
<ellipse cx="52.8707" cy="111.767" rx="3.71406" ry="3.63013" transform="rotate(179.687 52.8707 111.767)" fill="#104E88"/>
<ellipse cx="40.7994" cy="111.834" rx="3.71406" ry="3.63013" transform="rotate(179.687 40.7994 111.834)" fill="#104E88"/>
<ellipse cx="28.729" cy="111.9" rx="3.71406" ry="3.63013" transform="rotate(179.687 28.729 111.9)" fill="#104E88"/>
<ellipse cx="16.6573" cy="111.966" rx="3.71406" ry="3.63013" transform="rotate(179.687 16.6573 111.966)" fill="#104E88"/>
<ellipse cx="4.58598" cy="112.031" rx="3.71406" ry="3.63013" transform="rotate(179.687 4.58598 112.031)" fill="#104E88"/>
<ellipse cx="282.159" cy="98.7144" rx="3.71406" ry="3.63013" transform="rotate(179.687 282.159 98.7144)" fill="#104E88"/>
<ellipse cx="270.086" cy="98.7828" rx="3.71406" ry="3.63013" transform="rotate(179.687 270.086 98.7828)" fill="#104E88"/>
<ellipse cx="258.016" cy="98.8473" rx="3.71406" ry="3.63013" transform="rotate(179.687 258.016 98.8473)" fill="#104E88"/>
<ellipse cx="245.945" cy="98.9137" rx="3.71406" ry="3.63013" transform="rotate(179.687 245.945 98.9137)" fill="#104E88"/>
<ellipse cx="233.874" cy="98.9801" rx="3.71406" ry="3.63013" transform="rotate(179.687 233.874 98.9801)" fill="#104E88"/>
<ellipse cx="221.802" cy="99.0465" rx="3.71406" ry="3.63013" transform="rotate(179.687 221.802 99.0465)" fill="#104E88"/>
<ellipse cx="209.731" cy="99.1109" rx="3.71406" ry="3.63013" transform="rotate(179.687 209.731 99.1109)" fill="#104E88"/>
<ellipse cx="197.66" cy="99.1773" rx="3.71406" ry="3.63013" transform="rotate(179.687 197.66 99.1773)" fill="#104E88"/>
<ellipse cx="185.588" cy="99.2457" rx="3.71406" ry="3.63013" transform="rotate(179.687 185.588 99.2457)" fill="#104E88"/>
<ellipse cx="173.518" cy="99.3101" rx="3.71406" ry="3.63013" transform="rotate(179.687 173.518 99.3101)" fill="#104E88"/>
<ellipse cx="161.447" cy="99.3765" rx="3.71406" ry="3.63013" transform="rotate(179.687 161.447 99.3765)" fill="#104E88"/>
<ellipse cx="149.376" cy="99.441" rx="3.71406" ry="3.63013" transform="rotate(179.687 149.376 99.441)" fill="#104E88"/>
<ellipse cx="137.304" cy="99.5055" rx="3.71406" ry="3.63013" transform="rotate(179.687 137.304 99.5055)" fill="#104E88"/>
<ellipse cx="125.233" cy="99.5738" rx="3.71406" ry="3.63013" transform="rotate(179.687 125.233 99.5738)" fill="#104E88"/>
<ellipse cx="113.162" cy="99.6383" rx="3.71406" ry="3.63013" transform="rotate(179.687 113.162 99.6383)" fill="#104E88"/>
<ellipse cx="101.091" cy="99.7047" rx="3.71406" ry="3.63013" transform="rotate(179.687 101.091 99.7047)" fill="#104E88"/>
<ellipse cx="89.0201" cy="99.7691" rx="3.71406" ry="3.63013" transform="rotate(179.687 89.0201 99.7691)" fill="#104E88"/>
<ellipse cx="76.9488" cy="99.8355" rx="3.71406" ry="3.63013" transform="rotate(179.687 76.9488 99.8355)" fill="#104E88"/>
<ellipse cx="64.878" cy="99.9019" rx="3.71406" ry="3.63013" transform="rotate(179.687 64.878 99.9019)" fill="#104E88"/>
<ellipse cx="52.8067" cy="99.9683" rx="3.71406" ry="3.63013" transform="rotate(179.687 52.8067 99.9683)" fill="#104E88"/>
<ellipse cx="40.7354" cy="100.035" rx="3.71406" ry="3.63013" transform="rotate(179.687 40.7354 100.035)" fill="#104E88"/>
<ellipse cx="28.6641" cy="100.099" rx="3.71406" ry="3.63013" transform="rotate(179.687 28.6641 100.099)" fill="#104E88"/>
<ellipse cx="16.5933" cy="100.166" rx="3.71406" ry="3.63013" transform="rotate(179.687 16.5933 100.166)" fill="#104E88"/>
<ellipse cx="4.52202" cy="100.232" rx="3.71406" ry="3.63013" transform="rotate(179.687 4.52202 100.232)" fill="#104E88"/>
<ellipse cx="282.093" cy="86.9176" rx="3.71406" ry="3.63013" transform="rotate(179.687 282.093 86.9176)" fill="#104E88"/>
<ellipse cx="270.022" cy="86.984" rx="3.71406" ry="3.63013" transform="rotate(179.687 270.022 86.984)" fill="#104E88"/>
<ellipse cx="257.952" cy="87.0504" rx="3.71406" ry="3.63013" transform="rotate(179.687 257.952 87.0504)" fill="#104E88"/>
<ellipse cx="245.88" cy="87.1148" rx="3.71406" ry="3.63013" transform="rotate(179.687 245.88 87.1148)" fill="#104E88"/>
<ellipse cx="233.809" cy="87.1812" rx="3.71406" ry="3.63013" transform="rotate(179.687 233.809 87.1812)" fill="#104E88"/>
<ellipse cx="221.738" cy="87.2437" rx="3.71406" ry="3.63013" transform="rotate(179.687 221.738 87.2437)" fill="#104E88"/>
<ellipse cx="209.667" cy="87.3121" rx="3.71406" ry="3.63013" transform="rotate(179.687 209.667 87.3121)" fill="#104E88"/>
<ellipse cx="197.595" cy="87.3785" rx="3.71406" ry="3.63013" transform="rotate(179.687 197.595 87.3785)" fill="#104E88"/>
<ellipse cx="185.525" cy="87.443" rx="3.71406" ry="3.63013" transform="rotate(179.687 185.525 87.443)" fill="#104E88"/>
<ellipse cx="173.454" cy="87.5094" rx="3.71406" ry="3.63013" transform="rotate(179.687 173.454 87.5094)" fill="#104E88"/>
<ellipse cx="161.382" cy="87.5777" rx="3.71406" ry="3.63013" transform="rotate(179.687 161.382 87.5777)" fill="#104E88"/>
<ellipse cx="149.311" cy="87.6402" rx="3.71406" ry="3.63013" transform="rotate(179.687 149.311 87.6402)" fill="#104E88"/>
<ellipse cx="137.24" cy="87.7086" rx="3.71406" ry="3.63013" transform="rotate(179.687 137.24 87.7086)" fill="#104E88"/>
<ellipse cx="125.169" cy="87.775" rx="3.71406" ry="3.63013" transform="rotate(179.687 125.169 87.775)" fill="#104E88"/>
<ellipse cx="113.098" cy="87.8394" rx="3.71406" ry="3.63013" transform="rotate(179.687 113.098 87.8394)" fill="#104E88"/>
<ellipse cx="101.026" cy="87.9078" rx="3.71406" ry="3.63013" transform="rotate(179.687 101.026 87.9078)" fill="#104E88"/>
<ellipse cx="88.9556" cy="87.9723" rx="3.71406" ry="3.63013" transform="rotate(179.687 88.9556 87.9723)" fill="#104E88"/>
<ellipse cx="76.8843" cy="88.0367" rx="3.71406" ry="3.63013" transform="rotate(179.687 76.8843 88.0367)" fill="#104E88"/>
<ellipse cx="64.813" cy="88.1051" rx="3.71406" ry="3.63013" transform="rotate(179.687 64.813 88.1051)" fill="#104E88"/>
<ellipse cx="52.7422" cy="88.1715" rx="3.71406" ry="3.63013" transform="rotate(179.687 52.7422 88.1715)" fill="#104E88"/>
<ellipse cx="40.6705" cy="88.2359" rx="3.71406" ry="3.63013" transform="rotate(179.687 40.6705 88.2359)" fill="#104E88"/>
<ellipse cx="28.6001" cy="88.3023" rx="3.71406" ry="3.63013" transform="rotate(179.687 28.6001 88.3023)" fill="#104E88"/>
<ellipse cx="16.5284" cy="88.3668" rx="3.71406" ry="3.63013" transform="rotate(179.687 16.5284 88.3668)" fill="#104E88"/>
<ellipse cx="4.45757" cy="88.4332" rx="3.71406" ry="3.63013" transform="rotate(179.687 4.45757 88.4332)" fill="#104E88"/>
<ellipse cx="282.03" cy="75.1168" rx="3.71406" ry="3.63013" transform="rotate(179.687 282.03 75.1168)" fill="#104E88"/>
<ellipse cx="269.958" cy="75.1832" rx="3.71406" ry="3.63013" transform="rotate(179.687 269.958 75.1832)" fill="#104E88"/>
<ellipse cx="257.887" cy="75.2515" rx="3.71406" ry="3.63013" transform="rotate(179.687 257.887 75.2515)" fill="#104E88"/>
<ellipse cx="245.816" cy="75.314" rx="3.71406" ry="3.63013" transform="rotate(179.687 245.816 75.314)" fill="#104E88"/>
<ellipse cx="233.745" cy="75.3824" rx="3.71406" ry="3.63013" transform="rotate(179.687 233.745 75.3824)" fill="#104E88"/>
<ellipse cx="221.673" cy="75.4488" rx="3.71406" ry="3.63013" transform="rotate(179.687 221.673 75.4488)" fill="#104E88"/>
<ellipse cx="209.602" cy="75.5152" rx="3.71406" ry="3.63013" transform="rotate(179.687 209.602 75.5152)" fill="#104E88"/>
<ellipse cx="197.532" cy="75.5797" rx="3.71406" ry="3.63013" transform="rotate(179.687 197.532 75.5797)" fill="#104E88"/>
<ellipse cx="185.46" cy="75.6461" rx="3.71406" ry="3.63013" transform="rotate(179.687 185.46 75.6461)" fill="#104E88"/>
<ellipse cx="173.389" cy="75.7105" rx="3.71406" ry="3.63013" transform="rotate(179.687 173.389 75.7105)" fill="#104E88"/>
<ellipse cx="161.318" cy="75.7789" rx="3.71406" ry="3.63013" transform="rotate(179.687 161.318 75.7789)" fill="#104E88"/>
<ellipse cx="149.247" cy="75.8453" rx="3.71406" ry="3.63013" transform="rotate(179.687 149.247 75.8453)" fill="#104E88"/>
<ellipse cx="137.175" cy="75.9098" rx="3.71406" ry="3.63013" transform="rotate(179.687 137.175 75.9098)" fill="#104E88"/>
<ellipse cx="125.104" cy="75.9762" rx="3.71406" ry="3.63013" transform="rotate(179.687 125.104 75.9762)" fill="#104E88"/>
<ellipse cx="113.033" cy="76.0406" rx="3.71406" ry="3.63013" transform="rotate(179.687 113.033 76.0406)" fill="#104E88"/>
<ellipse cx="100.962" cy="76.107" rx="3.71406" ry="3.63013" transform="rotate(179.687 100.962 76.107)" fill="#104E88"/>
<ellipse cx="88.8912" cy="76.1734" rx="3.71406" ry="3.63013" transform="rotate(179.687 88.8912 76.1734)" fill="#104E88"/>
<ellipse cx="76.8199" cy="76.2398" rx="3.71406" ry="3.63013" transform="rotate(179.687 76.8199 76.2398)" fill="#104E88"/>
<ellipse cx="64.7486" cy="76.3062" rx="3.71406" ry="3.63013" transform="rotate(179.687 64.7486 76.3062)" fill="#104E88"/>
<ellipse cx="52.6778" cy="76.3726" rx="3.71406" ry="3.63013" transform="rotate(179.687 52.6778 76.3726)" fill="#104E88"/>
<ellipse cx="40.6065" cy="76.439" rx="3.71406" ry="3.63013" transform="rotate(179.687 40.6065 76.439)" fill="#104E88"/>
<ellipse cx="28.5352" cy="76.5055" rx="3.71406" ry="3.63013" transform="rotate(179.687 28.5352 76.5055)" fill="#104E88"/>
<ellipse cx="16.4644" cy="76.568" rx="3.71406" ry="3.63013" transform="rotate(179.687 16.4644 76.568)" fill="#104E88"/>
<ellipse cx="4.39311" cy="76.6344" rx="3.71406" ry="3.63013" transform="rotate(179.687 4.39311 76.6344)" fill="#104E88"/>
<ellipse cx="281.965" cy="63.3219" rx="3.71406" ry="3.63013" transform="rotate(179.687 281.965 63.3219)" fill="#104E88"/>
<ellipse cx="269.893" cy="63.3863" rx="3.71406" ry="3.63013" transform="rotate(179.687 269.893 63.3863)" fill="#104E88"/>
<ellipse cx="257.823" cy="63.4527" rx="3.71406" ry="3.63013" transform="rotate(179.687 257.823 63.4527)" fill="#104E88"/>
<ellipse cx="245.752" cy="63.5172" rx="3.71406" ry="3.63013" transform="rotate(179.687 245.752 63.5172)" fill="#104E88"/>
<ellipse cx="233.68" cy="63.5836" rx="3.71406" ry="3.63013" transform="rotate(179.687 233.68 63.5836)" fill="#104E88"/>
<ellipse cx="221.609" cy="63.65" rx="3.71406" ry="3.63013" transform="rotate(179.687 221.609 63.65)" fill="#104E88"/>
<ellipse cx="209.538" cy="63.7164" rx="3.71406" ry="3.63013" transform="rotate(179.687 209.538 63.7164)" fill="#104E88"/>
<ellipse cx="197.467" cy="63.7808" rx="3.71406" ry="3.63013" transform="rotate(179.687 197.467 63.7808)" fill="#104E88"/>
<ellipse cx="185.395" cy="63.8492" rx="3.71406" ry="3.63013" transform="rotate(179.687 185.395 63.8492)" fill="#104E88"/>
<ellipse cx="173.325" cy="63.9156" rx="3.71406" ry="3.63013" transform="rotate(179.687 173.325 63.9156)" fill="#104E88"/>
<ellipse cx="161.253" cy="63.9801" rx="3.71406" ry="3.63013" transform="rotate(179.687 161.253 63.9801)" fill="#104E88"/>
<ellipse cx="149.182" cy="64.0465" rx="3.71406" ry="3.63013" transform="rotate(179.687 149.182 64.0465)" fill="#104E88"/>
<ellipse cx="137.111" cy="64.1129" rx="3.71406" ry="3.63013" transform="rotate(179.687 137.111 64.1129)" fill="#104E88"/>
<ellipse cx="125.04" cy="64.1793" rx="3.71406" ry="3.63013" transform="rotate(179.687 125.04 64.1793)" fill="#104E88"/>
<ellipse cx="112.969" cy="64.2457" rx="3.71406" ry="3.63013" transform="rotate(179.687 112.969 64.2457)" fill="#104E88"/>
<ellipse cx="100.898" cy="64.3101" rx="3.71406" ry="3.63013" transform="rotate(179.687 100.898 64.3101)" fill="#104E88"/>
<ellipse cx="88.8267" cy="64.3765" rx="3.71406" ry="3.63013" transform="rotate(179.687 88.8267 64.3765)" fill="#104E88"/>
<ellipse cx="76.7554" cy="64.441" rx="3.71406" ry="3.63013" transform="rotate(179.687 76.7554 64.441)" fill="#104E88"/>
<ellipse cx="64.6851" cy="64.5074" rx="3.71406" ry="3.63013" transform="rotate(179.687 64.6851 64.5074)" fill="#104E88"/>
<ellipse cx="52.6133" cy="64.5719" rx="3.71406" ry="3.63013" transform="rotate(179.687 52.6133 64.5719)" fill="#104E88"/>
<ellipse cx="40.5425" cy="64.6383" rx="3.71406" ry="3.63013" transform="rotate(179.687 40.5425 64.6383)" fill="#104E88"/>
<ellipse cx="28.4712" cy="64.7047" rx="3.71406" ry="3.63013" transform="rotate(179.687 28.4712 64.7047)" fill="#104E88"/>
<ellipse cx="16.3995" cy="64.7711" rx="3.71406" ry="3.63013" transform="rotate(179.687 16.3995 64.7711)" fill="#104E88"/>
<ellipse cx="4.32866" cy="64.8355" rx="3.71406" ry="3.63013" transform="rotate(179.687 4.32866 64.8355)" fill="#104E88"/>
<ellipse cx="281.9" cy="51.523" rx="3.71406" ry="3.63013" transform="rotate(179.687 281.9 51.523)" fill="#104E88"/>
<ellipse cx="269.83" cy="51.5855" rx="3.71406" ry="3.63013" transform="rotate(179.687 269.83 51.5855)" fill="#104E88"/>
<ellipse cx="257.758" cy="51.6539" rx="3.71406" ry="3.63013" transform="rotate(179.687 257.758 51.6539)" fill="#104E88"/>
<ellipse cx="245.687" cy="51.7222" rx="3.71406" ry="3.63013" transform="rotate(179.687 245.687 51.7222)" fill="#104E88"/>
<ellipse cx="233.616" cy="51.7847" rx="3.71406" ry="3.63013" transform="rotate(179.687 233.616 51.7847)" fill="#104E88"/>
<ellipse cx="221.544" cy="51.8512" rx="3.71406" ry="3.63013" transform="rotate(179.687 221.544 51.8512)" fill="#104E88"/>
<ellipse cx="209.473" cy="51.9195" rx="3.71406" ry="3.63013" transform="rotate(179.687 209.473 51.9195)" fill="#104E88"/>
<ellipse cx="197.403" cy="51.982" rx="3.71406" ry="3.63013" transform="rotate(179.687 197.403 51.982)" fill="#104E88"/>
<ellipse cx="185.332" cy="52.0504" rx="3.71406" ry="3.63013" transform="rotate(179.687 185.332 52.0504)" fill="#104E88"/>
<ellipse cx="173.26" cy="52.1129" rx="3.71406" ry="3.63013" transform="rotate(179.687 173.26 52.1129)" fill="#104E88"/>
<ellipse cx="161.189" cy="52.1793" rx="3.71406" ry="3.63013" transform="rotate(179.687 161.189 52.1793)" fill="#104E88"/>
<ellipse cx="149.118" cy="52.2476" rx="3.71406" ry="3.63013" transform="rotate(179.687 149.118 52.2476)" fill="#104E88"/>
<ellipse cx="137.047" cy="52.3121" rx="3.71406" ry="3.63013" transform="rotate(179.687 137.047 52.3121)" fill="#104E88"/>
<ellipse cx="124.975" cy="52.3785" rx="3.71406" ry="3.63013" transform="rotate(179.687 124.975 52.3785)" fill="#104E88"/>
<ellipse cx="112.905" cy="52.4469" rx="3.71406" ry="3.63013" transform="rotate(179.687 112.905 52.4469)" fill="#104E88"/>
<ellipse cx="100.834" cy="52.5113" rx="3.71406" ry="3.63013" transform="rotate(179.687 100.834 52.5113)" fill="#104E88"/>
<ellipse cx="88.7623" cy="52.5758" rx="3.71406" ry="3.63013" transform="rotate(179.687 88.7623 52.5758)" fill="#104E88"/>
<ellipse cx="76.691" cy="52.6402" rx="3.71406" ry="3.63013" transform="rotate(179.687 76.691 52.6402)" fill="#104E88"/>
<ellipse cx="64.6197" cy="52.7086" rx="3.71406" ry="3.63013" transform="rotate(179.687 64.6197 52.7086)" fill="#104E88"/>
<ellipse cx="52.5489" cy="52.773" rx="3.71406" ry="3.63013" transform="rotate(179.687 52.5489 52.773)" fill="#104E88"/>
<ellipse cx="40.4776" cy="52.8394" rx="3.71406" ry="3.63013" transform="rotate(179.687 40.4776 52.8394)" fill="#104E88"/>
<ellipse cx="28.4068" cy="52.9058" rx="3.71406" ry="3.63013" transform="rotate(179.687 28.4068 52.9058)" fill="#104E88"/>
<ellipse cx="16.335" cy="52.9722" rx="3.71406" ry="3.63013" transform="rotate(179.687 16.335 52.9722)" fill="#104E88"/>
<ellipse cx="4.26421" cy="53.0387" rx="3.71406" ry="3.63013" transform="rotate(179.687 4.26421 53.0387)" fill="#104E88"/>
<ellipse cx="281.836" cy="39.7242" rx="3.71406" ry="3.63013" transform="rotate(179.687 281.836 39.7242)" fill="#104E88"/>
<ellipse cx="269.765" cy="39.7867" rx="3.71406" ry="3.63013" transform="rotate(179.687 269.765 39.7867)" fill="#104E88"/>
<ellipse cx="257.694" cy="39.8551" rx="3.71406" ry="3.63013" transform="rotate(179.687 257.694 39.8551)" fill="#104E88"/>
<ellipse cx="245.623" cy="39.9215" rx="3.71406" ry="3.63013" transform="rotate(179.687 245.623 39.9215)" fill="#104E88"/>
<ellipse cx="233.551" cy="39.9859" rx="3.71406" ry="3.63013" transform="rotate(179.687 233.551 39.9859)" fill="#104E88"/>
<ellipse cx="221.481" cy="40.0523" rx="3.71406" ry="3.63013" transform="rotate(179.687 221.481 40.0523)" fill="#104E88"/>
<ellipse cx="209.409" cy="40.1207" rx="3.71406" ry="3.63013" transform="rotate(179.687 209.409 40.1207)" fill="#104E88"/>
<ellipse cx="197.337" cy="40.1851" rx="3.71406" ry="3.63013" transform="rotate(179.687 197.337 40.1851)" fill="#104E88"/>
<ellipse cx="185.267" cy="40.2496" rx="3.71406" ry="3.63013" transform="rotate(179.687 185.267 40.2496)" fill="#104E88"/>
<ellipse cx="173.196" cy="40.316" rx="3.71406" ry="3.63013" transform="rotate(179.687 173.196 40.316)" fill="#104E88"/>
<ellipse cx="161.125" cy="40.3824" rx="3.71406" ry="3.63013" transform="rotate(179.687 161.125 40.3824)" fill="#104E88"/>
<ellipse cx="149.053" cy="40.4488" rx="3.71406" ry="3.63013" transform="rotate(179.687 149.053 40.4488)" fill="#104E88"/>
<ellipse cx="136.983" cy="40.5133" rx="3.71406" ry="3.63013" transform="rotate(179.687 136.983 40.5133)" fill="#104E88"/>
<ellipse cx="124.911" cy="40.5816" rx="3.71406" ry="3.63013" transform="rotate(179.687 124.911 40.5816)" fill="#104E88"/>
<ellipse cx="112.84" cy="40.648" rx="3.71406" ry="3.63013" transform="rotate(179.687 112.84 40.648)" fill="#104E88"/>
<ellipse cx="100.768" cy="40.7125" rx="3.71406" ry="3.63013" transform="rotate(179.687 100.768 40.7125)" fill="#104E88"/>
<ellipse cx="88.6978" cy="40.7789" rx="3.71406" ry="3.63013" transform="rotate(179.687 88.6978 40.7789)" fill="#104E88"/>
<ellipse cx="76.6265" cy="40.8453" rx="3.71406" ry="3.63013" transform="rotate(179.687 76.6265 40.8453)" fill="#104E88"/>
<ellipse cx="64.5557" cy="40.9097" rx="3.71406" ry="3.63013" transform="rotate(179.687 64.5557 40.9097)" fill="#104E88"/>
<ellipse cx="52.4844" cy="40.9762" rx="3.71406" ry="3.63013" transform="rotate(179.687 52.4844 40.9762)" fill="#104E88"/>
<ellipse cx="40.4131" cy="41.0406" rx="3.71406" ry="3.63013" transform="rotate(179.687 40.4131 41.0406)" fill="#104E88"/>
<ellipse cx="28.3418" cy="41.109" rx="3.71406" ry="3.63013" transform="rotate(179.687 28.3418 41.109)" fill="#104E88"/>
<ellipse cx="16.2706" cy="41.1754" rx="3.71406" ry="3.63013" transform="rotate(179.687 16.2706 41.1754)" fill="#104E88"/>
<ellipse cx="4.19975" cy="41.2379" rx="3.71406" ry="3.63013" transform="rotate(179.687 4.19975 41.2379)" fill="#104E88"/>
<ellipse cx="281.771" cy="27.9254" rx="3.71406" ry="3.63013" transform="rotate(179.687 281.771 27.9254)" fill="#104E88"/>
<ellipse cx="269.701" cy="27.9898" rx="3.71406" ry="3.63013" transform="rotate(179.687 269.701 27.9898)" fill="#104E88"/>
<ellipse cx="257.628" cy="28.0582" rx="3.71406" ry="3.63013" transform="rotate(179.687 257.628 28.0582)" fill="#104E88"/>
<ellipse cx="245.558" cy="28.1226" rx="3.71406" ry="3.63013" transform="rotate(179.687 245.558 28.1226)" fill="#104E88"/>
<ellipse cx="233.487" cy="28.1871" rx="3.71406" ry="3.63013" transform="rotate(179.687 233.487 28.1871)" fill="#104E88"/>
<ellipse cx="221.416" cy="28.2574" rx="3.71406" ry="3.63013" transform="rotate(179.687 221.416 28.2574)" fill="#104E88"/>
<ellipse cx="209.344" cy="28.3219" rx="3.71406" ry="3.63013" transform="rotate(179.687 209.344 28.3219)" fill="#104E88"/>
<ellipse cx="197.274" cy="28.3863" rx="3.71406" ry="3.63013" transform="rotate(179.687 197.274 28.3863)" fill="#104E88"/>
<ellipse cx="185.203" cy="28.4527" rx="3.71406" ry="3.63013" transform="rotate(179.687 185.203 28.4527)" fill="#104E88"/>
<ellipse cx="173.131" cy="28.5191" rx="3.71406" ry="3.63013" transform="rotate(179.687 173.131 28.5191)" fill="#104E88"/>
<ellipse cx="161.06" cy="28.5836" rx="3.71406" ry="3.63013" transform="rotate(179.687 161.06 28.5836)" fill="#104E88"/>
<ellipse cx="148.989" cy="28.6519" rx="3.71406" ry="3.63013" transform="rotate(179.687 148.989 28.6519)" fill="#104E88"/>
<ellipse cx="136.918" cy="28.7144" rx="3.71406" ry="3.63013" transform="rotate(179.687 136.918 28.7144)" fill="#104E88"/>
<ellipse cx="124.846" cy="28.7828" rx="3.71406" ry="3.63013" transform="rotate(179.687 124.846 28.7828)" fill="#104E88"/>
<ellipse cx="112.776" cy="28.8492" rx="3.71406" ry="3.63013" transform="rotate(179.687 112.776 28.8492)" fill="#104E88"/>
<ellipse cx="100.705" cy="28.9137" rx="3.71406" ry="3.63013" transform="rotate(179.687 100.705 28.9137)" fill="#104E88"/>
<ellipse cx="88.6333" cy="28.9801" rx="3.71406" ry="3.63013" transform="rotate(179.687 88.6333 28.9801)" fill="#104E88"/>
<ellipse cx="76.5621" cy="29.0484" rx="3.71406" ry="3.63013" transform="rotate(179.687 76.5621 29.0484)" fill="#104E88"/>
<ellipse cx="64.4903" cy="29.1129" rx="3.71406" ry="3.63013" transform="rotate(179.687 64.4903 29.1129)" fill="#104E88"/>
<ellipse cx="52.42" cy="29.1773" rx="3.71406" ry="3.63013" transform="rotate(179.687 52.42 29.1773)" fill="#104E88"/>
<ellipse cx="40.3482" cy="29.2476" rx="3.71406" ry="3.63013" transform="rotate(179.687 40.3482 29.2476)" fill="#104E88"/>
<ellipse cx="28.2769" cy="29.3101" rx="3.71406" ry="3.63013" transform="rotate(179.687 28.2769 29.3101)" fill="#104E88"/>
<ellipse cx="16.2061" cy="29.3765" rx="3.71406" ry="3.63013" transform="rotate(179.687 16.2061 29.3765)" fill="#104E88"/>
<ellipse cx="4.1353" cy="29.443" rx="3.71406" ry="3.63013" transform="rotate(179.687 4.1353 29.443)" fill="#104E88"/>
<ellipse cx="281.707" cy="16.1265" rx="3.71406" ry="3.63013" transform="rotate(179.687 281.707 16.1265)" fill="#104E88"/>
<ellipse cx="269.635" cy="16.1949" rx="3.71406" ry="3.63013" transform="rotate(179.687 269.635 16.1949)" fill="#104E88"/>
<ellipse cx="257.565" cy="16.2574" rx="3.71406" ry="3.63013" transform="rotate(179.687 257.565 16.2574)" fill="#104E88"/>
<ellipse cx="245.494" cy="16.3258" rx="3.71406" ry="3.63013" transform="rotate(179.687 245.494 16.3258)" fill="#104E88"/>
<ellipse cx="233.421" cy="16.3941" rx="3.71406" ry="3.63013" transform="rotate(179.687 233.421 16.3941)" fill="#104E88"/>
<ellipse cx="221.351" cy="16.4566" rx="3.71406" ry="3.63013" transform="rotate(179.687 221.351 16.4566)" fill="#104E88"/>
<ellipse cx="209.28" cy="16.523" rx="3.71406" ry="3.63013" transform="rotate(179.687 209.28 16.523)" fill="#104E88"/>
<ellipse cx="197.209" cy="16.5875" rx="3.71406" ry="3.63013" transform="rotate(179.687 197.209 16.5875)" fill="#104E88"/>
<ellipse cx="185.138" cy="16.6539" rx="3.71406" ry="3.63013" transform="rotate(179.687 185.138 16.6539)" fill="#104E88"/>
<ellipse cx="173.066" cy="16.7222" rx="3.71406" ry="3.63013" transform="rotate(179.687 173.066 16.7222)" fill="#104E88"/>
<ellipse cx="160.996" cy="16.7847" rx="3.71406" ry="3.63013" transform="rotate(179.687 160.996 16.7847)" fill="#104E88"/>
<ellipse cx="148.924" cy="16.8531" rx="3.71406" ry="3.63013" transform="rotate(179.687 148.924 16.8531)" fill="#104E88"/>
<ellipse cx="136.853" cy="16.9176" rx="3.71406" ry="3.63013" transform="rotate(179.687 136.853 16.9176)" fill="#104E88"/>
<ellipse cx="124.782" cy="16.984" rx="3.71406" ry="3.63013" transform="rotate(179.687 124.782 16.984)" fill="#104E88"/>
<ellipse cx="112.711" cy="17.0504" rx="3.71406" ry="3.63013" transform="rotate(179.687 112.711 17.0504)" fill="#104E88"/>
<ellipse cx="100.64" cy="17.1129" rx="3.71406" ry="3.63013" transform="rotate(179.687 100.64 17.1129)" fill="#104E88"/>
<ellipse cx="88.5689" cy="17.1812" rx="3.71406" ry="3.63013" transform="rotate(179.687 88.5689 17.1812)" fill="#104E88"/>
<ellipse cx="76.4976" cy="17.2476" rx="3.71406" ry="3.63013" transform="rotate(179.687 76.4976 17.2476)" fill="#104E88"/>
<ellipse cx="64.4268" cy="17.3121" rx="3.71406" ry="3.63013" transform="rotate(179.687 64.4268 17.3121)" fill="#104E88"/>
<ellipse cx="52.355" cy="17.3805" rx="3.71406" ry="3.63013" transform="rotate(179.687 52.355 17.3805)" fill="#104E88"/>
<ellipse cx="40.2842" cy="17.4469" rx="3.71406" ry="3.63013" transform="rotate(179.687 40.2842 17.4469)" fill="#104E88"/>
<ellipse cx="28.2129" cy="17.5094" rx="3.71406" ry="3.63013" transform="rotate(179.687 28.2129 17.5094)" fill="#104E88"/>
<ellipse cx="16.1416" cy="17.5777" rx="3.71406" ry="3.63013" transform="rotate(179.687 16.1416 17.5777)" fill="#104E88"/>
<ellipse cx="4.07036" cy="17.6441" rx="3.71406" ry="3.63013" transform="rotate(179.687 4.07036 17.6441)" fill="#104E88"/>
<ellipse cx="281.642" cy="4.32772" rx="3.71406" ry="3.63013" transform="rotate(179.687 281.642 4.32772)" fill="#104E88"/>
<ellipse cx="269.572" cy="4.39412" rx="3.71406" ry="3.63013" transform="rotate(179.687 269.572 4.39412)" fill="#104E88"/>
<ellipse cx="257.501" cy="4.46053" rx="3.71406" ry="3.63013" transform="rotate(179.687 257.501 4.46053)" fill="#104E88"/>
<ellipse cx="245.429" cy="4.52498" rx="3.71406" ry="3.63013" transform="rotate(179.687 245.429 4.52498)" fill="#104E88"/>
<ellipse cx="233.358" cy="4.59334" rx="3.71406" ry="3.63013" transform="rotate(179.687 233.358 4.59334)" fill="#104E88"/>
<ellipse cx="221.287" cy="4.6578" rx="3.71406" ry="3.63013" transform="rotate(179.687 221.287 4.6578)" fill="#104E88"/>
<ellipse cx="209.216" cy="4.72225" rx="3.71406" ry="3.63013" transform="rotate(179.687 209.216 4.72225)" fill="#104E88"/>
<ellipse cx="197.144" cy="4.79256" rx="3.71406" ry="3.63013" transform="rotate(179.687 197.144 4.79256)" fill="#104E88"/>
<ellipse cx="185.074" cy="4.85701" rx="3.71406" ry="3.63013" transform="rotate(179.687 185.074 4.85701)" fill="#104E88"/>
<ellipse cx="173.002" cy="4.92147" rx="3.71406" ry="3.63013" transform="rotate(179.687 173.002 4.92147)" fill="#104E88"/>
<ellipse cx="160.931" cy="4.98787" rx="3.71406" ry="3.63013" transform="rotate(179.687 160.931 4.98787)" fill="#104E88"/>
<ellipse cx="148.86" cy="5.05428" rx="3.71406" ry="3.63013" transform="rotate(179.687 148.86 5.05428)" fill="#104E88"/>
<ellipse cx="136.789" cy="5.11873" rx="3.71406" ry="3.63013" transform="rotate(179.687 136.789 5.11873)" fill="#104E88"/>
<ellipse cx="124.717" cy="5.18514" rx="3.71406" ry="3.63013" transform="rotate(179.687 124.717 5.18514)" fill="#104E88"/>
<ellipse cx="112.646" cy="5.2535" rx="3.71406" ry="3.63013" transform="rotate(179.687 112.646 5.2535)" fill="#104E88"/>
<ellipse cx="100.576" cy="5.31795" rx="3.71406" ry="3.63013" transform="rotate(179.687 100.576 5.31795)" fill="#104E88"/>
<ellipse cx="88.5044" cy="5.3824" rx="3.71406" ry="3.63013" transform="rotate(179.687 88.5044 5.3824)" fill="#104E88"/>
<ellipse cx="76.4332" cy="5.45076" rx="3.71406" ry="3.63013" transform="rotate(179.687 76.4332 5.45076)" fill="#104E88"/>
<ellipse cx="64.3619" cy="5.51717" rx="3.71406" ry="3.63013" transform="rotate(179.687 64.3619 5.51717)" fill="#104E88"/>
<ellipse cx="52.2906" cy="5.58162" rx="3.71406" ry="3.63013" transform="rotate(179.687 52.2906 5.58162)" fill="#104E88"/>
<ellipse cx="40.2193" cy="5.64803" rx="3.71406" ry="3.63013" transform="rotate(179.687 40.2193 5.64803)" fill="#104E88"/>
<ellipse cx="28.148" cy="5.71248" rx="3.71406" ry="3.63013" transform="rotate(179.687 28.148 5.71248)" fill="#104E88"/>
<ellipse cx="16.0777" cy="5.77889" rx="3.71406" ry="3.63013" transform="rotate(179.687 16.0777 5.77889)" fill="#104E88"/>
<ellipse cx="4.00591" cy="5.84725" rx="3.71406" ry="3.63013" transform="rotate(179.687 4.00591 5.84725)" fill="#104E88"/>
</g>
</g>
</svg>
