<svg width="156" height="33" viewBox="0 0 156 33" fill="none" xmlns="http://www.w3.org/2000/svg">
<path fill-rule="evenodd" clip-rule="evenodd" d="M48.7976 11.4372C47.3232 11.4372 45.6532 12.1906 44.6903 16.7902C43.6198 21.9056 45.7549 22.2325 46.7899 22.2325C47.731 22.2325 49.7348 21.7167 50.7313 16.819C51.4305 13.3912 50.8745 11.4372 48.7976 11.4372ZM56.124 16.8192C54.776 24.5594 49.9883 25.5483 45.9363 25.5483C41.9356 25.5483 38.251 22.7754 39.2929 16.7795C40.1077 12.0944 42.8719 7.75822 49.5942 8.09017C54.2822 8.32074 57.0395 11.5528 56.124 16.8192Z" fill="white"/>
<path fill-rule="evenodd" clip-rule="evenodd" d="M66.333 24.885L66.0811 25.1364C65.0768 25.3272 63.8976 25.4843 63.2577 25.4843C60.8885 25.4843 57.4133 25.1245 58.8828 19.1097C59.8782 15.0448 60.5913 12.0036 60.5913 12.0036L58.3959 12.0672L58.2073 11.8157L59.1178 8.62545L59.3371 8.46842H61.407L62.3175 4.39558L62.5358 4.17594C64.8901 3.63926 65.5172 3.48024 67.682 2.84814L67.8696 3.03897L66.489 8.53202L69.6897 8.46842L69.8141 8.68905C69.3757 10.0159 69.2492 10.3637 68.8424 11.8465L68.5925 12.0672L65.7059 12.0036C65.7059 12.0036 65.1192 14.4544 64.2986 17.8654C63.4117 21.5516 63.8789 21.3657 64.7657 21.7166C65.5242 22.0187 66.5196 21.6321 67.0845 21.4432L67.2741 21.6033L66.333 24.885Z" fill="white"/>
<path fill-rule="evenodd" clip-rule="evenodd" d="M75.1428 21.7296C76.6291 21.9075 78.2487 21.4135 79.3459 20.4962C80.6001 19.4238 81.7299 17.2145 81.7299 14.8153C81.7299 12.1617 80.0362 11.8476 79.4091 11.8476C78.5005 11.8476 77.8083 12.3207 77.1495 12.762L75.1428 21.7296ZM77.6841 9.63738C78.5008 9.06988 79.8488 8.12174 81.8871 8.12174C85.0246 8.12174 87.1262 10.4881 87.1262 14.4983C87.1262 16.7723 86.342 19.4557 84.7106 21.4444C81.6047 25.2648 77.6841 25.232 74.3579 25.232L72.5734 32.7774L72.3532 32.9344C71.6313 32.9344 70.941 32.9056 70.22 32.9056C69.1525 32.9056 68.2113 32.9672 67.0519 33L66.8949 32.7774C66.8949 32.7774 67.999 29.4321 69.3747 23.6786C70.8195 17.6419 72.1695 10.5696 72.288 9.12952L72.5072 8.91087L77.8717 8.02832L78.0593 8.24796L77.6841 9.63738Z" fill="white"/>
<path fill-rule="evenodd" clip-rule="evenodd" d="M91.2383 22.707C93.015 22.7905 95.63 22.7379 97.6694 21.3494C99.9911 19.7374 101.09 16.9288 101.09 14.9072C101.09 12.036 99.363 10.9298 97.3543 10.9298C95.7555 10.9298 94.6267 11.6255 93.6223 12.2566C93.6223 12.2566 91.4329 21.9318 91.2383 22.707ZM87.4113 25.0103C87.6196 24.0523 88.9726 18.4439 90.3532 12.1359C91.5373 6.72532 92.3609 3.34819 92.6503 0.826769L92.9002 0.606133L96.3201 0.00683594L96.4771 0.22946L95.5992 3.73281L94.1544 9.79336C95.4738 9.06685 96.728 8.37215 98.7357 8.37215C101.841 8.37215 104.445 10.4881 104.445 14.4675C104.445 16.0765 103.943 19.1068 101.841 21.5378C99.0181 24.7897 95.536 25.0103 91.4889 25.1694H89.7636L87.5683 25.2002L87.4113 25.0103Z" fill="white"/>
<path fill-rule="evenodd" clip-rule="evenodd" d="M118.944 11.1206C118.472 11.1206 118.003 11.0898 117.531 11.0898C116.496 11.0898 114.457 11.1524 112.605 12.4146C109.312 14.6866 109.251 18.7614 109.251 18.9184C109.251 20.434 110.066 22.864 112.919 22.864C113.766 22.864 115.168 22.6633 116.684 21.3166L118.944 11.1206ZM121.264 15.1286C120.166 19.9906 119.948 21.1902 119.321 24.9479L119.101 25.1676L116.152 25.2322L115.994 25.0125L116.214 23.7494C115.681 24.1906 114.3 25.3584 111.633 25.3584C108.434 25.3584 105.831 23.0855 105.831 19.1398C105.831 16.6472 107.023 13.931 108.34 12.3518C111.257 8.91104 115.304 8.72021 118.19 8.72021L122.519 8.75102L122.675 9.00446L121.264 15.1286Z" fill="white"/>
<path fill-rule="evenodd" clip-rule="evenodd" d="M136.799 24.9799L136.547 25.1677L133.348 25.2641L133.221 25.0425C133.682 22.9166 135.615 15.7966 135.637 13.5813C135.659 11.688 134.478 11.0549 133.002 11.0549C131.059 11.0549 129.772 12.0359 128.831 12.7306C127.669 18.0348 127.293 19.7085 126.288 24.9799L126.071 25.1677L122.87 25.2641L122.714 25.0425C122.714 25.0425 123.665 21.1794 124.523 17.1612C125.199 14.0156 125.752 11.4227 126.008 9.25903L126.227 9.0364C127.701 8.84857 128.048 8.78496 129.551 8.46891L129.708 8.68855L129.269 10.2996C130.493 9.47768 132.062 8.37549 134.665 8.37549C135.7 8.37549 139.088 8.65675 139.088 12.4781C139.088 14.762 137.106 22.7497 136.799 24.9799Z" fill="white"/>
<path fill-rule="evenodd" clip-rule="evenodd" d="M148.785 15.5647L153.648 24.8771L153.458 25.1286L149.977 25.225L149.724 25.0342C148.914 22.8169 145.365 15.8489 145.365 15.8489C144.456 19.8582 144.267 20.8043 143.483 24.9716L143.262 25.1604L140.095 25.225L139.97 25.0342C139.97 25.0342 141.644 18.0344 143.093 11.5555C143.769 8.52618 144.821 3.72783 145.239 0.819803L145.461 0.629976L148.879 0.0634766L149.066 0.285107C148.435 2.46563 145.461 15.4057 145.461 15.4057C147.708 13.4229 151.45 9.47035 151.952 8.93367L152.298 8.74384H155.906L156 9.02808C155.109 9.7377 153.458 11.2394 152.863 11.7751L148.785 15.5647Z" fill="white"/>
<path fill-rule="evenodd" clip-rule="evenodd" d="M15.4762 0V5.63319C10.0198 5.64313 5.5995 10.0986 5.5995 15.5917C5.5995 21.0917 10.0297 25.5501 15.4939 25.5501C20.9265 25.5501 25.3893 21.1324 25.3893 15.5549L30.9888 15.5589C30.9888 24.2034 24.0512 31.1853 15.4939 31.1853C6.93667 31.1853 0 24.2034 0 15.5917C0 6.98683 6.92877 0.00894473 15.4762 0Z" fill="white"/>
<path fill-rule="evenodd" clip-rule="evenodd" d="M15.531 8.67432C19.3282 8.67432 22.4045 11.7722 22.4045 15.5916C22.4045 19.412 19.3282 22.5068 15.532 22.5068C11.7368 22.5068 8.65955 19.412 8.65955 15.5916C8.65955 11.7722 11.7368 8.67432 15.531 8.67432Z" fill="white"/>
<path fill-rule="evenodd" clip-rule="evenodd" d="M24.2382 2.86719C26.4129 2.86719 28.1757 4.64421 28.1757 6.83268C28.1757 9.02017 26.4129 10.7952 24.2382 10.7952C22.0636 10.7952 20.2988 9.02017 20.2988 6.83268C20.2988 4.64421 22.0636 2.86719 24.2382 2.86719Z" fill="white"/>
</svg>
