<svg width="180" height="40" viewBox="0 0 180 40" fill="none" xmlns="http://www.w3.org/2000/svg">
<g clip-path="url(#clip0)">
<path d="M0 15.6622C-3.44388e-06 11.5118 1.63214 7.53114 4.53795 4.5945C7.44375 1.65786 11.3856 0.00537147 15.4977 0V5.66216C13.5384 5.66885 11.6251 6.2617 9.99958 7.36577C8.37409 8.46983 7.10942 10.0355 6.36545 11.865C5.62147 13.6944 5.43161 15.7053 5.81985 17.6436C6.20809 19.582 7.15701 21.3606 8.54664 22.7546C9.93627 24.1487 11.7042 25.0956 13.627 25.4757C15.5497 25.8557 17.541 25.6519 19.349 24.8899C21.157 24.1279 22.7005 22.8419 23.7845 21.1946C24.8685 19.5473 25.4442 17.6126 25.439 15.6351H31.0422C31.0458 19.7899 29.4139 23.7759 26.5057 26.7163C23.5974 29.6567 19.651 31.3106 15.5345 31.3142C11.418 31.3178 7.46878 29.6707 4.5555 26.7354C1.64221 23.8001 0.00355096 19.8169 0 15.6622H0Z" fill="white"/>
<path d="M8.70264 15.6621C8.70132 14.287 9.10403 12.9424 9.85986 11.7982C10.6157 10.6541 11.6907 9.76194 12.9489 9.23447C14.2071 8.707 15.5921 8.56796 16.9286 8.83492C18.2651 9.10188 19.4932 9.76286 20.4575 10.7343C21.4218 11.7057 22.0791 12.9439 22.3462 14.2923C22.6133 15.6407 22.4782 17.0388 21.958 18.3098C21.4379 19.5807 20.556 20.6675 19.4239 21.4325C18.2918 22.1976 16.9604 22.6067 15.5979 22.608C13.7715 22.608 12.0197 21.8767 10.727 20.5744C9.43422 19.2722 8.70619 17.5055 8.70264 15.6621Z" fill="white"/>
<path d="M20.3311 6.85807C20.3311 6.06962 20.5627 5.29887 20.9967 4.6433C21.4307 3.98772 22.0476 3.47676 22.7693 3.17504C23.491 2.87331 24.2852 2.79436 25.0513 2.94818C25.8175 3.102 26.5213 3.48168 27.0737 4.0392C27.626 4.59672 28.0022 5.30704 28.1546 6.08035C28.307 6.85365 28.2288 7.6552 27.9299 8.38363C27.6309 9.11207 27.1247 9.73467 26.4751 10.1727C25.8256 10.6108 25.062 10.8446 24.2808 10.8446C23.2333 10.8446 22.2286 10.4246 21.4879 9.67694C20.7472 8.92933 20.3311 7.91535 20.3311 6.85807Z" fill="white"/>
<path d="M136.567 24.1555L136.353 24.3041H128.487L124.323 24.3379L124.169 24.1825L125.702 17.6825L127.235 10.9257L128.949 2.96628L129.129 2.81088L132.55 2.75007L132.671 2.9325L130.863 10.2974L129.524 16.0001L128.252 21.7839H132.169L134.237 21.7366L137.136 21.642L137.29 21.8582L136.567 24.1555ZM176.834 24.1555L176.593 24.3311L173.46 24.4257L173.34 24.2095L174.618 18.7568L175.381 15.3109C175.462 14.973 175.535 14.6352 175.596 14.2501C175.657 13.8884 175.688 13.5223 175.689 13.1555C175.729 12.8001 175.682 12.4404 175.551 12.108C175.42 11.7757 175.21 11.481 174.94 11.2501C174.403 10.8844 173.766 10.6999 173.119 10.723C172.688 10.7179 172.258 10.7678 171.84 10.8717C171.46 10.967 171.09 11.1006 170.736 11.2703C170.413 11.4177 170.106 11.5965 169.818 11.8041C169.544 11.9933 169.283 12.169 169.062 12.3379C168.814 13.4325 168.567 14.5339 168.326 15.6284C168.131 16.5068 167.937 17.3852 167.756 18.2636L167.221 20.8784C167.04 21.7839 166.826 22.9055 166.585 24.1555L166.371 24.3379L163.244 24.4325L163.09 24.2163L164.369 18.9933L164.858 16.7095C165.065 15.8176 165.233 15.0676 165.367 14.4595C165.5 13.8514 165.614 13.2839 165.715 12.7568C165.815 12.2298 165.916 11.6825 166.009 11.1149C166.103 10.5474 166.21 9.84466 166.331 9.01358L166.545 8.80412C166.906 8.76358 167.214 8.72304 167.462 8.6825C167.71 8.64196 167.944 8.60142 168.165 8.58115C168.386 8.56088 168.627 8.50007 168.874 8.45277L169.798 8.25682L169.952 8.47304L169.517 10.0001L170.501 9.36493C170.869 9.1423 171.251 8.94588 171.646 8.77709C172.102 8.58368 172.575 8.43217 173.059 8.32439C173.991 8.11292 174.956 8.08995 175.897 8.25682C176.401 8.33116 176.887 8.50079 177.33 8.75682C177.918 9.086 178.4 9.58028 178.716 10.1799C179.032 10.7794 179.169 11.4586 179.11 12.1352C179.107 12.5877 179.072 13.0394 179.003 13.4866C178.936 13.9933 178.843 14.5136 178.742 15.0541C178.642 15.5947 178.535 16.1217 178.421 16.6487C178.307 17.1757 178.2 17.6487 178.099 18.0811L177.638 20.1487L176.834 24.2028V24.1555ZM142.585 24.1555L142.371 24.3041L139.118 24.3987L138.97 24.2095C139.178 23.3649 139.345 22.6352 139.499 22.0271C139.653 21.419 139.807 20.8311 139.948 20.2568C140.088 19.6825 140.236 19.0879 140.376 18.4528C140.517 17.8176 140.697 17.0339 140.898 16.1217L141.293 14.223C141.441 13.5879 141.554 13.1014 141.635 12.6825C141.715 12.2636 141.795 11.8784 141.862 11.5203C141.929 11.1622 142.003 10.7771 142.063 10.392C142.123 10.0068 142.197 9.54061 142.277 8.99331L142.492 8.78385L145.839 8.29061L145.993 8.50007L145.511 10.4055C145.377 10.9257 145.25 11.4663 145.116 12.0136C144.982 12.5609 144.841 13.1757 144.687 13.8582C144.493 14.7095 144.306 15.5676 144.118 16.419L143.449 19.5541L142.592 24.1284L142.585 24.1555ZM147.01 4.00007L146.769 4.23655L143.576 4.66899L143.348 4.4325L144.018 1.64196L144.292 1.39196L147.486 1.00007L147.727 1.20953L147.057 4.00007H147.01ZM161.577 17.5136C161.38 18.2712 161.125 19.0122 160.814 19.7298C160.454 20.5874 159.956 21.3795 159.342 22.0744C158.658 22.8434 157.829 23.4681 156.905 23.9122C155.782 24.4553 154.548 24.726 153.303 24.7028C151.259 24.7028 149.697 24.187 148.617 23.1555C147.533 22.1149 146.99 20.5609 146.997 18.473C147.001 17.7935 147.061 17.1154 147.178 16.446C147.305 15.6755 147.5 14.918 147.76 14.1825C148.032 13.4064 148.385 12.6614 148.811 11.9595C149.259 11.2485 149.81 10.6086 150.445 10.0609C151.112 9.48315 151.873 9.02599 152.694 8.70953C153.646 8.35853 154.653 8.18899 155.666 8.20953C157.385 8.10275 159.077 8.67456 160.386 9.80412C160.967 10.3991 161.418 11.1109 161.708 11.8931C161.999 12.6754 162.123 13.5107 162.073 14.3447C162.073 14.8875 162.032 15.4295 161.952 15.9663C161.869 16.4928 161.755 17.014 161.611 17.5271L161.577 17.5136ZM158.384 16.5676C158.485 16.1352 158.572 15.6893 158.645 15.2163C158.718 14.7991 158.754 14.3763 158.752 13.9528C158.78 13.3194 158.671 12.6875 158.431 12.1014C158.249 11.678 157.972 11.3033 157.621 11.0068C157.318 10.7572 156.964 10.5794 156.583 10.4866C156.267 10.412 155.944 10.3713 155.619 10.3649C154.889 10.3529 154.169 10.5421 153.537 10.9122C152.955 11.2783 152.454 11.7612 152.065 12.3311C151.663 12.9199 151.336 13.5579 151.094 14.2298C150.859 14.8769 150.665 15.5381 150.512 16.2095C150.377 16.7691 150.285 17.3384 150.237 17.9122C150.237 18.2501 150.184 18.5879 150.17 18.9325C150.163 19.4644 150.251 19.9933 150.431 20.4933C150.584 20.8995 150.811 21.2731 151.101 21.5947C151.382 21.8802 151.726 22.0953 152.105 22.223C152.487 22.3521 152.887 22.4182 153.29 22.419C154.031 22.4388 154.763 22.2442 155.399 21.8582C155.977 21.4867 156.474 20.9992 156.858 20.4257C157.252 19.8374 157.567 19.199 157.795 18.5271C158.027 17.8776 158.22 17.2141 158.371 16.5406L158.384 16.5676ZM122.341 17.5136C122.141 18.2703 121.886 19.011 121.578 19.7298C121.213 20.5863 120.713 21.3779 120.099 22.0744C119.417 22.8432 118.591 23.4679 117.669 23.9122C116.534 24.4544 115.289 24.7205 114.033 24.6893C111.989 24.6893 110.427 24.1735 109.347 23.142C108.263 22.1014 107.721 20.5474 107.727 18.4595C107.751 17.0043 108.006 15.5625 108.484 14.1893C108.758 13.4116 109.115 12.6663 109.548 11.9663C109.984 11.2499 110.531 10.6089 111.168 10.0676C111.837 9.48835 112.6 9.03106 113.424 8.71628C114.373 8.36535 115.379 8.1958 116.39 8.21628C118.11 8.10987 119.805 8.68153 121.116 9.81088C121.698 10.4051 122.15 11.1167 122.44 11.8992C122.731 12.6817 122.855 13.5174 122.803 14.3514C122.801 14.8944 122.758 15.4364 122.676 15.973C122.595 16.4995 122.483 17.0206 122.341 17.5339V17.5136ZM119.161 16.5812C119.262 16.142 119.356 15.696 119.422 15.2298C119.494 14.8124 119.532 14.3899 119.536 13.9663C119.559 13.3326 119.447 12.7014 119.208 12.1149C119.029 11.6901 118.751 11.3148 118.398 11.0203C118.095 10.7707 117.741 10.5929 117.361 10.5001C117.044 10.4255 116.721 10.3848 116.397 10.3784C115.666 10.3664 114.946 10.5556 114.315 10.9257C113.732 11.2918 113.231 11.7748 112.842 12.3447C112.44 12.9334 112.114 13.5714 111.871 14.2433C111.637 14.8904 111.442 15.5516 111.289 16.223C111.157 16.7833 111.065 17.3523 111.014 17.9257C110.981 18.2636 110.961 18.6014 110.954 18.946C110.94 19.4785 111.028 20.0086 111.215 20.5068C111.363 20.9155 111.59 21.2901 111.885 21.6082C112.164 21.8934 112.505 22.1086 112.882 22.2366C113.264 22.3656 113.664 22.4317 114.067 22.4325C114.808 22.4523 115.54 22.2578 116.176 21.8717C116.756 21.5021 117.253 21.0142 117.635 20.4393C118.029 19.8509 118.344 19.2125 118.572 18.5406C118.802 17.8909 118.992 17.2275 119.141 16.5541L119.161 16.5812ZM107.52 10.9257L106.817 10.8852H104.808C104.701 11.3244 104.601 11.7636 104.514 12.2366C104.38 12.8717 104.233 13.5541 104.072 14.2636C103.911 14.973 103.757 15.669 103.624 16.2906C103.49 16.9122 103.396 17.3987 103.336 17.642C103.155 18.5339 102.988 19.3244 102.847 20.0136C102.706 20.7028 102.586 21.2839 102.499 21.8244C102.412 22.3649 102.325 22.7838 102.258 23.1757C102.191 23.5676 102.157 23.8514 102.111 24.169L101.896 24.3447H100.276C100.052 24.3381 99.8284 24.3517 99.6069 24.3852L98.8035 24.4528L98.6496 24.2703C98.7366 23.8649 98.8303 23.4055 98.9441 22.919C99.0579 22.4325 99.1784 21.8987 99.2989 21.3784C99.4194 20.8582 99.5399 20.3514 99.647 19.8447C99.7542 19.3379 99.8613 18.8852 99.9416 18.4933L101.629 10.892H99.3123L99.1249 10.7095C99.1918 10.4663 99.2454 10.2703 99.2989 10.1284C99.3461 9.99325 99.3863 9.85568 99.4194 9.71628C99.4529 9.5879 99.4797 9.44601 99.5265 9.29736L99.6805 8.66223L99.9215 8.45277L100.591 8.49331H102.151L102.579 6.52034C102.827 5.30412 103.075 4.29061 103.316 3.4798C103.483 2.90229 103.771 2.36766 104.16 1.91193C104.549 1.4562 105.03 1.08996 105.572 0.837905C105.89 0.707406 106.219 0.607854 106.556 0.540607C106.858 0.475285 107.165 0.430142 107.473 0.405472H108.142C108.603 0.391842 109.064 0.412166 109.521 0.466283L110.378 0.614932L110.532 0.864932C110.465 1.10142 110.412 1.30412 110.365 1.50007C110.318 1.69601 110.264 1.81088 110.224 1.96628C110.184 2.12169 110.144 2.27034 110.117 2.41899C110.09 2.56763 110.037 2.76358 109.977 2.98655L109.729 3.16899C109.321 3.01109 108.887 2.92869 108.45 2.92574C108.143 2.9263 107.837 2.97882 107.546 3.08115C107.258 3.17685 106.998 3.34412 106.79 3.56763C106.511 3.9267 106.31 4.34113 106.201 4.78385C105.993 5.50682 105.806 6.23655 105.632 6.97304L105.29 8.58115H107.58C107.793 8.58845 108.006 8.57259 108.216 8.53385L108.37 8.77709C108.303 9.00007 108.256 9.18926 108.203 9.34466C108.149 9.50007 108.102 9.64196 108.062 9.78385L107.941 10.2028L107.787 10.723L107.5 10.9257H107.52ZM45.2612 24.0676L45.047 24.2838L41.8604 24.3244L41.6797 24.1082L43.119 18.2433L43.9089 14.8649C44.2637 13.3447 44.5784 12.0744 44.7859 11.0609C44.9934 10.0474 45.2278 9.12169 45.4219 8.29061C45.616 7.45953 45.77 6.64872 45.9307 5.84466C46.0913 5.04061 46.2788 4.10818 46.4863 3.02709L46.7273 2.85142H48.8695H51.1657C52.5582 2.85142 53.723 2.85142 54.7138 2.94601C55.5996 2.98406 56.4641 3.23171 57.2376 3.66899C57.9426 4.11769 58.5194 4.74415 58.9112 5.48655C59.3723 6.37573 59.6026 7.36834 59.5807 8.37169C59.5833 9.23486 59.4383 10.092 59.1522 10.9055C58.8885 11.7077 58.4849 12.4559 57.9606 13.1149C57.4244 13.7896 56.7766 14.3656 56.046 14.8176C55.3444 15.2229 54.5893 15.5255 53.8034 15.7163C52.9634 15.9135 52.1075 16.0334 51.2461 16.0744C50.3624 16.1284 49.4453 16.169 48.508 16.1825H46.9549L46.0646 20.1352L45.2679 24.0676H45.2612ZM47.5306 13.6622H48.2938C49.1507 13.6622 50.0344 13.6622 50.9314 13.5609C51.7815 13.4994 52.6136 13.2842 53.3883 12.9257C53.8881 12.6926 54.3417 12.3698 54.7272 11.973C55.083 11.6305 55.3895 11.2393 55.6376 10.8109C55.8396 10.4357 55.9862 10.0328 56.0728 9.61493C56.164 9.26819 56.2179 8.91253 56.2334 8.55412C56.2478 7.91902 56.1002 7.29084 55.805 6.7298C55.4768 6.18715 54.9803 5.7691 54.3925 5.54061C53.9137 5.34147 53.4037 5.22938 52.8862 5.20953C52.0879 5.16819 51.2879 5.16819 50.4896 5.20953H49.452L48.7825 7.85142L47.5306 13.6622ZM73.8867 17.5271C73.6875 18.2849 73.4301 19.0258 73.1169 19.7433C72.7613 20.6019 72.2657 21.3944 71.6508 22.0879C70.9668 22.8569 70.1386 23.4816 69.214 23.9257C68.0873 24.4638 66.8519 24.7298 65.6057 24.7028C63.5974 24.7028 62.0041 24.1825 60.9196 23.1555C59.8351 22.1284 59.2928 20.5609 59.2928 18.473C59.3002 17.7936 59.3607 17.1159 59.4736 16.446C59.6063 15.6783 59.8034 14.9233 60.0627 14.1893C60.3322 13.412 60.6847 12.6667 61.1137 11.9663C61.5575 11.2539 62.106 10.6137 62.7405 10.0676C63.4076 9.4899 64.1686 9.03274 64.9898 8.71628C65.9435 8.36477 66.9537 8.19522 67.9688 8.21628C69.6759 8.11979 71.3542 8.69088 72.655 9.81088C73.2321 10.4006 73.6809 11.1055 73.9726 11.8804C74.2642 12.6553 74.3923 13.4831 74.3487 14.3109C74.3465 14.8516 74.304 15.3914 74.2215 15.9257C74.1519 16.4655 74.049 17.0003 73.9135 17.5271H73.8867ZM70.6935 16.5812C70.7939 16.142 70.8809 15.7028 70.9546 15.2298C71.0237 14.8122 71.0596 14.3897 71.0617 13.9663C71.0865 13.3331 70.977 12.7019 70.7403 12.1149C70.5558 11.6911 70.2762 11.3164 69.9236 11.0203C69.6224 10.7719 69.2703 10.5942 68.8927 10.5001C68.5741 10.4259 68.2488 10.3852 67.922 10.3784C67.1931 10.3613 66.4741 10.5509 65.8467 10.9257C65.263 11.2897 64.7613 11.7731 64.3739 12.3447C63.9654 12.9295 63.6388 13.5684 63.4032 14.2433C63.1903 14.8893 63.0181 15.5483 62.8877 16.2163C62.754 16.7764 62.66 17.3454 62.6066 17.919C62.6066 18.2636 62.553 18.5947 62.5463 18.9393C62.5321 19.4739 62.6208 20.0063 62.8074 20.5068C62.9569 20.9127 63.1844 21.2847 63.4769 21.6014C63.7584 21.8853 64.0992 22.1023 64.4743 22.2366C64.8563 22.3656 65.2564 22.4317 65.6593 22.4325C66.4017 22.453 67.1342 22.2559 67.768 21.8649C68.3484 21.4962 68.8474 21.0109 69.2341 20.4393C69.6257 19.847 69.9407 19.2067 70.1713 18.5339C70.3788 17.8987 70.5596 17.2501 70.7069 16.5947L70.6935 16.5812ZM78.9946 24.0676L78.7469 24.2838L75.5537 24.3447L75.3997 24.1622L76.5378 19.723L77.2072 16.8379C77.4348 15.8649 77.6223 15.0541 77.7628 14.4055C77.9034 13.7568 78.0306 13.1352 78.131 12.6149C78.2314 12.0947 78.3319 11.5136 78.4256 10.973C78.5193 10.4325 78.6197 9.75682 78.7402 8.94601L78.9611 8.73655L79.8917 8.62845L80.6281 8.52034L81.3511 8.39872C81.5988 8.35142 81.9067 8.29736 82.2682 8.21628L82.4222 8.4325L81.7527 11.1352L82.1209 10.5001C82.2505 10.3014 82.396 10.1138 82.5561 9.93926C82.9963 9.36675 83.5475 8.89084 84.1761 8.54061C84.6545 8.26342 85.1916 8.10588 85.7426 8.08115C85.9697 8.08544 86.195 8.12183 86.4121 8.18926L87.1284 8.45277L87.2221 8.72304L86.0238 11.6893L85.7159 11.7839C85.4995 11.6679 85.2759 11.5663 85.0464 11.4798C84.8344 11.3909 84.6065 11.3472 84.377 11.3514C83.9775 11.3516 83.5842 11.4514 83.2322 11.642C82.8711 11.8351 82.5451 12.0887 82.2682 12.392C82.0044 12.6684 81.7792 12.9798 81.5988 13.3176C81.3848 13.7085 81.2056 14.1178 81.0632 14.5406C80.8958 15.0136 80.7352 15.5474 80.5812 16.1555C80.4272 16.7636 80.2733 17.4257 80.1126 18.1825L79.4431 21.2028L78.9946 24.0676ZM95.2019 21.8717C95.1484 22.0541 95.0814 22.2501 95.0279 22.4393C94.9743 22.6284 94.9007 22.8176 94.8404 23.0001L94.5592 24.0001L94.3182 24.2501L93.4948 24.4122C93.0373 24.4918 92.5733 24.528 92.1091 24.5203C91.7957 24.5202 91.4827 24.4999 91.1718 24.4595C90.8419 24.4185 90.5181 24.3368 90.2078 24.2163C89.8328 24.0859 89.4934 23.8683 89.2171 23.5811C89.0013 23.3638 88.8287 23.107 88.7083 22.8244C88.6082 22.5906 88.5472 22.3418 88.5275 22.0879C88.5275 21.8582 88.4941 21.6825 88.4941 21.5541C88.4867 21.2924 88.4979 21.0305 88.5275 20.7703C88.5597 20.4436 88.6089 20.1189 88.6748 19.7974C88.7551 19.3717 88.8823 18.7906 89.0631 18.0474C89.2438 17.3041 89.4781 16.2771 89.7861 14.9595L90.7367 10.8109H88.5075L88.3669 10.6082L88.5543 10.0339L88.6748 9.62169C88.7207 9.4872 88.7565 9.34942 88.7819 9.20953C88.7819 9.06763 88.8556 8.87845 88.9225 8.6352L89.1367 8.45277C89.6277 8.49331 89.9959 8.51358 90.2413 8.51358H91.2187C91.3392 8.06763 91.4329 7.68926 91.5133 7.37169C91.5936 7.05412 91.6472 6.73655 91.7074 6.50682C91.7768 6.23732 91.8326 5.96445 91.8748 5.68926C91.9283 5.41223 91.9953 5.05412 92.0756 4.6825L92.2898 4.50007L93.2137 4.29061L93.9166 4.11493C94.1442 4.06763 94.3651 4.01358 94.586 3.95277L95.4563 3.75682L95.6371 3.9325L95.4831 4.43926C95.4429 4.59466 95.4094 4.74331 95.3626 4.91223C95.3157 5.08115 95.2756 5.25007 95.222 5.45277C95.1684 5.65547 95.0948 5.95953 95.0212 6.21628L94.4454 8.56088H96.1592L97.786 8.50682L97.9132 8.68926C97.8395 8.8852 97.7726 9.07439 97.7056 9.27034C97.6387 9.46628 97.6119 9.56088 97.5718 9.70953C97.5316 9.85818 97.4914 9.98655 97.4513 10.1555C97.4111 10.3244 97.3575 10.5068 97.2973 10.7298L97.0496 10.9122H93.9434L92.2631 17.7366C92.2296 17.9528 92.1827 18.1825 92.1292 18.4122C92.0756 18.642 92.022 18.8784 91.9618 19.0879C91.9015 19.2974 91.8614 19.5947 91.7944 19.9393C91.732 20.2098 91.6962 20.4859 91.6873 20.7636C91.6739 21.0179 91.7319 21.2708 91.8547 21.4933C91.9541 21.6589 92.089 21.7997 92.2497 21.9055C92.4039 21.993 92.5712 22.0546 92.745 22.0879C92.8908 22.1148 93.0387 22.1284 93.1869 22.1284C93.5493 22.1332 93.9103 22.0831 94.258 21.9798C94.586 21.8784 94.8337 21.7974 95.0011 21.7298L95.1885 21.8582L95.2019 21.8717Z" fill="white"/>
<path d="M46.3795 37.3242L46.3058 37.385H45.3017L45.2347 37.3174L45.6832 35.4661L45.8707 34.6823C45.8707 34.6012 45.8707 34.5066 45.9243 34.3985C45.9778 34.2904 45.9711 34.1755 45.9912 34.0607L46.0514 33.7296C46.0569 33.6396 46.0569 33.5493 46.0514 33.4593C46.0557 33.2841 45.9961 33.1134 45.8841 32.9796C45.8062 32.9002 45.7116 32.8395 45.6073 32.802C45.503 32.7646 45.3917 32.7514 45.2816 32.7634C44.9955 32.7673 44.714 32.8366 44.4582 32.9661C44.3527 33.0205 44.2519 33.0838 44.1569 33.1553L43.9226 33.3309C43.9226 33.4728 43.9226 33.5877 43.9226 33.6755C43.9226 33.7634 43.9226 33.8647 43.9226 33.9593C43.9226 34.0539 43.8891 34.1485 43.8691 34.2634C43.849 34.3782 43.8155 34.5066 43.7753 34.6755L43.5142 35.8107L43.2063 37.3377L43.1327 37.3985H42.1285L42.0749 37.3242L42.49 35.5336L42.6373 34.858L42.6975 34.5674C42.6975 34.439 42.7511 34.3039 42.7712 34.1688C42.7912 34.0336 42.818 33.8985 42.8314 33.7836C42.8382 33.6959 42.8382 33.6078 42.8314 33.5201C42.8397 33.446 42.8397 33.3712 42.8314 33.2971C42.8178 33.2091 42.7834 33.1257 42.731 33.0539C42.6681 32.9738 42.588 32.9091 42.4967 32.8647C42.3758 32.8059 42.2425 32.7781 42.1084 32.7836C42.0484 32.7763 41.9877 32.7763 41.9277 32.7836H41.7469C41.5724 32.8282 41.4054 32.8988 41.2515 32.9931C41.1176 33.0787 40.9837 33.1733 40.8499 33.2769L40.5151 34.8174C40.4482 35.1282 40.3946 35.385 40.3478 35.5877L40.2407 36.1417L40.1402 36.6485C40.1001 36.8174 40.0666 37.0201 40.0264 37.2634L39.9528 37.3242H38.9218L38.8281 37.3444L39.2566 35.5201L39.4976 34.5404L39.6448 33.8647C39.6783 33.6823 39.7118 33.5066 39.7453 33.3512C39.7787 33.1958 39.8055 33.0269 39.8323 32.858C39.8591 32.689 39.8925 32.4728 39.9327 32.2296L40.0063 32.1553L41.0775 31.9796L41.1377 32.0539L41.0038 32.5809C41.2333 32.4257 41.4726 32.2858 41.7201 32.162C42.0104 32.0147 42.3326 31.9427 42.6574 31.9526C42.837 31.9477 43.0161 31.9751 43.1862 32.0336C43.3132 32.0784 43.4328 32.1421 43.541 32.2228C43.6264 32.2928 43.6989 32.3775 43.7552 32.4728C43.798 32.5458 43.8339 32.6228 43.8624 32.7026L44.1034 32.5134C44.1943 32.4507 44.2907 32.3965 44.3912 32.3512C44.6427 32.2039 44.9163 32.0989 45.2012 32.0404C45.4012 31.9931 45.6052 31.966 45.8104 31.9593C45.9499 31.9635 46.0887 31.9794 46.2255 32.0066C46.3841 32.0384 46.5345 32.1028 46.6673 32.1958C46.8159 32.3052 46.9393 32.4458 47.0288 32.608C47.1352 32.8165 47.1859 33.0493 47.1761 33.2836C47.1752 33.4629 47.1573 33.6416 47.1226 33.8174L47.0021 34.3444L46.8615 35.135L46.3795 37.3242Z" fill="white"/>
<path d="M52.0693 37.0474L52.0224 37.1082C51.7736 37.2527 51.5052 37.3597 51.2257 37.4258C50.9399 37.4892 50.6481 37.521 50.3555 37.5204C50.131 37.5203 49.9069 37.4999 49.686 37.4596C49.4091 37.4096 49.1437 37.3088 48.9028 37.1623C48.6965 37.0337 48.5187 36.8635 48.3806 36.6623C48.2399 36.4577 48.1378 36.2286 48.0794 35.9866C48.0192 35.7413 47.9899 35.4893 47.9923 35.2366C47.994 34.8477 48.0504 34.4609 48.1597 34.088C48.2678 33.7009 48.4447 33.3368 48.6819 33.0136C48.9199 32.6852 49.226 32.4131 49.5789 32.2163C49.9791 32.0062 50.427 31.906 50.8776 31.9258C51.137 31.9271 51.3954 31.9589 51.6475 32.0204C51.8934 32.0797 52.1225 32.1953 52.317 32.3582C52.5203 32.5254 52.6752 32.7448 52.7655 32.9934C52.8578 33.2694 52.8987 33.5604 52.886 33.8515C52.8972 34.0112 52.8972 34.1715 52.886 34.3312C52.886 34.4731 52.8324 34.6218 52.799 34.7907L52.732 34.8447H49.0701C49.0601 35 49.0601 35.1557 49.0701 35.3109C49.0534 35.5025 49.0817 35.6953 49.1526 35.8737C49.2236 36.0522 49.3352 36.2112 49.4785 36.338C49.8029 36.5737 50.1973 36.6905 50.5965 36.669C50.7812 36.6715 50.9656 36.6511 51.1454 36.6082C51.283 36.5815 51.4176 36.5407 51.5471 36.4866C51.6746 36.4309 51.7977 36.3654 51.9153 36.2907L52.2366 36.0677L52.317 36.1218L52.0693 37.0474ZM51.8885 34.1082C51.8885 34.0339 51.8885 33.9528 51.8885 33.8718C51.8952 33.7908 51.8952 33.7094 51.8885 33.6285C51.891 33.5047 51.8729 33.3814 51.8349 33.2636C51.7945 33.1495 51.7332 33.0441 51.6542 32.9528C51.5603 32.8545 51.446 32.7783 51.3195 32.7299C51.1563 32.6713 50.9838 32.6438 50.8107 32.6488C50.5797 32.6436 50.3507 32.6922 50.1412 32.7907C49.9227 32.9033 49.7308 33.0623 49.5789 33.2569C49.4658 33.397 49.3712 33.5515 49.2977 33.7163C49.2375 33.8582 49.1906 33.9866 49.1505 34.1082H51.8885Z" fill="white"/>
<path d="M60.8594 37.3244L60.7858 37.3852H59.7749L59.7146 37.3176L60.1632 35.4662L60.3439 34.6825C60.3439 34.6014 60.364 34.5068 60.4042 34.3987C60.4042 34.2838 60.451 34.1757 60.4711 34.0608C60.4912 33.946 60.4711 33.8379 60.5247 33.7298C60.5297 33.6397 60.5297 33.5495 60.5247 33.4595C60.5259 33.3609 60.5058 33.2632 60.4657 33.1733C60.4255 33.0834 60.3664 33.0034 60.2924 32.939C60.2184 32.8746 60.1313 32.8274 60.0373 32.8006C59.9433 32.7737 59.8446 32.768 59.7481 32.7838C59.5965 32.7823 59.4454 32.8027 59.2996 32.8446C59.1694 32.8765 59.0436 32.9242 58.9247 32.9865C58.821 33.0441 58.7204 33.1072 58.6234 33.1757L58.3891 33.3514C58.3891 33.4933 58.3891 33.6081 58.3891 33.696C58.3824 33.7914 58.369 33.8862 58.349 33.9798C58.349 34.0676 58.349 34.1689 58.2954 34.2838C58.2419 34.3987 58.2419 34.5271 58.2017 34.696L57.9674 35.8108L57.6661 37.3379L57.5925 37.3987H56.5816L56.5281 37.3244L56.9498 35.5338L57.0904 34.8581L57.1507 34.5676L57.231 34.1689C57.231 34.0338 57.2712 33.8987 57.2912 33.7838C57.3113 33.6689 57.2912 33.5744 57.2912 33.5203C57.2963 33.4461 57.2963 33.3716 57.2912 33.2973C57.2719 33.2099 57.2355 33.1272 57.1841 33.0541C57.1231 32.9747 57.0454 32.9101 56.9565 32.8649C56.8333 32.806 56.6978 32.7782 56.5616 32.7838C56.5015 32.7772 56.4409 32.7772 56.3808 32.7838H56.2067C56.0297 32.8272 55.8604 32.8978 55.7047 32.9933L55.3097 33.2771L54.9683 34.8176C54.9013 35.1284 54.8478 35.3852 54.8076 35.5879C54.7674 35.7906 54.7273 35.973 54.6938 36.1419L54.5934 36.6487C54.5934 36.8176 54.5197 37.0203 54.4796 37.2635L54.4126 37.3244H53.3817L53.3281 37.2635L53.7566 35.4392L53.9708 34.4595L54.1181 33.7838C54.1582 33.6014 54.1917 33.4257 54.2185 33.2703C54.2453 33.1149 54.2787 32.946 54.3055 32.7771C54.3323 32.6081 54.3658 32.3919 54.4126 32.1487L54.4796 32.0744L55.5507 31.8987L55.6109 31.973L55.477 32.5C55.7083 32.3477 55.9474 32.2079 56.1934 32.0811C56.4844 31.9359 56.806 31.864 57.1306 31.8716C57.3124 31.8668 57.4937 31.8943 57.6661 31.9527C57.7908 31.9981 57.9081 32.0618 58.0143 32.1419C58.113 32.218 58.1913 32.3179 58.2419 32.4325C58.2874 32.504 58.3234 32.5812 58.349 32.6622L58.59 32.473C58.6818 32.4118 58.778 32.3576 58.8778 32.3108C59.131 32.1619 59.407 32.0569 59.6946 32C59.8923 31.9532 60.0941 31.926 60.2971 31.9189C60.4387 31.9234 60.5797 31.9392 60.7188 31.9662C60.8766 32.0006 61.0265 32.0648 61.1607 32.1554C61.309 32.2632 61.4305 32.4043 61.5155 32.5676C61.6218 32.7761 61.6726 33.009 61.6627 33.2433C61.6591 33.4257 61.6344 33.6071 61.5891 33.7838C61.5489 33.9595 61.5155 34.1352 61.4686 34.3108L61.3079 35.1352L60.8594 37.3244Z" fill="white"/>
<path d="M62.1714 37.3445L62.7136 35.0135L63.1287 33.1081C63.2291 32.7162 63.3161 32.3243 63.4032 31.9391L63.6442 30.7905C63.6776 30.6216 63.7044 30.4797 63.7312 30.3648L63.7914 30.0405C63.7914 29.9459 63.7914 29.8445 63.8383 29.7499C63.8852 29.6554 63.8383 29.5472 63.8785 29.4324L63.9588 29.3581L65.0701 29.1621L65.1236 29.2364L64.8358 30.4054L64.3672 32.3783C64.5843 32.2599 64.8078 32.1539 65.0366 32.0608C65.3017 31.9599 65.5835 31.9117 65.8667 31.9189C66.1113 31.9164 66.3542 31.9599 66.583 32.0472C66.804 32.1292 67.005 32.2583 67.1721 32.4256C67.3494 32.6021 67.4884 32.8138 67.5805 33.0472C67.6811 33.3218 67.731 33.6126 67.7278 33.9054C67.7255 34.0615 67.7121 34.2173 67.6876 34.3716C67.6622 34.5687 67.6197 34.7631 67.5604 34.9527C67.4895 35.1707 67.4022 35.3831 67.2993 35.5878C67.1845 35.8116 67.0428 36.0204 66.8776 36.2094C66.6716 36.4593 66.4248 36.6718 66.1479 36.8378C65.8966 36.9885 65.6264 37.1044 65.3446 37.1824C65.0563 37.2658 64.7601 37.3179 64.4609 37.3378C64.1529 37.3378 63.8383 37.3783 63.5103 37.3918H62.9279H62.2116L62.1714 37.3445ZM63.4166 36.5945H64.0057C64.1696 36.5919 64.333 36.5761 64.4944 36.5472C64.6668 36.5141 64.8368 36.4689 65.0031 36.4121C65.182 36.3486 65.351 36.2599 65.5052 36.1486C65.6948 36.0246 65.8623 35.8693 66.0006 35.6891C66.136 35.52 66.2527 35.3365 66.3487 35.1418C66.4383 34.9632 66.5079 34.7751 66.5563 34.581C66.597 34.406 66.6195 34.227 66.6232 34.0472C66.6284 33.8443 66.5942 33.6424 66.5228 33.4527C66.4648 33.2989 66.3733 33.1604 66.255 33.0472C66.1451 32.9462 66.015 32.8701 65.8734 32.8243C65.722 32.775 65.5639 32.7499 65.4048 32.7499C65.174 32.7462 64.9452 32.7947 64.7354 32.8918C64.5505 32.9763 64.3716 33.0733 64.1998 33.1824L63.4166 36.5945Z" fill="white"/>
<path d="M72.5076 37.0475L72.4607 37.1083C72.2124 37.2539 71.9439 37.3609 71.6641 37.4259C71.3783 37.4893 71.0864 37.521 70.7938 37.5205C70.5693 37.5204 70.3453 37.5 70.1244 37.4597C69.8479 37.4118 69.5825 37.3133 69.3411 37.1691C69.1348 37.0405 68.957 36.8703 68.8189 36.6691C68.6806 36.464 68.5808 36.235 68.5244 35.9934C68.4619 35.7484 68.4304 35.4964 68.4307 35.2434C68.4324 34.8545 68.4887 34.4678 68.598 34.0948C68.7089 33.7088 68.8856 33.3453 69.1202 33.0205C69.3598 32.6935 69.6655 32.4217 70.0172 32.2232C70.4149 32.0036 70.8629 31.8941 71.316 31.9056C71.5754 31.9069 71.8337 31.9387 72.0858 32.0002C72.3309 32.0617 72.5595 32.177 72.7553 32.338C72.9546 32.509 73.1087 32.7273 73.2038 32.9732C73.295 33.2496 73.3381 33.54 73.331 33.8313C73.3423 33.991 73.3423 34.1513 73.331 34.311C73.331 34.4529 73.2841 34.6016 73.2507 34.7705L73.177 34.8245H69.5219C69.5119 34.9798 69.5119 35.1355 69.5219 35.2907C69.5051 35.4823 69.5334 35.6751 69.6044 35.8535C69.6753 36.032 69.787 36.191 69.9302 36.3178C70.2546 36.5535 70.649 36.6703 71.0482 36.6489C71.2351 36.6509 71.4217 36.6305 71.6038 36.588C71.7558 36.5571 71.9039 36.5095 72.0457 36.4461C72.1732 36.3904 72.2963 36.3249 72.4139 36.2502C72.5246 36.1814 72.6319 36.107 72.7352 36.0272L72.8155 36.0813L72.5076 37.0475ZM72.3001 34.1083C72.3001 34.034 72.3001 33.9529 72.3001 33.8718C72.3067 33.7909 72.3067 33.7095 72.3001 33.6286C72.3002 33.5044 72.2799 33.3811 72.2398 33.2637C72.2048 33.1471 72.1428 33.0406 72.0591 32.9529C71.9664 32.8531 71.8517 32.7767 71.7243 32.7299C71.5613 32.6707 71.3887 32.6432 71.2156 32.6489C70.9846 32.6444 70.7557 32.6929 70.5461 32.7907C70.3298 32.9068 70.1386 33.0653 69.9838 33.257C69.8706 33.3971 69.7761 33.5516 69.7026 33.7164C69.6491 33.8583 69.5955 33.9867 69.5553 34.1083H72.3001Z" fill="white"/>
<path d="M74.9109 37.3245L74.8305 37.392H73.7661L73.7192 37.3312L74.0941 35.8312L74.315 34.8515C74.3954 34.5204 74.4556 34.2502 74.5025 34.0272C74.5494 33.8042 74.5895 33.6083 74.623 33.4191L74.7234 32.865C74.7234 32.6826 74.7904 32.4529 74.8305 32.1893L74.8975 32.1218L75.2121 32.0812H75.4531L75.6941 32.0407L76.002 31.9799L76.0489 32.0474L75.828 32.9596C75.8682 32.8785 75.9083 32.811 75.9485 32.7434C75.9912 32.6755 76.0406 32.6122 76.0958 32.5542C76.2415 32.3623 76.4235 32.2015 76.6313 32.0812C76.7909 31.9888 76.9698 31.9355 77.1535 31.9258C77.2312 31.9249 77.3084 31.9386 77.3811 31.9664L77.6221 32.0474V32.142L77.2204 33.1556H77.12L76.9192 33.0542C76.8466 33.026 76.7693 33.0122 76.6916 33.0137C76.561 33.0155 76.4327 33.0479 76.3167 33.1083C76.1955 33.1741 76.0867 33.261 75.9954 33.365C75.9096 33.4593 75.8355 33.5637 75.7744 33.6758C75.7068 33.8121 75.6465 33.952 75.5937 34.0947C75.5322 34.2741 75.4808 34.4568 75.4397 34.642C75.3862 34.8447 75.3326 35.07 75.279 35.3177L75.0648 36.338L74.9109 37.3245Z" fill="white"/>
<path d="M85.4884 35.1351C85.4205 35.3906 85.3356 35.6412 85.234 35.8851C85.115 36.1737 84.9499 36.4408 84.7453 36.6756C84.5181 36.9342 84.2429 37.1454 83.9353 37.2972C83.5568 37.4772 83.1418 37.5651 82.7236 37.554C82.1551 37.5933 81.5943 37.4038 81.1638 37.027C80.9704 36.8139 80.8225 36.5631 80.7292 36.2899C80.636 36.0168 80.5993 35.7272 80.6216 35.4391C80.6246 35.2127 80.6448 34.9868 80.6818 34.7635C80.7253 34.5039 80.7903 34.2485 80.8759 33.9999C80.9667 33.7354 81.0856 33.4817 81.2307 33.2432C81.3754 32.9907 81.5584 32.7627 81.773 32.5675C81.9967 32.3762 82.25 32.2233 82.5228 32.1148C82.8379 31.9984 83.1714 31.9412 83.5069 31.9459C84.0812 31.9111 84.6461 32.1052 85.0801 32.4864C85.2751 32.6894 85.4258 32.9313 85.5227 33.1967C85.6195 33.462 85.6603 33.7448 85.6424 34.027C85.6421 34.2101 85.6287 34.393 85.6022 34.5743C85.5744 34.7631 85.5364 34.9504 85.4884 35.1351ZM84.424 34.8107C84.4627 34.6642 84.4917 34.5152 84.511 34.3648C84.5377 34.22 84.5511 34.0729 84.5512 33.9256C84.5565 33.7111 84.5201 33.4976 84.4441 33.2972C84.3829 33.1552 84.2888 33.03 84.1696 32.9324C84.0726 32.8452 83.9551 32.7847 83.8282 32.7567C83.723 32.7296 83.6153 32.7137 83.5069 32.7094C83.2707 32.7088 83.039 32.7743 82.8374 32.8986C82.6412 33.0222 82.4725 33.1856 82.342 33.3783C82.2076 33.5748 82.0995 33.7883 82.0207 34.0135C81.9422 34.2344 81.8773 34.4601 81.8266 34.6891C81.7827 34.8805 81.7514 35.0746 81.7328 35.2702C81.7328 35.4414 81.7328 35.5562 81.7328 35.6148C81.7278 35.7945 81.7574 35.9735 81.8199 36.1418C81.8722 36.2805 81.9519 36.4069 82.0542 36.5135C82.1447 36.6111 82.2572 36.6853 82.3822 36.7297C82.5089 36.7756 82.6426 36.7985 82.7772 36.7972C83.0135 36.7992 83.2456 36.7336 83.4466 36.608C83.6396 36.4798 83.8056 36.3145 83.9353 36.1216C84.0631 35.9232 84.1665 35.71 84.2433 35.4864C84.3188 35.2542 84.3792 35.0172 84.424 34.777V34.8107Z" fill="white"/>
<path d="M89.2037 32.8648H88.9694H88.3C88.3 32.9526 88.2464 33.1012 88.2062 33.3175C88.1661 33.5337 88.1125 33.7634 88.059 33.9931C88.0054 34.2229 87.9519 34.4661 87.9117 34.6688L87.8113 35.1283L87.6506 35.9323L87.5301 36.5472C87.5301 36.7229 87.4766 36.8715 87.4565 36.9999C87.4364 37.1283 87.4163 37.2364 87.4029 37.331L87.336 37.3918H86.7937H86.5661H86.305L86.2515 37.331C86.2515 37.1958 86.3117 37.0404 86.3519 36.8715C86.3921 36.7026 86.4255 36.5269 86.4657 36.3512L86.5862 35.831C86.6197 35.6621 86.6531 35.5067 86.6799 35.3648L87.2423 32.7904H86.4657L86.4054 32.7296C86.4054 32.6485 86.4456 32.581 86.459 32.5337C86.4785 32.4884 86.492 32.4407 86.4992 32.3918C86.4992 32.3512 86.4992 32.2972 86.5393 32.2499L86.5862 32.0404L86.6732 31.9661H86.8741H87.0347H87.3962L87.5368 31.2904C87.6007 30.9416 87.6834 30.5964 87.7845 30.2567C87.8566 29.9963 88.0005 29.7619 88.1996 29.581C88.297 29.4921 88.4077 29.4191 88.5276 29.3648C88.6338 29.3105 88.7462 29.2696 88.8623 29.2431C88.9634 29.2185 89.0664 29.2027 89.1703 29.1958H89.4046C89.5538 29.1841 89.7038 29.1841 89.8531 29.1958L90.1409 29.2499L90.1878 29.331L90.1343 29.5337C90.1343 29.5945 90.1008 29.6485 90.0874 29.6958C90.0731 29.7469 90.0619 29.7988 90.0539 29.8512C90.0539 29.9053 90.0539 29.9661 90.0071 30.0404L89.9267 30.1012L89.746 30.054C89.6658 30.0461 89.5851 30.0461 89.505 30.054C89.4027 30.0531 89.3009 30.0691 89.2037 30.1012C89.108 30.1348 89.0226 30.1931 88.956 30.2702C88.8615 30.392 88.7931 30.5324 88.7552 30.6823C88.7083 30.858 88.6414 31.108 88.5678 31.4188L88.4539 31.9661H89.2104H89.4246L89.4782 32.0472C89.4621 32.1115 89.4419 32.1747 89.418 32.2364C89.418 32.2904 89.3845 32.3377 89.3711 32.3918L89.3309 32.5337C89.3309 32.581 89.3309 32.6418 89.2841 32.7094L89.2037 32.8648Z" fill="white"/>
<path d="M97.88 35.1351C97.7954 35.4728 97.6718 35.7994 97.5118 36.1081C97.1719 36.7364 96.5989 37.203 95.9185 37.4054C95.5683 37.5076 95.2052 37.5577 94.8407 37.554H94.4123C94.2579 37.5411 94.1053 37.5117 93.957 37.4662C93.8032 37.4253 93.6531 37.371 93.5085 37.304C93.3594 37.2356 93.2217 37.1445 93.1001 37.0337C92.8675 36.8143 92.6866 36.545 92.5707 36.2456C92.4549 35.9463 92.407 35.6245 92.4307 35.304C92.4352 35.1093 92.4531 34.9151 92.4843 34.7229C92.5216 34.4767 92.5821 34.2346 92.665 33.9999C92.753 33.7334 92.8698 33.4773 93.0131 33.2364C93.1674 32.9812 93.3619 32.753 93.5888 32.5608C93.8402 32.3491 94.1254 32.1823 94.4323 32.0675C94.8013 31.9332 95.1917 31.869 95.5838 31.8783C95.9067 31.8775 96.2284 31.9184 96.5411 31.9999C96.846 32.0809 97.1265 32.2364 97.3578 32.4526C97.597 32.6618 97.7752 32.9327 97.8733 33.2364C97.9595 33.5234 98.0023 33.8218 98.0005 34.1216C98.0029 34.2934 97.9917 34.4651 97.967 34.6351C97.9469 34.7567 97.9201 34.9256 97.88 35.1351ZM96.2064 34.7364C96.2064 34.6081 96.2532 34.4662 96.2733 34.3175C96.2949 34.1676 96.3061 34.0163 96.3068 33.8648C96.3048 33.7626 96.2936 33.6609 96.2733 33.5608C96.2548 33.4562 96.2185 33.3556 96.1662 33.2635C96.1186 33.1691 96.044 33.0914 95.952 33.0405C95.8402 32.9761 95.7123 32.9456 95.5838 32.9526C95.4753 32.9502 95.367 32.9638 95.2625 32.9932C95.1917 33.0242 95.1243 33.0627 95.0616 33.1081C95.0018 33.1503 94.9458 33.1977 94.8943 33.2499C94.8526 33.2868 94.8145 33.3275 94.7805 33.3716C94.6729 33.5181 94.5872 33.6797 94.5261 33.8513C94.4486 34.0467 94.3859 34.2477 94.3386 34.4527C94.2876 34.6507 94.2473 34.8515 94.2181 35.054C94.1945 35.2061 94.1811 35.3596 94.1779 35.5135C94.1693 35.6124 94.1693 35.7118 94.1779 35.8108C94.1871 35.8636 94.2006 35.9155 94.2181 35.9662C94.2633 36.1188 94.3605 36.2504 94.4926 36.3378C94.6276 36.4206 94.7832 36.4628 94.9411 36.4594C95.0896 36.4615 95.2356 36.4217 95.3629 36.3445C95.4843 36.2679 95.5928 36.1721 95.6842 36.0608C95.6842 36.0608 95.7511 35.9797 95.7913 35.9189C95.841 35.8431 95.8857 35.7641 95.9252 35.6824C95.9817 35.5593 96.0309 35.433 96.0725 35.304C96.1059 35.1351 96.1595 34.9256 96.2064 34.7026V34.7364Z" fill="white"/>
<path d="M101.287 37.304L101.207 37.385L100.759 37.4661C100.6 37.4777 100.441 37.4777 100.283 37.4661C100.081 37.4673 99.8789 37.447 99.6808 37.4053C99.5054 37.3775 99.3385 37.3106 99.1921 37.2094C99.0549 37.1156 98.9442 36.9876 98.8707 36.8377C98.7891 36.6554 98.7502 36.4566 98.7569 36.2567C98.7482 36.1307 98.7482 36.0043 98.7569 35.8783C98.7569 35.7364 98.8038 35.581 98.8373 35.4256C98.8707 35.2702 98.9109 35.108 98.9511 34.9391L99.0649 34.4796L99.3996 33.0675H98.6833L98.623 32.9864L98.9176 31.9459L98.9912 31.8918H99.6607L99.9552 30.5404L100.029 30.4661L100.511 30.358L100.879 30.2634L101.241 30.1688L101.696 30.0337L101.756 30.0945L101.535 30.9526L101.308 31.885H102.352L102.392 31.9594C102.359 32.0675 102.325 32.1621 102.298 32.2364L102.225 32.4594L102.164 32.6823C102.164 32.7634 102.111 32.8648 102.077 32.9864L101.99 33.0607L101.087 33.108L100.658 34.9121L100.605 35.1283C100.605 35.2229 100.558 35.3175 100.538 35.4188C100.518 35.5202 100.497 35.6148 100.484 35.6959C100.48 35.7588 100.48 35.8221 100.484 35.885C100.477 35.9509 100.488 36.0176 100.516 36.0774C100.545 36.1372 100.589 36.1876 100.645 36.2229C100.743 36.279 100.853 36.3092 100.966 36.3107C101.075 36.3236 101.185 36.3236 101.294 36.3107L101.555 36.2229L101.615 36.2702L101.287 37.304Z" fill="white"/>
<path d="M104.956 32.3311C105.023 32.2838 105.097 32.2298 105.19 32.1757C105.288 32.1161 105.388 32.062 105.492 32.0136C105.613 31.9597 105.738 31.9167 105.866 31.8852C106.016 31.8514 106.169 31.8355 106.322 31.8379C106.554 31.8287 106.786 31.8726 106.999 31.9661C107.212 32.0597 107.402 32.2007 107.553 32.3784C107.89 32.8148 108.057 33.3604 108.022 33.9122C108.02 34.3099 107.955 34.7046 107.828 35.0811C107.701 35.4821 107.501 35.8556 107.239 36.1825C107.014 36.4659 106.742 36.7082 106.436 36.8987C106.168 37.0594 105.879 37.1822 105.579 37.2636C105.297 37.3447 105.007 37.3901 104.715 37.3987C104.427 37.3987 104.146 37.3987 103.872 37.3987L103.383 39.8649L103.309 39.9122H102.111H101.589L101.535 39.8447L102.124 37.4257L102.312 36.642C102.412 36.1757 102.513 35.7095 102.613 35.2568C102.713 34.8041 102.807 34.3379 102.901 33.9055L103.021 33.3176C103.021 33.1555 103.075 33.0136 103.095 32.8852L103.155 32.5203C103.155 32.4122 103.155 32.2906 103.202 32.1555L103.269 32.0879L105.016 31.7974L105.077 31.8717L104.956 32.3311ZM104.126 36.2703H104.246H104.374C104.556 36.2658 104.736 36.234 104.909 36.1757C105.123 36.1084 105.321 35.9981 105.492 35.8514C105.603 35.7539 105.702 35.6427 105.786 35.5203C105.884 35.3842 105.964 35.2367 106.027 35.0811C106.104 34.9171 106.162 34.7449 106.201 34.5676C106.247 34.3821 106.27 34.1914 106.268 34.0001C106.277 33.8217 106.245 33.6436 106.174 33.4798C106.127 33.3688 106.056 33.2696 105.967 33.1893C105.892 33.1286 105.805 33.0848 105.713 33.0609C105.647 33.0429 105.58 33.0316 105.512 33.0271C105.374 33.0254 105.239 33.0579 105.117 33.1217C105 33.1826 104.888 33.2526 104.782 33.3311L104.126 36.2703Z" fill="white"/>
<path d="M117.013 32.1014C116.932 32.4324 116.859 32.7162 116.805 32.9527C116.752 33.1892 116.685 33.4257 116.631 33.6284C116.577 33.8311 116.524 34.1216 116.457 34.3987L116.236 35.4324L115.941 36.7838C115.821 37.3446 115.7 37.8176 115.587 38.2027C115.487 38.554 115.316 38.8806 115.085 39.1622C114.843 39.451 114.525 39.6643 114.167 39.777C113.815 39.8901 113.446 39.9471 113.076 39.946C112.802 39.9458 112.529 39.9186 112.26 39.8649C112.016 39.8179 111.779 39.7384 111.557 39.6284C111.438 39.5767 111.328 39.5085 111.229 39.4257C111.142 39.3514 111.048 39.2703 110.954 39.1757V39.0811L111.376 38.4054H111.456L111.657 38.6149C111.749 38.7113 111.855 38.7932 111.972 38.8581C112.115 38.9416 112.268 39.0074 112.427 39.0541C112.627 39.1115 112.835 39.1389 113.043 39.1351C113.315 39.1491 113.585 39.0884 113.826 38.9595C114.017 38.8544 114.182 38.7064 114.308 38.527C114.424 38.359 114.514 38.1745 114.576 37.9797C114.636 37.7906 114.683 37.6216 114.716 37.4797L114.85 36.946C114.75 37.0068 114.649 37.0676 114.542 37.1216C114.439 37.1833 114.329 37.2331 114.214 37.2703L113.833 37.3784C113.678 37.4068 113.521 37.4203 113.364 37.4189C113.12 37.4214 112.877 37.3779 112.648 37.2906C112.427 37.2119 112.226 37.085 112.059 36.9189C111.887 36.7431 111.753 36.5339 111.664 36.3041C111.56 36.0281 111.51 35.7344 111.516 35.4392C111.513 35.0962 111.561 34.7546 111.657 34.4257C111.744 34.1436 111.861 33.8718 112.005 33.6149C112.205 33.2583 112.468 32.9421 112.782 32.6824C113.052 32.4692 113.355 32.3025 113.679 32.1892C113.987 32.0867 114.306 32.0232 114.629 32L115.553 31.9595H116.986L117.013 32.1014ZM115.5 32.8311H114.931C114.731 32.8445 114.534 32.8785 114.342 32.9324C114.138 32.9853 113.942 33.0648 113.759 33.1689C113.559 33.2889 113.382 33.4446 113.237 33.6284C113.163 33.723 113.09 33.8379 113.009 33.9595C112.933 34.0931 112.868 34.2333 112.815 34.3784C112.754 34.5314 112.707 34.6897 112.675 34.8514C112.643 35.0138 112.627 35.179 112.628 35.3446C112.615 35.5958 112.664 35.8462 112.768 36.0743C112.845 36.2315 112.957 36.3681 113.096 36.473C113.212 36.5564 113.345 36.6119 113.485 36.6352C113.577 36.6575 113.671 36.671 113.766 36.6757C113.922 36.675 114.077 36.6546 114.228 36.6149C114.387 36.5736 114.541 36.51 114.683 36.4257C114.796 36.3503 114.906 36.2691 115.011 36.1824L115.767 32.8041L115.5 32.8311Z" fill="white"/>
<path d="M118.412 37.3245L118.331 37.392H117.274L117.22 37.3312L117.595 35.8312L117.823 34.8515C117.896 34.5204 117.957 34.2501 118.003 34.0272C118.05 33.8042 118.09 33.6082 118.124 33.419C118.157 33.2299 118.191 33.0474 118.224 32.865C118.258 32.6826 118.291 32.4528 118.331 32.1893L118.405 32.1218L118.713 32.0812H118.961L119.195 32.0407L119.503 31.9799L119.557 32.0474L119.329 32.9596C119.369 32.8785 119.416 32.8109 119.456 32.7434C119.499 32.6771 119.546 32.6139 119.597 32.5542C119.743 32.3605 119.928 32.1995 120.139 32.0812C120.296 31.9881 120.473 31.9348 120.654 31.9258C120.734 31.9251 120.814 31.9388 120.889 31.9663L121.123 32.0474V32.142L120.728 33.1555H120.621L120.42 33.0542C120.348 33.0247 120.27 33.0109 120.193 33.0136C120.067 33.0175 119.943 33.0498 119.831 33.1082C119.71 33.1741 119.601 33.261 119.51 33.365C119.424 33.4593 119.35 33.5636 119.289 33.6758C119.221 33.811 119.163 33.951 119.115 34.0947C119.061 34.2524 119.008 34.4348 118.954 34.642C118.907 34.8447 118.854 35.0745 118.8 35.3177L118.586 36.338L118.412 37.3245Z" fill="white"/>
<path d="M125.903 35.1351C125.832 35.3906 125.745 35.6412 125.642 35.8851C125.525 36.1752 125.36 36.4426 125.153 36.6756C124.927 36.9358 124.652 37.1472 124.343 37.2972C123.967 37.4778 123.554 37.5658 123.138 37.554C122.567 37.5936 122.004 37.4042 121.572 37.027C121.38 36.8127 121.234 36.5615 121.142 36.2885C121.05 36.0156 121.014 35.7266 121.036 35.4391C121.039 35.2127 121.059 34.9868 121.096 34.7635C121.14 34.5039 121.205 34.2485 121.29 33.9999C121.382 33.7368 121.498 33.4833 121.639 33.2432C121.783 32.9907 121.966 32.7627 122.181 32.5675C122.404 32.3762 122.658 32.2233 122.931 32.1148C123.248 31.999 123.584 31.9418 123.921 31.9459C124.496 31.9111 125.061 32.1052 125.495 32.4864C125.687 32.6912 125.835 32.9335 125.931 33.1985C126.026 33.4635 126.067 33.7455 126.05 34.027C126.05 34.2101 126.036 34.393 126.01 34.5743C125.984 34.763 125.949 34.9502 125.903 35.1351ZM124.838 34.8107C124.872 34.6621 124.899 34.5135 124.925 34.3648C124.939 34.2187 124.939 34.0717 124.925 33.9256C124.934 33.7109 124.898 33.4967 124.818 33.2972C124.76 33.1556 124.668 33.0304 124.551 32.9324C124.452 32.8477 124.335 32.7876 124.209 32.7567C124.102 32.7291 123.992 32.7133 123.881 32.7094C123.645 32.7095 123.414 32.775 123.212 32.8986C123.018 33.0225 122.851 33.1859 122.723 33.3783C122.589 33.5748 122.481 33.7883 122.402 34.0135C122.321 34.2343 122.254 34.46 122.201 34.6891C122.159 34.8806 122.13 35.0748 122.114 35.2702C122.114 35.4414 122.114 35.5562 122.114 35.6148C122.109 35.7945 122.138 35.9735 122.201 36.1418C122.251 36.2801 122.328 36.4065 122.428 36.5135C122.521 36.6114 122.636 36.6855 122.763 36.7297C122.89 36.7762 123.024 36.799 123.158 36.7972C123.395 36.7996 123.627 36.734 123.828 36.608C124.023 36.4835 124.19 36.3175 124.316 36.1216C124.449 35.925 124.555 35.7114 124.631 35.4864C124.725 35.2162 124.792 34.9932 124.838 34.777V34.8107Z" fill="white"/>
<path d="M131.017 37.3243L130.95 37.3851L129.953 37.4257L129.899 37.3514L130.02 36.8514C129.782 37.0551 129.51 37.2152 129.217 37.3243C128.936 37.4334 128.64 37.4928 128.34 37.5C128.168 37.497 127.997 37.4744 127.831 37.4324C127.655 37.3881 127.489 37.3101 127.342 37.2027C127.189 37.0894 127.066 36.9412 126.981 36.7703C126.881 36.5596 126.833 36.3279 126.84 36.0946C126.838 35.8676 126.86 35.641 126.907 35.4189C126.947 35.1892 127.014 34.8919 127.094 34.5135L127.329 33.5C127.369 33.3311 127.402 33.1892 127.423 33.0743C127.443 32.9595 127.469 32.8446 127.489 32.75L127.55 32.4662C127.565 32.3479 127.588 32.2306 127.617 32.1149L127.684 32.0406L128.708 32L128.755 32.0608C128.755 32.1149 128.721 32.2095 128.688 32.3379C128.654 32.4662 128.628 32.6149 128.587 32.777C128.547 32.9392 128.507 33.1081 128.467 33.2838L128.34 33.7703C128.306 33.9189 128.273 34.0541 128.246 34.1622C128.219 34.2703 128.199 34.3446 128.192 34.3784L128.132 34.6487C128.105 34.7703 128.079 34.8987 128.052 35.0338C128.052 35.1757 128.005 35.3108 127.985 35.4392C127.965 35.5676 127.985 35.6757 127.985 35.7568C127.977 35.9119 128.011 36.0663 128.085 36.2027C128.139 36.31 128.22 36.401 128.32 36.4662C128.405 36.5236 128.5 36.5648 128.601 36.5879C128.679 36.5926 128.757 36.5926 128.835 36.5879C128.992 36.5906 129.148 36.5678 129.297 36.5203C129.429 36.4842 129.557 36.4344 129.679 36.3716C129.787 36.3165 129.89 36.2509 129.986 36.1757L130.221 35.9865L130.609 34.2365L130.763 33.5068C130.803 33.3176 130.837 33.1419 130.87 33L130.95 32.5676C130.95 32.4324 131.004 32.2703 131.038 32.0879L131.118 32.0135L132.149 31.9595L132.189 32.0338L131.6 34.5676L131.352 35.6892L131.017 37.3243Z" fill="white"/>
<path d="M134.626 32.4324C134.841 32.3006 135.065 32.1832 135.295 32.081C135.554 31.9651 135.835 31.9097 136.118 31.9189C136.36 31.9176 136.599 31.9659 136.821 32.0608C137.041 32.1519 137.239 32.2876 137.404 32.4594C137.586 32.6512 137.724 32.8822 137.805 33.1351C137.912 33.4128 137.964 33.7088 137.959 34.0067C137.957 34.3861 137.894 34.7626 137.772 35.1216C137.66 35.466 137.491 35.7884 137.27 36.0743C137.041 36.3812 136.757 36.6425 136.433 36.8445C136.151 37.0139 135.85 37.1478 135.536 37.2432C135.274 37.3192 135.005 37.3668 134.733 37.3851H134.164H133.862H133.568C133.514 37.6216 133.467 37.8175 133.434 37.9864C133.4 38.1554 133.36 38.3175 133.327 38.4797C133.293 38.6418 133.253 38.831 133.22 39.027C133.186 39.2229 133.133 39.4864 133.079 39.7972L133.006 39.8513H131.881L131.834 39.7905L132.396 37.4526L132.597 36.6418C132.691 36.1959 132.791 35.7499 132.892 35.2905C132.992 34.831 133.086 34.4054 133.18 33.9391C133.226 33.7162 133.267 33.5135 133.293 33.3445C133.32 33.1756 133.354 33.027 133.38 32.8918C133.407 32.7567 133.421 32.6351 133.441 32.5202C133.461 32.4054 133.441 32.277 133.494 32.1486L133.568 32.0878L134.659 31.9121L134.713 31.9797L134.626 32.4324ZM133.702 36.5878H133.909H134.117C134.512 36.5955 134.904 36.5196 135.268 36.3648C135.585 36.233 135.872 36.0376 136.112 35.7905C136.541 35.3268 136.781 34.7158 136.781 34.081C136.787 33.8693 136.753 33.6584 136.681 33.4594C136.616 33.3075 136.523 33.1698 136.406 33.054C136.299 32.9561 136.174 32.8803 136.038 32.831C135.902 32.7836 135.76 32.7585 135.616 32.7567C135.469 32.7546 135.322 32.7751 135.181 32.8175C135.063 32.8567 134.949 32.9064 134.84 32.9662C134.749 33.0121 134.663 33.0688 134.585 33.1351L134.425 33.2702L133.702 36.5878Z" fill="white"/>
</g>
<defs>
<clipPath id="clip0">
<rect width="179.13" height="40" fill="white"/>
</clipPath>
</defs>
</svg>
