<svg width="182" height="40" viewBox="0 0 182 40" fill="none" xmlns="http://www.w3.org/2000/svg">
<path fill-rule="evenodd" clip-rule="evenodd" d="M42.4176 32.6468C42.2649 32.6468 42.1122 32.6359 41.9609 32.6359C41.6255 32.6359 40.965 32.6563 40.3658 33.0678C39.2997 33.8095 39.2793 35.1369 39.2793 35.1892C39.2793 35.6834 39.5431 36.4759 40.4674 36.4759C40.7414 36.4759 41.0863 36.4041 41.3508 36.2386C41.4626 36.1668 41.5744 36.0637 41.6855 35.9715L42.4176 32.6468ZM43.1688 33.9532C42.8136 35.5397 42.7421 35.9295 42.5389 37.1553L42.468 37.2271L41.5137 37.2475L41.4626 37.1756L41.5335 36.7641C41.361 36.9085 40.9139 37.2881 40.0509 37.2881C39.0148 37.2881 38.1723 36.5478 38.1723 35.261C38.1723 34.4475 38.5581 33.5627 38.9848 33.0481C39.9289 31.9254 41.239 31.8644 42.1736 31.8644L43.575 31.8746L43.6255 31.9566L43.1688 33.9532ZM47.8633 37.2149L47.7678 37.2773C47.2082 37.2773 46.6479 37.2671 46.0883 37.2671C45.2737 37.2671 44.4707 37.2773 43.6684 37.2881L43.6255 37.1932C44.0638 36.6682 44.4937 36.1364 44.9151 35.598L46.5525 33.5647C46.9015 33.1268 46.9437 33.0847 47.2498 32.6678L44.8933 32.6881L44.8408 32.6156L45.0726 31.9376L45.1578 31.8644C45.8974 31.8746 46.2675 31.8854 46.7856 31.8854C47.5354 31.8854 48.2852 31.8746 49.0357 31.8644L49.0787 31.9593L48.6131 32.5424C48.5395 32.6359 46.6056 34.9831 46.2362 35.4522C45.866 35.9112 45.8238 35.9634 45.4318 36.5058C46.8381 36.4956 47.0705 36.4854 48.0221 36.4536L48.0848 36.5369L47.8633 37.2149ZM54.9088 34.0163C54.9088 33.6075 54.7888 33.0332 54.1999 33.0332C53.7295 33.0332 53.491 33.3424 53.3805 33.4861C53.0009 34.0264 52.7916 35.2847 52.7916 35.7919C52.7916 36.0563 52.8216 36.2007 52.8516 36.278C52.9606 36.6305 53.2313 36.8075 53.5605 36.8075C53.8604 36.8075 54.1194 36.6095 54.2898 36.3776C54.3989 36.2231 54.6191 35.9356 54.8093 34.9539C54.8701 34.6449 54.9034 34.3311 54.9088 34.0163ZM55.4473 37.2705C54.8788 37.7898 54.2292 37.9661 53.4705 37.9661C52.9511 37.9661 52.2524 37.8556 51.7732 37.3925C51.3335 36.9729 51.1236 36.3654 51.1236 35.539C51.1236 34.5234 51.613 31.8644 54.2094 31.8644C54.8386 31.8644 55.4773 32.019 55.9476 32.482C56.4568 32.9898 56.5768 33.6075 56.5768 34.2705C56.5768 34.6339 56.527 35.0095 56.4466 35.3736C56.2871 36.1017 55.9769 36.7973 55.448 37.2712L55.4473 37.2705ZM60.1213 37.7681L60.0327 37.8508C59.679 37.9139 59.4138 37.9661 59.0375 37.9661C58.0873 37.9661 57.3689 37.6854 57.3689 36.7485C57.3689 36.3125 57.5788 35.5322 57.7335 34.9498L58.0982 33.5247L57.3245 33.5451L57.2584 33.4624L57.5788 32.4122L57.6565 32.36H58.3859L58.7062 31.0176L58.784 30.9451C59.3936 30.8221 59.9984 30.6765 60.5971 30.5085L60.6633 30.5715L60.4199 31.4346L60.1766 32.3803L61.304 32.36L61.3483 32.4319C61.1936 32.8692 61.1493 32.9844 61.0054 33.4725L60.9175 33.5458L59.9005 33.5254L59.4363 35.3444C59.3695 35.5736 59.2263 36.1566 59.2263 36.3322C59.2263 36.6658 59.514 36.7593 59.7458 36.7593C60.0334 36.7593 60.1881 36.6963 60.3865 36.6346L60.4526 36.6861L60.1213 37.7681ZM63.1172 36.3281C63.1935 36.339 63.2712 36.3492 63.3489 36.3492C63.6182 36.3492 64.0715 36.2251 64.4096 35.9268C64.7954 35.5776 65.1424 34.8576 65.1424 34.0759C65.1424 33.2122 64.6216 33.1092 64.4287 33.1092C64.1492 33.1092 63.9365 33.2631 63.7341 33.4075L63.1172 36.3281ZM63.8977 32.3892C64.1485 32.2041 64.5637 31.8956 65.1908 31.8956C66.1553 31.8956 66.8015 32.6671 66.8015 33.9729C66.8015 34.7132 66.5602 35.5878 66.0585 36.2359C65.1035 37.4807 63.8977 37.4698 62.8752 37.4698L62.413 39.9281L62.3449 39.9797C62.1233 39.9797 61.9114 39.9688 61.6891 39.9688C61.3619 39.9688 61.0722 39.9898 60.7144 40L60.6667 39.9281L61.2263 37.5112L61.4001 36.7295C61.593 35.8041 61.7853 34.8888 61.9591 33.9729C62.1431 33.0475 62.1813 32.7492 62.2385 32.2244L62.3067 32.1525L63.9563 31.8644L64.0136 31.9363L63.8977 32.3892ZM74.8027 36.0393L74.4878 36.9383L74.4141 37.0081C73.8088 37.2583 73.1667 37.2881 72.8995 37.2881C71.434 37.2881 70.2097 36.4488 70.2097 35.0508C70.2097 33.6624 71.3372 31.8644 73.8211 31.8644C74.8872 31.8644 75.348 32.1139 75.6384 32.2637L75.6629 32.3336L75.3603 33.1227L75.2383 33.1525C75.1783 33.0808 75.1093 33.017 75.0331 32.9627C74.7904 32.7831 74.3296 32.6536 73.8688 32.6536C72.3426 32.6536 71.543 33.9919 71.543 34.941C71.543 36.0393 72.4517 36.48 73.239 36.48C73.954 36.48 74.3664 36.219 74.6936 35.9993L74.8027 36.04V36.0393ZM79.5497 33.0522L79.4665 33.082C79.2545 32.7946 78.7644 32.5675 78.3036 32.5675C77.7495 32.5675 77.3248 32.8637 77.3248 33.32C77.3248 33.7654 77.7406 33.9437 78.0637 34.101L78.5436 34.3383C78.8115 34.4678 79.3472 34.8536 79.3472 35.5661C79.3472 36.4068 78.7562 37.2881 77.3705 37.2881C76.4482 37.2881 75.9581 36.9715 75.6909 36.7932L75.6629 36.7051L75.8756 35.9925L75.9492 35.9627C76.2539 36.2502 76.5954 36.5661 77.3057 36.5661C77.9894 36.5661 78.3588 36.1512 78.3588 35.7356C78.3588 35.3193 78.0637 35.1417 77.6022 34.9342L77.3705 34.8142C76.9185 34.5973 76.3459 34.28 76.3459 33.4881C76.3459 33.0529 76.5675 31.8651 78.2573 31.8651C79.0971 31.8651 79.5313 32.1424 79.716 32.2515L79.7528 32.3397L79.5497 33.0529V33.0522ZM84.0199 33.7722C84.0199 32.7634 83.2994 32.5939 82.8898 32.5939C81.1488 32.5939 80.928 35.0305 80.928 35.4007C80.928 36.2 81.4597 36.5492 82.0581 36.5492C83.2442 36.5492 83.6873 35.4502 83.8877 34.6312C83.9647 34.341 84.0206 34.0522 84.0206 33.7722H84.0199ZM82.0357 37.2881C80.5619 37.2881 79.7528 36.5986 79.7528 35.2407C79.7528 34.0224 80.4726 31.8644 82.8898 31.8644C84.3417 31.8644 85.206 32.5939 85.206 33.882C85.206 34.2319 85.1399 34.5912 85.0404 34.9417C84.7963 35.8 84.1201 37.2881 82.0357 37.2881ZM87.0826 36.6576C87.2271 36.6671 87.3505 36.6888 87.5052 36.6888C89.2686 36.6888 90.2168 35.3451 90.2168 34.1071C90.2168 33.1024 89.6088 32.7424 89.0416 32.7424C88.392 32.7424 87.9898 33.1241 87.8351 33.2719L87.0826 36.657V36.6576ZM88.0103 32.3831C88.4022 32.1295 88.8351 31.8644 89.4847 31.8644C90.4744 31.8644 91.3408 32.6373 91.3408 33.9803C91.3408 34.7532 91.0729 35.5464 90.6503 36.1071C89.619 37.4719 88.0519 37.4719 87.5052 37.4719C87.3096 37.4719 87.103 37.4719 86.9074 37.461C86.6906 38.4237 86.6395 38.6563 86.4125 39.9356L86.3403 39.9898L85.2578 40L85.206 39.9363L85.7731 37.5349L85.979 36.6997C86.1753 35.7892 86.3812 34.8692 86.5672 33.9593C86.7527 33.0176 86.8045 32.6475 86.8869 32.118L86.9585 32.0556L88.0621 31.8753L88.1139 31.9498L88.0103 32.3831ZM96.9712 33.7722C96.9712 32.7634 96.2507 32.5939 95.8411 32.5939C94.1001 32.5939 93.8793 35.0305 93.8793 35.4007C93.8793 36.2 94.411 36.5492 95.0095 36.5492C96.1955 36.5492 96.6386 35.4502 96.839 34.6312C96.916 34.341 96.9719 34.0522 96.9719 33.7722H96.9712ZM94.987 37.2881C93.5132 37.2881 92.7041 36.5986 92.7041 35.2407C92.7041 34.0224 93.4239 31.8644 95.8411 31.8644C97.293 31.8644 98.1573 32.5939 98.1573 33.882C98.1573 34.2319 98.0912 34.5912 97.9917 34.9417C97.7476 35.8 97.0714 37.2881 94.987 37.2881ZM99.3979 37.1973L99.3127 37.2685L98.2105 37.2881L98.1573 37.2271L98.5499 35.7478L98.7824 34.7844C99.1007 33.4759 99.1437 33.2129 99.3127 32.1586L99.387 32.0881C99.9051 32.0271 100.022 32.0169 100.53 31.9153L100.584 31.9864L100.351 32.878C100.43 32.7384 100.523 32.6064 100.626 32.4834C100.976 32.0671 101.4 31.8644 101.728 31.8644C101.898 31.8644 102.035 31.9153 102.215 31.9864L102.247 32.0773L101.834 33.0705L101.728 33.101C101.579 33.0197 101.463 32.9593 101.283 32.9593C100.997 32.9593 100.754 33.1017 100.552 33.3037C100.202 33.6495 100.043 34.2373 99.8103 35.24L99.5881 36.2441L99.3972 37.1973H99.3979ZM105.362 36.3383C105.318 36.4685 105.274 36.6115 105.23 36.7417L105.132 37.1024L105.043 37.1892C104.786 37.2566 104.521 37.2899 104.255 37.2881C104.047 37.2881 103.794 37.2658 103.576 37.179C102.962 36.939 102.962 36.4034 102.962 36.2292C102.962 35.8034 102.972 35.7478 103.422 33.8597L103.773 32.3749C103.422 32.3641 103.334 32.3749 102.983 32.3851L102.929 32.3092C103.038 31.9702 103.049 31.9383 103.127 31.6L103.202 31.5336C103.553 31.5559 103.652 31.5559 103.948 31.5559C104.112 30.9119 104.146 30.7369 104.255 30.1797L104.332 30.1139C104.858 29.9946 104.978 29.9614 105.46 29.8305L105.526 29.8963C105.449 30.1688 105.417 30.2895 105.307 30.7146L105.099 31.5559C105.592 31.5559 105.844 31.5444 106.293 31.5336L106.337 31.6C106.228 31.9268 106.195 32.0034 106.118 32.3308L106.03 32.3966C105.57 32.3851 105.449 32.3851 104.912 32.3742L104.321 34.842C104.287 35.0061 104.255 35.1702 104.21 35.3336C104.178 35.4976 104.112 35.7919 104.112 35.9336C104.112 36.3708 104.463 36.4251 104.649 36.4251C104.923 36.4251 105.176 36.3268 105.296 36.2827L105.362 36.3383H105.362ZM110.816 36.3383C110.771 36.4685 110.727 36.6115 110.683 36.7417L110.585 37.1024L110.496 37.1892C110.239 37.2566 109.974 37.2899 109.708 37.2881C109.5 37.2881 109.247 37.2658 109.029 37.179C108.415 36.939 108.415 36.4034 108.415 36.2292C108.415 35.8034 108.426 35.7478 108.875 33.8597L109.226 32.3749C108.875 32.3641 108.788 32.3749 108.437 32.3851L108.382 32.3092C108.491 31.9702 108.503 31.9383 108.58 31.6L108.655 31.5336C109.006 31.5559 109.105 31.5559 109.401 31.5559C109.565 30.9119 109.599 30.7369 109.708 30.1797L109.785 30.1139C110.311 29.9946 110.431 29.9614 110.914 29.8305L110.979 29.8963C110.902 30.1688 110.87 30.2895 110.76 30.7146L110.552 31.5559C111.045 31.5559 111.297 31.5444 111.747 31.5336L111.79 31.6C111.681 31.9268 111.648 32.0034 111.571 32.3308L111.484 32.3966C111.023 32.3851 110.902 32.3851 110.366 32.3742L109.774 34.842C109.74 35.0061 109.708 35.1702 109.664 35.3336C109.631 35.4976 109.565 35.7919 109.565 35.9336C109.565 36.3708 109.916 36.4251 110.102 36.4251C110.377 36.4251 110.629 36.3268 110.749 36.2827L110.815 36.3383H110.816ZM116.036 32.6468C115.883 32.6468 115.73 32.6359 115.579 32.6359C115.243 32.6359 114.583 32.6563 113.984 33.0678C112.918 33.8095 112.897 35.1369 112.897 35.1892C112.897 35.6834 113.161 36.4759 114.085 36.4759C114.359 36.4759 114.704 36.4041 114.969 36.2386C115.081 36.1668 115.192 36.0637 115.303 35.9715L116.036 32.6468ZM116.787 33.9532C116.432 35.5397 116.36 35.9295 116.157 37.1553L116.086 37.2271L115.132 37.2475L115.081 37.1756L115.151 36.7641C114.979 36.9085 114.532 37.2881 113.669 37.2881C112.633 37.2881 111.79 36.5478 111.79 35.261C111.79 34.4475 112.176 33.5627 112.603 33.0481C113.547 31.9254 114.857 31.8644 115.792 31.8644L117.193 31.8746L117.243 31.9566L116.787 33.9532ZM121.842 32.6936C121.11 32.7037 120.202 32.7153 119.553 33.5227C119.243 33.901 118.934 34.6047 118.934 35.2759C118.934 36.5363 119.832 36.6298 120.089 36.6298C120.244 36.6298 120.399 36.6095 120.553 36.5668C120.955 36.4624 121.11 36.3261 121.347 36.1261L122.11 32.7037L121.842 32.6936ZM123.378 31.9492C123.048 33.2814 122.956 33.7017 122.594 35.3708L122.296 36.777C122.048 37.9214 121.883 38.6664 121.43 39.202C120.924 39.8 120.151 40 119.399 40C118.852 40 118.274 39.8834 117.862 39.6746C117.604 39.5485 117.449 39.4014 117.254 39.2122L117.243 39.1173L117.666 38.4563H117.749C117.955 38.6881 118.397 39.202 119.357 39.202C120.646 39.202 120.903 38.1105 121.048 37.5119L121.182 36.9661C120.759 37.2176 120.388 37.4495 119.677 37.4495C118.656 37.4495 117.811 36.7668 117.811 35.4332C117.811 34.6983 118.038 34.0373 118.305 33.5756C119.233 31.9376 120.698 31.9071 121.894 31.8854L123.337 31.8644L123.378 31.9492ZM126.559 30.8434L126.49 30.9146L125.453 31.0563L125.384 30.9851L125.6 30.0427L125.68 29.962L126.727 29.8305L126.787 29.9017L126.559 30.8441V30.8434ZM126.252 32.3119L125.848 34.0441L125.443 35.8976C125.315 36.4949 125.196 37.0827 125.067 37.6705C124.998 37.9946 124.929 38.3186 124.821 38.6427C124.396 39.8278 123.526 39.9498 122.765 40L122.697 39.939L122.757 39.2915L122.815 39.2102C123.645 39.1186 123.774 38.7742 124.119 37.1437L124.603 34.8339C124.84 33.7498 124.9 33.4563 125.058 32.4949L125.127 32.4339C125.581 32.3729 125.69 32.3627 126.193 32.2508L126.253 32.3119H126.252ZM131.032 32.6468C130.879 32.6468 130.726 32.6359 130.575 32.6359C130.24 32.6359 129.579 32.6563 128.98 33.0678C127.914 33.8095 127.894 35.1369 127.894 35.1892C127.894 35.6834 128.157 36.4759 129.082 36.4759C129.356 36.4759 129.701 36.4041 129.965 36.2386C130.077 36.1668 130.189 36.0637 130.3 35.9715L131.032 32.6468ZM131.783 33.9532C131.428 35.5397 131.356 35.9295 131.153 37.1553L131.082 37.2271L130.128 37.2475L130.077 37.1756L130.148 36.7641C129.975 36.9085 129.528 37.2881 128.665 37.2881C127.629 37.2881 126.787 36.5478 126.787 35.261C126.787 34.4475 127.172 33.5627 127.599 33.0481C128.543 31.9254 129.853 31.8644 130.788 31.8644L132.189 31.8746L132.24 31.9566L131.783 33.9532ZM0 15.5932C0 6.98712 7.00939 0.00949153 15.6595 0V5.63458C10.1381 5.64475 5.66586 10.099 5.66586 15.5932C5.66586 21.0942 10.1484 25.5525 15.6779 25.5525C21.1747 25.5525 25.6913 21.1363 25.6913 15.5559L31.3558 15.5593C31.3558 24.2054 24.3369 31.1864 15.6779 31.1864C7.01893 31.1864 0 24.2054 0 15.5932Z" fill="#FEFEFE"/>
<path fill-rule="evenodd" clip-rule="evenodd" d="M8.86142 15.9322C8.86142 12 11.9132 8.81356 15.6779 8.81356C19.4426 8.81356 22.4944 12 22.4944 15.9322C22.4944 19.8644 19.4426 23.0508 15.6779 23.0508C11.9132 23.0508 8.86142 19.8637 8.86142 15.9322ZM20.4494 6.77966C20.4494 5.97513 20.6893 5.18866 21.1387 4.51971C21.5881 3.85077 22.2269 3.32939 22.9742 3.02151C23.7215 2.71363 24.5439 2.63307 25.3372 2.79003C26.1306 2.94698 26.8593 3.3344 27.4313 3.90329C28.0033 4.47219 28.3928 5.197 28.5506 5.98607C28.7084 6.77515 28.6274 7.59305 28.3179 8.33634C28.0083 9.07963 27.4841 9.71494 26.8115 10.1619C26.139 10.6089 25.3482 10.8475 24.5393 10.8475C23.4546 10.8475 22.4143 10.4189 21.6473 9.65603C20.8803 8.89317 20.4494 7.85851 20.4494 6.77966ZM46.2464 13.9966H47.0357C48.8046 13.9966 50.7616 13.9654 52.2769 13.2407C54.5496 12.1383 55.1487 9.99593 55.1487 8.70508C55.1487 7.25559 54.5809 6.15322 53.2865 5.58576C52.4344 5.20746 51.3608 5.17627 49.2777 5.23932L48.2041 5.27119L47.5722 8.01153L46.2464 13.9966ZM43.9104 24.8014L43.6895 25.0217L40.4067 25.0847L40.2172 24.8644L41.7012 18.7532L42.5219 15.2251C43.9738 8.95661 44.2894 7.44475 45.1414 2.97153L45.3943 2.7817L47.5722 2.75119L49.9409 2.71932C52.7814 2.68814 54.7384 2.71932 56.191 3.63254C57.7063 4.54644 58.6217 6.12203 58.6217 8.51593C58.6217 10.2163 57.9898 12.1064 56.949 13.3973C54.5496 16.3905 51.1079 16.5159 47.2252 16.5797H45.6465L44.7318 20.6746L43.9104 24.8014ZM70.89 14.7756C70.89 11.6231 68.8192 11.0922 67.6399 11.0922C62.6366 11.0922 61.9993 18.7092 61.9993 19.8637C61.9993 22.3614 63.5289 23.4536 65.2501 23.4536C68.6597 23.4536 69.9343 20.0197 70.5076 17.4603C70.7312 16.5546 70.89 15.6502 70.89 14.7756ZM65.1867 25.7627C60.9482 25.7627 58.6217 23.6095 58.6217 19.3641C58.6217 15.5559 60.6939 8.81356 67.6399 8.81356C71.8143 8.81356 74.2996 11.0922 74.2996 15.1186C74.2996 16.2115 74.1088 17.3356 73.8218 18.4278C73.1211 21.1119 71.177 25.7627 65.1867 25.7627ZM78.7003 24.8L78.4461 25.021L75.1401 25.0847L74.9813 24.8949L76.1578 20.2698L76.8572 17.2597C77.8101 13.1729 77.9376 12.3492 78.4461 9.05424L78.669 8.83254C80.2259 8.64271 80.5762 8.61085 82.1011 8.29424L82.2606 8.51593L81.5612 11.3037C81.8155 10.8603 82.0697 10.4481 82.3874 10.0685C83.4371 8.76881 84.7084 8.13559 85.6934 8.13559C86.2019 8.13559 86.6156 8.29424 87.1555 8.51525L87.2509 8.80136L86.0117 11.9058L85.6934 12.0007C85.2483 11.7471 84.8993 11.5573 84.3587 11.5573C83.4998 11.5573 82.7691 12.0007 82.1652 12.6346C81.1161 13.7112 80.6396 15.5485 79.9403 18.6854L79.2729 21.8217L78.7003 24.8ZM95.231 22.9993C95.1001 23.3803 94.9686 23.7925 94.837 24.1742L94.5412 25.2231L94.278 25.4766C93.8827 25.5722 93.0947 25.7627 91.9107 25.7627C91.2863 25.7627 90.5303 25.6997 89.8726 25.4441C88.0314 24.7464 88.0314 23.1898 88.0314 22.6814C88.0314 21.4427 88.0641 21.2841 89.4124 15.7892L90.4642 11.4692C89.4124 11.4373 89.1486 11.4692 88.0975 11.501L87.9326 11.2786C88.2611 10.2936 88.2939 10.1986 88.5243 9.21356L88.7546 9.02305C89.8071 9.08678 90.1023 9.08678 90.9904 9.08678C91.484 7.2122 91.5821 6.70441 91.9107 5.08407L92.1411 4.89424C93.7191 4.54441 94.0804 4.44949 95.5275 4.0678L95.7252 4.25831C95.4945 5.04927 95.2752 5.84347 95.0674 6.64068L94.4423 9.08678C95.9215 9.08678 96.6781 9.05492 98.0264 9.02305L98.1573 9.21356C97.8288 10.1668 97.7299 10.3892 97.5002 11.3424L97.2371 11.5322C95.8561 11.501 95.4948 11.501 93.8834 11.4692L92.1084 18.6475C92.0095 19.1241 91.9107 19.6 91.7791 20.0773C91.681 20.5532 91.484 21.4108 91.484 21.8237C91.484 23.0949 92.5358 23.2536 93.0947 23.2536C93.9161 23.2536 94.6727 22.9675 95.034 22.84L95.2317 22.9993H95.231ZM108.706 11.0224C107.563 10.9586 107.276 10.9586 105.91 10.9275C105.687 11.941 104.606 16.882 104.384 17.9898C103.589 21.7275 103.303 23.5647 103.113 24.7675L102.89 24.9573C101.396 24.9573 100.951 24.9898 99.6794 25.0847L99.5206 24.8949C99.8382 23.2156 100.506 20.5241 100.855 18.8454L102.604 10.9268C102.254 10.9268 100.538 10.9586 100.188 10.9586L99.9971 10.7688C100.283 9.78712 100.315 9.72339 100.57 8.64678L100.824 8.42509C101.81 8.52 102.127 8.52 103.08 8.52L103.526 6.4617C104.034 3.92746 104.352 2.31254 105.592 1.20407C106.863 0.0637288 108.58 0 109.342 0C110.456 0 111.218 0.158644 111.631 0.253559L111.79 0.507119C111.581 1.23066 111.39 1.95924 111.218 2.6922L110.964 2.88203C110.614 2.75525 110.233 2.66034 109.661 2.66034C109.025 2.66034 108.357 2.85017 107.944 3.32542C107.435 3.89559 107.181 4.94102 106.736 6.87322L106.387 8.55186C107.88 8.55186 108.452 8.55186 109.407 8.48814L109.565 8.7417C109.279 9.66034 109.215 9.94576 108.961 10.7688L108.706 11.0224ZM121.332 14.7756C121.332 11.6231 119.26 11.0922 118.082 11.0922C113.079 11.0922 112.441 18.7092 112.441 19.8637C112.441 22.3614 113.971 23.4536 115.691 23.4536C119.102 23.4536 120.376 20.0197 120.95 17.4603C121.173 16.5546 121.332 15.6502 121.332 14.7756ZM115.629 25.7627C111.389 25.7627 109.064 23.6095 109.064 19.3641C109.064 15.5559 111.135 8.81356 118.082 8.81356C122.256 8.81356 124.742 11.0922 124.742 15.1186C124.742 16.2115 124.551 17.3356 124.264 18.4278C123.562 21.1119 121.619 25.7627 115.629 25.7627ZM138.324 24.8956L138.101 25.0529H129.915L125.583 25.0847L125.424 24.9268L127.017 18.1831L128.61 11.1885L130.393 2.9322L130.584 2.77492L134.119 2.71186L134.246 2.90102L132.367 10.5268L130.997 16.3878L129.66 22.3742C133.068 22.4061 134.055 22.3742 138.897 22.2169L139.056 22.438L138.324 24.8956ZM149.211 5.80542L148.949 6.05559L145.515 6.49288L145.32 6.24203L146.007 3.36746L146.3 3.11797L149.701 2.71186L149.963 2.93017L149.211 5.80475V5.80542ZM144.961 24.8346L144.731 24.9905L141.265 25.0847L141.101 24.8976C142.017 21.398 142.279 20.3668 143.162 16.5858L143.586 14.6481C144.175 12.1173 144.273 11.5234 144.633 9.2739L144.862 9.05492L148.426 8.55525L148.59 8.77356C147.772 11.8047 147.576 12.6488 146.595 16.8983L145.908 20.1166L144.961 24.8346ZM161.55 14.7756C161.55 11.6231 159.478 11.0922 158.298 11.0922C153.296 11.0922 152.658 18.7092 152.658 19.8637C152.658 22.3614 154.188 23.4536 155.909 23.4536C159.319 23.4536 160.594 20.0197 161.167 17.4603C161.39 16.5546 161.55 15.6502 161.55 14.7756ZM155.844 25.7627C151.607 25.7627 149.281 23.6095 149.281 19.3641C149.281 15.5559 151.352 8.81356 158.299 8.81356C162.474 8.81356 164.959 11.0922 164.959 15.1186C164.959 16.2115 164.767 17.3356 164.48 18.4278C163.78 21.1119 161.835 25.7627 155.845 25.7627H155.844ZM179.713 24.7993L179.463 24.9892L176.266 25.0847L176.14 24.8631L177.455 19.1925L178.239 15.6129C178.396 14.8834 178.553 14.1234 178.553 13.3627C178.553 11.4624 177.393 10.8285 175.921 10.8285C173.978 10.8285 172.692 11.8108 171.752 12.5078C170.593 17.8298 170.216 19.5098 169.214 24.7993L168.994 24.9892L165.797 25.0847L165.64 24.8631L166.926 19.4142L167.428 17.038C168.273 13.2997 168.43 12.4753 168.931 9.02305L169.151 8.80136C170.623 8.61153 170.969 8.5478 172.473 8.23051L172.629 8.4522L172.191 10.0685C173.414 9.24475 174.98 8.13559 177.582 8.13559C178.616 8.13559 182 8.42102 182 12.2542C182 13.9017 181.374 16.6895 180.966 18.4631L180.496 20.6176L179.713 24.7993Z" fill="#FEFEFE"/>
</svg>
