<svg width="50" height="42" viewBox="0 0 50 42" fill="none" xmlns="http://www.w3.org/2000/svg">
<path d="M11.88 41.44C8.12 41.44 5.28 40.08 3.36 37.36C1.52 34.56 0.6 30.68 0.6 25.72C0.6 20.04 2 15.04 4.8 10.72C7.6 6.4 11.88 2.84 17.64 0.0399966L21.48 7.72C17.88 9.56 15.16 11.68 13.32 14.08C11.56 16.4 10.68 19.36 10.68 22.96C10.92 22.88 11.32 22.84 11.88 22.84C14.44 22.84 16.6 23.64 18.36 25.24C20.2 26.76 21.12 28.88 21.12 31.6C21.12 34.64 20.24 37.04 18.48 38.8C16.72 40.56 14.52 41.44 11.88 41.44ZM40.2 41.44C36.44 41.44 33.6 40.08 31.68 37.36C29.84 34.56 28.92 30.68 28.92 25.72C28.92 20.04 30.32 15.04 33.12 10.72C35.92 6.4 40.2 2.84 45.96 0.0399966L49.8 7.72C46.2 9.56 43.48 11.68 41.64 14.08C39.88 16.4 39 19.36 39 22.96C39.24 22.88 39.64 22.84 40.2 22.84C42.76 22.84 44.92 23.64 46.68 25.24C48.52 26.76 49.44 28.88 49.44 31.6C49.44 34.64 48.56 37.04 46.8 38.8C45.04 40.56 42.84 41.44 40.2 41.44Z" fill="#94B7D1"/>
</svg>
