<svg width="29" height="39" viewBox="0 0 29 39" fill="none" xmlns="http://www.w3.org/2000/svg">
<path d="M5.61504 27.1259C1.48865 30.6437 3.92683 31.9094 3.39781 36.5836C3.24964 37.8879 4.34192 38.5262 5.39498 37.7399C8.27718 35.5888 10.282 35.9368 11.5052 33.8182C11.9592 32.9514 12.2634 32.0141 12.4047 31.046L5.61504 27.1259Z" fill="#FCD462"/>
<path d="M6.89404 27.864C4.82052 29.7783 6.14387 30.5811 5.84025 33.2526C5.7961 33.4045 5.80418 33.5669 5.86319 33.7137C5.9222 33.8605 6.02874 33.9832 6.16576 34.0624C6.30278 34.1415 6.46238 34.1723 6.61902 34.15C6.77566 34.1277 6.9203 34.0536 7.02981 33.9394C8.74492 32.6592 9.93849 32.8661 10.6664 31.6054C10.8848 31.1987 11.0412 30.7616 11.1304 30.3086L6.89404 27.864Z" fill="#FE7058"/>
<path d="M22.7541 17.2118L14.9777 30.6808L4.65083 24.7185L12.4272 11.2495C13.6172 9.18459 15.3159 7.45861 17.3617 6.23588C19.13 5.16834 21.1201 4.52167 23.1782 4.34586C23.2206 4.33871 23.2635 4.33542 23.3065 4.33603C23.3195 4.36937 23.3374 4.40551 23.3553 4.44165C24.2333 6.31264 24.6699 8.36027 24.6315 10.4267C24.5945 12.8115 23.9482 15.1472 22.7541 17.2118V17.2118Z" fill="#EEEFEE"/>
<path d="M24.6319 10.4266C24.5948 12.8114 23.9485 15.1471 22.7544 17.2117L14.978 30.6807L13.5256 29.8422L20.673 17.4625C21.8581 15.4151 22.5038 13.1002 22.5495 10.735" fill="#E1E6E9"/>
<path d="M16.5589 16.0174C17.7659 16.7143 19.3092 16.3007 20.0061 15.0937C20.703 13.8868 20.2894 12.3434 19.0824 11.6465C17.8754 10.9497 16.3321 11.3632 15.6352 12.5702C14.9383 13.7772 15.3519 15.3206 16.5589 16.0174Z" fill="#89C5CD"/>
<path d="M16.4213 16.2615C15.9412 15.9843 15.5541 15.5709 15.3089 15.0737C15.0637 14.5765 14.9714 14.0177 15.0438 13.4681C15.1161 12.9184 15.3499 12.4026 15.7154 11.9857C16.081 11.5689 16.5619 11.2699 17.0974 11.1264C17.6329 10.9829 18.1989 11.0014 18.7239 11.1796C19.2489 11.3578 19.7092 11.6877 20.0467 12.1275C20.3842 12.5674 20.5837 13.0974 20.6199 13.6506C20.6562 14.2038 20.5276 14.7553 20.2504 15.2355C19.878 15.8786 19.2658 16.3478 18.548 16.5401C17.8302 16.7325 17.0654 16.6323 16.4213 16.2615ZM18.9449 11.8906C18.5605 11.6687 18.119 11.5657 17.6761 11.5947C17.2332 11.6238 16.8089 11.7835 16.4568 12.0536C16.1047 12.3238 15.8406 12.6924 15.6979 13.1126C15.5553 13.5329 15.5404 13.986 15.6553 14.4147C15.7702 14.8434 16.0096 15.2284 16.3433 15.5211C16.677 15.8137 17.0899 16.0008 17.53 16.0588C17.97 16.1167 18.4173 16.0428 18.8154 15.8465C19.2134 15.6502 19.5443 15.3403 19.7662 14.9559C20.0632 14.4404 20.1435 13.8281 19.9895 13.2534C19.8355 12.6787 19.4598 12.1886 18.9449 11.8906V11.8906Z" fill="#323C6B"/>
<path d="M11.3242 25.09C11.26 25.0529 11.2132 24.9919 11.194 24.9203C11.1748 24.8487 11.1849 24.7724 11.2219 24.7082L12.955 21.7064C12.992 21.6422 13.0531 21.5954 13.1247 21.5762C13.1963 21.557 13.2726 21.5671 13.3368 21.6041C13.401 21.6412 13.4479 21.7022 13.467 21.7738C13.4862 21.8455 13.4762 21.9218 13.4391 21.986L11.7061 24.9877C11.669 25.0519 11.608 25.0987 11.5363 25.1179C11.4647 25.1371 11.3884 25.1271 11.3242 25.09Z" fill="#323C6B"/>
<path d="M8.92518 23.6883C8.86098 23.6513 8.81413 23.5902 8.79494 23.5186C8.77575 23.447 8.7858 23.3707 8.82287 23.3065L9.58485 21.9867C9.62191 21.9225 9.68297 21.8757 9.75458 21.8565C9.82618 21.8373 9.90248 21.8473 9.96668 21.8844C10.0309 21.9215 10.0777 21.9825 10.0969 22.0541C10.1161 22.1257 10.1061 22.202 10.069 22.2662L9.30674 23.5865C9.26959 23.6505 9.20855 23.6972 9.13702 23.7163C9.06548 23.7354 8.9893 23.7253 8.92518 23.6883Z" fill="#323C6B"/>
<path d="M13.7333 26.4637C13.6691 26.4267 13.6222 26.3656 13.603 26.294C13.5839 26.2224 13.5939 26.1461 13.631 26.0819L14.393 24.7621C14.43 24.6979 14.4911 24.651 14.5627 24.6319C14.6343 24.6127 14.7106 24.6227 14.7748 24.6598C14.839 24.6968 14.8858 24.7579 14.905 24.8295C14.9242 24.9011 14.9142 24.9774 14.8771 25.0416L14.1148 26.3619C14.0777 26.4259 14.0167 26.4726 13.9451 26.4917C13.8736 26.5108 13.7974 26.5007 13.7333 26.4637Z" fill="#323C6B"/>
<path d="M24.6314 10.4272C23.8796 10.6909 23.0798 10.7893 22.2865 10.7155C21.4932 10.6417 20.7252 10.3975 20.035 9.99964C19.3448 9.60175 18.7486 9.05953 18.2872 8.41004C17.8258 7.76056 17.5101 7.01911 17.3615 6.23637C19.1299 5.16883 21.12 4.52216 23.178 4.34636C23.2204 4.33921 23.2634 4.33592 23.3064 4.33653C23.3194 4.36987 23.3373 4.406 23.3551 4.44214C24.2331 6.31314 24.6698 8.36077 24.6314 10.4272V10.4272Z" fill="#FE7058"/>
<path d="M24.6315 10.4273C23.9635 10.6625 23.2566 10.7672 22.5491 10.7356C22.5478 10.7155 22.5514 10.6982 22.5501 10.678C22.5885 8.61163 22.1518 6.564 21.2738 4.69301C21.2669 4.68258 21.2628 4.66731 21.2559 4.65687C21.8879 4.50481 22.5304 4.40104 23.1781 4.34646C23.2205 4.33931 23.2634 4.33602 23.3064 4.33663C23.3194 4.36997 23.3373 4.40611 23.3552 4.44225C24.2332 6.31324 24.6698 8.36087 24.6315 10.4273V10.4273Z" fill="#EA6453"/>
<path d="M5.43408 25.1714L14.1933 30.2285L13.1814 31.9811L4.42221 26.924L5.43408 25.1714Z" fill="#9297AB"/>
<path d="M13.0429 32.2235L4.2832 27.1661C4.21899 27.129 4.17215 27.068 4.15296 26.9964C4.13377 26.9247 4.14382 26.8484 4.18088 26.7842L5.19276 25.0316C5.22982 24.9674 5.29088 24.9206 5.36249 24.9014C5.4341 24.8822 5.51039 24.8922 5.57459 24.9293L14.3343 29.9867C14.3985 30.0238 14.4453 30.0849 14.4645 30.1565C14.4837 30.2281 14.4737 30.3044 14.4366 30.3686L13.4247 32.1212C13.3877 32.1854 13.3266 32.2322 13.255 32.2514C13.1834 32.2706 13.1071 32.2606 13.0429 32.2235ZM4.80479 26.8217L13.0803 31.5996L13.8127 30.3311L5.53714 25.5532L4.80479 26.8217Z" fill="#323C6B"/>
<path d="M14.8378 30.9234L4.5109 24.9612C4.4467 24.9241 4.39985 24.8631 4.38066 24.7915C4.36148 24.7199 4.37152 24.6436 4.40859 24.5794L12.1849 11.1104C13.3998 9.0048 15.1325 7.24452 17.2186 5.99648C19.0247 4.90942 21.0552 4.24917 23.1553 4.06609C23.2059 4.05797 23.2571 4.0545 23.3084 4.05574C23.3646 4.0559 23.4195 4.07301 23.4658 4.10484C23.5122 4.13667 23.5479 4.18173 23.5682 4.23414C23.5784 4.26005 23.5922 4.28868 23.6068 4.31711C24.5017 6.22848 24.9485 8.31895 24.913 10.4292C24.8743 12.8625 24.2144 15.2455 22.996 17.3521L15.2196 30.8211C15.1826 30.8853 15.1215 30.9322 15.0499 30.9514C14.9783 30.9706 14.902 30.9605 14.8378 30.9234V30.9234ZM5.0325 24.6168L14.8752 30.2995L22.5118 17.0726C23.6809 15.0486 24.3137 12.7595 24.3501 10.4224C24.3852 8.42546 23.9703 6.44621 23.1361 4.63149C21.1453 4.81645 19.2216 5.44729 17.5079 6.4772C15.503 7.67605 13.8377 9.36729 12.67 11.3904L5.0325 24.6168Z" fill="#323C6B"/>
<path d="M19.8958 10.2432C19.1707 9.82505 18.5443 9.2553 18.0595 8.5729C17.5747 7.89049 17.2429 7.1115 17.0868 6.28912C17.076 6.23306 17.0827 6.17505 17.1059 6.12289C17.129 6.07073 17.1677 6.02692 17.2165 5.99735C19.023 4.91049 21.0538 4.25044 23.1541 4.06752C23.2047 4.0594 23.256 4.05593 23.3072 4.05718C23.3635 4.05734 23.4183 4.07445 23.4647 4.10627C23.511 4.1381 23.5467 4.18316 23.567 4.23557C23.5772 4.26148 23.5911 4.29011 23.6056 4.31854C24.5006 6.22992 24.9473 8.32038 24.9119 10.4306C24.9109 10.4877 24.8924 10.543 24.859 10.5893C24.8256 10.6355 24.7788 10.6705 24.725 10.6894C23.9356 10.9681 23.0952 11.0726 22.2615 10.9956C21.4279 10.9185 20.6208 10.6619 19.8958 10.2432V10.2432ZM17.6752 6.37454C17.8366 7.08038 18.1419 7.74531 18.5721 8.32769C19.0023 8.91008 19.5481 9.39738 20.1753 9.75908C20.8022 10.1208 21.4972 10.3488 22.2165 10.4286C22.9359 10.5084 23.6639 10.4382 24.3548 10.2226C24.3589 8.29251 23.9429 6.38466 23.1358 4.63147C21.2107 4.80976 19.3475 5.40453 17.6752 6.37454V6.37454Z" fill="#323C6B"/>
<path d="M20.3149 21.4502C21.7473 23.3759 22.3904 25.7759 22.1128 28.1598L22.1042 28.2317C21.9631 29.3107 21.514 30.3263 20.8107 31.1566C20.1073 31.987 19.1795 32.5971 18.1384 32.9137L17.0114 33.2656C17.1662 31.6795 16.8688 30.0819 16.1537 28.6577L20.3149 21.4502Z" fill="#FE7058"/>
<path d="M18.1373 32.912L17.0117 33.2627C17.0505 32.9226 17.0627 32.58 17.0482 32.238C17.9697 31.8594 18.7747 31.2438 19.3816 30.4537C19.9885 29.6637 20.3758 28.7272 20.5041 27.7393C20.5056 27.7143 20.512 27.6921 20.5135 27.6672C20.7089 25.9185 20.419 24.1498 19.6757 22.555L20.313 21.4512C21.7468 23.3756 22.3912 25.7752 22.1144 28.159C22.1088 28.1826 22.1056 28.2068 22.1051 28.2311C21.9639 29.3103 21.5146 30.3258 20.8108 31.1561C20.1071 31.9863 19.1788 32.596 18.1373 32.912V32.912Z" fill="#EA6453"/>
<path d="M16.8721 33.5064C16.8579 33.498 16.8444 33.4884 16.8317 33.4779C16.7959 33.4477 16.7682 33.409 16.7512 33.3654C16.7342 33.3218 16.7285 33.2745 16.7345 33.2281C16.8776 31.7003 16.5909 30.1629 15.9069 28.7893C15.8846 28.7474 15.8734 28.7006 15.8742 28.6532C15.8751 28.6058 15.8879 28.5594 15.9116 28.5183L20.0732 21.3103C20.0956 21.2715 20.1271 21.2386 20.165 21.2145C20.2028 21.1904 20.2459 21.1757 20.2906 21.1718C20.3353 21.1678 20.3803 21.1747 20.4218 21.1918C20.4633 21.2089 20.5 21.2357 20.5289 21.2701C22.0179 23.2507 22.6848 25.7298 22.3905 28.1901L22.3817 28.2658C22.2341 29.398 21.7632 30.4637 21.0253 31.3351C20.2875 32.2065 19.3141 32.8468 18.2217 33.1791L17.0953 33.53C17.0585 33.5417 17.0196 33.5457 16.9812 33.5416C16.9428 33.5375 16.9056 33.5255 16.8721 33.5064V33.5064ZM16.4727 28.6635C17.1045 29.9733 17.3973 31.4209 17.3241 32.8733L18.0549 32.6451C19.0446 32.3448 19.9268 31.7654 20.5957 30.9765C21.2647 30.1875 21.6919 29.2224 21.8263 28.1969L21.835 28.1282C22.0749 25.9611 21.5471 23.7784 20.3435 21.9602L16.4727 28.6635Z" fill="#323C6B"/>
<path d="M5.81624 22.688C4.22527 22.7808 2.69305 23.322 1.39679 24.2491L1.13807 23.0973C0.891746 22.0373 0.956165 20.9288 1.32362 19.9044C1.69107 18.8801 2.34598 17.9834 3.20993 17.3217L3.26788 17.2784C5.19361 15.846 7.59358 15.2029 9.97751 15.4805L5.81624 22.688Z" fill="#FE7058"/>
<path d="M1.1387 23.0983L1.39777 24.2484C1.6729 24.0447 1.96351 23.8629 2.26696 23.7045C2.13416 22.7171 2.26475 21.7122 2.6455 20.7915C3.02625 19.8709 3.64362 19.0673 4.43505 18.4622C4.45591 18.4484 4.47194 18.4318 4.4928 18.4181C5.90947 17.3745 7.58613 16.7412 9.33894 16.5875L9.97625 15.4836C7.59272 15.2042 5.19247 15.8459 3.26637 17.2775C3.24876 17.2942 3.22939 17.309 3.20862 17.3216C2.3446 17.9834 1.68978 18.8804 1.32264 19.905C0.955511 20.9296 0.891644 22.0383 1.1387 23.0983V23.0983Z" fill="#EA6453"/>
<path d="M1.25702 24.4917C1.22341 24.4722 1.19421 24.446 1.1713 24.4147C1.14838 24.3833 1.13225 24.3475 1.12393 24.3096L0.865138 23.159C0.606964 22.0466 0.674968 20.8833 1.061 19.8085C1.44704 18.7338 2.13474 17.7931 3.04172 17.0992L3.10204 17.054C5.08582 15.5691 7.56624 14.9074 10.026 15.2069C10.0702 15.2148 10.1118 15.2332 10.1474 15.2605C10.1829 15.2879 10.2114 15.3234 10.2303 15.3641C10.2492 15.4048 10.2581 15.4495 10.2561 15.4943C10.2542 15.5391 10.2414 15.5828 10.219 15.6217L6.05859 22.8278C6.03488 22.8688 6.00113 22.9032 5.96049 22.9276C5.91985 22.952 5.87367 22.9657 5.82629 22.9674C4.2947 23.0617 2.81995 23.5822 1.56839 24.47C1.53118 24.4985 1.48741 24.5171 1.44112 24.5242C1.39483 24.5313 1.3475 24.5267 1.30346 24.5107C1.28748 24.5057 1.27195 24.4993 1.25702 24.4917ZM9.52019 15.714C7.34436 15.582 5.1909 16.2154 3.43315 17.5046L3.37861 17.5454C2.5573 18.1747 1.93484 19.0274 1.58581 20.0013C1.23678 20.9753 1.17599 22.0293 1.41071 23.0369L1.57852 23.7839C2.79995 22.9944 4.20008 22.5242 5.65047 22.4166L9.52019 15.714Z" fill="#323C6B"/>
<path d="M3.80551 38.1869C3.54139 38.0131 3.33492 37.7647 3.21238 37.4732C3.08983 37.1818 3.05673 36.8605 3.1173 36.5501C3.24666 35.303 3.20535 34.0441 2.99451 32.8081C2.72424 30.8556 2.52936 29.4455 5.22881 27.2722C5.27273 27.237 5.32629 27.2158 5.38246 27.2114C5.43863 27.2071 5.4948 27.2199 5.54359 27.2481L12.3333 31.1681C12.3766 31.1932 12.4125 31.2295 12.437 31.2732C12.4615 31.3168 12.4738 31.3663 12.4727 31.4164C12.4393 32.3092 12.1887 33.1805 11.7425 33.9546C11.0001 35.2405 10.0054 35.6674 8.74599 36.2075C7.61277 36.6533 6.54133 37.2424 5.55781 37.9605C5.32175 38.168 5.02924 38.3004 4.71759 38.341C4.40593 38.3816 4.08925 38.3284 3.80793 38.1883L3.80551 38.1869ZM5.4311 27.8286C3.13297 29.7295 3.28877 30.8684 3.54765 32.7311C3.76382 34.0133 3.80609 35.3188 3.67335 36.6123C3.62789 36.8144 3.6427 37.0253 3.71592 37.2191C3.78914 37.4128 3.91757 37.5808 4.08531 37.7023C4.2728 37.7856 4.48063 37.8121 4.68301 37.7784C4.8854 37.7446 5.07343 37.6522 5.22378 37.5126C6.24226 36.7674 7.3522 36.156 8.52638 35.6934C9.73593 35.1749 10.6095 34.8 11.2591 33.6749C11.6306 33.0302 11.8525 32.3103 11.9085 31.5684L5.4311 27.8286Z" fill="#323C6B"/>
<path d="M14.3472 6.48272C14.3083 6.46026 14.2753 6.42875 14.2512 6.39085C14.227 6.35295 14.2123 6.30978 14.2084 6.26501C14.2045 6.22024 14.2114 6.17518 14.2286 6.13366C14.2458 6.09214 14.2728 6.05537 14.3072 6.02648L14.4791 5.87976C14.5074 5.85559 14.5402 5.83733 14.5757 5.82602C14.6111 5.81472 14.6485 5.81061 14.6855 5.81393C14.7226 5.81725 14.7586 5.82794 14.7915 5.84537C14.8244 5.8628 14.8534 5.88662 14.877 5.91543C14.9005 5.94424 14.9181 5.97747 14.9286 6.01315C14.9392 6.04884 14.9425 6.08627 14.9384 6.12326C14.9342 6.16024 14.9228 6.19603 14.9047 6.22853C14.8865 6.26102 14.8621 6.28957 14.8328 6.3125L14.6667 6.45481C14.6227 6.49169 14.5685 6.51416 14.5113 6.51915C14.4542 6.52414 14.3969 6.51143 14.3472 6.48272V6.48272Z" fill="#323C6B"/>
<path d="M15.3803 5.68099C15.3453 5.66089 15.3152 5.63334 15.292 5.6003C15.2708 5.57029 15.2558 5.5364 15.2477 5.50057C15.2396 5.46474 15.2387 5.42767 15.245 5.39148C15.2512 5.35529 15.2646 5.32069 15.2842 5.28966C15.3039 5.25863 15.3294 5.23177 15.3595 5.21062C15.7222 4.95463 16.0499 4.74037 16.3593 4.55556C17.2838 4.00319 18.2641 3.55024 19.2839 3.20429C19.3532 3.18305 19.4281 3.18957 19.4927 3.22248C19.5573 3.25538 19.6066 3.3121 19.6301 3.38065C19.6537 3.44921 19.6497 3.52424 19.619 3.58991C19.5883 3.65559 19.5333 3.70677 19.4656 3.73265C18.4829 4.06639 17.5383 4.50318 16.6476 5.03572C16.3505 5.21476 16.0336 5.4204 15.6817 5.66777C15.638 5.69856 15.5863 5.71618 15.5329 5.71852C15.4795 5.72086 15.4266 5.70784 15.3803 5.68099V5.68099Z" fill="#323C6B"/>
</svg>
