<svg width="36" height="36" viewBox="0 0 36 36" fill="none" xmlns="http://www.w3.org/2000/svg">
<g clip-path="url(#clip0)">
<path d="M16.2214 -0.000976562H19.7796V6.6611H16.2214V-0.000976562Z" fill="#3A556A"/>
<path d="M16.2214 1.37549H19.7796V2.42778H16.2214V1.37549Z" fill="#E1E6E9"/>
<path d="M24.8163 5.16699H11.1839C10.7687 5.16699 10.4321 5.50357 10.4321 5.91877V11.2953H25.5681V5.91638C25.5668 5.50214 25.2305 5.16699 24.8163 5.16699Z" fill="#E1E6E9"/>
<path d="M26.8994 8.54541H9.10065C8.68565 8.54541 8.34916 8.88171 8.34888 9.29671V16.3619H27.6512V9.29671C27.651 8.88171 27.3144 8.54541 26.8994 8.54541Z" fill="#D5D6DB"/>
<path d="M30.0659 12.8682H5.93419C5.54848 12.8682 5.23584 13.1808 5.23584 13.5665V23.1638H30.7642V13.5665C30.7642 13.1808 30.4516 12.8682 30.0659 12.8682Z" fill="#E1E6E9"/>
<path d="M1.91675 21.2952C1.6067 21.3656 1.41226 21.6739 1.48267 21.9841C1.51206 22.1136 1.58542 22.2291 1.69017 22.3107C3.72416 23.8954 8.37515 28.1614 11.4987 35.9989H18.0001V17.564L1.91675 21.2952Z" fill="#EA6453"/>
<path d="M34.0836 21.2953L18.0002 17.564V35.999H24.5016C27.6252 28.1615 32.2771 23.8955 34.3101 22.3108C34.561 22.1154 34.6057 21.7536 34.4102 21.5028C34.3286 21.398 34.2131 21.3247 34.0836 21.2953Z" fill="#FE7058"/>
<path d="M23.7815 6.4248H23.159H11.5959V7.67039H23.159H23.7815H24.4041V6.4248H23.7815Z" fill="#3E6B82"/>
<path d="M24.7019 10.0254H26.3195V11.6429H24.7019V10.0254Z" fill="#3A556A"/>
<path d="M21.6975 10.0254H23.3151V11.6429H21.6975V10.0254Z" fill="#3A556A"/>
<path d="M18.6931 10.0254H20.3107V11.6429H18.6931V10.0254Z" fill="#3A556A"/>
<path d="M15.689 10.0254H17.3065V11.6429H15.689V10.0254Z" fill="#3A556A"/>
<path d="M12.6851 10.0254H14.3026V11.6429H12.6851V10.0254Z" fill="#3A556A"/>
<path d="M9.68091 10.0254H11.2985V11.6429H9.68091V10.0254Z" fill="#3A556A"/>
<path d="M26.9448 14.7236H29.1038V16.8826H26.9448V14.7236Z" fill="#3A556A"/>
<path d="M22.9351 14.7236H25.094V16.8826H22.9351V14.7236Z" fill="#3A556A"/>
<path d="M18.9255 14.7236H21.0845V16.8826H18.9255V14.7236Z" fill="#3A556A"/>
<path d="M14.9158 14.7236H17.0747V16.8826H14.9158V14.7236Z" fill="#3A556A"/>
<path d="M10.9065 14.7236H13.0655V16.8826H10.9065V14.7236Z" fill="#3A556A"/>
<path d="M6.89648 14.7236H9.05545V16.8826H6.89648V14.7236Z" fill="#3A556A"/>
</g>
<defs>
<clipPath id="clip0">
<rect width="36" height="36" fill="white" transform="translate(0 -0.000976562)"/>
</clipPath>
</defs>
</svg>
