<svg width="154" height="126" viewBox="0 0 154 126" fill="none" xmlns="http://www.w3.org/2000/svg">
<mask id="mask0" mask-type="alpha" maskUnits="userSpaceOnUse" x="0" y="0" width="250" height="126">
<path d="M191.54 124.703C191.35 88.1138 161.563 58.5942 124.976 58.7575C88.3928 58.9208 58.873 88.7051 59.0094 125.295L1.27786 125.552C0.988734 57.0625 56.2519 1.30559 124.724 0.999977C193.19 0.694396 248.945 55.9559 249.275 124.445" fill="white"/>
</mask>
<g mask="url(#mask0)">
<mask id="mask1" mask-type="alpha" maskUnits="userSpaceOnUse" x="-54" y="-96" width="358" height="352">
<ellipse cx="125.45" cy="79.944" rx="147.746" ry="144.228" transform="rotate(165.867 125.45 79.944)" fill="#E8F3FC"/>
</mask>
<g mask="url(#mask1)">
<ellipse cx="149.559" cy="122.078" rx="2.65123" ry="2.59131" transform="rotate(179.305 149.559 122.078)" fill="white"/>
<ellipse cx="140.943" cy="122.181" rx="2.65123" ry="2.59131" transform="rotate(179.305 140.943 122.181)" fill="white"/>
<ellipse cx="132.327" cy="122.287" rx="2.65123" ry="2.59131" transform="rotate(179.305 132.327 122.287)" fill="white"/>
<ellipse cx="123.711" cy="122.39" rx="2.65123" ry="2.59131" transform="rotate(179.305 123.711 122.39)" fill="white"/>
<ellipse cx="115.095" cy="122.496" rx="2.65123" ry="2.59131" transform="rotate(179.305 115.095 122.496)" fill="white"/>
<ellipse cx="106.48" cy="122.601" rx="2.65123" ry="2.59131" transform="rotate(179.305 106.48 122.601)" fill="white"/>
<ellipse cx="97.8634" cy="122.705" rx="2.65123" ry="2.59131" transform="rotate(179.305 97.8634 122.705)" fill="white"/>
<ellipse cx="89.2482" cy="122.81" rx="2.65123" ry="2.59131" transform="rotate(179.305 89.2482 122.81)" fill="white"/>
<ellipse cx="80.6318" cy="122.912" rx="2.65123" ry="2.59131" transform="rotate(179.305 80.6318 122.912)" fill="white"/>
<ellipse cx="72.0158" cy="123.019" rx="2.65123" ry="2.59131" transform="rotate(179.305 72.0158 123.019)" fill="white"/>
<ellipse cx="63.4003" cy="123.121" rx="2.65123" ry="2.59131" transform="rotate(179.305 63.4003 123.121)" fill="white"/>
<ellipse cx="54.7841" cy="123.226" rx="2.65123" ry="2.59131" transform="rotate(179.305 54.7841 123.226)" fill="white"/>
<ellipse cx="46.1686" cy="123.334" rx="2.65123" ry="2.59131" transform="rotate(179.305 46.1686 123.334)" fill="white"/>
<ellipse cx="37.5524" cy="123.435" rx="2.65123" ry="2.59131" transform="rotate(179.305 37.5524 123.435)" fill="white"/>
<ellipse cx="28.9369" cy="123.541" rx="2.65123" ry="2.59131" transform="rotate(179.305 28.9369 123.541)" fill="white"/>
<ellipse cx="20.3207" cy="123.646" rx="2.65123" ry="2.59131" transform="rotate(179.305 20.3207 123.646)" fill="white"/>
<ellipse cx="11.7052" cy="123.748" rx="2.65123" ry="2.59131" transform="rotate(179.305 11.7052 123.748)" fill="white"/>
<ellipse cx="3.08903" cy="123.855" rx="2.65123" ry="2.59131" transform="rotate(179.305 3.08903 123.855)" fill="white"/>
<ellipse cx="149.456" cy="113.656" rx="2.65123" ry="2.59131" transform="rotate(179.305 149.456 113.656)" fill="white"/>
<ellipse cx="140.841" cy="113.759" rx="2.65123" ry="2.59131" transform="rotate(179.305 140.841 113.759)" fill="white"/>
<ellipse cx="132.224" cy="113.867" rx="2.65123" ry="2.59131" transform="rotate(179.305 132.224 113.867)" fill="white"/>
<ellipse cx="123.609" cy="113.97" rx="2.65123" ry="2.59131" transform="rotate(179.305 123.609 113.97)" fill="white"/>
<ellipse cx="114.993" cy="114.074" rx="2.65123" ry="2.59131" transform="rotate(179.305 114.993 114.074)" fill="white"/>
<ellipse cx="106.378" cy="114.179" rx="2.65123" ry="2.59131" transform="rotate(179.305 106.378 114.179)" fill="white"/>
<ellipse cx="97.7619" cy="114.283" rx="2.65123" ry="2.59131" transform="rotate(179.305 97.7619 114.283)" fill="white"/>
<ellipse cx="89.1457" cy="114.388" rx="2.65123" ry="2.59131" transform="rotate(179.305 89.1457 114.388)" fill="white"/>
<ellipse cx="80.5297" cy="114.492" rx="2.65123" ry="2.59131" transform="rotate(179.305 80.5297 114.492)" fill="white"/>
<ellipse cx="71.9137" cy="114.597" rx="2.65123" ry="2.59131" transform="rotate(179.305 71.9137 114.597)" fill="white"/>
<ellipse cx="63.2975" cy="114.703" rx="2.65123" ry="2.59131" transform="rotate(179.305 63.2975 114.703)" fill="white"/>
<ellipse cx="54.682" cy="114.804" rx="2.65123" ry="2.59131" transform="rotate(179.305 54.682 114.804)" fill="white"/>
<ellipse cx="46.0663" cy="114.91" rx="2.65123" ry="2.59131" transform="rotate(179.305 46.0663 114.91)" fill="white"/>
<ellipse cx="37.4504" cy="115.015" rx="2.65123" ry="2.59131" transform="rotate(179.305 37.4504 115.015)" fill="white"/>
<ellipse cx="28.8341" cy="115.121" rx="2.65123" ry="2.59131" transform="rotate(179.305 28.8341 115.121)" fill="white"/>
<ellipse cx="20.2187" cy="115.224" rx="2.65123" ry="2.59131" transform="rotate(179.305 20.2187 115.224)" fill="white"/>
<ellipse cx="11.6025" cy="115.326" rx="2.65123" ry="2.59131" transform="rotate(179.305 11.6025 115.326)" fill="white"/>
<ellipse cx="2.98698" cy="115.433" rx="2.65123" ry="2.59131" transform="rotate(179.305 2.98698 115.433)" fill="white"/>
<ellipse cx="149.354" cy="105.236" rx="2.65123" ry="2.59131" transform="rotate(179.305 149.354 105.236)" fill="white"/>
<ellipse cx="140.738" cy="105.341" rx="2.65123" ry="2.59131" transform="rotate(179.305 140.738 105.341)" fill="white"/>
<ellipse cx="132.122" cy="105.445" rx="2.65123" ry="2.59131" transform="rotate(179.305 132.122 105.445)" fill="white"/>
<ellipse cx="123.507" cy="105.55" rx="2.65123" ry="2.59131" transform="rotate(179.305 123.507 105.55)" fill="white"/>
<ellipse cx="114.891" cy="105.654" rx="2.65123" ry="2.59131" transform="rotate(179.305 114.891 105.654)" fill="white"/>
<ellipse cx="106.276" cy="105.757" rx="2.65123" ry="2.59131" transform="rotate(179.305 106.276 105.757)" fill="white"/>
<ellipse cx="97.6589" cy="105.863" rx="2.65123" ry="2.59131" transform="rotate(179.305 97.6589 105.863)" fill="white"/>
<ellipse cx="89.0436" cy="105.964" rx="2.65123" ry="2.59131" transform="rotate(179.305 89.0436 105.964)" fill="white"/>
<ellipse cx="80.4277" cy="106.074" rx="2.65123" ry="2.59131" transform="rotate(179.305 80.4277 106.074)" fill="white"/>
<ellipse cx="71.8114" cy="106.177" rx="2.65123" ry="2.59131" transform="rotate(179.305 71.8114 106.177)" fill="white"/>
<ellipse cx="63.196" cy="106.281" rx="2.65123" ry="2.59131" transform="rotate(179.305 63.196 106.281)" fill="white"/>
<ellipse cx="54.5798" cy="106.384" rx="2.65123" ry="2.59131" transform="rotate(179.305 54.5798 106.384)" fill="white"/>
<ellipse cx="45.9643" cy="106.488" rx="2.65123" ry="2.59131" transform="rotate(179.305 45.9643 106.488)" fill="white"/>
<ellipse cx="37.3481" cy="106.595" rx="2.65123" ry="2.59131" transform="rotate(179.305 37.3481 106.595)" fill="white"/>
<ellipse cx="28.7326" cy="106.701" rx="2.65123" ry="2.59131" transform="rotate(179.305 28.7326 106.701)" fill="white"/>
<ellipse cx="20.1164" cy="106.802" rx="2.65123" ry="2.59131" transform="rotate(179.305 20.1164 106.802)" fill="white"/>
<ellipse cx="11.5009" cy="106.906" rx="2.65123" ry="2.59131" transform="rotate(179.305 11.5009 106.906)" fill="white"/>
<ellipse cx="2.88468" cy="107.011" rx="2.65123" ry="2.59131" transform="rotate(179.305 2.88468 107.011)" fill="white"/>
<ellipse cx="149.252" cy="96.8141" rx="2.65123" ry="2.59131" transform="rotate(179.305 149.252 96.8141)" fill="white"/>
<ellipse cx="140.636" cy="96.9176" rx="2.65123" ry="2.59131" transform="rotate(179.305 140.636 96.9176)" fill="white"/>
<ellipse cx="132.021" cy="97.025" rx="2.65123" ry="2.59131" transform="rotate(179.305 132.021 97.025)" fill="white"/>
<ellipse cx="123.405" cy="97.1266" rx="2.65123" ry="2.59131" transform="rotate(179.305 123.405 97.1266)" fill="white"/>
<ellipse cx="114.789" cy="97.234" rx="2.65123" ry="2.59131" transform="rotate(179.305 114.789 97.234)" fill="white"/>
<ellipse cx="106.173" cy="97.3356" rx="2.65123" ry="2.59131" transform="rotate(179.305 106.173 97.3356)" fill="white"/>
<ellipse cx="97.5573" cy="97.441" rx="2.65123" ry="2.59131" transform="rotate(179.305 97.5573 97.441)" fill="white"/>
<ellipse cx="88.9416" cy="97.5465" rx="2.65123" ry="2.59131" transform="rotate(179.305 88.9416 97.5465)" fill="white"/>
<ellipse cx="80.3256" cy="97.65" rx="2.65123" ry="2.59131" transform="rotate(179.305 80.3256 97.65)" fill="white"/>
<ellipse cx="71.7094" cy="97.7555" rx="2.65123" ry="2.59131" transform="rotate(179.305 71.7094 97.7555)" fill="white"/>
<ellipse cx="63.0939" cy="97.859" rx="2.65123" ry="2.59131" transform="rotate(179.305 63.0939 97.859)" fill="white"/>
<ellipse cx="54.4777" cy="97.9645" rx="2.65123" ry="2.59131" transform="rotate(179.305 54.4777 97.9645)" fill="white"/>
<ellipse cx="45.8622" cy="98.068" rx="2.65123" ry="2.59131" transform="rotate(179.305 45.8622 98.068)" fill="white"/>
<ellipse cx="37.246" cy="98.1735" rx="2.65123" ry="2.59131" transform="rotate(179.305 37.246 98.1735)" fill="white"/>
<ellipse cx="28.6305" cy="98.277" rx="2.65123" ry="2.59131" transform="rotate(179.305 28.6305 98.277)" fill="white"/>
<ellipse cx="20.0143" cy="98.3805" rx="2.65123" ry="2.59131" transform="rotate(179.305 20.0143 98.3805)" fill="white"/>
<ellipse cx="11.3981" cy="98.486" rx="2.65123" ry="2.59131" transform="rotate(179.305 11.3981 98.486)" fill="white"/>
<ellipse cx="2.78263" cy="98.5914" rx="2.65123" ry="2.59131" transform="rotate(179.305 2.78263 98.5914)" fill="white"/>
<ellipse cx="149.15" cy="88.3942" rx="2.65123" ry="2.59131" transform="rotate(179.305 149.15 88.3942)" fill="white"/>
<ellipse cx="140.534" cy="88.4957" rx="2.65123" ry="2.59131" transform="rotate(179.305 140.534 88.4957)" fill="white"/>
<ellipse cx="131.919" cy="88.6012" rx="2.65123" ry="2.59131" transform="rotate(179.305 131.919 88.6012)" fill="white"/>
<ellipse cx="123.303" cy="88.7047" rx="2.65123" ry="2.59131" transform="rotate(179.305 123.303 88.7047)" fill="white"/>
<ellipse cx="114.687" cy="88.8102" rx="2.65123" ry="2.59131" transform="rotate(179.305 114.687 88.8102)" fill="white"/>
<ellipse cx="106.071" cy="88.9156" rx="2.65123" ry="2.59131" transform="rotate(179.305 106.071 88.9156)" fill="white"/>
<ellipse cx="97.4552" cy="89.0192" rx="2.65123" ry="2.59131" transform="rotate(179.305 97.4552 89.0192)" fill="white"/>
<ellipse cx="88.8395" cy="89.1246" rx="2.65123" ry="2.59131" transform="rotate(179.305 88.8395 89.1246)" fill="white"/>
<ellipse cx="80.2233" cy="89.2281" rx="2.65123" ry="2.59131" transform="rotate(179.305 80.2233 89.2281)" fill="white"/>
<ellipse cx="71.6078" cy="89.3336" rx="2.65123" ry="2.59131" transform="rotate(179.305 71.6078 89.3336)" fill="white"/>
<ellipse cx="62.9916" cy="89.4391" rx="2.65123" ry="2.59131" transform="rotate(179.305 62.9916 89.4391)" fill="white"/>
<ellipse cx="54.3756" cy="89.5426" rx="2.65123" ry="2.59131" transform="rotate(179.305 54.3756 89.5426)" fill="white"/>
<ellipse cx="45.7599" cy="89.6461" rx="2.65123" ry="2.59131" transform="rotate(179.305 45.7599 89.6461)" fill="white"/>
<ellipse cx="37.144" cy="89.7535" rx="2.65123" ry="2.59131" transform="rotate(179.305 37.144 89.7535)" fill="white"/>
<ellipse cx="28.5277" cy="89.8551" rx="2.65123" ry="2.59131" transform="rotate(179.305 28.5277 89.8551)" fill="white"/>
<ellipse cx="19.9123" cy="89.9625" rx="2.65123" ry="2.59131" transform="rotate(179.305 19.9123 89.9625)" fill="white"/>
<ellipse cx="11.2965" cy="90.0641" rx="2.65123" ry="2.59131" transform="rotate(179.305 11.2965 90.0641)" fill="white"/>
<ellipse cx="2.68058" cy="90.1695" rx="2.65123" ry="2.59131" transform="rotate(179.305 2.68058 90.1695)" fill="white"/>
<ellipse cx="149.048" cy="79.9723" rx="2.65123" ry="2.59131" transform="rotate(179.305 149.048 79.9723)" fill="white"/>
<ellipse cx="140.432" cy="80.0778" rx="2.65123" ry="2.59131" transform="rotate(179.305 140.432 80.0778)" fill="white"/>
<ellipse cx="131.816" cy="80.1813" rx="2.65123" ry="2.59131" transform="rotate(179.305 131.816 80.1813)" fill="white"/>
<ellipse cx="123.201" cy="80.2867" rx="2.65123" ry="2.59131" transform="rotate(179.305 123.201 80.2867)" fill="white"/>
<ellipse cx="114.585" cy="80.3903" rx="2.65123" ry="2.59131" transform="rotate(179.305 114.585 80.3903)" fill="white"/>
<ellipse cx="105.968" cy="80.4938" rx="2.65123" ry="2.59131" transform="rotate(179.305 105.968 80.4938)" fill="white"/>
<ellipse cx="97.3527" cy="80.5992" rx="2.65123" ry="2.59131" transform="rotate(179.305 97.3527 80.5992)" fill="white"/>
<ellipse cx="88.737" cy="80.7047" rx="2.65123" ry="2.59131" transform="rotate(179.305 88.737 80.7047)" fill="white"/>
<ellipse cx="80.1213" cy="80.8102" rx="2.65123" ry="2.59131" transform="rotate(179.305 80.1213 80.8102)" fill="white"/>
<ellipse cx="71.505" cy="80.9156" rx="2.65123" ry="2.59131" transform="rotate(179.305 71.505 80.9156)" fill="white"/>
<ellipse cx="62.8896" cy="81.0172" rx="2.65123" ry="2.59131" transform="rotate(179.305 62.8896 81.0172)" fill="white"/>
<ellipse cx="54.2734" cy="81.1227" rx="2.65123" ry="2.59131" transform="rotate(179.305 54.2734 81.1227)" fill="white"/>
<ellipse cx="45.6579" cy="81.2262" rx="2.65123" ry="2.59131" transform="rotate(179.305 45.6579 81.2262)" fill="white"/>
<ellipse cx="37.0417" cy="81.3317" rx="2.65123" ry="2.59131" transform="rotate(179.305 37.0417 81.3317)" fill="white"/>
<ellipse cx="28.4262" cy="81.4332" rx="2.65123" ry="2.59131" transform="rotate(179.305 28.4262 81.4332)" fill="white"/>
<ellipse cx="19.81" cy="81.5387" rx="2.65123" ry="2.59131" transform="rotate(179.305 19.81 81.5387)" fill="white"/>
<ellipse cx="11.1945" cy="81.6422" rx="2.65123" ry="2.59131" transform="rotate(179.305 11.1945 81.6422)" fill="white"/>
<ellipse cx="2.57902" cy="81.7477" rx="2.65123" ry="2.59131" transform="rotate(179.305 2.57902 81.7477)" fill="white"/>
<ellipse cx="148.946" cy="71.5504" rx="2.65123" ry="2.59131" transform="rotate(179.305 148.946 71.5504)" fill="white"/>
<ellipse cx="140.33" cy="71.6539" rx="2.65123" ry="2.59131" transform="rotate(179.305 140.33 71.6539)" fill="white"/>
<ellipse cx="131.714" cy="71.7613" rx="2.65123" ry="2.59131" transform="rotate(179.305 131.714 71.7613)" fill="white"/>
<ellipse cx="123.098" cy="71.8649" rx="2.65123" ry="2.59131" transform="rotate(179.305 123.098 71.8649)" fill="white"/>
<ellipse cx="114.483" cy="71.9703" rx="2.65123" ry="2.59131" transform="rotate(179.305 114.483 71.9703)" fill="white"/>
<ellipse cx="105.867" cy="72.0719" rx="2.65123" ry="2.59131" transform="rotate(179.305 105.867 72.0719)" fill="white"/>
<ellipse cx="97.2506" cy="72.1774" rx="2.65123" ry="2.59131" transform="rotate(179.305 97.2506 72.1774)" fill="white"/>
<ellipse cx="88.6354" cy="72.2809" rx="2.65123" ry="2.59131" transform="rotate(179.305 88.6354 72.2809)" fill="white"/>
<ellipse cx="80.0192" cy="72.3863" rx="2.65123" ry="2.59131" transform="rotate(179.305 80.0192 72.3863)" fill="white"/>
<ellipse cx="71.403" cy="72.4938" rx="2.65123" ry="2.59131" transform="rotate(179.305 71.403 72.4938)" fill="white"/>
<ellipse cx="62.7875" cy="72.5953" rx="2.65123" ry="2.59131" transform="rotate(179.305 62.7875 72.5953)" fill="white"/>
<ellipse cx="54.1713" cy="72.6988" rx="2.65123" ry="2.59131" transform="rotate(179.305 54.1713 72.6988)" fill="white"/>
<ellipse cx="45.5558" cy="72.8043" rx="2.65123" ry="2.59131" transform="rotate(179.305 45.5558 72.8043)" fill="white"/>
<ellipse cx="36.9396" cy="72.9098" rx="2.65123" ry="2.59131" transform="rotate(179.305 36.9396 72.9098)" fill="white"/>
<ellipse cx="28.3241" cy="73.0133" rx="2.65123" ry="2.59131" transform="rotate(179.305 28.3241 73.0133)" fill="white"/>
<ellipse cx="19.7079" cy="73.1188" rx="2.65123" ry="2.59131" transform="rotate(179.305 19.7079 73.1188)" fill="white"/>
<ellipse cx="11.0924" cy="73.2223" rx="2.65123" ry="2.59131" transform="rotate(179.305 11.0924 73.2223)" fill="white"/>
<ellipse cx="2.47623" cy="73.3258" rx="2.65123" ry="2.59131" transform="rotate(179.305 2.47623 73.3258)" fill="white"/>
<ellipse cx="148.844" cy="63.1305" rx="2.65123" ry="2.59131" transform="rotate(179.305 148.844 63.1305)" fill="white"/>
<ellipse cx="140.228" cy="63.234" rx="2.65123" ry="2.59131" transform="rotate(179.305 140.228 63.234)" fill="white"/>
<ellipse cx="131.612" cy="63.3375" rx="2.65123" ry="2.59131" transform="rotate(179.305 131.612 63.3375)" fill="white"/>
<ellipse cx="122.996" cy="63.443" rx="2.65123" ry="2.59131" transform="rotate(179.305 122.996 63.443)" fill="white"/>
<ellipse cx="114.381" cy="63.5485" rx="2.65123" ry="2.59131" transform="rotate(179.305 114.381 63.5485)" fill="white"/>
<ellipse cx="105.764" cy="63.65" rx="2.65123" ry="2.59131" transform="rotate(179.305 105.764 63.65)" fill="white"/>
<ellipse cx="97.1486" cy="63.7555" rx="2.65123" ry="2.59131" transform="rotate(179.305 97.1486 63.7555)" fill="white"/>
<ellipse cx="88.5324" cy="63.861" rx="2.65123" ry="2.59131" transform="rotate(179.305 88.5324 63.861)" fill="white"/>
<ellipse cx="79.9176" cy="63.9645" rx="2.65123" ry="2.59131" transform="rotate(179.305 79.9176 63.9645)" fill="white"/>
<ellipse cx="71.3009" cy="64.0719" rx="2.65123" ry="2.59131" transform="rotate(179.305 71.3009 64.0719)" fill="white"/>
<ellipse cx="62.6852" cy="64.1754" rx="2.65123" ry="2.59131" transform="rotate(179.305 62.6852 64.1754)" fill="white"/>
<ellipse cx="54.0693" cy="64.2789" rx="2.65123" ry="2.59131" transform="rotate(179.305 54.0693 64.2789)" fill="white"/>
<ellipse cx="45.4535" cy="64.3844" rx="2.65123" ry="2.59131" transform="rotate(179.305 45.4535 64.3844)" fill="white"/>
<ellipse cx="36.8376" cy="64.4879" rx="2.65123" ry="2.59131" transform="rotate(179.305 36.8376 64.4879)" fill="white"/>
<ellipse cx="28.2214" cy="64.5934" rx="2.65123" ry="2.59131" transform="rotate(179.305 28.2214 64.5934)" fill="white"/>
<ellipse cx="19.6059" cy="64.6988" rx="2.65123" ry="2.59131" transform="rotate(179.305 19.6059 64.6988)" fill="white"/>
<ellipse cx="10.9897" cy="64.8004" rx="2.65123" ry="2.59131" transform="rotate(179.305 10.9897 64.8004)" fill="white"/>
<ellipse cx="2.37418" cy="64.9078" rx="2.65123" ry="2.59131" transform="rotate(179.305 2.37418 64.9078)" fill="white"/>
<ellipse cx="148.741" cy="54.7086" rx="2.65123" ry="2.59131" transform="rotate(179.305 148.741 54.7086)" fill="white"/>
<ellipse cx="140.126" cy="54.8121" rx="2.65123" ry="2.59131" transform="rotate(179.305 140.126 54.8121)" fill="white"/>
<ellipse cx="131.51" cy="54.9176" rx="2.65123" ry="2.59131" transform="rotate(179.305 131.51 54.9176)" fill="white"/>
<ellipse cx="122.894" cy="55.0231" rx="2.65123" ry="2.59131" transform="rotate(179.305 122.894 55.0231)" fill="white"/>
<ellipse cx="114.278" cy="55.1266" rx="2.65123" ry="2.59131" transform="rotate(179.305 114.278 55.1266)" fill="white"/>
<ellipse cx="105.663" cy="55.2301" rx="2.65123" ry="2.59131" transform="rotate(179.305 105.663 55.2301)" fill="white"/>
<ellipse cx="97.0465" cy="55.3375" rx="2.65123" ry="2.59131" transform="rotate(179.305 97.0465 55.3375)" fill="white"/>
<ellipse cx="88.4308" cy="55.4391" rx="2.65123" ry="2.59131" transform="rotate(179.305 88.4308 55.4391)" fill="white"/>
<ellipse cx="79.8149" cy="55.5445" rx="2.65123" ry="2.59131" transform="rotate(179.305 79.8149 55.5445)" fill="white"/>
<ellipse cx="71.1986" cy="55.65" rx="2.65123" ry="2.59131" transform="rotate(179.305 71.1986 55.65)" fill="white"/>
<ellipse cx="62.5832" cy="55.7535" rx="2.65123" ry="2.59131" transform="rotate(179.305 62.5832 55.7535)" fill="white"/>
<ellipse cx="53.9677" cy="55.857" rx="2.65123" ry="2.59131" transform="rotate(179.305 53.9677 55.857)" fill="white"/>
<ellipse cx="45.3515" cy="55.9625" rx="2.65123" ry="2.59131" transform="rotate(179.305 45.3515 55.9625)" fill="white"/>
<ellipse cx="36.7353" cy="56.068" rx="2.65123" ry="2.59131" transform="rotate(179.305 36.7353 56.068)" fill="white"/>
<ellipse cx="28.1193" cy="56.1715" rx="2.65123" ry="2.59131" transform="rotate(179.305 28.1193 56.1715)" fill="white"/>
<ellipse cx="19.5036" cy="56.277" rx="2.65123" ry="2.59131" transform="rotate(179.305 19.5036 56.277)" fill="white"/>
<ellipse cx="10.8881" cy="56.3785" rx="2.65123" ry="2.59131" transform="rotate(179.305 10.8881 56.3785)" fill="white"/>
<ellipse cx="2.27262" cy="56.484" rx="2.65123" ry="2.59131" transform="rotate(179.305 2.27262 56.484)" fill="white"/>
<ellipse cx="148.639" cy="46.2867" rx="2.65123" ry="2.59131" transform="rotate(179.305 148.639 46.2867)" fill="white"/>
<ellipse cx="140.023" cy="46.3922" rx="2.65123" ry="2.59131" transform="rotate(179.305 140.023 46.3922)" fill="white"/>
<ellipse cx="131.408" cy="46.4977" rx="2.65123" ry="2.59131" transform="rotate(179.305 131.408 46.4977)" fill="white"/>
<ellipse cx="122.792" cy="46.6012" rx="2.65123" ry="2.59131" transform="rotate(179.305 122.792 46.6012)" fill="white"/>
<ellipse cx="114.176" cy="46.7067" rx="2.65123" ry="2.59131" transform="rotate(179.305 114.176 46.7067)" fill="white"/>
<ellipse cx="105.56" cy="46.8102" rx="2.65123" ry="2.59131" transform="rotate(179.305 105.56 46.8102)" fill="white"/>
<ellipse cx="96.9445" cy="46.9156" rx="2.65123" ry="2.59131" transform="rotate(179.305 96.9445 46.9156)" fill="white"/>
<ellipse cx="88.3288" cy="47.0172" rx="2.65123" ry="2.59131" transform="rotate(179.305 88.3288 47.0172)" fill="white"/>
<ellipse cx="79.7126" cy="47.1227" rx="2.65123" ry="2.59131" transform="rotate(179.305 79.7126 47.1227)" fill="white"/>
<ellipse cx="71.0971" cy="47.2262" rx="2.65123" ry="2.59131" transform="rotate(179.305 71.0971 47.2262)" fill="white"/>
<ellipse cx="62.4811" cy="47.3317" rx="2.65123" ry="2.59131" transform="rotate(179.305 62.4811 47.3317)" fill="white"/>
<ellipse cx="53.8649" cy="47.4371" rx="2.65123" ry="2.59131" transform="rotate(179.305 53.8649 47.4371)" fill="white"/>
<ellipse cx="45.2494" cy="47.5406" rx="2.65123" ry="2.59131" transform="rotate(179.305 45.2494 47.5406)" fill="white"/>
<ellipse cx="36.6332" cy="47.6461" rx="2.65123" ry="2.59131" transform="rotate(179.305 36.6332 47.6461)" fill="white"/>
<ellipse cx="28.0177" cy="47.7516" rx="2.65123" ry="2.59131" transform="rotate(179.305 28.0177 47.7516)" fill="white"/>
<ellipse cx="19.402" cy="47.8551" rx="2.65123" ry="2.59131" transform="rotate(179.305 19.402 47.8551)" fill="white"/>
<ellipse cx="10.786" cy="47.9586" rx="2.65123" ry="2.59131" transform="rotate(179.305 10.786 47.9586)" fill="white"/>
<ellipse cx="2.16984" cy="48.0641" rx="2.65123" ry="2.59131" transform="rotate(179.305 2.16984 48.0641)" fill="white"/>
<ellipse cx="148.537" cy="37.8649" rx="2.65123" ry="2.59131" transform="rotate(179.305 148.537 37.8649)" fill="white"/>
<ellipse cx="139.922" cy="37.9703" rx="2.65123" ry="2.59131" transform="rotate(179.305 139.922 37.9703)" fill="white"/>
<ellipse cx="131.306" cy="38.0758" rx="2.65123" ry="2.59131" transform="rotate(179.305 131.306 38.0758)" fill="white"/>
<ellipse cx="122.69" cy="38.1793" rx="2.65123" ry="2.59131" transform="rotate(179.305 122.69 38.1793)" fill="white"/>
<ellipse cx="114.074" cy="38.2848" rx="2.65123" ry="2.59131" transform="rotate(179.305 114.074 38.2848)" fill="white"/>
<ellipse cx="105.458" cy="38.3883" rx="2.65123" ry="2.59131" transform="rotate(179.305 105.458 38.3883)" fill="white"/>
<ellipse cx="96.8424" cy="38.4918" rx="2.65123" ry="2.59131" transform="rotate(179.305 96.8424 38.4918)" fill="white"/>
<ellipse cx="88.2262" cy="38.5992" rx="2.65123" ry="2.59131" transform="rotate(179.305 88.2262 38.5992)" fill="white"/>
<ellipse cx="79.6105" cy="38.7008" rx="2.65123" ry="2.59131" transform="rotate(179.305 79.6105 38.7008)" fill="white"/>
<ellipse cx="70.9943" cy="38.8063" rx="2.65123" ry="2.59131" transform="rotate(179.305 70.9943 38.8063)" fill="white"/>
<ellipse cx="62.3788" cy="38.9098" rx="2.65123" ry="2.59131" transform="rotate(179.305 62.3788 38.9098)" fill="white"/>
<ellipse cx="53.7629" cy="39.0153" rx="2.65123" ry="2.59131" transform="rotate(179.305 53.7629 39.0153)" fill="white"/>
<ellipse cx="45.1471" cy="39.1207" rx="2.65123" ry="2.59131" transform="rotate(179.305 45.1471 39.1207)" fill="white"/>
<ellipse cx="36.5312" cy="39.2242" rx="2.65123" ry="2.59131" transform="rotate(179.305 36.5312 39.2242)" fill="white"/>
<ellipse cx="27.9154" cy="39.3297" rx="2.65123" ry="2.59131" transform="rotate(179.305 27.9154 39.3297)" fill="white"/>
<ellipse cx="19.2995" cy="39.4313" rx="2.65123" ry="2.59131" transform="rotate(179.305 19.2995 39.4313)" fill="white"/>
<ellipse cx="10.6838" cy="39.5367" rx="2.65123" ry="2.59131" transform="rotate(179.305 10.6838 39.5367)" fill="white"/>
<ellipse cx="2.06779" cy="39.6403" rx="2.65123" ry="2.59131" transform="rotate(179.305 2.06779 39.6403)" fill="white"/>
<ellipse cx="148.435" cy="29.4449" rx="2.65123" ry="2.59131" transform="rotate(179.305 148.435 29.4449)" fill="white"/>
<ellipse cx="139.82" cy="29.5485" rx="2.65123" ry="2.59131" transform="rotate(179.305 139.82 29.5485)" fill="white"/>
<ellipse cx="131.203" cy="29.6559" rx="2.65123" ry="2.59131" transform="rotate(179.305 131.203 29.6559)" fill="white"/>
<ellipse cx="122.588" cy="29.7574" rx="2.65123" ry="2.59131" transform="rotate(179.305 122.588 29.7574)" fill="white"/>
<ellipse cx="113.971" cy="29.8629" rx="2.65123" ry="2.59131" transform="rotate(179.305 113.971 29.8629)" fill="white"/>
<ellipse cx="105.356" cy="29.9684" rx="2.65123" ry="2.59131" transform="rotate(179.305 105.356 29.9684)" fill="white"/>
<ellipse cx="96.7399" cy="30.0699" rx="2.65123" ry="2.59131" transform="rotate(179.305 96.7399 30.0699)" fill="white"/>
<ellipse cx="88.1247" cy="30.1774" rx="2.65123" ry="2.59131" transform="rotate(179.305 88.1247 30.1774)" fill="white"/>
<ellipse cx="79.5085" cy="30.2828" rx="2.65123" ry="2.59131" transform="rotate(179.305 79.5085 30.2828)" fill="white"/>
<ellipse cx="70.8923" cy="30.3844" rx="2.65123" ry="2.59131" transform="rotate(179.305 70.8923 30.3844)" fill="white"/>
<ellipse cx="62.2768" cy="30.4918" rx="2.65123" ry="2.59131" transform="rotate(179.305 62.2768 30.4918)" fill="white"/>
<ellipse cx="53.6606" cy="30.5934" rx="2.65123" ry="2.59131" transform="rotate(179.305 53.6606 30.5934)" fill="white"/>
<ellipse cx="45.0451" cy="30.6988" rx="2.65123" ry="2.59131" transform="rotate(179.305 45.0451 30.6988)" fill="white"/>
<ellipse cx="36.4289" cy="30.8063" rx="2.65123" ry="2.59131" transform="rotate(179.305 36.4289 30.8063)" fill="white"/>
<ellipse cx="27.8129" cy="30.9078" rx="2.65123" ry="2.59131" transform="rotate(179.305 27.8129 30.9078)" fill="white"/>
<ellipse cx="19.1972" cy="31.0133" rx="2.65123" ry="2.59131" transform="rotate(179.305 19.1972 31.0133)" fill="white"/>
<ellipse cx="10.5812" cy="31.1168" rx="2.65123" ry="2.59131" transform="rotate(179.305 10.5812 31.1168)" fill="white"/>
<ellipse cx="1.96549" cy="31.2223" rx="2.65123" ry="2.59131" transform="rotate(179.305 1.96549 31.2223)" fill="white"/>
<ellipse cx="148.333" cy="21.0231" rx="2.65123" ry="2.59131" transform="rotate(179.305 148.333 21.0231)" fill="white"/>
<ellipse cx="139.717" cy="21.1266" rx="2.65123" ry="2.59131" transform="rotate(179.305 139.717 21.1266)" fill="white"/>
<ellipse cx="131.101" cy="21.234" rx="2.65123" ry="2.59131" transform="rotate(179.305 131.101 21.234)" fill="white"/>
<ellipse cx="122.486" cy="21.3375" rx="2.65123" ry="2.59131" transform="rotate(179.305 122.486 21.3375)" fill="white"/>
<ellipse cx="113.87" cy="21.441" rx="2.65123" ry="2.59131" transform="rotate(179.305 113.87 21.441)" fill="white"/>
<ellipse cx="105.254" cy="21.5465" rx="2.65123" ry="2.59131" transform="rotate(179.305 105.254 21.5465)" fill="white"/>
<ellipse cx="96.6379" cy="21.652" rx="2.65123" ry="2.59131" transform="rotate(179.305 96.6379 21.652)" fill="white"/>
<ellipse cx="88.0216" cy="21.7574" rx="2.65123" ry="2.59131" transform="rotate(179.305 88.0216 21.7574)" fill="white"/>
<ellipse cx="79.4064" cy="21.861" rx="2.65123" ry="2.59131" transform="rotate(179.305 79.4064 21.861)" fill="white"/>
<ellipse cx="70.7902" cy="21.9645" rx="2.65123" ry="2.59131" transform="rotate(179.305 70.7902 21.9645)" fill="white"/>
<ellipse cx="62.174" cy="22.0699" rx="2.65123" ry="2.59131" transform="rotate(179.305 62.174 22.0699)" fill="white"/>
<ellipse cx="53.5585" cy="22.1715" rx="2.65123" ry="2.59131" transform="rotate(179.305 53.5585 22.1715)" fill="white"/>
<ellipse cx="44.943" cy="22.277" rx="2.65123" ry="2.59131" transform="rotate(179.305 44.943 22.277)" fill="white"/>
<ellipse cx="36.3273" cy="22.3824" rx="2.65123" ry="2.59131" transform="rotate(179.305 36.3273 22.3824)" fill="white"/>
<ellipse cx="27.7113" cy="22.486" rx="2.65123" ry="2.59131" transform="rotate(179.305 27.7113 22.486)" fill="white"/>
<ellipse cx="19.0956" cy="22.5914" rx="2.65123" ry="2.59131" transform="rotate(179.305 19.0956 22.5914)" fill="white"/>
<ellipse cx="10.4797" cy="22.693" rx="2.65123" ry="2.59131" transform="rotate(179.305 10.4797 22.693)" fill="white"/>
<ellipse cx="1.86393" cy="22.7985" rx="2.65123" ry="2.59131" transform="rotate(179.305 1.86393 22.7985)" fill="white"/>
<ellipse cx="148.231" cy="12.6012" rx="2.65123" ry="2.59131" transform="rotate(179.305 148.231 12.6012)" fill="white"/>
<ellipse cx="139.615" cy="12.7067" rx="2.65123" ry="2.59131" transform="rotate(179.305 139.615 12.7067)" fill="white"/>
<ellipse cx="130.999" cy="12.8102" rx="2.65123" ry="2.59131" transform="rotate(179.305 130.999 12.8102)" fill="white"/>
<ellipse cx="122.383" cy="12.9156" rx="2.65123" ry="2.59131" transform="rotate(179.305 122.383 12.9156)" fill="white"/>
<ellipse cx="113.768" cy="13.0211" rx="2.65123" ry="2.59131" transform="rotate(179.305 113.768 13.0211)" fill="white"/>
<ellipse cx="105.152" cy="13.1246" rx="2.65123" ry="2.59131" transform="rotate(179.305 105.152 13.1246)" fill="white"/>
<ellipse cx="96.5358" cy="13.2281" rx="2.65123" ry="2.59131" transform="rotate(179.305 96.5358 13.2281)" fill="white"/>
<ellipse cx="87.9201" cy="13.3336" rx="2.65123" ry="2.59131" transform="rotate(179.305 87.9201 13.3336)" fill="white"/>
<ellipse cx="79.3041" cy="13.4391" rx="2.65123" ry="2.59131" transform="rotate(179.305 79.3041 13.4391)" fill="white"/>
<ellipse cx="70.6881" cy="13.5445" rx="2.65123" ry="2.59131" transform="rotate(179.305 70.6881 13.5445)" fill="white"/>
<ellipse cx="62.0724" cy="13.6481" rx="2.65123" ry="2.59131" transform="rotate(179.305 62.0724 13.6481)" fill="white"/>
<ellipse cx="53.4565" cy="13.7516" rx="2.65123" ry="2.59131" transform="rotate(179.305 53.4565 13.7516)" fill="white"/>
<ellipse cx="44.8407" cy="13.8551" rx="2.65123" ry="2.59131" transform="rotate(179.305 44.8407 13.8551)" fill="white"/>
<ellipse cx="36.2248" cy="13.9606" rx="2.65123" ry="2.59131" transform="rotate(179.305 36.2248 13.9606)" fill="white"/>
<ellipse cx="27.609" cy="14.066" rx="2.65123" ry="2.59131" transform="rotate(179.305 27.609 14.066)" fill="white"/>
<ellipse cx="18.9936" cy="14.1695" rx="2.65123" ry="2.59131" transform="rotate(179.305 18.9936 14.1695)" fill="white"/>
<ellipse cx="10.3769" cy="14.275" rx="2.65123" ry="2.59131" transform="rotate(179.305 10.3769 14.275)" fill="white"/>
<ellipse cx="1.76139" cy="14.3766" rx="2.65123" ry="2.59131" transform="rotate(179.305 1.76139 14.3766)" fill="white"/>
<ellipse cx="148.129" cy="4.17932" rx="2.65123" ry="2.59131" transform="rotate(179.305 148.129 4.17932)" fill="white"/>
<ellipse cx="139.513" cy="4.28478" rx="2.65123" ry="2.59131" transform="rotate(179.305 139.513 4.28478)" fill="white"/>
<ellipse cx="130.897" cy="4.39025" rx="2.65123" ry="2.59131" transform="rotate(179.305 130.897 4.39025)" fill="white"/>
<ellipse cx="122.281" cy="4.49572" rx="2.65123" ry="2.59131" transform="rotate(179.305 122.281 4.49572)" fill="white"/>
<ellipse cx="113.665" cy="4.60119" rx="2.65123" ry="2.59131" transform="rotate(179.305 113.665 4.60119)" fill="white"/>
<ellipse cx="105.05" cy="4.70275" rx="2.65123" ry="2.59131" transform="rotate(179.305 105.05 4.70275)" fill="white"/>
<ellipse cx="96.4338" cy="4.80822" rx="2.65123" ry="2.59131" transform="rotate(179.305 96.4338 4.80822)" fill="white"/>
<ellipse cx="87.818" cy="4.91369" rx="2.65123" ry="2.59131" transform="rotate(179.305 87.818 4.91369)" fill="white"/>
<ellipse cx="79.2021" cy="5.01721" rx="2.65123" ry="2.59131" transform="rotate(179.305 79.2021 5.01721)" fill="white"/>
<ellipse cx="70.5859" cy="5.12267" rx="2.65123" ry="2.59131" transform="rotate(179.305 70.5859 5.12267)" fill="white"/>
<ellipse cx="61.9699" cy="5.22814" rx="2.65123" ry="2.59131" transform="rotate(179.305 61.9699 5.22814)" fill="white"/>
<ellipse cx="53.3549" cy="5.32971" rx="2.65123" ry="2.59131" transform="rotate(179.305 53.3549 5.32971)" fill="white"/>
<ellipse cx="44.7387" cy="5.43713" rx="2.65123" ry="2.59131" transform="rotate(179.305 44.7387 5.43713)" fill="white"/>
<ellipse cx="36.1232" cy="5.53869" rx="2.65123" ry="2.59131" transform="rotate(179.305 36.1232 5.53869)" fill="white"/>
<ellipse cx="27.5065" cy="5.64611" rx="2.65123" ry="2.59131" transform="rotate(179.305 27.5065 5.64611)" fill="white"/>
<ellipse cx="18.8908" cy="5.74767" rx="2.65123" ry="2.59131" transform="rotate(179.305 18.8908 5.74767)" fill="white"/>
<ellipse cx="10.2753" cy="5.85314" rx="2.65123" ry="2.59131" transform="rotate(179.305 10.2753 5.85314)" fill="white"/>
<ellipse cx="1.6591" cy="5.95861" rx="2.65123" ry="2.59131" transform="rotate(179.305 1.6591 5.95861)" fill="white"/>
</g>
</g>
</svg>
