<svg width="26" height="26" viewBox="0 0 26 26" fill="none" xmlns="http://www.w3.org/2000/svg">
<g clip-path="url(#clip0)">
<path d="M26.0003 4.665C25.0432 5.10388 24.0157 5.39976 22.9367 5.53314C24.038 4.8509 24.8841 3.7706 25.2821 2.48334C24.2512 3.11566 23.1101 3.57352 21.8954 3.8213C20.9222 2.74958 19.5359 2.08008 18.0008 2.08008C15.055 2.08008 12.6662 4.54852 12.6662 7.59338C12.6662 8.0255 12.7137 8.44644 12.8047 8.84996C8.37122 8.62012 4.44106 6.4252 1.80986 3.08966C1.35044 3.90424 1.08758 4.85064 1.08758 5.861C1.08758 7.77382 2.0293 9.46174 3.4606 10.45C2.58622 10.4217 1.7641 10.1734 1.04442 9.76074C1.0439 9.78388 1.0439 9.80702 1.0439 9.83042C1.0439 12.5011 2.88262 14.7301 5.32298 15.2366C4.87552 15.3624 4.40414 15.43 3.91768 15.43C3.57396 15.43 3.24012 15.3952 2.91434 15.3315C3.59268 17.5217 5.56296 19.1158 7.8975 19.1603C6.07204 20.6391 3.77208 21.5203 1.2727 21.5203C0.84214 21.5203 0.41756 21.4938 0 21.4431C2.3608 23.0077 5.1649 23.9201 8.17674 23.9201C17.9884 23.9201 23.354 15.519 23.354 8.23272C23.354 7.99352 23.3488 7.75588 23.3386 7.51954C24.3805 6.74162 25.2853 5.77078 26.0003 4.665Z" fill="white"/>
</g>
<defs>
<clipPath id="clip0">
<rect width="26" height="26" fill="white"/>
</clipPath>
</defs>
</svg>
