<svg width="216" height="109" viewBox="0 0 216 109" fill="none" xmlns="http://www.w3.org/2000/svg">
<mask id="mask0" mask-type="alpha" maskUnits="userSpaceOnUse" x="0" y="0" width="216" height="109">
<path d="M165.622 107.956C165.668 76.2939 140.063 50.5781 108.403 50.5084C76.7456 50.4387 51.0297 76.0415 50.9367 107.704L0.978866 107.594C1.12366 48.3267 49.2656 0.397712 108.518 0.528142C167.765 0.658561 215.692 48.7991 215.583 108.066" fill="white"/>
</mask>
<g mask="url(#mask0)">
<mask id="mask1" mask-type="alpha" maskUnits="userSpaceOnUse" x="-20" y="-57" width="257" height="251">
<ellipse cx="108.691" cy="68.8436" rx="127.851" ry="124.806" transform="rotate(166.249 108.691 68.8436)" fill="#E8F3FC"/>
</mask>
<g mask="url(#mask1)">
<ellipse cx="211.326" cy="104.991" rx="2.2941" ry="2.24225" transform="rotate(179.687 211.326 104.991)" fill="white"/>
<ellipse cx="203.869" cy="105.032" rx="2.2941" ry="2.24225" transform="rotate(179.687 203.869 105.032)" fill="white"/>
<ellipse cx="196.413" cy="105.075" rx="2.2941" ry="2.24225" transform="rotate(179.687 196.413 105.075)" fill="white"/>
<ellipse cx="188.957" cy="105.116" rx="2.2941" ry="2.24225" transform="rotate(179.687 188.957 105.116)" fill="white"/>
<ellipse cx="181.501" cy="105.155" rx="2.2941" ry="2.24225" transform="rotate(179.687 181.501 105.155)" fill="white"/>
<ellipse cx="174.045" cy="105.198" rx="2.2941" ry="2.24225" transform="rotate(179.687 174.045 105.198)" fill="white"/>
<ellipse cx="166.589" cy="105.237" rx="2.2941" ry="2.24225" transform="rotate(179.687 166.589 105.237)" fill="white"/>
<ellipse cx="159.132" cy="105.278" rx="2.2941" ry="2.24225" transform="rotate(179.687 159.132 105.278)" fill="white"/>
<ellipse cx="151.677" cy="105.317" rx="2.2941" ry="2.24225" transform="rotate(179.687 151.677 105.317)" fill="white"/>
<ellipse cx="144.221" cy="105.358" rx="2.2941" ry="2.24225" transform="rotate(179.687 144.221 105.358)" fill="white"/>
<ellipse cx="136.765" cy="105.399" rx="2.2941" ry="2.24225" transform="rotate(179.687 136.765 105.399)" fill="white"/>
<ellipse cx="129.309" cy="105.442" rx="2.2941" ry="2.24225" transform="rotate(179.687 129.309 105.442)" fill="white"/>
<ellipse cx="121.853" cy="105.481" rx="2.2941" ry="2.24225" transform="rotate(179.687 121.853 105.481)" fill="white"/>
<ellipse cx="114.397" cy="105.52" rx="2.2941" ry="2.24225" transform="rotate(179.687 114.397 105.52)" fill="white"/>
<ellipse cx="106.94" cy="105.563" rx="2.2941" ry="2.24225" transform="rotate(179.687 106.94 105.563)" fill="white"/>
<ellipse cx="99.4837" cy="105.602" rx="2.2941" ry="2.24225" transform="rotate(179.687 99.4837 105.602)" fill="white"/>
<ellipse cx="92.0286" cy="105.643" rx="2.2941" ry="2.24225" transform="rotate(179.687 92.0286 105.643)" fill="white"/>
<ellipse cx="84.5726" cy="105.684" rx="2.2941" ry="2.24225" transform="rotate(179.687 84.5726 105.684)" fill="white"/>
<ellipse cx="77.1165" cy="105.725" rx="2.2941" ry="2.24225" transform="rotate(179.687 77.1165 105.725)" fill="white"/>
<ellipse cx="69.6605" cy="105.766" rx="2.2941" ry="2.24225" transform="rotate(179.687 69.6605 105.766)" fill="white"/>
<ellipse cx="62.2044" cy="105.809" rx="2.2941" ry="2.24225" transform="rotate(179.687 62.2044 105.809)" fill="white"/>
<ellipse cx="54.7484" cy="105.848" rx="2.2941" ry="2.24225" transform="rotate(179.687 54.7484 105.848)" fill="white"/>
<ellipse cx="47.2923" cy="105.889" rx="2.2941" ry="2.24225" transform="rotate(179.687 47.2923 105.889)" fill="white"/>
<ellipse cx="39.8353" cy="105.93" rx="2.2941" ry="2.24225" transform="rotate(179.687 39.8353 105.93)" fill="white"/>
<ellipse cx="32.3792" cy="105.97" rx="2.2941" ry="2.24225" transform="rotate(179.687 32.3792 105.97)" fill="white"/>
<ellipse cx="24.9232" cy="106.011" rx="2.2941" ry="2.24225" transform="rotate(179.687 24.9232 106.011)" fill="white"/>
<ellipse cx="17.4671" cy="106.052" rx="2.2941" ry="2.24225" transform="rotate(179.687 17.4671 106.052)" fill="white"/>
<ellipse cx="10.0111" cy="106.093" rx="2.2941" ry="2.24225" transform="rotate(179.687 10.0111 106.093)" fill="white"/>
<ellipse cx="2.55501" cy="106.134" rx="2.2941" ry="2.24225" transform="rotate(179.687 2.55501 106.134)" fill="white"/>
<ellipse cx="211.286" cy="97.7039" rx="2.2941" ry="2.24225" transform="rotate(179.687 211.286 97.7039)" fill="white"/>
<ellipse cx="203.83" cy="97.743" rx="2.2941" ry="2.24225" transform="rotate(179.687 203.83 97.743)" fill="white"/>
<ellipse cx="196.374" cy="97.7859" rx="2.2941" ry="2.24225" transform="rotate(179.687 196.374 97.7859)" fill="white"/>
<ellipse cx="188.918" cy="97.825" rx="2.2941" ry="2.24225" transform="rotate(179.687 188.918 97.825)" fill="white"/>
<ellipse cx="181.461" cy="97.866" rx="2.2941" ry="2.24225" transform="rotate(179.687 181.461 97.866)" fill="white"/>
<ellipse cx="174.005" cy="97.909" rx="2.2941" ry="2.24225" transform="rotate(179.687 174.005 97.909)" fill="white"/>
<ellipse cx="166.549" cy="97.95" rx="2.2941" ry="2.24225" transform="rotate(179.687 166.549 97.95)" fill="white"/>
<ellipse cx="159.094" cy="97.9891" rx="2.2941" ry="2.24225" transform="rotate(179.687 159.094 97.9891)" fill="white"/>
<ellipse cx="151.638" cy="98.032" rx="2.2941" ry="2.24225" transform="rotate(179.687 151.638 98.032)" fill="white"/>
<ellipse cx="144.182" cy="98.0711" rx="2.2941" ry="2.24225" transform="rotate(179.687 144.182 98.0711)" fill="white"/>
<ellipse cx="136.726" cy="98.1121" rx="2.2941" ry="2.24225" transform="rotate(179.687 136.726 98.1121)" fill="white"/>
<ellipse cx="129.269" cy="98.1531" rx="2.2941" ry="2.24225" transform="rotate(179.687 129.269 98.1531)" fill="white"/>
<ellipse cx="121.813" cy="98.1922" rx="2.2941" ry="2.24225" transform="rotate(179.687 121.813 98.1922)" fill="white"/>
<ellipse cx="114.356" cy="98.2352" rx="2.2941" ry="2.24225" transform="rotate(179.687 114.356 98.2352)" fill="white"/>
<ellipse cx="106.901" cy="98.2762" rx="2.2941" ry="2.24225" transform="rotate(179.687 106.901 98.2762)" fill="white"/>
<ellipse cx="99.4447" cy="98.3152" rx="2.2941" ry="2.24225" transform="rotate(179.687 99.4447 98.3152)" fill="white"/>
<ellipse cx="91.9886" cy="98.3563" rx="2.2941" ry="2.24225" transform="rotate(179.687 91.9886 98.3563)" fill="white"/>
<ellipse cx="84.5326" cy="98.3992" rx="2.2941" ry="2.24225" transform="rotate(179.687 84.5326 98.3992)" fill="white"/>
<ellipse cx="77.0765" cy="98.4363" rx="2.2941" ry="2.24225" transform="rotate(179.687 77.0765 98.4363)" fill="white"/>
<ellipse cx="69.6204" cy="98.4773" rx="2.2941" ry="2.24225" transform="rotate(179.687 69.6204 98.4773)" fill="white"/>
<ellipse cx="62.1634" cy="98.5203" rx="2.2941" ry="2.24225" transform="rotate(179.687 62.1634 98.5203)" fill="white"/>
<ellipse cx="54.7074" cy="98.5594" rx="2.2941" ry="2.24225" transform="rotate(179.687 54.7074 98.5594)" fill="white"/>
<ellipse cx="47.2523" cy="98.6004" rx="2.2941" ry="2.24225" transform="rotate(179.687 47.2523 98.6004)" fill="white"/>
<ellipse cx="39.7962" cy="98.6434" rx="2.2941" ry="2.24225" transform="rotate(179.687 39.7962 98.6434)" fill="white"/>
<ellipse cx="32.3402" cy="98.6824" rx="2.2941" ry="2.24225" transform="rotate(179.687 32.3402 98.6824)" fill="white"/>
<ellipse cx="24.8831" cy="98.7234" rx="2.2941" ry="2.24225" transform="rotate(179.687 24.8831 98.7234)" fill="white"/>
<ellipse cx="17.4271" cy="98.7664" rx="2.2941" ry="2.24225" transform="rotate(179.687 17.4271 98.7664)" fill="white"/>
<ellipse cx="9.97103" cy="98.8035" rx="2.2941" ry="2.24225" transform="rotate(179.687 9.97103 98.8035)" fill="white"/>
<ellipse cx="2.51497" cy="98.8465" rx="2.2941" ry="2.24225" transform="rotate(179.687 2.51497 98.8465)" fill="white"/>
<ellipse cx="211.246" cy="90.4148" rx="2.2941" ry="2.24225" transform="rotate(179.687 211.246 90.4148)" fill="white"/>
<ellipse cx="203.79" cy="90.4598" rx="2.2941" ry="2.24225" transform="rotate(179.687 203.79 90.4598)" fill="white"/>
<ellipse cx="196.334" cy="90.4988" rx="2.2941" ry="2.24225" transform="rotate(179.687 196.334 90.4988)" fill="white"/>
<ellipse cx="188.878" cy="90.5398" rx="2.2941" ry="2.24225" transform="rotate(179.687 188.878 90.5398)" fill="white"/>
<ellipse cx="181.421" cy="90.5789" rx="2.2941" ry="2.24225" transform="rotate(179.687 181.421 90.5789)" fill="white"/>
<ellipse cx="173.965" cy="90.6219" rx="2.2941" ry="2.24225" transform="rotate(179.687 173.965 90.6219)" fill="white"/>
<ellipse cx="166.509" cy="90.6609" rx="2.2941" ry="2.24225" transform="rotate(179.687 166.509 90.6609)" fill="white"/>
<ellipse cx="159.053" cy="90.7" rx="2.2941" ry="2.24225" transform="rotate(179.687 159.053 90.7)" fill="white"/>
<ellipse cx="151.597" cy="90.743" rx="2.2941" ry="2.24225" transform="rotate(179.687 151.597 90.743)" fill="white"/>
<ellipse cx="144.141" cy="90.784" rx="2.2941" ry="2.24225" transform="rotate(179.687 144.141 90.784)" fill="white"/>
<ellipse cx="136.685" cy="90.825" rx="2.2941" ry="2.24225" transform="rotate(179.687 136.685 90.825)" fill="white"/>
<ellipse cx="129.229" cy="90.866" rx="2.2941" ry="2.24225" transform="rotate(179.687 129.229 90.866)" fill="white"/>
<ellipse cx="121.773" cy="90.909" rx="2.2941" ry="2.24225" transform="rotate(179.687 121.773 90.909)" fill="white"/>
<ellipse cx="114.317" cy="90.9481" rx="2.2941" ry="2.24225" transform="rotate(179.687 114.317 90.9481)" fill="white"/>
<ellipse cx="106.861" cy="90.9891" rx="2.2941" ry="2.24225" transform="rotate(179.687 106.861 90.9891)" fill="white"/>
<ellipse cx="99.4046" cy="91.0262" rx="2.2941" ry="2.24225" transform="rotate(179.687 99.4046 91.0262)" fill="white"/>
<ellipse cx="91.9486" cy="91.0691" rx="2.2941" ry="2.24225" transform="rotate(179.687 91.9486 91.0691)" fill="white"/>
<ellipse cx="84.4915" cy="91.1102" rx="2.2941" ry="2.24225" transform="rotate(179.687 84.4915 91.1102)" fill="white"/>
<ellipse cx="77.0365" cy="91.1492" rx="2.2941" ry="2.24225" transform="rotate(179.687 77.0365 91.1492)" fill="white"/>
<ellipse cx="69.5804" cy="91.1922" rx="2.2941" ry="2.24225" transform="rotate(179.687 69.5804 91.1922)" fill="white"/>
<ellipse cx="62.1243" cy="91.2332" rx="2.2941" ry="2.24225" transform="rotate(179.687 62.1243 91.2332)" fill="white"/>
<ellipse cx="54.6683" cy="91.2723" rx="2.2941" ry="2.24225" transform="rotate(179.687 54.6683 91.2723)" fill="white"/>
<ellipse cx="47.2122" cy="91.3133" rx="2.2941" ry="2.24225" transform="rotate(179.687 47.2122 91.3133)" fill="white"/>
<ellipse cx="39.7562" cy="91.3543" rx="2.2941" ry="2.24225" transform="rotate(179.687 39.7562 91.3543)" fill="white"/>
<ellipse cx="32.3001" cy="91.3953" rx="2.2941" ry="2.24225" transform="rotate(179.687 32.3001 91.3953)" fill="white"/>
<ellipse cx="24.8441" cy="91.4363" rx="2.2941" ry="2.24225" transform="rotate(179.687 24.8441 91.4363)" fill="white"/>
<ellipse cx="17.388" cy="91.4754" rx="2.2941" ry="2.24225" transform="rotate(179.687 17.388 91.4754)" fill="white"/>
<ellipse cx="9.93197" cy="91.5164" rx="2.2941" ry="2.24225" transform="rotate(179.687 9.93197 91.5164)" fill="white"/>
<ellipse cx="2.47591" cy="91.5594" rx="2.2941" ry="2.24225" transform="rotate(179.687 2.47591 91.5594)" fill="white"/>
<ellipse cx="211.205" cy="83.1297" rx="2.2941" ry="2.24225" transform="rotate(179.687 211.205 83.1297)" fill="white"/>
<ellipse cx="203.75" cy="83.1707" rx="2.2941" ry="2.24225" transform="rotate(179.687 203.75 83.1707)" fill="white"/>
<ellipse cx="196.294" cy="83.2098" rx="2.2941" ry="2.24225" transform="rotate(179.687 196.294 83.2098)" fill="white"/>
<ellipse cx="188.838" cy="83.2508" rx="2.2941" ry="2.24225" transform="rotate(179.687 188.838 83.2508)" fill="white"/>
<ellipse cx="181.382" cy="83.2918" rx="2.2941" ry="2.24225" transform="rotate(179.687 181.382 83.2918)" fill="white"/>
<ellipse cx="173.926" cy="83.3328" rx="2.2941" ry="2.24225" transform="rotate(179.687 173.926 83.3328)" fill="white"/>
<ellipse cx="166.47" cy="83.3738" rx="2.2941" ry="2.24225" transform="rotate(179.687 166.47 83.3738)" fill="white"/>
<ellipse cx="159.013" cy="83.4148" rx="2.2941" ry="2.24225" transform="rotate(179.687 159.013 83.4148)" fill="white"/>
<ellipse cx="151.558" cy="83.4559" rx="2.2941" ry="2.24225" transform="rotate(179.687 151.558 83.4559)" fill="white"/>
<ellipse cx="144.102" cy="83.4969" rx="2.2941" ry="2.24225" transform="rotate(179.687 144.102 83.4969)" fill="white"/>
<ellipse cx="136.646" cy="83.5398" rx="2.2941" ry="2.24225" transform="rotate(179.687 136.646 83.5398)" fill="white"/>
<ellipse cx="129.19" cy="83.577" rx="2.2941" ry="2.24225" transform="rotate(179.687 129.19 83.577)" fill="white"/>
<ellipse cx="121.734" cy="83.618" rx="2.2941" ry="2.24225" transform="rotate(179.687 121.734 83.618)" fill="white"/>
<ellipse cx="114.278" cy="83.659" rx="2.2941" ry="2.24225" transform="rotate(179.687 114.278 83.659)" fill="white"/>
<ellipse cx="106.822" cy="83.6981" rx="2.2941" ry="2.24225" transform="rotate(179.687 106.822 83.6981)" fill="white"/>
<ellipse cx="99.3646" cy="83.741" rx="2.2941" ry="2.24225" transform="rotate(179.687 99.3646 83.741)" fill="white"/>
<ellipse cx="91.9095" cy="83.782" rx="2.2941" ry="2.24225" transform="rotate(179.687 91.9095 83.782)" fill="white"/>
<ellipse cx="84.4525" cy="83.8231" rx="2.2941" ry="2.24225" transform="rotate(179.687 84.4525 83.8231)" fill="white"/>
<ellipse cx="76.9964" cy="83.8641" rx="2.2941" ry="2.24225" transform="rotate(179.687 76.9964 83.8641)" fill="white"/>
<ellipse cx="69.5404" cy="83.9031" rx="2.2941" ry="2.24225" transform="rotate(179.687 69.5404 83.9031)" fill="white"/>
<ellipse cx="62.0843" cy="83.9441" rx="2.2941" ry="2.24225" transform="rotate(179.687 62.0843 83.9441)" fill="white"/>
<ellipse cx="54.6283" cy="83.9832" rx="2.2941" ry="2.24225" transform="rotate(179.687 54.6283 83.9832)" fill="white"/>
<ellipse cx="47.1722" cy="84.0262" rx="2.2941" ry="2.24225" transform="rotate(179.687 47.1722 84.0262)" fill="white"/>
<ellipse cx="39.7161" cy="84.0672" rx="2.2941" ry="2.24225" transform="rotate(179.687 39.7161 84.0672)" fill="white"/>
<ellipse cx="32.2601" cy="84.1082" rx="2.2941" ry="2.24225" transform="rotate(179.687 32.2601 84.1082)" fill="white"/>
<ellipse cx="24.804" cy="84.1473" rx="2.2941" ry="2.24225" transform="rotate(179.687 24.804 84.1473)" fill="white"/>
<ellipse cx="17.348" cy="84.1902" rx="2.2941" ry="2.24225" transform="rotate(179.687 17.348 84.1902)" fill="white"/>
<ellipse cx="9.89095" cy="84.2293" rx="2.2941" ry="2.24225" transform="rotate(179.687 9.89095 84.2293)" fill="white"/>
<ellipse cx="2.4349" cy="84.2703" rx="2.2941" ry="2.24225" transform="rotate(179.687 2.4349 84.2703)" fill="white"/>
<ellipse cx="211.167" cy="75.8406" rx="2.2941" ry="2.24225" transform="rotate(179.687 211.167 75.8406)" fill="white"/>
<ellipse cx="203.71" cy="75.8816" rx="2.2941" ry="2.24225" transform="rotate(179.687 203.71 75.8816)" fill="white"/>
<ellipse cx="196.255" cy="75.9227" rx="2.2941" ry="2.24225" transform="rotate(179.687 196.255 75.9227)" fill="white"/>
<ellipse cx="188.798" cy="75.9637" rx="2.2941" ry="2.24225" transform="rotate(179.687 188.798 75.9637)" fill="white"/>
<ellipse cx="181.342" cy="76.0066" rx="2.2941" ry="2.24225" transform="rotate(179.687 181.342 76.0066)" fill="white"/>
<ellipse cx="173.886" cy="76.0457" rx="2.2941" ry="2.24225" transform="rotate(179.687 173.886 76.0457)" fill="white"/>
<ellipse cx="166.43" cy="76.0867" rx="2.2941" ry="2.24225" transform="rotate(179.687 166.43 76.0867)" fill="white"/>
<ellipse cx="158.974" cy="76.1277" rx="2.2941" ry="2.24225" transform="rotate(179.687 158.974 76.1277)" fill="white"/>
<ellipse cx="151.518" cy="76.1668" rx="2.2941" ry="2.24225" transform="rotate(179.687 151.518 76.1668)" fill="white"/>
<ellipse cx="144.062" cy="76.2059" rx="2.2941" ry="2.24225" transform="rotate(179.687 144.062 76.2059)" fill="white"/>
<ellipse cx="136.605" cy="76.2508" rx="2.2941" ry="2.24225" transform="rotate(179.687 136.605 76.2508)" fill="white"/>
<ellipse cx="129.149" cy="76.2898" rx="2.2941" ry="2.24225" transform="rotate(179.687 129.149 76.2898)" fill="white"/>
<ellipse cx="121.693" cy="76.3309" rx="2.2941" ry="2.24225" transform="rotate(179.687 121.693 76.3309)" fill="white"/>
<ellipse cx="114.238" cy="76.3699" rx="2.2941" ry="2.24225" transform="rotate(179.687 114.238 76.3699)" fill="white"/>
<ellipse cx="106.782" cy="76.4109" rx="2.2941" ry="2.24225" transform="rotate(179.687 106.782 76.4109)" fill="white"/>
<ellipse cx="99.3255" cy="76.452" rx="2.2941" ry="2.24225" transform="rotate(179.687 99.3255 76.452)" fill="white"/>
<ellipse cx="91.8695" cy="76.491" rx="2.2941" ry="2.24225" transform="rotate(179.687 91.8695 76.491)" fill="white"/>
<ellipse cx="84.4124" cy="76.534" rx="2.2941" ry="2.24225" transform="rotate(179.687 84.4124 76.534)" fill="white"/>
<ellipse cx="76.9574" cy="76.575" rx="2.2941" ry="2.24225" transform="rotate(179.687 76.9574 76.575)" fill="white"/>
<ellipse cx="69.5003" cy="76.616" rx="2.2941" ry="2.24225" transform="rotate(179.687 69.5003 76.616)" fill="white"/>
<ellipse cx="62.0452" cy="76.657" rx="2.2941" ry="2.24225" transform="rotate(179.687 62.0452 76.657)" fill="white"/>
<ellipse cx="54.5892" cy="76.6981" rx="2.2941" ry="2.24225" transform="rotate(179.687 54.5892 76.6981)" fill="white"/>
<ellipse cx="47.1331" cy="76.7391" rx="2.2941" ry="2.24225" transform="rotate(179.687 47.1331 76.7391)" fill="white"/>
<ellipse cx="39.6771" cy="76.7801" rx="2.2941" ry="2.24225" transform="rotate(179.687 39.6771 76.7801)" fill="white"/>
<ellipse cx="32.2201" cy="76.8191" rx="2.2941" ry="2.24225" transform="rotate(179.687 32.2201 76.8191)" fill="white"/>
<ellipse cx="24.764" cy="76.8602" rx="2.2941" ry="2.24225" transform="rotate(179.687 24.764 76.8602)" fill="white"/>
<ellipse cx="17.3079" cy="76.9012" rx="2.2941" ry="2.24225" transform="rotate(179.687 17.3079 76.9012)" fill="white"/>
<ellipse cx="9.85189" cy="76.9402" rx="2.2941" ry="2.24225" transform="rotate(179.687 9.85189 76.9402)" fill="white"/>
<ellipse cx="2.39583" cy="76.9832" rx="2.2941" ry="2.24225" transform="rotate(179.687 2.39583 76.9832)" fill="white"/>
<ellipse cx="211.126" cy="68.5555" rx="2.2941" ry="2.24225" transform="rotate(179.687 211.126 68.5555)" fill="white"/>
<ellipse cx="203.67" cy="68.5965" rx="2.2941" ry="2.24225" transform="rotate(179.687 203.67 68.5965)" fill="white"/>
<ellipse cx="196.214" cy="68.6356" rx="2.2941" ry="2.24225" transform="rotate(179.687 196.214 68.6356)" fill="white"/>
<ellipse cx="188.758" cy="68.6766" rx="2.2941" ry="2.24225" transform="rotate(179.687 188.758 68.6766)" fill="white"/>
<ellipse cx="181.302" cy="68.7176" rx="2.2941" ry="2.24225" transform="rotate(179.687 181.302 68.7176)" fill="white"/>
<ellipse cx="173.846" cy="68.7566" rx="2.2941" ry="2.24225" transform="rotate(179.687 173.846 68.7566)" fill="white"/>
<ellipse cx="166.391" cy="68.7977" rx="2.2941" ry="2.24225" transform="rotate(179.687 166.391 68.7977)" fill="white"/>
<ellipse cx="158.934" cy="68.8387" rx="2.2941" ry="2.24225" transform="rotate(179.687 158.934 68.8387)" fill="white"/>
<ellipse cx="151.478" cy="68.8797" rx="2.2941" ry="2.24225" transform="rotate(179.687 151.478 68.8797)" fill="white"/>
<ellipse cx="144.022" cy="68.9227" rx="2.2941" ry="2.24225" transform="rotate(179.687 144.022 68.9227)" fill="white"/>
<ellipse cx="136.566" cy="68.9637" rx="2.2941" ry="2.24225" transform="rotate(179.687 136.566 68.9637)" fill="white"/>
<ellipse cx="129.11" cy="69.0008" rx="2.2941" ry="2.24225" transform="rotate(179.687 129.11 69.0008)" fill="white"/>
<ellipse cx="121.654" cy="69.0438" rx="2.2941" ry="2.24225" transform="rotate(179.687 121.654 69.0438)" fill="white"/>
<ellipse cx="114.198" cy="69.0848" rx="2.2941" ry="2.24225" transform="rotate(179.687 114.198 69.0848)" fill="white"/>
<ellipse cx="106.742" cy="69.1238" rx="2.2941" ry="2.24225" transform="rotate(179.687 106.742 69.1238)" fill="white"/>
<ellipse cx="99.2855" cy="69.1648" rx="2.2941" ry="2.24225" transform="rotate(179.687 99.2855 69.1648)" fill="white"/>
<ellipse cx="91.8294" cy="69.2078" rx="2.2941" ry="2.24225" transform="rotate(179.687 91.8294 69.2078)" fill="white"/>
<ellipse cx="84.3734" cy="69.2469" rx="2.2941" ry="2.24225" transform="rotate(179.687 84.3734 69.2469)" fill="white"/>
<ellipse cx="76.9173" cy="69.2898" rx="2.2941" ry="2.24225" transform="rotate(179.687 76.9173 69.2898)" fill="white"/>
<ellipse cx="69.4613" cy="69.3289" rx="2.2941" ry="2.24225" transform="rotate(179.687 69.4613 69.3289)" fill="white"/>
<ellipse cx="62.0052" cy="69.3699" rx="2.2941" ry="2.24225" transform="rotate(179.687 62.0052 69.3699)" fill="white"/>
<ellipse cx="54.5492" cy="69.4109" rx="2.2941" ry="2.24225" transform="rotate(179.687 54.5492 69.4109)" fill="white"/>
<ellipse cx="47.0931" cy="69.452" rx="2.2941" ry="2.24225" transform="rotate(179.687 47.0931 69.452)" fill="white"/>
<ellipse cx="39.6361" cy="69.491" rx="2.2941" ry="2.24225" transform="rotate(179.687 39.6361 69.491)" fill="white"/>
<ellipse cx="32.18" cy="69.532" rx="2.2941" ry="2.24225" transform="rotate(179.687 32.18 69.532)" fill="white"/>
<ellipse cx="24.724" cy="69.5731" rx="2.2941" ry="2.24225" transform="rotate(179.687 24.724 69.5731)" fill="white"/>
<ellipse cx="17.2679" cy="69.6141" rx="2.2941" ry="2.24225" transform="rotate(179.687 17.2679 69.6141)" fill="white"/>
<ellipse cx="9.81283" cy="69.6531" rx="2.2941" ry="2.24225" transform="rotate(179.687 9.81283 69.6531)" fill="white"/>
<ellipse cx="2.35579" cy="69.6961" rx="2.2941" ry="2.24225" transform="rotate(179.687 2.35579 69.6961)" fill="white"/>
<ellipse cx="211.087" cy="61.2664" rx="2.2941" ry="2.24225" transform="rotate(179.687 211.087 61.2664)" fill="white"/>
<ellipse cx="203.63" cy="61.3074" rx="2.2941" ry="2.24225" transform="rotate(179.687 203.63 61.3074)" fill="white"/>
<ellipse cx="196.175" cy="61.3484" rx="2.2941" ry="2.24225" transform="rotate(179.687 196.175 61.3484)" fill="white"/>
<ellipse cx="188.719" cy="61.3895" rx="2.2941" ry="2.24225" transform="rotate(179.687 188.719 61.3895)" fill="white"/>
<ellipse cx="181.263" cy="61.4285" rx="2.2941" ry="2.24225" transform="rotate(179.687 181.263 61.4285)" fill="white"/>
<ellipse cx="173.807" cy="61.4715" rx="2.2941" ry="2.24225" transform="rotate(179.687 173.807 61.4715)" fill="white"/>
<ellipse cx="166.35" cy="61.5125" rx="2.2941" ry="2.24225" transform="rotate(179.687 166.35 61.5125)" fill="white"/>
<ellipse cx="158.894" cy="61.5516" rx="2.2941" ry="2.24225" transform="rotate(179.687 158.894 61.5516)" fill="white"/>
<ellipse cx="151.438" cy="61.5945" rx="2.2941" ry="2.24225" transform="rotate(179.687 151.438 61.5945)" fill="white"/>
<ellipse cx="143.983" cy="61.6336" rx="2.2941" ry="2.24225" transform="rotate(179.687 143.983 61.6336)" fill="white"/>
<ellipse cx="136.527" cy="61.6746" rx="2.2941" ry="2.24225" transform="rotate(179.687 136.527 61.6746)" fill="white"/>
<ellipse cx="129.07" cy="61.7137" rx="2.2941" ry="2.24225" transform="rotate(179.687 129.07 61.7137)" fill="white"/>
<ellipse cx="121.614" cy="61.7547" rx="2.2941" ry="2.24225" transform="rotate(179.687 121.614 61.7547)" fill="white"/>
<ellipse cx="114.158" cy="61.7977" rx="2.2941" ry="2.24225" transform="rotate(179.687 114.158 61.7977)" fill="white"/>
<ellipse cx="106.701" cy="61.8367" rx="2.2941" ry="2.24225" transform="rotate(179.687 106.701 61.8367)" fill="white"/>
<ellipse cx="99.2454" cy="61.8777" rx="2.2941" ry="2.24225" transform="rotate(179.687 99.2454 61.8777)" fill="white"/>
<ellipse cx="91.7894" cy="61.9168" rx="2.2941" ry="2.24225" transform="rotate(179.687 91.7894 61.9168)" fill="white"/>
<ellipse cx="84.3333" cy="61.9578" rx="2.2941" ry="2.24225" transform="rotate(179.687 84.3333 61.9578)" fill="white"/>
<ellipse cx="76.8773" cy="61.9988" rx="2.2941" ry="2.24225" transform="rotate(179.687 76.8773 61.9988)" fill="white"/>
<ellipse cx="69.4212" cy="62.0398" rx="2.2941" ry="2.24225" transform="rotate(179.687 69.4212 62.0398)" fill="white"/>
<ellipse cx="61.9642" cy="62.0809" rx="2.2941" ry="2.24225" transform="rotate(179.687 61.9642 62.0809)" fill="white"/>
<ellipse cx="54.5091" cy="62.1219" rx="2.2941" ry="2.24225" transform="rotate(179.687 54.5091 62.1219)" fill="white"/>
<ellipse cx="47.0531" cy="62.1629" rx="2.2941" ry="2.24225" transform="rotate(179.687 47.0531 62.1629)" fill="white"/>
<ellipse cx="39.597" cy="62.2039" rx="2.2941" ry="2.24225" transform="rotate(179.687 39.597 62.2039)" fill="white"/>
<ellipse cx="32.1409" cy="62.2449" rx="2.2941" ry="2.24225" transform="rotate(179.687 32.1409 62.2449)" fill="white"/>
<ellipse cx="24.6849" cy="62.284" rx="2.2941" ry="2.24225" transform="rotate(179.687 24.6849 62.284)" fill="white"/>
<ellipse cx="17.2288" cy="62.325" rx="2.2941" ry="2.24225" transform="rotate(179.687 17.2288 62.325)" fill="white"/>
<ellipse cx="9.77181" cy="62.368" rx="2.2941" ry="2.24225" transform="rotate(179.687 9.77181 62.368)" fill="white"/>
<ellipse cx="2.31673" cy="62.407" rx="2.2941" ry="2.24225" transform="rotate(179.687 2.31673 62.407)" fill="white"/>
<ellipse cx="211.047" cy="53.9793" rx="2.2941" ry="2.24225" transform="rotate(179.687 211.047 53.9793)" fill="white"/>
<ellipse cx="203.591" cy="54.0203" rx="2.2941" ry="2.24225" transform="rotate(179.687 203.591 54.0203)" fill="white"/>
<ellipse cx="196.135" cy="54.0613" rx="2.2941" ry="2.24225" transform="rotate(179.687 196.135 54.0613)" fill="white"/>
<ellipse cx="188.678" cy="54.1023" rx="2.2941" ry="2.24225" transform="rotate(179.687 188.678 54.1023)" fill="white"/>
<ellipse cx="181.222" cy="54.1434" rx="2.2941" ry="2.24225" transform="rotate(179.687 181.222 54.1434)" fill="white"/>
<ellipse cx="173.766" cy="54.1805" rx="2.2941" ry="2.24225" transform="rotate(179.687 173.766 54.1805)" fill="white"/>
<ellipse cx="166.31" cy="54.2234" rx="2.2941" ry="2.24225" transform="rotate(179.687 166.31 54.2234)" fill="white"/>
<ellipse cx="158.854" cy="54.2645" rx="2.2941" ry="2.24225" transform="rotate(179.687 158.854 54.2645)" fill="white"/>
<ellipse cx="151.399" cy="54.3035" rx="2.2941" ry="2.24225" transform="rotate(179.687 151.399 54.3035)" fill="white"/>
<ellipse cx="143.943" cy="54.3465" rx="2.2941" ry="2.24225" transform="rotate(179.687 143.943 54.3465)" fill="white"/>
<ellipse cx="136.486" cy="54.3875" rx="2.2941" ry="2.24225" transform="rotate(179.687 136.486 54.3875)" fill="white"/>
<ellipse cx="129.03" cy="54.4266" rx="2.2941" ry="2.24225" transform="rotate(179.687 129.03 54.4266)" fill="white"/>
<ellipse cx="121.574" cy="54.4676" rx="2.2941" ry="2.24225" transform="rotate(179.687 121.574 54.4676)" fill="white"/>
<ellipse cx="114.118" cy="54.5086" rx="2.2941" ry="2.24225" transform="rotate(179.687 114.118 54.5086)" fill="white"/>
<ellipse cx="106.662" cy="54.5477" rx="2.2941" ry="2.24225" transform="rotate(179.687 106.662 54.5477)" fill="white"/>
<ellipse cx="99.2054" cy="54.5906" rx="2.2941" ry="2.24225" transform="rotate(179.687 99.2054 54.5906)" fill="white"/>
<ellipse cx="91.7503" cy="54.6297" rx="2.2941" ry="2.24225" transform="rotate(179.687 91.7503 54.6297)" fill="white"/>
<ellipse cx="84.2933" cy="54.6707" rx="2.2941" ry="2.24225" transform="rotate(179.687 84.2933 54.6707)" fill="white"/>
<ellipse cx="76.8372" cy="54.7137" rx="2.2941" ry="2.24225" transform="rotate(179.687 76.8372 54.7137)" fill="white"/>
<ellipse cx="69.3822" cy="54.7547" rx="2.2941" ry="2.24225" transform="rotate(179.687 69.3822 54.7547)" fill="white"/>
<ellipse cx="61.9251" cy="54.7938" rx="2.2941" ry="2.24225" transform="rotate(179.687 61.9251 54.7938)" fill="white"/>
<ellipse cx="54.4701" cy="54.8348" rx="2.2941" ry="2.24225" transform="rotate(179.687 54.4701 54.8348)" fill="white"/>
<ellipse cx="47.013" cy="54.8738" rx="2.2941" ry="2.24225" transform="rotate(179.687 47.013 54.8738)" fill="white"/>
<ellipse cx="39.557" cy="54.9148" rx="2.2941" ry="2.24225" transform="rotate(179.687 39.557 54.9148)" fill="white"/>
<ellipse cx="32.1009" cy="54.9578" rx="2.2941" ry="2.24225" transform="rotate(179.687 32.1009 54.9578)" fill="white"/>
<ellipse cx="24.6449" cy="54.9969" rx="2.2941" ry="2.24225" transform="rotate(179.687 24.6449 54.9969)" fill="white"/>
<ellipse cx="17.1888" cy="55.0379" rx="2.2941" ry="2.24225" transform="rotate(179.687 17.1888 55.0379)" fill="white"/>
<ellipse cx="9.73275" cy="55.0809" rx="2.2941" ry="2.24225" transform="rotate(179.687 9.73275 55.0809)" fill="white"/>
<ellipse cx="2.27669" cy="55.1199" rx="2.2941" ry="2.24225" transform="rotate(179.687 2.27669 55.1199)" fill="white"/>
<ellipse cx="211.007" cy="46.6902" rx="2.2941" ry="2.24225" transform="rotate(179.687 211.007 46.6902)" fill="white"/>
<ellipse cx="203.551" cy="46.7313" rx="2.2941" ry="2.24225" transform="rotate(179.687 203.551 46.7313)" fill="white"/>
<ellipse cx="196.095" cy="46.7742" rx="2.2941" ry="2.24225" transform="rotate(179.687 196.095 46.7742)" fill="white"/>
<ellipse cx="188.639" cy="46.8113" rx="2.2941" ry="2.24225" transform="rotate(179.687 188.639 46.8113)" fill="white"/>
<ellipse cx="181.183" cy="46.8543" rx="2.2941" ry="2.24225" transform="rotate(179.687 181.183 46.8543)" fill="white"/>
<ellipse cx="173.727" cy="46.8953" rx="2.2941" ry="2.24225" transform="rotate(179.687 173.727 46.8953)" fill="white"/>
<ellipse cx="166.271" cy="46.9363" rx="2.2941" ry="2.24225" transform="rotate(179.687 166.271 46.9363)" fill="white"/>
<ellipse cx="158.815" cy="46.9773" rx="2.2941" ry="2.24225" transform="rotate(179.687 158.815 46.9773)" fill="white"/>
<ellipse cx="151.359" cy="47.0184" rx="2.2941" ry="2.24225" transform="rotate(179.687 151.359 47.0184)" fill="white"/>
<ellipse cx="143.903" cy="47.0574" rx="2.2941" ry="2.24225" transform="rotate(179.687 143.903 47.0574)" fill="white"/>
<ellipse cx="136.447" cy="47.0984" rx="2.2941" ry="2.24225" transform="rotate(179.687 136.447 47.0984)" fill="white"/>
<ellipse cx="128.991" cy="47.1395" rx="2.2941" ry="2.24225" transform="rotate(179.687 128.991 47.1395)" fill="white"/>
<ellipse cx="121.535" cy="47.1805" rx="2.2941" ry="2.24225" transform="rotate(179.687 121.535 47.1805)" fill="white"/>
<ellipse cx="114.078" cy="47.2195" rx="2.2941" ry="2.24225" transform="rotate(179.687 114.078 47.2195)" fill="white"/>
<ellipse cx="106.622" cy="47.2625" rx="2.2941" ry="2.24225" transform="rotate(179.687 106.622 47.2625)" fill="white"/>
<ellipse cx="99.1663" cy="47.3035" rx="2.2941" ry="2.24225" transform="rotate(179.687 99.1663 47.3035)" fill="white"/>
<ellipse cx="91.7103" cy="47.3426" rx="2.2941" ry="2.24225" transform="rotate(179.687 91.7103 47.3426)" fill="white"/>
<ellipse cx="84.2533" cy="47.3836" rx="2.2941" ry="2.24225" transform="rotate(179.687 84.2533 47.3836)" fill="white"/>
<ellipse cx="76.7972" cy="47.4246" rx="2.2941" ry="2.24225" transform="rotate(179.687 76.7972 47.4246)" fill="white"/>
<ellipse cx="69.3411" cy="47.4656" rx="2.2941" ry="2.24225" transform="rotate(179.687 69.3411 47.4656)" fill="white"/>
<ellipse cx="61.8851" cy="47.5066" rx="2.2941" ry="2.24225" transform="rotate(179.687 61.8851 47.5066)" fill="white"/>
<ellipse cx="54.429" cy="47.5477" rx="2.2941" ry="2.24225" transform="rotate(179.687 54.429 47.5477)" fill="white"/>
<ellipse cx="46.973" cy="47.5867" rx="2.2941" ry="2.24225" transform="rotate(179.687 46.973 47.5867)" fill="white"/>
<ellipse cx="39.5169" cy="47.6277" rx="2.2941" ry="2.24225" transform="rotate(179.687 39.5169 47.6277)" fill="white"/>
<ellipse cx="32.0599" cy="47.6707" rx="2.2941" ry="2.24225" transform="rotate(179.687 32.0599 47.6707)" fill="white"/>
<ellipse cx="24.6048" cy="47.7078" rx="2.2941" ry="2.24225" transform="rotate(179.687 24.6048 47.7078)" fill="white"/>
<ellipse cx="17.1488" cy="47.7508" rx="2.2941" ry="2.24225" transform="rotate(179.687 17.1488 47.7508)" fill="white"/>
<ellipse cx="9.69271" cy="47.7898" rx="2.2941" ry="2.24225" transform="rotate(179.687 9.69271 47.7898)" fill="white"/>
<ellipse cx="2.23665" cy="47.8309" rx="2.2941" ry="2.24225" transform="rotate(179.687 2.23665 47.8309)" fill="white"/>
<ellipse cx="210.968" cy="39.4051" rx="2.2941" ry="2.24225" transform="rotate(179.687 210.968 39.4051)" fill="white"/>
<ellipse cx="203.511" cy="39.4441" rx="2.2941" ry="2.24225" transform="rotate(179.687 203.511 39.4441)" fill="white"/>
<ellipse cx="196.056" cy="39.4852" rx="2.2941" ry="2.24225" transform="rotate(179.687 196.056 39.4852)" fill="white"/>
<ellipse cx="188.6" cy="39.5262" rx="2.2941" ry="2.24225" transform="rotate(179.687 188.6 39.5262)" fill="white"/>
<ellipse cx="181.144" cy="39.5672" rx="2.2941" ry="2.24225" transform="rotate(179.687 181.144 39.5672)" fill="white"/>
<ellipse cx="173.687" cy="39.6082" rx="2.2941" ry="2.24225" transform="rotate(179.687 173.687 39.6082)" fill="white"/>
<ellipse cx="166.231" cy="39.6492" rx="2.2941" ry="2.24225" transform="rotate(179.687 166.231 39.6492)" fill="white"/>
<ellipse cx="158.775" cy="39.6883" rx="2.2941" ry="2.24225" transform="rotate(179.687 158.775 39.6883)" fill="white"/>
<ellipse cx="151.319" cy="39.7313" rx="2.2941" ry="2.24225" transform="rotate(179.687 151.319 39.7313)" fill="white"/>
<ellipse cx="143.863" cy="39.7703" rx="2.2941" ry="2.24225" transform="rotate(179.687 143.863 39.7703)" fill="white"/>
<ellipse cx="136.407" cy="39.8113" rx="2.2941" ry="2.24225" transform="rotate(179.687 136.407 39.8113)" fill="white"/>
<ellipse cx="128.951" cy="39.8523" rx="2.2941" ry="2.24225" transform="rotate(179.687 128.951 39.8523)" fill="white"/>
<ellipse cx="121.493" cy="39.8934" rx="2.2941" ry="2.24225" transform="rotate(179.687 121.493 39.8934)" fill="white"/>
<ellipse cx="114.037" cy="39.9344" rx="2.2941" ry="2.24225" transform="rotate(179.687 114.037 39.9344)" fill="white"/>
<ellipse cx="106.582" cy="39.9754" rx="2.2941" ry="2.24225" transform="rotate(179.687 106.582 39.9754)" fill="white"/>
<ellipse cx="99.1263" cy="40.0145" rx="2.2941" ry="2.24225" transform="rotate(179.687 99.1263 40.0145)" fill="white"/>
<ellipse cx="91.6702" cy="40.0555" rx="2.2941" ry="2.24225" transform="rotate(179.687 91.6702 40.0555)" fill="white"/>
<ellipse cx="84.2142" cy="40.0945" rx="2.2941" ry="2.24225" transform="rotate(179.687 84.2142 40.0945)" fill="white"/>
<ellipse cx="76.7581" cy="40.1355" rx="2.2941" ry="2.24225" transform="rotate(179.687 76.7581 40.1355)" fill="white"/>
<ellipse cx="69.3011" cy="40.1785" rx="2.2941" ry="2.24225" transform="rotate(179.687 69.3011 40.1785)" fill="white"/>
<ellipse cx="61.846" cy="40.2176" rx="2.2941" ry="2.24225" transform="rotate(179.687 61.846 40.2176)" fill="white"/>
<ellipse cx="54.39" cy="40.2586" rx="2.2941" ry="2.24225" transform="rotate(179.687 54.39 40.2586)" fill="white"/>
<ellipse cx="46.9329" cy="40.2996" rx="2.2941" ry="2.24225" transform="rotate(179.687 46.9329 40.2996)" fill="white"/>
<ellipse cx="39.4779" cy="40.3387" rx="2.2941" ry="2.24225" transform="rotate(179.687 39.4779 40.3387)" fill="white"/>
<ellipse cx="32.0218" cy="40.3816" rx="2.2941" ry="2.24225" transform="rotate(179.687 32.0218 40.3816)" fill="white"/>
<ellipse cx="24.5658" cy="40.4227" rx="2.2941" ry="2.24225" transform="rotate(179.687 24.5658 40.4227)" fill="white"/>
<ellipse cx="17.1097" cy="40.4617" rx="2.2941" ry="2.24225" transform="rotate(179.687 17.1097 40.4617)" fill="white"/>
<ellipse cx="9.65365" cy="40.5027" rx="2.2941" ry="2.24225" transform="rotate(179.687 9.65365 40.5027)" fill="white"/>
<ellipse cx="2.19759" cy="40.5438" rx="2.2941" ry="2.24225" transform="rotate(179.687 2.19759 40.5438)" fill="white"/>
<ellipse cx="210.927" cy="32.118" rx="2.2941" ry="2.24225" transform="rotate(179.687 210.927 32.118)" fill="white"/>
<ellipse cx="203.472" cy="32.1551" rx="2.2941" ry="2.24225" transform="rotate(179.687 203.472 32.1551)" fill="white"/>
<ellipse cx="196.015" cy="32.198" rx="2.2941" ry="2.24225" transform="rotate(179.687 196.015 32.198)" fill="white"/>
<ellipse cx="188.559" cy="32.241" rx="2.2941" ry="2.24225" transform="rotate(179.687 188.559 32.241)" fill="white"/>
<ellipse cx="181.103" cy="32.2781" rx="2.2941" ry="2.24225" transform="rotate(179.687 181.103 32.2781)" fill="white"/>
<ellipse cx="173.647" cy="32.3191" rx="2.2941" ry="2.24225" transform="rotate(179.687 173.647 32.3191)" fill="white"/>
<ellipse cx="166.191" cy="32.3621" rx="2.2941" ry="2.24225" transform="rotate(179.687 166.191 32.3621)" fill="white"/>
<ellipse cx="158.736" cy="32.4012" rx="2.2941" ry="2.24225" transform="rotate(179.687 158.736 32.4012)" fill="white"/>
<ellipse cx="151.28" cy="32.4441" rx="2.2941" ry="2.24225" transform="rotate(179.687 151.28 32.4441)" fill="white"/>
<ellipse cx="143.823" cy="32.4813" rx="2.2941" ry="2.24225" transform="rotate(179.687 143.823 32.4813)" fill="white"/>
<ellipse cx="136.367" cy="32.5223" rx="2.2941" ry="2.24225" transform="rotate(179.687 136.367 32.5223)" fill="white"/>
<ellipse cx="128.91" cy="32.5652" rx="2.2941" ry="2.24225" transform="rotate(179.687 128.91 32.5652)" fill="white"/>
<ellipse cx="121.455" cy="32.6043" rx="2.2941" ry="2.24225" transform="rotate(179.687 121.455 32.6043)" fill="white"/>
<ellipse cx="113.998" cy="32.6453" rx="2.2941" ry="2.24225" transform="rotate(179.687 113.998 32.6453)" fill="white"/>
<ellipse cx="106.543" cy="32.6863" rx="2.2941" ry="2.24225" transform="rotate(179.687 106.543 32.6863)" fill="white"/>
<ellipse cx="99.0872" cy="32.7273" rx="2.2941" ry="2.24225" transform="rotate(179.687 99.0872 32.7273)" fill="white"/>
<ellipse cx="91.6302" cy="32.7684" rx="2.2941" ry="2.24225" transform="rotate(179.687 91.6302 32.7684)" fill="white"/>
<ellipse cx="84.1742" cy="32.8074" rx="2.2941" ry="2.24225" transform="rotate(179.687 84.1742 32.8074)" fill="white"/>
<ellipse cx="76.7181" cy="32.8504" rx="2.2941" ry="2.24225" transform="rotate(179.687 76.7181 32.8504)" fill="white"/>
<ellipse cx="69.262" cy="32.8895" rx="2.2941" ry="2.24225" transform="rotate(179.687 69.262 32.8895)" fill="white"/>
<ellipse cx="61.806" cy="32.9305" rx="2.2941" ry="2.24225" transform="rotate(179.687 61.806 32.9305)" fill="white"/>
<ellipse cx="54.3499" cy="32.9715" rx="2.2941" ry="2.24225" transform="rotate(179.687 54.3499 32.9715)" fill="white"/>
<ellipse cx="46.8939" cy="33.0105" rx="2.2941" ry="2.24225" transform="rotate(179.687 46.8939 33.0105)" fill="white"/>
<ellipse cx="39.4368" cy="33.0516" rx="2.2941" ry="2.24225" transform="rotate(179.687 39.4368 33.0516)" fill="white"/>
<ellipse cx="31.9808" cy="33.0945" rx="2.2941" ry="2.24225" transform="rotate(179.687 31.9808 33.0945)" fill="white"/>
<ellipse cx="24.5257" cy="33.1336" rx="2.2941" ry="2.24225" transform="rotate(179.687 24.5257 33.1336)" fill="white"/>
<ellipse cx="17.0687" cy="33.1746" rx="2.2941" ry="2.24225" transform="rotate(179.687 17.0687 33.1746)" fill="white"/>
<ellipse cx="9.61361" cy="33.2156" rx="2.2941" ry="2.24225" transform="rotate(179.687 9.61361 33.2156)" fill="white"/>
<ellipse cx="2.15755" cy="33.2547" rx="2.2941" ry="2.24225" transform="rotate(179.687 2.15755 33.2547)" fill="white"/>
<ellipse cx="210.888" cy="24.8289" rx="2.2941" ry="2.24225" transform="rotate(179.687 210.888 24.8289)" fill="white"/>
<ellipse cx="203.432" cy="24.866" rx="2.2941" ry="2.24225" transform="rotate(179.687 203.432 24.866)" fill="white"/>
<ellipse cx="195.976" cy="24.909" rx="2.2941" ry="2.24225" transform="rotate(179.687 195.976 24.909)" fill="white"/>
<ellipse cx="188.52" cy="24.95" rx="2.2941" ry="2.24225" transform="rotate(179.687 188.52 24.95)" fill="white"/>
<ellipse cx="181.064" cy="24.991" rx="2.2941" ry="2.24225" transform="rotate(179.687 181.064 24.991)" fill="white"/>
<ellipse cx="173.609" cy="25.032" rx="2.2941" ry="2.24225" transform="rotate(179.687 173.609 25.032)" fill="white"/>
<ellipse cx="166.152" cy="25.075" rx="2.2941" ry="2.24225" transform="rotate(179.687 166.152 25.075)" fill="white"/>
<ellipse cx="158.696" cy="25.1141" rx="2.2941" ry="2.24225" transform="rotate(179.687 158.696 25.1141)" fill="white"/>
<ellipse cx="151.24" cy="25.1531" rx="2.2941" ry="2.24225" transform="rotate(179.687 151.24 25.1531)" fill="white"/>
<ellipse cx="143.784" cy="25.1941" rx="2.2941" ry="2.24225" transform="rotate(179.687 143.784 25.1941)" fill="white"/>
<ellipse cx="136.326" cy="25.2352" rx="2.2941" ry="2.24225" transform="rotate(179.687 136.326 25.2352)" fill="white"/>
<ellipse cx="128.87" cy="25.2762" rx="2.2941" ry="2.24225" transform="rotate(179.687 128.87 25.2762)" fill="white"/>
<ellipse cx="121.415" cy="25.3172" rx="2.2941" ry="2.24225" transform="rotate(179.687 121.415 25.3172)" fill="white"/>
<ellipse cx="113.958" cy="25.3602" rx="2.2941" ry="2.24225" transform="rotate(179.687 113.958 25.3602)" fill="white"/>
<ellipse cx="106.502" cy="25.4012" rx="2.2941" ry="2.24225" transform="rotate(179.687 106.502 25.4012)" fill="white"/>
<ellipse cx="99.0452" cy="25.4402" rx="2.2941" ry="2.24225" transform="rotate(179.687 99.0452 25.4402)" fill="white"/>
<ellipse cx="91.5902" cy="25.4813" rx="2.2941" ry="2.24225" transform="rotate(179.687 91.5902 25.4813)" fill="white"/>
<ellipse cx="84.1341" cy="25.5223" rx="2.2941" ry="2.24225" transform="rotate(179.687 84.1341 25.5223)" fill="white"/>
<ellipse cx="76.6781" cy="25.5613" rx="2.2941" ry="2.24225" transform="rotate(179.687 76.6781 25.5613)" fill="white"/>
<ellipse cx="69.222" cy="25.6023" rx="2.2941" ry="2.24225" transform="rotate(179.687 69.222 25.6023)" fill="white"/>
<ellipse cx="61.7659" cy="25.6434" rx="2.2941" ry="2.24225" transform="rotate(179.687 61.7659 25.6434)" fill="white"/>
<ellipse cx="54.3099" cy="25.6844" rx="2.2941" ry="2.24225" transform="rotate(179.687 54.3099 25.6844)" fill="white"/>
<ellipse cx="46.8529" cy="25.7254" rx="2.2941" ry="2.24225" transform="rotate(179.687 46.8529 25.7254)" fill="white"/>
<ellipse cx="39.3978" cy="25.7645" rx="2.2941" ry="2.24225" transform="rotate(179.687 39.3978 25.7645)" fill="white"/>
<ellipse cx="31.9417" cy="25.8055" rx="2.2941" ry="2.24225" transform="rotate(179.687 31.9417 25.8055)" fill="white"/>
<ellipse cx="24.4857" cy="25.8484" rx="2.2941" ry="2.24225" transform="rotate(179.687 24.4857 25.8484)" fill="white"/>
<ellipse cx="17.0296" cy="25.8875" rx="2.2941" ry="2.24225" transform="rotate(179.687 17.0296 25.8875)" fill="white"/>
<ellipse cx="9.57357" cy="25.9266" rx="2.2941" ry="2.24225" transform="rotate(179.687 9.57357 25.9266)" fill="white"/>
<ellipse cx="2.11751" cy="25.9695" rx="2.2941" ry="2.24225" transform="rotate(179.687 2.11751 25.9695)" fill="white"/>
<ellipse cx="210.848" cy="17.5418" rx="2.2941" ry="2.24225" transform="rotate(179.687 210.848 17.5418)" fill="white"/>
<ellipse cx="203.392" cy="17.5809" rx="2.2941" ry="2.24225" transform="rotate(179.687 203.392 17.5809)" fill="white"/>
<ellipse cx="195.935" cy="17.6238" rx="2.2941" ry="2.24225" transform="rotate(179.687 195.935 17.6238)" fill="white"/>
<ellipse cx="188.48" cy="17.6629" rx="2.2941" ry="2.24225" transform="rotate(179.687 188.48 17.6629)" fill="white"/>
<ellipse cx="181.024" cy="17.702" rx="2.2941" ry="2.24225" transform="rotate(179.687 181.024 17.702)" fill="white"/>
<ellipse cx="173.567" cy="17.7469" rx="2.2941" ry="2.24225" transform="rotate(179.687 173.567 17.7469)" fill="white"/>
<ellipse cx="166.111" cy="17.7859" rx="2.2941" ry="2.24225" transform="rotate(179.687 166.111 17.7859)" fill="white"/>
<ellipse cx="158.656" cy="17.825" rx="2.2941" ry="2.24225" transform="rotate(179.687 158.656 17.825)" fill="white"/>
<ellipse cx="151.2" cy="17.866" rx="2.2941" ry="2.24225" transform="rotate(179.687 151.2 17.866)" fill="white"/>
<ellipse cx="143.743" cy="17.909" rx="2.2941" ry="2.24225" transform="rotate(179.687 143.743 17.909)" fill="white"/>
<ellipse cx="136.287" cy="17.948" rx="2.2941" ry="2.24225" transform="rotate(179.687 136.287 17.948)" fill="white"/>
<ellipse cx="128.831" cy="17.991" rx="2.2941" ry="2.24225" transform="rotate(179.687 128.831 17.991)" fill="white"/>
<ellipse cx="121.374" cy="18.0281" rx="2.2941" ry="2.24225" transform="rotate(179.687 121.374 18.0281)" fill="white"/>
<ellipse cx="113.918" cy="18.0711" rx="2.2941" ry="2.24225" transform="rotate(179.687 113.918 18.0711)" fill="white"/>
<ellipse cx="106.463" cy="18.1121" rx="2.2941" ry="2.24225" transform="rotate(179.687 106.463 18.1121)" fill="white"/>
<ellipse cx="99.0072" cy="18.1512" rx="2.2941" ry="2.24225" transform="rotate(179.687 99.0072 18.1512)" fill="white"/>
<ellipse cx="91.5511" cy="18.1922" rx="2.2941" ry="2.24225" transform="rotate(179.687 91.5511 18.1922)" fill="white"/>
<ellipse cx="84.0951" cy="18.2352" rx="2.2941" ry="2.24225" transform="rotate(179.687 84.0951 18.2352)" fill="white"/>
<ellipse cx="76.638" cy="18.2762" rx="2.2941" ry="2.24225" transform="rotate(179.687 76.638 18.2762)" fill="white"/>
<ellipse cx="69.182" cy="18.3152" rx="2.2941" ry="2.24225" transform="rotate(179.687 69.182 18.3152)" fill="white"/>
<ellipse cx="61.7259" cy="18.3582" rx="2.2941" ry="2.24225" transform="rotate(179.687 61.7259 18.3582)" fill="white"/>
<ellipse cx="54.2699" cy="18.3973" rx="2.2941" ry="2.24225" transform="rotate(179.687 54.2699 18.3973)" fill="white"/>
<ellipse cx="46.8148" cy="18.4363" rx="2.2941" ry="2.24225" transform="rotate(179.687 46.8148 18.4363)" fill="white"/>
<ellipse cx="39.3587" cy="18.4773" rx="2.2941" ry="2.24225" transform="rotate(179.687 39.3587 18.4773)" fill="white"/>
<ellipse cx="31.9017" cy="18.5184" rx="2.2941" ry="2.24225" transform="rotate(179.687 31.9017 18.5184)" fill="white"/>
<ellipse cx="24.4456" cy="18.5594" rx="2.2941" ry="2.24225" transform="rotate(179.687 24.4456 18.5594)" fill="white"/>
<ellipse cx="16.9896" cy="18.6004" rx="2.2941" ry="2.24225" transform="rotate(179.687 16.9896 18.6004)" fill="white"/>
<ellipse cx="9.53353" cy="18.6414" rx="2.2941" ry="2.24225" transform="rotate(179.687 9.53353 18.6414)" fill="white"/>
<ellipse cx="2.07747" cy="18.6805" rx="2.2941" ry="2.24225" transform="rotate(179.687 2.07747 18.6805)" fill="white"/>
<ellipse cx="210.808" cy="10.2527" rx="2.2941" ry="2.24225" transform="rotate(179.687 210.808 10.2527)" fill="white"/>
<ellipse cx="203.352" cy="10.2957" rx="2.2941" ry="2.24225" transform="rotate(179.687 203.352 10.2957)" fill="white"/>
<ellipse cx="195.896" cy="10.3328" rx="2.2941" ry="2.24225" transform="rotate(179.687 195.896 10.3328)" fill="white"/>
<ellipse cx="188.44" cy="10.3758" rx="2.2941" ry="2.24225" transform="rotate(179.687 188.44 10.3758)" fill="white"/>
<ellipse cx="180.983" cy="10.4188" rx="2.2941" ry="2.24225" transform="rotate(179.687 180.983 10.4188)" fill="white"/>
<ellipse cx="173.528" cy="10.4578" rx="2.2941" ry="2.24225" transform="rotate(179.687 173.528 10.4578)" fill="white"/>
<ellipse cx="166.072" cy="10.4988" rx="2.2941" ry="2.24225" transform="rotate(179.687 166.072 10.4988)" fill="white"/>
<ellipse cx="158.616" cy="10.5379" rx="2.2941" ry="2.24225" transform="rotate(179.687 158.616 10.5379)" fill="white"/>
<ellipse cx="151.16" cy="10.5789" rx="2.2941" ry="2.24225" transform="rotate(179.687 151.16 10.5789)" fill="white"/>
<ellipse cx="143.703" cy="10.6219" rx="2.2941" ry="2.24225" transform="rotate(179.687 143.703 10.6219)" fill="white"/>
<ellipse cx="136.247" cy="10.659" rx="2.2941" ry="2.24225" transform="rotate(179.687 136.247 10.659)" fill="white"/>
<ellipse cx="128.791" cy="10.702" rx="2.2941" ry="2.24225" transform="rotate(179.687 128.791 10.702)" fill="white"/>
<ellipse cx="121.335" cy="10.741" rx="2.2941" ry="2.24225" transform="rotate(179.687 121.335 10.741)" fill="white"/>
<ellipse cx="113.879" cy="10.784" rx="2.2941" ry="2.24225" transform="rotate(179.687 113.879 10.784)" fill="white"/>
<ellipse cx="106.423" cy="10.825" rx="2.2941" ry="2.24225" transform="rotate(179.687 106.423 10.825)" fill="white"/>
<ellipse cx="98.9671" cy="10.8621" rx="2.2941" ry="2.24225" transform="rotate(179.687 98.9671 10.8621)" fill="white"/>
<ellipse cx="91.5101" cy="10.9051" rx="2.2941" ry="2.24225" transform="rotate(179.687 91.5101 10.9051)" fill="white"/>
<ellipse cx="84.054" cy="10.9461" rx="2.2941" ry="2.24225" transform="rotate(179.687 84.054 10.9461)" fill="white"/>
<ellipse cx="76.598" cy="10.9852" rx="2.2941" ry="2.24225" transform="rotate(179.687 76.598 10.9852)" fill="white"/>
<ellipse cx="69.1419" cy="11.0281" rx="2.2941" ry="2.24225" transform="rotate(179.687 69.1419 11.0281)" fill="white"/>
<ellipse cx="61.6868" cy="11.0691" rx="2.2941" ry="2.24225" transform="rotate(179.687 61.6868 11.0691)" fill="white"/>
<ellipse cx="54.2308" cy="11.1082" rx="2.2941" ry="2.24225" transform="rotate(179.687 54.2308 11.1082)" fill="white"/>
<ellipse cx="46.7738" cy="11.1512" rx="2.2941" ry="2.24225" transform="rotate(179.687 46.7738 11.1512)" fill="white"/>
<ellipse cx="39.3177" cy="11.1922" rx="2.2941" ry="2.24225" transform="rotate(179.687 39.3177 11.1922)" fill="white"/>
<ellipse cx="31.8617" cy="11.2313" rx="2.2941" ry="2.24225" transform="rotate(179.687 31.8617 11.2313)" fill="white"/>
<ellipse cx="24.4066" cy="11.2723" rx="2.2941" ry="2.24225" transform="rotate(179.687 24.4066 11.2723)" fill="white"/>
<ellipse cx="16.9505" cy="11.3133" rx="2.2941" ry="2.24225" transform="rotate(179.687 16.9505 11.3133)" fill="white"/>
<ellipse cx="9.49349" cy="11.3523" rx="2.2941" ry="2.24225" transform="rotate(179.687 9.49349 11.3523)" fill="white"/>
<ellipse cx="2.03841" cy="11.3934" rx="2.2941" ry="2.24225" transform="rotate(179.687 2.03841 11.3934)" fill="white"/>
<ellipse cx="210.769" cy="2.96563" rx="2.2941" ry="2.24225" transform="rotate(179.687 210.769 2.96563)" fill="white"/>
<ellipse cx="203.313" cy="3.00664" rx="2.2941" ry="2.24225" transform="rotate(179.687 203.313 3.00664)" fill="white"/>
<ellipse cx="195.857" cy="3.04766" rx="2.2941" ry="2.24225" transform="rotate(179.687 195.857 3.04766)" fill="white"/>
<ellipse cx="188.401" cy="3.08672" rx="2.2941" ry="2.24225" transform="rotate(179.687 188.401 3.08672)" fill="white"/>
<ellipse cx="180.944" cy="3.12969" rx="2.2941" ry="2.24225" transform="rotate(179.687 180.944 3.12969)" fill="white"/>
<ellipse cx="173.488" cy="3.16875" rx="2.2941" ry="2.24225" transform="rotate(179.687 173.488 3.16875)" fill="white"/>
<ellipse cx="166.032" cy="3.20781" rx="2.2941" ry="2.24225" transform="rotate(179.687 166.032 3.20781)" fill="white"/>
<ellipse cx="158.576" cy="3.25274" rx="2.2941" ry="2.24225" transform="rotate(179.687 158.576 3.25274)" fill="white"/>
<ellipse cx="151.119" cy="3.2918" rx="2.2941" ry="2.24225" transform="rotate(179.687 151.119 3.2918)" fill="white"/>
<ellipse cx="143.663" cy="3.33281" rx="2.2941" ry="2.24225" transform="rotate(179.687 143.663 3.33281)" fill="white"/>
<ellipse cx="136.207" cy="3.37383" rx="2.2941" ry="2.24225" transform="rotate(179.687 136.207 3.37383)" fill="white"/>
<ellipse cx="128.751" cy="3.41484" rx="2.2941" ry="2.24225" transform="rotate(179.687 128.751 3.41484)" fill="white"/>
<ellipse cx="121.295" cy="3.45391" rx="2.2941" ry="2.24225" transform="rotate(179.687 121.295 3.45391)" fill="white"/>
<ellipse cx="113.839" cy="3.49492" rx="2.2941" ry="2.24225" transform="rotate(179.687 113.839 3.49492)" fill="white"/>
<ellipse cx="106.383" cy="3.53789" rx="2.2941" ry="2.24225" transform="rotate(179.687 106.383 3.53789)" fill="white"/>
<ellipse cx="98.9271" cy="3.57695" rx="2.2941" ry="2.24225" transform="rotate(179.687 98.9271 3.57695)" fill="white"/>
<ellipse cx="91.471" cy="3.61602" rx="2.2941" ry="2.24225" transform="rotate(179.687 91.471 3.61602)" fill="white"/>
<ellipse cx="84.015" cy="3.65899" rx="2.2941" ry="2.24225" transform="rotate(179.687 84.015 3.65899)" fill="white"/>
<ellipse cx="76.5589" cy="3.7" rx="2.2941" ry="2.24225" transform="rotate(179.687 76.5589 3.7)" fill="white"/>
<ellipse cx="69.1029" cy="3.74102" rx="2.2941" ry="2.24225" transform="rotate(179.687 69.1029 3.74102)" fill="white"/>
<ellipse cx="61.6468" cy="3.78203" rx="2.2941" ry="2.24225" transform="rotate(179.687 61.6468 3.78203)" fill="white"/>
<ellipse cx="54.1898" cy="3.82109" rx="2.2941" ry="2.24225" transform="rotate(179.687 54.1898 3.82109)" fill="white"/>
<ellipse cx="46.7347" cy="3.86211" rx="2.2941" ry="2.24225" transform="rotate(179.687 46.7347 3.86211)" fill="white"/>
<ellipse cx="39.2786" cy="3.90313" rx="2.2941" ry="2.24225" transform="rotate(179.687 39.2786 3.90313)" fill="white"/>
<ellipse cx="31.8236" cy="3.94024" rx="2.2941" ry="2.24225" transform="rotate(179.687 31.8236 3.94024)" fill="white"/>
<ellipse cx="24.3665" cy="3.98516" rx="2.2941" ry="2.24225" transform="rotate(179.687 24.3665 3.98516)" fill="white"/>
<ellipse cx="16.9105" cy="4.02422" rx="2.2941" ry="2.24225" transform="rotate(179.687 16.9105 4.02422)" fill="white"/>
<ellipse cx="9.45443" cy="4.06524" rx="2.2941" ry="2.24225" transform="rotate(179.687 9.45443 4.06524)" fill="white"/>
<ellipse cx="1.99837" cy="4.1082" rx="2.2941" ry="2.24225" transform="rotate(179.687 1.99837 4.1082)" fill="white"/>
</g>
</g>
</svg>
