<svg width="37" height="37" viewBox="0 0 37 37" fill="none" xmlns="http://www.w3.org/2000/svg">
<g clip-path="url(#clip0)">
<path d="M18.5 37C28.7173 37 37 28.7173 37 18.5C37 8.28273 28.7173 0 18.5 0C8.28273 0 0 8.28273 0 18.5C0 28.7173 8.28273 37 18.5 37Z" fill="#87DCFF"/>
<path d="M20.6544 0.128906L19.8906 2.50847C19.7058 3.08435 19.2427 3.52799 18.6594 3.68792L16.7435 4.21321C16.5892 4.25549 16.43 4.27695 16.27 4.27695H13.4031C13.104 4.27695 12.8512 4.49837 12.8116 4.79481L12.4828 7.2608L10.6516 7.3567C10.3437 7.37281 10.0988 7.62083 10.0865 7.9289L10.0231 9.5204C10.0088 9.87877 10.3116 10.1687 10.669 10.1389L11.8889 10.0372C12.2026 10.0111 12.489 9.84863 12.6724 9.59288L13.8007 8.01923L16.2139 7.93302C16.73 7.91459 17.0947 8.43389 16.9073 8.91518C16.4868 9.99504 16.4862 10.0875 16.4862 10.1825C16.4862 10.5124 16.7531 10.7793 17.083 10.7793C17.3779 10.7793 17.6232 10.5648 17.671 10.2839C17.7117 10.1464 17.894 9.66956 18.1326 9.06426C18.2323 8.81148 18.5756 8.77426 18.7253 9.00103L18.8796 9.23452C19.1649 9.66631 19.6959 9.86504 20.1946 9.72665L21.2602 9.43094C21.5572 9.34855 21.7971 9.1293 21.9057 8.84089L22.1101 8.29861C22.2544 7.91567 22.5849 7.6334 22.9857 7.55066L23.6744 7.40851C24.143 7.31182 24.6399 7.59517 24.7215 8.06671C24.8048 8.54843 24.4663 8.98607 23.9961 9.03998L22.3355 9.08457C21.9978 9.09367 21.7265 9.36575 21.7185 9.70352L21.7148 9.86251C21.7117 9.9902 21.7822 10.1084 21.8959 10.1664L22.8508 10.6536C23.2143 10.839 23.3328 11.3012 23.1033 11.6387C22.9771 11.8244 22.7672 11.9354 22.5427 11.9354H17.5063C17.3745 11.9354 17.2438 11.9107 17.1212 11.8623L12.8949 10.1975C12.5822 10.0742 12.2266 10.1409 11.9797 10.3691L7.9772 14.0684C7.65815 14.3633 7.52453 14.8083 7.62837 15.2302L8.44216 18.5361C8.56775 19.0464 9.01233 19.4144 9.53705 19.4427L14.0463 19.6851C14.9335 19.7328 15.6514 20.424 15.733 21.3087L16.075 25.0222C16.1006 25.3 16.1738 25.5679 16.2944 25.8195C16.6744 26.6122 17.5603 28.414 18.0528 29.0368C18.6868 29.8387 20.249 29.8705 20.7755 29.3911L24.4418 26.391C24.7482 26.1121 24.9483 25.7355 25.0082 25.3255L25.4377 22.3791L28.3491 19.1706C28.6327 18.858 28.5053 18.3786 28.1444 18.2238L28.0923 18.2588C27.8714 18.4068 27.6167 18.4965 27.3533 18.5199C27.3067 18.5239 27.2601 18.5263 27.2134 18.5263C26.6738 18.5263 26.1732 18.2524 25.8824 17.7896L23.6596 14.2602C23.4842 13.9811 23.5681 13.6127 23.8467 13.4368C24.1276 13.2625 24.4942 13.3459 24.6702 13.6239L26.8929 17.1538C26.9693 17.2762 27.1045 17.3426 27.249 17.331C27.3125 17.3252 27.3749 17.303 27.4285 17.2675L30.4329 15.621C30.7461 15.4494 30.829 15.037 30.6065 14.7577C30.4828 14.6024 30.2878 14.5218 30.0906 14.5445L29.4595 14.617C29.29 14.6365 29.1202 14.5825 28.9931 14.4688L27.1033 12.7784C26.858 12.5587 26.837 12.1816 27.0567 11.9357C27.2758 11.6897 27.6529 11.6694 27.8994 11.8891L29.5895 13.4008L30.6164 13.2825C30.8291 13.2562 31.0401 13.3495 31.1665 13.5232L31.3641 13.7936L32.365 13.6735C32.8514 13.6151 33.324 13.8599 33.5571 14.2908L35.5782 18.0279C35.7248 18.299 35.9707 18.5029 36.2643 18.5968L36.9913 18.8522C36.9935 18.7347 37.0002 18.6182 37.0002 18.5002C37.0002 9.01194 29.8561 1.1967 20.6544 0.128906ZM28.3826 10.341C28.2806 10.4104 28.164 10.4436 28.0492 10.4436C27.8575 10.4436 27.6692 10.3515 27.5544 10.1808L26.3113 8.34088C26.1266 8.06815 26.1982 7.69692 26.4716 7.51272C26.7437 7.32736 27.1161 7.40027 27.2997 7.673L28.5428 9.51289C28.7276 9.78561 28.6559 10.1568 28.3826 10.341Z" fill="#BEE86E"/>
<path d="M24.5672 30.933C14.3499 30.933 6.0672 22.6503 6.0672 12.433C6.0672 8.879 7.07141 5.56042 8.8086 2.7417C3.52411 5.99864 0 11.837 0 18.5002C0 28.7175 8.28273 37.0002 18.5 37.0002C25.1633 37.0002 31.0017 33.4761 34.2586 28.1916C31.4398 29.9288 28.1213 30.933 24.5672 30.933Z" fill="#00C3FF"/>
<path d="M26.5563 28.2722C26.4211 28.2722 26.2847 28.2262 26.1728 28.1324C25.9205 27.9203 25.8878 27.5438 26.1 27.2914L27.6665 25.4265C27.878 25.1748 28.2551 25.1415 28.5074 25.3537C28.7598 25.5659 28.7925 25.9423 28.5803 26.1946L27.0138 28.0595C26.896 28.1999 26.7265 28.2722 26.5563 28.2722Z" fill="#BEE86E"/>
<path d="M13.4108 0.714629L12.8798 2.29667C12.7749 2.60907 12.9433 2.94764 13.2557 3.05257C13.3187 3.07352 13.3828 3.08342 13.4457 3.08342C13.6952 3.08342 13.9277 2.9261 14.0116 2.67664L14.7846 0.373535C14.3194 0.468275 13.8626 0.585562 13.4108 0.714629Z" fill="#BEE86E"/>
<path d="M3.09824 28.748L3.61458 24.057C3.65585 23.6888 3.52374 23.3223 3.25708 23.0651L0.0722656 20.0869C0.343117 23.2726 1.41821 26.2282 3.09824 28.748Z" fill="#AFD755"/>
<path d="M18.4999 0C17.8307 0 17.1703 0.0375059 16.5194 0.106809L16.4573 1.5071C16.3011 1.97625 16.554 2.48326 17.0232 2.63943C17.117 2.67087 17.2126 2.68546 17.3064 2.68546C17.6811 2.68546 18.0308 2.44829 18.1555 2.07352L18.8438 0.00867188C18.729 0.00657617 18.6153 0 18.4999 0Z" fill="#BEE86E"/>
</g>
<defs>
<clipPath id="clip0">
<rect width="37" height="37" fill="white"/>
</clipPath>
</defs>
</svg>
