<svg width="373" height="394" viewBox="0 0 373 394" fill="none" xmlns="http://www.w3.org/2000/svg">
<g filter="url(#filter0_d)">
<mask id="mask0" mask-type="alpha" maskUnits="userSpaceOnUse" x="76" y="210" width="59" height="83">
<path fill-rule="evenodd" clip-rule="evenodd" d="M76 210.106H134.909V293H76V210.106Z" fill="white"/>
</mask>
<g mask="url(#mask0)">
<path fill-rule="evenodd" clip-rule="evenodd" d="M105.469 293C118.333 293 128.044 285.102 132.303 273.697C134.096 268.895 135.337 264.565 134.771 258.176C132.859 236.614 120.735 210.106 105.51 210.106C90.2853 210.106 78.5328 236.614 76.2493 258.176C75.9063 261.415 75.9278 264.367 76.2493 267.215C78.0673 283.323 89.9338 293 105.469 293Z" fill="url(#paint0_radial)"/>
</g>
</g>
<path fill-rule="evenodd" clip-rule="evenodd" d="M132.39 165.138C134.186 160.445 135.429 156.214 134.861 149.971C132.947 128.902 120.804 103 105.556 103C90.3073 103 78.5367 128.902 76.2496 149.971C75.9061 153.136 75.9276 156.021 76.2496 158.804C78.0704 174.544 89.9552 184 105.514 184C118.398 184 128.124 176.283 132.39 165.138Z" fill="#F1EFE2"/>
<path fill-rule="evenodd" clip-rule="evenodd" d="M212.39 164.138C214.186 159.445 215.429 155.214 214.861 148.971C212.947 127.902 200.804 102 185.556 102C170.307 102 158.537 127.902 156.25 148.971C155.906 152.136 155.928 155.021 156.25 157.804C158.07 173.544 169.955 183 185.514 183C198.398 183 208.124 175.283 212.39 164.138Z" fill="#F1EFE2"/>
<path fill-rule="evenodd" clip-rule="evenodd" d="M211.39 273.138C213.186 268.445 214.429 264.214 213.861 257.971C211.947 236.902 199.804 211 184.556 211C169.307 211 157.537 236.902 155.25 257.971C154.906 261.136 154.928 264.021 155.25 266.804C157.07 282.544 168.955 292 184.514 292C197.398 292 207.124 284.283 211.39 273.138Z" fill="#F1EFE2"/>
<path fill-rule="evenodd" clip-rule="evenodd" d="M291.39 273.138C293.186 268.445 294.429 264.214 293.861 257.971C291.947 236.902 279.804 211 264.556 211C249.307 211 237.537 236.902 235.25 257.971C234.906 261.136 234.928 264.021 235.25 266.804C237.07 282.544 248.955 292 264.514 292C277.398 292 287.124 284.283 291.39 273.138Z" fill="#F1EFE2"/>
<path fill-rule="evenodd" clip-rule="evenodd" d="M291.39 164.138C293.186 159.445 294.429 155.214 293.861 148.971C291.947 127.902 279.804 102 264.556 102C249.307 102 237.537 127.902 235.25 148.971C234.906 152.136 234.928 155.021 235.25 157.804C237.07 173.544 248.955 183 264.514 183C277.398 183 287.124 175.283 291.39 164.138Z" fill="#F1EFE2"/>
<path fill-rule="evenodd" clip-rule="evenodd" d="M132.39 62.1383C134.186 57.4452 135.429 53.2144 134.861 46.9711C132.947 25.9021 120.804 0 105.556 0C90.3073 0 78.5367 25.9021 76.2496 46.9711C75.9061 50.1361 75.9276 53.0212 76.2496 55.8043C78.0704 71.5443 89.9552 81 105.514 81C118.398 81 128.124 73.2828 132.39 62.1383Z" fill="#F1EFE2"/>
<path fill-rule="evenodd" clip-rule="evenodd" d="M211.39 62.1383C213.186 57.4452 214.429 53.2144 213.861 46.9711C211.947 25.9021 199.804 0 184.556 0C169.307 0 157.537 25.9021 155.25 46.9711C154.906 50.1361 154.928 53.0212 155.25 55.8043C157.07 71.5443 168.955 81 184.514 81C197.398 81 207.124 73.2828 211.39 62.1383Z" fill="#F1EFE2"/>
<path fill-rule="evenodd" clip-rule="evenodd" d="M291.39 62.1383C293.186 57.4452 294.429 53.2144 293.861 46.9711C291.947 25.9021 279.804 0 264.556 0C249.307 0 237.537 25.9021 235.25 46.9711C234.906 50.1361 234.928 53.0212 235.25 55.8043C237.07 71.5443 248.955 81 264.514 81C277.398 81 287.124 73.2828 291.39 62.1383Z" fill="#F1EFE2"/>
<path fill-rule="evenodd" clip-rule="evenodd" d="M211.39 373.138C213.186 368.445 214.429 364.214 213.861 357.971C211.947 336.902 199.804 311 184.556 311C169.307 311 157.537 336.902 155.25 357.971C154.906 361.136 154.928 364.021 155.25 366.804C157.07 382.544 168.955 392 184.514 392C197.398 392 207.124 384.283 211.39 373.138Z" fill="#F1EFE2"/>
<path fill-rule="evenodd" clip-rule="evenodd" d="M370.39 164.138C372.186 159.445 373.429 155.214 372.861 148.971C370.947 127.902 358.804 102 343.556 102C328.307 102 316.537 127.902 314.25 148.971C313.906 152.136 313.928 155.021 314.25 157.804C316.07 173.544 327.955 183 343.514 183C356.398 183 366.124 175.283 370.39 164.138Z" fill="#F1EFE2"/>
<path fill-rule="evenodd" clip-rule="evenodd" d="M370.39 62.1383C372.186 57.4452 373.429 53.2144 372.861 46.9711C370.947 25.9021 358.804 0 343.556 0C328.307 0 316.537 25.9021 314.25 46.9711C313.906 50.1361 313.928 53.0212 314.25 55.8043C316.07 71.5443 327.955 81 343.514 81C356.398 81 366.124 73.2828 370.39 62.1383Z" fill="#F1EFE2"/>
<path fill-rule="evenodd" clip-rule="evenodd" d="M57.3895 375.138C59.1858 370.445 60.4287 366.214 59.8614 359.971C57.9469 338.902 45.8042 313 30.5557 313C15.3073 313 3.53666 338.902 1.24964 359.971C0.906108 363.136 0.927641 366.021 1.24964 368.804C3.07044 384.544 14.9552 394 30.5142 394C43.398 394 53.124 386.283 57.3895 375.138Z" fill="#F1EFE2"/>
<path fill-rule="evenodd" clip-rule="evenodd" d="M56.3895 165.138C58.1858 160.445 59.4287 156.214 58.8614 149.971C56.9469 128.902 44.8042 103 29.5557 103C14.3073 103 2.53666 128.902 0.249637 149.971C-0.0938918 153.136 -0.0723587 156.021 0.249637 158.804C2.07044 174.544 13.9552 184 29.5142 184C42.398 184 52.124 176.283 56.3895 165.138Z" fill="#F1EFE2"/>
<path fill-rule="evenodd" clip-rule="evenodd" d="M56.3895 273.138C58.1858 268.445 59.4287 264.214 58.8614 257.971C56.9469 236.902 44.8042 211 29.5557 211C14.3073 211 2.53666 236.902 0.249637 257.971C-0.0938918 261.136 -0.0723587 264.021 0.249637 266.804C2.07044 282.544 13.9552 292 29.5142 292C42.398 292 52.124 284.283 56.3895 273.138Z" fill="#F1EFE2"/>
<path fill-rule="evenodd" clip-rule="evenodd" d="M56.3895 62.1383C58.1858 57.4452 59.4287 53.2144 58.8614 46.9711C56.9469 25.9021 44.8042 0 29.5557 0C14.3073 0 2.53666 25.9021 0.249637 46.9711C-0.0938918 50.1361 -0.0723587 53.0212 0.249637 55.8043C2.07044 71.5443 13.9552 81 29.5142 81C42.398 81 52.124 73.2828 56.3895 62.1383Z" fill="#F1EFE2"/>
<path fill-rule="evenodd" clip-rule="evenodd" d="M290.39 372.138C292.186 367.445 293.429 363.214 292.861 356.971C290.947 335.902 278.804 310 263.556 310C248.307 310 236.537 335.902 234.25 356.971C233.906 360.136 233.928 363.021 234.25 365.804C236.07 381.544 247.955 391 263.514 391C276.398 391 286.124 383.283 290.39 372.138Z" fill="#F1EFE2"/>
<path fill-rule="evenodd" clip-rule="evenodd" d="M370.39 372.138C372.186 367.445 373.429 363.214 372.861 356.971C370.947 335.902 358.804 310 343.556 310C328.307 310 316.537 335.902 314.25 356.971C313.906 360.136 313.928 363.021 314.25 365.804C316.07 381.544 327.955 391 343.514 391C356.398 391 366.124 383.283 370.39 372.138Z" fill="#F1EFE2"/>
<path fill-rule="evenodd" clip-rule="evenodd" d="M370.39 272.138C372.186 267.445 373.429 263.214 372.861 256.971C370.947 235.902 358.804 210 343.556 210C328.307 210 316.537 235.902 314.25 256.971C313.906 260.136 313.928 263.021 314.25 265.804C316.07 281.544 327.955 291 343.514 291C356.398 291 366.124 283.283 370.39 272.138Z" fill="#F1EFE2"/>
<path fill-rule="evenodd" clip-rule="evenodd" d="M130.39 373.138C132.186 368.445 133.429 364.214 132.861 357.971C130.947 336.902 118.804 311 103.556 311C88.3073 311 76.5367 336.902 74.2496 357.971C73.9061 361.136 73.9276 364.021 74.2496 366.804C76.0704 382.544 87.9552 392 103.514 392C116.398 392 126.124 384.283 130.39 373.138Z" fill="#F1EFE2"/>
<defs>
<filter id="filter0_d" x="66" y="200.106" width="78.9092" height="102.894" filterUnits="userSpaceOnUse" color-interpolation-filters="sRGB">
<feFlood flood-opacity="0" result="BackgroundImageFix"/>
<feColorMatrix in="SourceAlpha" type="matrix" values="0 0 0 0 0 0 0 0 0 0 0 0 0 0 0 0 0 0 127 0"/>
<feOffset/>
<feGaussianBlur stdDeviation="5"/>
<feColorMatrix type="matrix" values="0 0 0 0 0.91276 0 0 0 0 0.814559 0 0 0 0 0.522768 0 0 0 1 0"/>
<feBlend mode="normal" in2="BackgroundImageFix" result="effect1_dropShadow"/>
<feBlend mode="normal" in="SourceGraphic" in2="effect1_dropShadow" result="shape"/>
</filter>
<radialGradient id="paint0_radial" cx="0" cy="0" r="1" gradientUnits="userSpaceOnUse" gradientTransform="translate(105.455 240.367) rotate(84.0028) scale(76.5515 54.984)">
<stop stop-color="#FFCB3E"/>
<stop offset="1" stop-color="#6A5F3F"/>
</radialGradient>
</defs>
</svg>
