<svg width="89" height="50" viewBox="0 0 89 50" fill="none" xmlns="http://www.w3.org/2000/svg">
<mask id="mask0" mask-type="alpha" maskUnits="userSpaceOnUse" x="0" y="13" width="25" height="37">
<path fill-rule="evenodd" clip-rule="evenodd" d="M0.000854492 13.8818H24.0231V49.0565H0.000854492V13.8818Z" fill="white"/>
</mask>
<g mask="url(#mask0)">
<path fill-rule="evenodd" clip-rule="evenodd" d="M13.6736 41.2134C11.6314 46.5378 8.92585 49.0572 4.84135 49.0572C3.9401 49.0572 3.3696 49.0572 2.7536 48.9608V45.6337C3.3696 45.6828 3.7966 45.6828 4.22535 45.6828C6.74185 45.6828 8.4026 44.5895 9.68535 41.2607L10.0179 40.3584L0.000854492 13.8818H4.6051L12.1056 36.0326L19.5606 13.8818H24.0231L13.6736 41.2134Z" fill="#51514F"/>
</g>
<path fill-rule="evenodd" clip-rule="evenodd" d="M59.5119 27.832C59.5119 28.5942 59.5119 29.4019 59.5591 30.2078C59.6536 31.8249 60.4149 32.347 62.6444 32.1105V35.0574C61.7431 35.1993 60.6984 35.2466 59.7499 35.2466C57.3751 35.2466 55.6181 34.488 55.4746 31.301C55.4291 30.4461 55.4291 29.3528 55.4291 27.9757V0.12207H59.5119V27.832Z" fill="#4E4E4F"/>
<path fill-rule="evenodd" clip-rule="evenodd" d="M67 0V35H71.2436V26.9539L73.7091 24.335L83.2291 35H89L76.6691 21.667L88.8527 9.76103H83.4255L71.2436 22.4762V0H67Z" fill="#4E4E4F"/>
<path fill-rule="evenodd" clip-rule="evenodd" d="M39.5335 35.8778C45.2413 35.8778 49.5487 32.4839 51.4387 27.5823C52.2343 25.5167 52.7851 23.6553 52.5349 20.9106C51.6853 11.6421 46.3069 0.25 39.5533 0.25C32.7979 0.25 27.5833 11.6421 26.5717 20.9106C26.4187 22.3023 26.4295 23.5708 26.5717 24.7954C27.3781 31.7186 32.6431 35.8778 39.5335 35.8778Z" fill="#F1EFE2"/>
<path fill-rule="evenodd" clip-rule="evenodd" d="M39.5756 30.4998C44.2682 30.4998 47.7818 27.9909 47.7818 23.4658C47.7818 18.9423 44.2682 13.022 39.5756 13.022C34.883 13.022 31.2758 18.9423 31.2758 23.4658C31.2758 27.9909 34.883 30.4998 39.5756 30.4998Z" fill="#F3AA2B"/>
</svg>
