<?xml version="1.0" encoding="UTF-8"?>
<svg width="49px" height="29px" viewBox="0 0 49 29" version="1.1" xmlns="http://www.w3.org/2000/svg" xmlns:xlink="http://www.w3.org/1999/xlink">
    <!-- Generator: Sketch 61.2 (89653) - https://sketch.com -->
    <title>Group</title>
    <desc>Created with Sketch.</desc>
    <g id="mvp" stroke="none" stroke-width="1" fill="none" fill-rule="evenodd">
        <g id="iPhone-11-Pro" transform="translate(-295.000000, -29.000000)">
            <g id="Group" transform="translate(297.010926, 29.023914)">
                <line x1="45" y1="19.843739" x2="0" y2="20.1074701" id="Line" stroke="#4E4E4F" stroke-width="3" stroke-linecap="round"></line>
                <line x1="45" y1="7.84373903" x2="0" y2="8.10747008" id="Line-Copy" stroke="#4E4E4F" stroke-width="3" stroke-linecap="round"></line>
                <line x1="5.73973586" y1="22.5" x2="6.32306919" y2="1.91666667" id="Line-4-Copy-3" stroke="#F3AA2B" stroke-width="3" stroke-linecap="round" transform="translate(6.323069, 12.000000) rotate(-1.623333) translate(-6.323069, -12.000000) "></line>
                <line x1="27.7397359" y1="22.5" x2="28.3230692" y2="1.91666667" id="Line-4-Copy-7" stroke="#F3AA2B" stroke-width="3" stroke-linecap="round" transform="translate(28.323069, 12.000000) rotate(-1.623333) translate(-28.323069, -12.000000) "></line>
                <line x1="16.7397359" y1="22.5" x2="17.3230692" y2="1.91666667" id="Line-4-Copy-5" stroke="#F3AA2B" stroke-width="3" stroke-linecap="round" transform="translate(17.323069, 12.000000) rotate(-1.623333) translate(-17.323069, -12.000000) "></line>
                <line x1="38.7397359" y1="22.5" x2="39.3230692" y2="1.91666667" id="Line-4-Copy-8" stroke="#F3AA2B" stroke-width="3" stroke-linecap="round" transform="translate(39.323069, 12.000000) rotate(-1.623333) translate(-39.323069, -12.000000) "></line>
                <line x1="6.23973586" y1="21.9166667" x2="5.82306919" y2="28.5" id="Line-4-Copy-4" stroke="#F3AA2B" stroke-width="3" transform="translate(6.239736, 25.000000) rotate(-3.621485) translate(-6.239736, -25.000000) "></line>
                <line x1="28.2397359" y1="21.9166667" x2="27.8230692" y2="28.5" id="Line-4-Copy-9" stroke="#F3AA2B" stroke-width="3" transform="translate(28.239736, 25.000000) rotate(-3.621485) translate(-28.239736, -25.000000) "></line>
                <line x1="17.2397359" y1="21.9166667" x2="16.8230692" y2="28.5" id="Line-4-Copy-6" stroke="#F3AA2B" stroke-width="3" transform="translate(17.239736, 25.000000) rotate(-3.621485) translate(-17.239736, -25.000000) "></line>
                <line x1="39.2397359" y1="21.9166667" x2="38.8230692" y2="28.5" id="Line-4-Copy-10" stroke="#F3AA2B" stroke-width="3" transform="translate(39.239736, 25.000000) rotate(-3.621485) translate(-39.239736, -25.000000) "></line>
                <circle id="Oval" fill="#4E4E4F" cx="38.9890737" cy="7.97608601" r="1"></circle>
                <circle id="Oval-Copy" fill="#4E4E4F" cx="38.9890737" cy="19.976086" r="1"></circle>
                <circle id="Oval-Copy-2" fill="#4E4E4F" cx="27.9890737" cy="19.976086" r="1"></circle>
                <circle id="Oval-Copy-3" fill="#4E4E4F" cx="16.9890737" cy="19.976086" r="1"></circle>
                <circle id="Oval-Copy-4" fill="#4E4E4F" cx="5.98907373" cy="19.976086" r="1"></circle>
                <circle id="Oval-Copy-5" fill="#4E4E4F" cx="5.98907373" cy="7.97608601" r="1"></circle>
                <circle id="Oval-Copy-6" fill="#4E4E4F" cx="16.9890737" cy="7.97608601" r="1"></circle>
                <circle id="Oval-Copy-7" fill="#4E4E4F" cx="27.9890737" cy="7.97608601" r="1"></circle>
            </g>
        </g>
    </g>
</svg>